<?xml version="1.0" encoding="UTF-8" standalone="no"?>
<!-- Created with Inkscape (http://www.inkscape.org/) -->

<svg
   xmlns:dc="http://purl.org/dc/elements/1.1/"
   xmlns:cc="http://creativecommons.org/ns#"
   xmlns:rdf="http://www.w3.org/1999/02/22-rdf-syntax-ns#"
   xmlns:svg="http://www.w3.org/2000/svg"
   xmlns="http://www.w3.org/2000/svg"
   xmlns:sodipodi="http://sodipodi.sourceforge.net/DTD/sodipodi-0.dtd"
   xmlns:inkscape="http://www.inkscape.org/namespaces/inkscape"
   width="49.538177mm"
   height="60mm"
   viewBox="0 0 175.52897 212.59842"
   id="svg6331"
   version="1.1"
   inkscape:version="0.91 r"
   sodipodi:docname="Bernard-Stiegler.svg">
  <defs
     id="defs6333" />
  <sodipodi:namedview
     id="base"
     pagecolor="#ffffff"
     bordercolor="#666666"
     borderopacity="1.0"
     inkscape:pageopacity="0.0"
     inkscape:pageshadow="2"
     inkscape:zoom="1.4"
     inkscape:cx="-57.369228"
     inkscape:cy="53.38153"
     inkscape:document-units="mm"
     inkscape:current-layer="g8505"
     showgrid="false"
     fit-margin-top="5"
     fit-margin-left="5"
     fit-margin-right="5"
     fit-margin-bottom="5" />
  <metadata
     id="metadata6336">
    <rdf:RDF>
      <cc:Work
         rdf:about="">
        <dc:format>image/svg+xml</dc:format>
        <dc:type
           rdf:resource="http://purl.org/dc/dcmitype/StillImage" />
        <dc:title></dc:title>
      </cc:Work>
    </rdf:RDF>
  </metadata>
  <g
     inkscape:label="Calque 1"
     inkscape:groupmode="layer"
     id="layer1"
     transform="translate(-303.27369,-342.94333)">
    <g
       style="display:inline;fill:none;fill-opacity:0.99607843;stroke:#23783f;stroke-width:0.66123366;stroke-opacity:0.99607843"
       id="g8505"
       transform="matrix(1.4090138,0,0,1.4081776,170.315,-114.39829)">
      <path
         transform="translate(-3.9011362e-6,5.3185047e-6)"
         style="display:inline;fill:none;fill-opacity:0.99607843;fill-rule:evenodd;stroke:#23783f;stroke-width:1.25774459;stroke-linecap:round;stroke-linejoin:round;stroke-opacity:0.99607843;stroke-miterlimit:4;stroke-dasharray:none"
         d="m 143.06285,385.15645 c 0.94399,-1.57378 1.66867,-3.2789 2.14658,-5.05077 0.72694,-2.69517 0.8812,-5.52153 1.6415,-8.20748 0.73365,-2.59181 2.02614,-5.03472 2.39911,-7.70242 0.24277,-1.73646 0.0851,-3.50019 -0.023,-5.2502 -0.10816,-1.75001 -0.16339,-3.53262 0.27558,-5.23013 0.56023,-2.1664 1.90478,-4.07154 3.54659,-5.59194 1.6418,-1.5204 3.5769,-2.6868 5.54478,-3.75197 1.7312,-0.93706 3.51848,-1.81165 5.43234,-2.27236 1.91386,-0.46072 3.97995,-0.48422 5.80561,0.25205 1.2655,0.51037 2.36035,1.35739 3.46805,2.15423 1.10771,0.79685 2.27634,1.56715 3.60301,1.88638 1.33736,0.3218 2.73766,0.16248 4.10368,10e-4 1.36603,-0.16142 2.76612,-0.32147 4.10381,-10e-4 1.27141,0.30453 2.41637,1.03513 3.3381,1.9623 0.92173,0.92718 1.63191,2.04597 2.21774,3.21474 2.06237,4.11457 2.61075,8.80119 3.03046,13.38452 0.19215,2.09825 0.36312,4.22444 0.0165,6.30277 -0.12822,0.76881 -0.32748,1.53604 -0.29161,2.31465 0.0179,0.3893 0.0964,0.77928 0.26489,1.13068 0.16852,0.35139 0.43069,0.66299 0.76782,0.8585 0.27969,0.1622 0.60483,0.24094 0.92814,0.24028 0.32332,-6.6e-4 0.64455,-0.0793 0.93858,-0.21372 0.58807,-0.26893 1.05639,-0.75201 1.41627,-1.28925 0.89036,-1.32918 1.16476,-2.98859 1.12089,-4.58781 -0.0439,-1.59923 -0.38137,-3.17354 -0.61581,-4.7561 -0.20449,-1.38036 -0.33103,-2.77227 -0.37881,-4.16688 -0.3707,-5.75876 -2.83006,-11.36062 -6.81853,-15.5311 -3.43909,-3.59603 -7.99515,-6.12106 -12.87944,-7.07107 -5.29797,-1.03047 -10.78303,-0.22873 -16.03618,1.01016 -5.40983,1.27584 -10.95214,3.16107 -14.77348,7.19733 -3.32854,3.51575 -4.98111,8.28622 -6.06091,13.00572 -0.66476,2.90548 -1.14912,5.86044 -1.26269,8.83883 -0.0594,1.55786 -0.0172,3.11958 0.12627,4.67196"
         id="path8507"
         inkscape:connector-curvature="0" />
      <path
         transform="matrix(1.0810469,0,0,1.0620321,-16.044704,-27.996026)"
         style="display:inline;opacity:1;fill:none;fill-opacity:0.99607843;stroke:#23783f;stroke-width:1.17381963;stroke-linecap:round;stroke-linejoin:round;stroke-miterlimit:4;stroke-dasharray:none;stroke-dashoffset:12.75590515;stroke-opacity:0.99607843"
         d="m 171.47321,385.46487 a 6.8303571,5.46875 0 0 1 -6.83036,5.46875 6.8303571,5.46875 0 0 1 -6.83035,-5.46875 6.8303571,5.46875 0 0 1 6.83035,-5.46875 6.8303571,5.46875 0 0 1 6.83036,5.46875 z"
         id="path8509"
         inkscape:connector-curvature="0" />
      <path
         transform="matrix(1.0810469,0,0,1.0620321,6.4106561,-27.058526)"
         style="display:inline;opacity:1;fill:none;fill-opacity:0.99607843;stroke:#23783f;stroke-width:1.17381963;stroke-linecap:round;stroke-linejoin:round;stroke-miterlimit:4;stroke-dasharray:none;stroke-dashoffset:12.75590515;stroke-opacity:0.99607843"
         d="m 171.47321,385.46487 a 6.8303571,5.46875 0 0 1 -6.83036,5.46875 6.8303571,5.46875 0 0 1 -6.83035,-5.46875 6.8303571,5.46875 0 0 1 6.83035,-5.46875 6.8303571,5.46875 0 0 1 6.83036,5.46875 z"
         id="path8511"
         inkscape:connector-curvature="0" />
      <path
         transform="translate(-3.9011362e-6,5.3185047e-6)"
         style="display:inline;fill:none;fill-opacity:0.99607843;fill-rule:evenodd;stroke:#23783f;stroke-width:1.25774459;stroke-linecap:round;stroke-linejoin:round;stroke-opacity:0.99607843;stroke-miterlimit:4;stroke-dasharray:none"
         d="m 141.74107,371.87113 c 2.45461,2.8332 5.5214,5.1333 8.92857,6.69643 0.92734,0.42544 1.89082,0.80002 2.90179,0.9375 0.57682,0.0784 1.16425,0.0784 1.74107,0"
         id="path8513"
         inkscape:connector-curvature="0" />
      <path
         transform="translate(-3.9011362e-6,5.3185047e-6)"
         style="display:inline;fill:none;fill-opacity:0.99607843;fill-rule:evenodd;stroke:#23783f;stroke-width:1.25774459;stroke-linecap:round;stroke-linejoin:round;stroke-opacity:0.99607843;stroke-miterlimit:4;stroke-dasharray:none"
         d="m 169.77679,379.99613 c 1.15911,-0.55554 2.47026,-0.78967 3.75,-0.66964 1.1936,0.11195 2.35714,0.53083 3.34821,1.20536"
         id="path8515"
         inkscape:connector-curvature="0" />
      <path
         transform="translate(-3.9011362e-6,5.3185047e-6)"
         style="display:inline;fill:none;fill-opacity:0.99607843;fill-rule:evenodd;stroke:#23783f;stroke-width:1.25774459;stroke-linecap:round;stroke-linejoin:round;stroke-opacity:0.99607843;stroke-miterlimit:4;stroke-dasharray:none"
         d="m 192.09821,381.33542 c 0.78125,-0.0537 1.55356,-0.23542 2.27679,-0.53572 0.33907,-0.14079 0.66864,-0.3088 0.96476,-0.52584 0.29611,-0.21705 0.55705,-0.48416 0.75423,-0.79385 0.19719,-0.30969 0.32797,-0.65975 0.39588,-1.02055 0.0679,-0.3608 0.0726,-0.73012 0.0726,-1.09726 l 0,-0.26785 0.13393,0 0,0"
         id="path8517"
         inkscape:connector-curvature="0" />
      <path
         transform="translate(-3.9011362e-6,5.3185047e-6)"
         style="display:inline;fill:none;fill-opacity:0.99607843;fill-rule:evenodd;stroke:#23783f;stroke-width:1.25774459;stroke-linecap:round;stroke-linejoin:round;stroke-opacity:0.99607843;stroke-miterlimit:4;stroke-dasharray:none"
         d="m 154.24107,375.53185 c 1.31594,-0.69442 2.73519,-1.19267 4.19643,-1.47322 1.55123,-0.29783 3.18246,-0.34553 4.6875,0.13393 0.73155,0.23305 1.41872,0.58533 2.13303,0.86682 0.71431,0.28149 1.47709,0.49436 2.24197,0.42782 0.97253,-0.0846 1.84229,-0.60614 2.72321,-1.02678 0.21174,-0.1011 0.42773,-0.19798 0.61631,-0.3376 0.18857,-0.13962 0.35048,-0.32843 0.41048,-0.55526 0.0638,-0.24106 0.004,-0.50577 -0.1339,-0.71351 -0.13791,-0.20774 -0.34816,-0.36111 -0.57797,-0.45785 -0.45963,-0.19349 -0.97694,-0.16749 -1.47563,-0.16793 -1.90278,-0.002 -3.77643,-0.43442 -5.66964,-0.625 -1.05289,-0.10599 -2.11547,-0.13694 -3.16965,-0.0446 -0.87029,0.0762 -1.74059,0.23872 -2.54464,0.58036 -0.87938,0.37365 -1.66722,0.96066 -2.27679,1.69643"
         id="path8519"
         inkscape:connector-curvature="0" />
      <path
         transform="translate(-3.9011362e-6,5.3185047e-6)"
         style="display:inline;fill:none;fill-opacity:0.99607843;fill-rule:evenodd;stroke:#23783f;stroke-width:1.25774459;stroke-linecap:round;stroke-linejoin:round;stroke-opacity:0.99607843;stroke-miterlimit:4;stroke-dasharray:none"
         d="m 191.47321,375.66577 0,-0.40178 c 0,-0.28614 -0.0116,-0.58057 -0.12899,-0.84151 -0.11742,-0.26094 -0.33852,-0.47369 -0.60519,-0.57744 -0.26666,-0.10375 -0.56471,-0.10013 -0.84554,-0.0453 -0.28084,0.0548 -0.55074,0.15649 -0.83099,0.21425 -0.54318,0.11195 -1.1084,0.0513 -1.64993,-0.0684 -0.54153,-0.11968 -1.06874,-0.29739 -1.609,-0.42268 -1.90555,-0.4419 -3.8921,-0.21832 -5.84821,-0.22322 -0.57678,-10e-4 -1.15864,-0.0226 -1.72537,0.0846 -0.56673,0.10722 -1.12804,0.3583 -1.48892,0.80824 -0.36497,0.45505 -0.48602,1.09486 -0.3125,1.65179 1.05374,0.43325 2.21445,0.60349 3.34822,0.49107 1.626,-0.16122 3.15335,-0.88613 4.77678,-1.07143 1.56669,-0.17883 3.15244,0.1547 4.64286,0.66964 0.17575,0.0607 0.35062,0.12398 0.52455,0.18974"
         id="path8521"
         inkscape:connector-curvature="0" />
      <path
         transform="matrix(1.1643836,0,0,1.0833333,-27.005874,-31.692386)"
         style="display:inline;opacity:1;fill:#23773f;fill-opacity:1;stroke:none;stroke-width:1;stroke-linecap:round;stroke-linejoin:round;stroke-miterlimit:4;stroke-dasharray:none;stroke-dashoffset:12.75590515;stroke-opacity:0.99607843"
         d="m 164.28571,378.70148 a 1.6294643,1.6071428 0 0 1 -1.62946,1.60714 1.6294643,1.6071428 0 0 1 -1.62946,-1.60714 1.6294643,1.6071428 0 0 1 1.62946,-1.60715 1.6294643,1.6071428 0 0 1 1.62946,1.60715 z"
         id="path8523"
         inkscape:connector-curvature="0" />
      <path
         transform="matrix(1.2307692,0,0,1.2121212,-42.949874,-80.936676)"
         style="display:inline;opacity:1;fill:#23773f;fill-opacity:1;stroke:none;stroke-width:1;stroke-linecap:round;stroke-linejoin:round;stroke-miterlimit:4;stroke-dasharray:none;stroke-dashoffset:12.75590515;stroke-opacity:0.99607843"
         d="m 186.11607,380.08542 a 1.4508928,1.4732143 0 0 1 -1.45089,1.47321 1.4508928,1.4732143 0 0 1 -1.4509,-1.47321 1.4508928,1.4732143 0 0 1 1.4509,-1.47322 1.4508928,1.4732143 0 0 1 1.45089,1.47322 z"
         id="path8525"
         inkscape:connector-curvature="0" />
      <path
         transform="translate(-3.9011362e-6,5.3185047e-6)"
         style="display:inline;fill:none;fill-opacity:0.99607843;fill-rule:evenodd;stroke:#23783f;stroke-width:1.25774459;stroke-linecap:round;stroke-linejoin:round;stroke-opacity:0.99607843;stroke-miterlimit:4;stroke-dasharray:none"
         d="m 166.74107,387.9872 c -1.93883,1.95493 -3.5978,4.187 -4.91071,6.60715 -0.60426,1.11387 -1.13869,2.27222 -1.875,3.30357 -0.27934,0.39127 -0.58652,0.76243 -0.85632,1.16034 -0.2698,0.39791 -0.5038,0.82775 -0.6169,1.29501 -0.15982,0.66031 -0.0786,1.35197 -0.0118,2.02806 0.0668,0.67609 0.10111,1.35506 0.10111,2.03444 l 0,0.0446 -0.0446,0.3125"
         id="path8527"
         inkscape:connector-curvature="0" />
      <path
         transform="translate(-3.9011362e-6,5.3185047e-6)"
         style="display:inline;fill:none;fill-opacity:0.99607843;fill-rule:evenodd;stroke:#23783f;stroke-width:1.25774459;stroke-linecap:round;stroke-linejoin:round;stroke-opacity:0.99607843;stroke-miterlimit:4;stroke-dasharray:none"
         d="m 179.28571,389.95149 c 0.29472,1.58329 0.82302,3.1229 1.5625,4.55357 0.66094,1.27871 1.49298,2.47921 1.96429,3.83929 0.46439,1.3401 0.5581,2.77832 0.58036,4.19642 0.0189,1.20591 -0.0109,2.41258 -0.0893,3.61608"
         id="path8529"
         inkscape:connector-curvature="0" />
      <path
         transform="translate(-3.9011362e-6,5.3185047e-6)"
         style="display:inline;fill:none;fill-opacity:0.99607843;fill-rule:evenodd;stroke:#23783f;stroke-width:1.25774459;stroke-linecap:round;stroke-linejoin:round;stroke-opacity:0.99607843;stroke-miterlimit:4;stroke-dasharray:none"
         d="m 166.96429,393.88006 c -0.1903,-0.19441 -0.28957,-0.47446 -0.26418,-0.74533 0.0254,-0.27086 0.17498,-0.52759 0.3981,-0.68324 0.20452,-0.14268 0.46231,-0.19896 0.71102,-0.1809 0.24871,0.0181 0.48876,0.1069 0.70446,0.23204 0.43138,0.25028 0.76326,0.63676 1.12917,0.97564 0.657,0.60846 1.45232,1.07897 2.32143,1.29465 0.70674,0.17538 1.45636,0.17929 2.16298,0.003 0.70663,-0.17583 1.36866,-0.53182 1.89952,-1.03025 0.19277,-0.18099 0.36881,-0.38059 0.57613,-0.5447 0.20733,-0.16412 0.45428,-0.29348 0.71851,-0.30351 0.24422,-0.009 0.49094,0.0895 0.65993,0.26607 0.16899,0.17655 0.25697,0.42822 0.23293,0.67143 -0.0141,0.14284 -0.0655,0.28184 -0.14771,0.39951 -0.0822,0.11767 -0.19503,0.21374 -0.3243,0.27615 -0.12926,0.0624 -0.27467,0.091 -0.41794,0.0822 -0.14327,-0.009 -0.28407,-0.055 -0.4047,-0.13283"
         id="path8531"
         inkscape:connector-curvature="0" />
      <path
         transform="translate(-3.9011362e-6,5.3185047e-6)"
         style="display:inline;fill:none;fill-opacity:0.99607843;fill-rule:evenodd;stroke:#23783f;stroke-width:1.25774459;stroke-linecap:round;stroke-linejoin:round;stroke-opacity:0.99607843;stroke-miterlimit:4;stroke-dasharray:none"
         d="m 162.32143,404.10327 c 1.80936,-0.82966 3.7167,-1.44541 5.66964,-1.83035 0.57406,-0.11315 1.16778,-0.20631 1.74107,-0.0893 0.32232,0.0658 0.6272,0.19603 0.933,0.31728 0.3058,0.12125 0.61927,0.23527 0.9468,0.26591 0.49055,0.0459 0.97729,-0.0975 1.46842,-0.13676 0.91099,-0.0728 1.8081,0.21272 2.67857,0.49107 0.95838,0.30646 1.91893,0.60872 2.85752,0.97131 1.10766,0.42791 2.18301,0.9394 3.21391,1.52869 -0.48272,0.20052 -0.97445,0.37933 -1.47322,0.53572 -2.33213,0.73125 -4.79039,0.96461 -7.23214,1.07142 -1.45707,0.0637 -2.92997,0.0827 -4.35912,-0.20823 -0.87943,-0.17905 -1.73195,-0.47369 -2.56052,-0.81855 -1.36082,-0.56639 -2.66426,-1.27054 -3.88393,-2.09821 z"
         id="path8533"
         inkscape:connector-curvature="0" />
      <path
         transform="translate(-3.9011362e-6,5.3185047e-6)"
         style="display:inline;fill:none;fill-opacity:0.99607843;fill-rule:evenodd;stroke:#23783f;stroke-width:1.25774459;stroke-linecap:round;stroke-linejoin:round;stroke-opacity:0.99607843;stroke-miterlimit:4;stroke-dasharray:none"
         d="m 164.8127,404.41248 c 1.53982,0.32576 3.10564,0.52855 4.67764,0.60578 1.91117,0.0939 3.82687,0.002 5.73956,0.0571 1.22426,0.035 2.4468,0.12982 3.6618,0.28411"
         id="path8535"
         inkscape:connector-curvature="0" />
      <path
         transform="translate(-3.9011362e-6,5.3185047e-6)"
         style="display:inline;fill:none;fill-opacity:0.99607843;fill-rule:evenodd;stroke:#23783f;stroke-width:1.25774459;stroke-linecap:round;stroke-linejoin:round;stroke-opacity:0.99607843;stroke-miterlimit:4;stroke-dasharray:none"
         d="m 158.70536,408.43363 c 0.0811,-0.93477 0.43395,-1.84437 1.00446,-2.58928 0.58844,-0.76833 1.40662,-1.35836 2.32143,-1.67411"
         id="path8537"
         inkscape:connector-curvature="0" />
      <path
         transform="translate(-3.9011362e-6,5.3185047e-6)"
         style="display:inline;fill:none;fill-opacity:0.99607843;fill-rule:evenodd;stroke:#23783f;stroke-width:1.25774459;stroke-linecap:round;stroke-linejoin:round;stroke-opacity:0.99607843;stroke-miterlimit:4;stroke-dasharray:none"
         d="m 140.2218,373.28715 c -0.78247,-0.3887 -1.67846,-0.54534 -2.5464,-0.4452 -0.86794,0.10015 -1.7047,0.45674 -2.37809,1.01342 -0.77639,0.64183 -1.32531,1.53727 -1.61915,2.5008 -0.29384,0.96353 -0.34027,1.99279 -0.21175,2.9919 0.31333,2.43581 1.62967,4.64646 2.0203,7.07107 0.11446,0.71048 0.14791,1.43133 0.23136,2.14611 0.0834,0.71479 0.21987,1.43274 0.52625,2.0839 0.33841,0.71922 0.8715,1.32975 1.44748,1.87751 0.57599,0.54776 1.20082,1.04253 1.77239,1.59489 0.33736,0.32602 0.65666,0.67253 1.02271,0.96599 0.36604,0.29346 0.78736,0.53521 1.25013,0.61237 0.62026,0.10342 1.28535,-0.1148 1.72378,-0.56558 0.43843,-0.45078 0.63809,-1.12168 0.51748,-1.73883"
         id="path8539"
         inkscape:connector-curvature="0" />
      <path
         transform="translate(-3.9011362e-6,5.3185047e-6)"
         style="display:inline;fill:none;fill-opacity:0.99607843;fill-rule:evenodd;stroke:#23783f;stroke-width:1.25774459;stroke-linecap:round;stroke-linejoin:round;stroke-opacity:0.99607843;stroke-miterlimit:4;stroke-dasharray:none"
         d="m 139.77986,376.57015 c -0.17272,-0.56524 -0.5879,-1.0519 -1.11888,-1.31149 -0.53099,-0.25959 -1.17003,-0.28834 -1.72218,-0.0775 -0.38798,0.14817 -0.72913,0.40835 -0.99405,0.72819 -0.26493,0.31984 -0.45519,0.698 -0.57824,1.09466 -0.2461,0.79332 -0.22463,1.64482 -0.13234,2.4703 0.13989,1.25116 0.43761,2.48459 0.88389,3.6618"
         id="path8541"
         inkscape:connector-curvature="0" />
      <path
         transform="translate(-3.9011362e-6,5.3185047e-6)"
         style="display:inline;fill:none;fill-opacity:0.99607843;fill-rule:evenodd;stroke:#23783f;stroke-width:1.25774459;stroke-linecap:round;stroke-linejoin:round;stroke-opacity:0.99607843;stroke-miterlimit:4;stroke-dasharray:none"
         d="m 141.23195,381.87345 c -0.64064,0.9241 -0.85385,2.1323 -0.56821,3.21986 0.22368,0.85164 0.74485,1.62206 1.4521,2.14658"
         id="path8543"
         inkscape:connector-curvature="0" />
      <path
         transform="translate(-3.9011362e-6,5.3185047e-6)"
         style="display:inline;fill:none;fill-opacity:0.99607843;fill-rule:evenodd;stroke:#23783f;stroke-width:1.25774459;stroke-linecap:round;stroke-linejoin:round;stroke-opacity:0.99607843;stroke-miterlimit:4;stroke-dasharray:none"
         d="m 194.19643,382.89792 -1.875,8.66071 c -0.28665,1.84245 -0.55453,3.68781 -0.80357,5.53572 -0.3792,2.81366 -0.72416,5.6704 -1.78572,8.30357 -0.69702,1.72893 -1.68808,3.32195 -2.5,5 -0.8038,1.66128 -1.45378,3.44091 -2.67857,4.82143 -0.91881,1.03563 -2.11495,1.78865 -3.35538,2.40356 -1.24042,0.6149 -2.5391,1.10499 -3.78748,1.70358 -1.86312,0.89335 -3.66658,2.04533 -5.71428,2.32143 -1.43453,0.19342 -2.89575,-0.0618 -4.28453,-0.46991 -1.38878,-0.40812 -2.7284,-0.96797 -4.10833,-1.40509 -1.56136,-0.49459 -3.16858,-0.8303 -4.74033,-1.29081 -1.57175,-0.46051 -3.12662,-1.05622 -4.4561,-2.01276 -1.13888,-0.81941 -2.09198,-1.89549 -2.76785,-3.125"
         id="path8545"
         inkscape:connector-curvature="0" />
      <path
         transform="translate(-3.9011362e-6,5.3185047e-6)"
         style="display:inline;fill:none;fill-opacity:0.99607843;fill-rule:evenodd;stroke:#23783f;stroke-width:1.25774459;stroke-linecap:round;stroke-linejoin:round;stroke-opacity:0.99607843;stroke-miterlimit:4;stroke-dasharray:none"
         d="m 199.375,376.1122 c 0.0681,1.81867 -0.0217,3.64322 -0.26786,5.44643 -0.26009,1.90506 -0.69432,3.78432 -1.25,5.625 -0.62057,2.05562 -1.39351,4.06815 -1.875,6.16072 -0.1782,0.77447 -0.32278,1.57604 -0.73118,2.25779 -0.2042,0.34087 -0.4749,0.64688 -0.81136,0.85828 -0.33646,0.21139 -0.74144,0.32359 -1.13603,0.27679 -0.38177,-0.0453 -0.74356,-0.24155 -0.98967,-0.53689 -0.24611,-0.29534 -0.37392,-0.68659 -0.34961,-1.07026"
         id="path8547"
         inkscape:connector-curvature="0" />
      <path
         transform="translate(-3.9011362e-6,5.3185047e-6)"
         style="display:inline;fill:none;fill-opacity:0.99607843;fill-rule:evenodd;stroke:#23783f;stroke-width:1.25774459;stroke-linecap:round;stroke-linejoin:round;stroke-opacity:0.99607843;stroke-miterlimit:4;stroke-dasharray:none"
         d="m 154.42707,442.4826 c 1.81342,-2.80111 3.37884,-5.76271 4.67196,-8.83883 1.02474,-2.43768 1.90327,-4.99066 3.53553,-7.07107 1.08016,-1.37673 2.47192,-2.50753 4.04061,-3.28299"
         id="path8549"
         inkscape:connector-curvature="0" />
      <path
         transform="translate(-3.9011362e-6,5.3185047e-6)"
         style="display:inline;fill:none;fill-opacity:0.99607843;fill-rule:evenodd;stroke:#23783f;stroke-width:1.25774459;stroke-linecap:round;stroke-linejoin:round;stroke-opacity:0.99607843;stroke-miterlimit:4;stroke-dasharray:none"
         d="m 166.80144,437.55811 c 4.76717,-0.76904 9.2345,-3.27622 12.37437,-6.9448 1.73886,-2.03165 3.07668,-4.4052 3.91434,-6.9448"
         id="path8551"
         inkscape:connector-curvature="0" />
      <path
         transform="translate(-3.9011362e-6,5.3185047e-6)"
         style="display:inline;fill:none;fill-opacity:0.99607843;fill-rule:evenodd;stroke:#23783f;stroke-width:1.25774459;stroke-linecap:round;stroke-linejoin:round;stroke-opacity:0.99607843;stroke-miterlimit:4;stroke-dasharray:none"
         d="m 145.53571,402.00506 c -6.90472,2.81845 -13.17365,7.18213 -18.21428,12.67857 -4.13854,4.51278 -7.52023,9.82992 -12.5,13.39286 -1.6883,1.20795 -3.54446,2.20049 -5.05665,3.62273 -0.7561,0.71113 -1.42194,1.53064 -1.87458,2.46471 -0.45264,0.93407 -0.68496,1.98826 -0.56877,3.0197 0.0893,0.79257 0.38314,1.55857 0.8282,2.22043 0.44506,0.66187 1.0393,1.21993 1.71595,1.64218 1.35329,0.84449 3.0127,1.12956 4.59871,0.95882 1.182,-0.12725 2.32285,-0.49322 3.46667,-0.81726 1.14381,-0.32404 2.31745,-0.60997 3.50563,-0.57037 0.59408,0.0198 1.18813,0.12234 1.74289,0.33581 0.55476,0.21347 1.06972,0.54001 1.47485,0.97498 0.40513,0.43497 0.69732,0.98037 0.80185,1.56552 0.10454,0.58516 0.0156,1.20855 -0.27761,1.72561 -0.28847,0.50866 -0.76072,0.89719 -1.28586,1.15443 -0.52514,0.25724 -1.10285,0.39086 -1.68208,0.47113 -1.15845,0.16053 -2.3608,0.11961 -3.46063,0.51729 -1.40875,0.50938 -2.52541,1.75942 -2.87329,3.21648 -0.34788,1.45706 0.0836,3.07673 1.11032,4.16758 1.02668,1.09086 2.61725,1.61964 4.0927,1.36063 1.47546,-0.25902 2.79081,-1.29794 3.38456,-2.67326"
         id="path8553"
         inkscape:connector-curvature="0" />
      <path
         transform="translate(-3.9011362e-6,5.3185047e-6)"
         style="display:inline;fill:none;fill-opacity:0.99607843;fill-rule:evenodd;stroke:#23783f;stroke-width:1.25774459;stroke-linecap:round;stroke-linejoin:round;stroke-opacity:0.99607843;stroke-miterlimit:4;stroke-dasharray:none"
         d="m 145.08929,398.43363 c 1.30024,2.28491 2.26604,4.75978 2.85714,7.32143 0.80252,3.47792 0.91578,7.09771 1.875,10.53571 0.63261,2.26739 1.62851,4.43711 2.03609,6.75555 0.20378,1.15921 0.25641,2.35524 0.0358,3.51138 -0.22057,1.15614 -0.7253,2.27285 -1.53621,3.12593 -1.06678,1.12225 -2.56447,1.71048 -3.83928,2.58929 -2.20864,1.52257 -3.70208,3.89468 -4.73241,6.37151 -1.03033,2.47684 -1.65324,5.10081 -2.49974,7.64634 -0.83196,2.5018 -1.8828,4.93675 -2.5,7.5 -0.35926,1.492 -0.56898,3.01996 -0.625,4.55358"
         id="path8555"
         inkscape:connector-curvature="0" />
      <path
         transform="translate(-3.9011362e-6,5.3185047e-6)"
         style="display:inline;fill:none;fill-opacity:0.99607843;fill-rule:evenodd;stroke:#23783f;stroke-width:1.25774459;stroke-linecap:round;stroke-linejoin:round;stroke-opacity:0.99607843;stroke-miterlimit:4;stroke-dasharray:none"
         d="m 146.96429,462.80863 c -0.66248,-2.59639 -0.504,-5.39586 0.44728,-7.9009 0.95128,-2.50503 2.69096,-4.70405 4.90986,-6.20624 3.35015,-2.26804 7.56148,-2.86773 11.60714,-2.85714 3.80742,0.01 7.72718,0.48955 11.33929,-0.71429 2.70118,-0.90025 5.00512,-2.67328 7.41071,-4.19643 4.9687,-3.14603 10.64472,-5.32213 16.51786,-5.625 1.07351,-0.0554 2.15723,-0.0493 3.21006,-0.26617 1.05284,-0.21684 2.09517,-0.68451 2.77208,-1.51954 0.64903,-0.80062 0.90119,-1.87773 0.81495,-2.90476 -0.0862,-1.02704 -0.48829,-2.00787 -1.02652,-2.88681 -1.07646,-1.75789 -2.68188,-3.13655 -3.81661,-4.8574 -1.25915,-1.90955 -1.88905,-4.16539 -2.29297,-6.41676 -0.40392,-2.25138 -0.60083,-4.53906 -1.08956,-6.77356 -0.74809,-3.4203 -2.18376,-6.68874 -4.19643,-9.55357"
         id="path8557"
         inkscape:connector-curvature="0" />
      <path
         transform="translate(9.8863758e-8,3.3185045e-6)"
         style="display:inline;fill:none;fill-opacity:0.99607843;fill-rule:evenodd;stroke:#23783f;stroke-width:1.25774459;stroke-linecap:round;stroke-linejoin:round;stroke-opacity:0.99607843;stroke-miterlimit:4;stroke-dasharray:none"
         d="m 166.42263,381.36837 c -1.12318,1.47837 -2.71217,2.59738 -4.48255,3.15673 -1.15794,0.36585 -2.38994,0.49553 -3.59867,0.37881"
         id="path8559"
         inkscape:connector-curvature="0" />
      <path
         transform="translate(9.8863758e-8,3.3185045e-6)"
         style="display:inline;fill:none;fill-opacity:0.99607843;fill-rule:evenodd;stroke:#23783f;stroke-width:1.25774459;stroke-linecap:round;stroke-linejoin:round;stroke-opacity:0.99607843;stroke-miterlimit:4;stroke-dasharray:none"
         d="m 179.01786,382.54077 c 0.9454,1.1282 2.12291,2.06104 3.4375,2.72322 1.50276,0.75697 3.18343,1.15786 4.86607,1.16071"
         id="path8561"
         inkscape:connector-curvature="0" />
    </g>
  </g>
</svg>
