<?xml version="1.0" encoding="UTF-8" standalone="no"?>
<!-- Created with Inkscape (http://www.inkscape.org/) -->

<svg
   xmlns:dc="http://purl.org/dc/elements/1.1/"
   xmlns:cc="http://creativecommons.org/ns#"
   xmlns:rdf="http://www.w3.org/1999/02/22-rdf-syntax-ns#"
   xmlns:svg="http://www.w3.org/2000/svg"
   xmlns="http://www.w3.org/2000/svg"
   xmlns:sodipodi="http://sodipodi.sourceforge.net/DTD/sodipodi-0.dtd"
   xmlns:inkscape="http://www.inkscape.org/namespaces/inkscape"
   width="50.575665mm"
   height="60mm"
   viewBox="0 0 179.20509 212.59843"
   id="svg6331"
   version="1.1"
   inkscape:version="0.91 r"
   sodipodi:docname="Gaizka-Altuna.svg">
  <defs
     id="defs6333">
    <inkscape:path-effect
       is_visible="true"
       id="path-effect9099-9"
       effect="spiro" />
    <inkscape:path-effect
       is_visible="true"
       id="path-effect9103-9"
       effect="spiro" />
    <inkscape:path-effect
       is_visible="true"
       id="path-effect9107-4"
       effect="spiro" />
    <inkscape:path-effect
       is_visible="true"
       id="path-effect9111-1"
       effect="spiro" />
    <inkscape:path-effect
       is_visible="true"
       id="path-effect9115-6"
       effect="spiro" />
    <inkscape:path-effect
       is_visible="true"
       id="path-effect9119-3"
       effect="spiro" />
    <inkscape:path-effect
       is_visible="true"
       id="path-effect9123-5"
       effect="spiro" />
    <inkscape:path-effect
       is_visible="true"
       id="path-effect9127-0"
       effect="spiro" />
    <inkscape:path-effect
       is_visible="true"
       id="path-effect9131-0"
       effect="spiro" />
    <inkscape:path-effect
       is_visible="true"
       id="path-effect9135-1"
       effect="spiro" />
    <inkscape:path-effect
       is_visible="true"
       id="path-effect9139-3"
       effect="spiro" />
    <inkscape:path-effect
       is_visible="true"
       id="path-effect9143-8"
       effect="spiro" />
    <inkscape:path-effect
       is_visible="true"
       id="path-effect9147-6"
       effect="spiro" />
    <inkscape:path-effect
       is_visible="true"
       id="path-effect9151-4"
       effect="spiro" />
    <inkscape:path-effect
       is_visible="true"
       id="path-effect9155-3"
       effect="spiro" />
    <inkscape:path-effect
       is_visible="true"
       id="path-effect9159-2"
       effect="spiro" />
    <inkscape:path-effect
       is_visible="true"
       id="path-effect9163-5"
       effect="spiro" />
    <inkscape:path-effect
       is_visible="true"
       id="path-effect9167-8"
       effect="spiro" />
    <inkscape:path-effect
       is_visible="true"
       id="path-effect9171-2"
       effect="spiro" />
    <inkscape:path-effect
       is_visible="true"
       id="path-effect9175-0"
       effect="spiro" />
    <inkscape:path-effect
       is_visible="true"
       id="path-effect9179-3"
       effect="spiro" />
    <inkscape:path-effect
       is_visible="true"
       id="path-effect9183-2"
       effect="spiro" />
    <inkscape:path-effect
       is_visible="true"
       id="path-effect9187-9"
       effect="spiro" />
    <inkscape:path-effect
       is_visible="true"
       id="path-effect9195-7"
       effect="spiro" />
    <inkscape:path-effect
       is_visible="true"
       id="path-effect9199-8"
       effect="spiro" />
    <inkscape:path-effect
       is_visible="true"
       id="path-effect9203-1"
       effect="spiro" />
  </defs>
  <sodipodi:namedview
     id="base"
     pagecolor="#ffffff"
     bordercolor="#666666"
     borderopacity="1.0"
     inkscape:pageopacity="0.0"
     inkscape:pageshadow="2"
     inkscape:zoom="1.979899"
     inkscape:cx="-62.571783"
     inkscape:cy="100.44608"
     inkscape:document-units="mm"
     inkscape:current-layer="layer1"
     showgrid="false"
     fit-margin-top="5"
     fit-margin-left="5"
     fit-margin-right="5"
     fit-margin-bottom="5" />
  <metadata
     id="metadata6336">
    <rdf:RDF>
      <cc:Work
         rdf:about="">
        <dc:format>image/svg+xml</dc:format>
        <dc:type
           rdf:resource="http://purl.org/dc/dcmitype/StillImage" />
        <dc:title></dc:title>
      </cc:Work>
    </rdf:RDF>
  </metadata>
  <g
     inkscape:label="Calque 1"
     inkscape:groupmode="layer"
     id="layer1"
     transform="translate(-371.60517,-285.92271)">
    <g
       transform="matrix(1.4304688,0,0,1.4296568,154.53435,-567.36709)"
       style="display:inline;fill:none;fill-opacity:0.99607843;stroke:#23773f;stroke-width:0.63677067;stroke-opacity:0.99607843"
       id="g9009">
      <path
         style="fill:none;fill-opacity:0.99607843;fill-rule:evenodd;stroke:#23773f;stroke-width:1.23886428;stroke-linecap:round;stroke-linejoin:round;stroke-opacity:0.99607843;stroke-miterlimit:4;stroke-dasharray:none"
         d="m 164.59173,649.62699 5.55584,0.44194 c 0.49966,0.33543 1.1029,0.51417 1.70463,0.50508 0.63996,-0.01 1.25928,-0.22483 1.84424,-0.48454 0.58497,-0.25971 1.15027,-0.56689 1.75443,-0.77815 1.82516,-0.63822 3.82498,-0.35242 5.74524,-0.12627 1.007,0.1186 2.01707,0.21873 3.03046,0.25254 5.20587,0.1737 10.29654,-1.39763 15.46796,-2.02031 2.73558,-0.32939 5.50812,-0.3945 8.20749,-0.94702 1.07831,-0.22072 2.14148,-0.51863 3.22959,-0.6844 1.08812,-0.16578 2.2176,-0.19531 3.27327,0.11619 1.07683,0.31774 2.04484,0.9931 2.71478,1.89404"
         id="path9011"
         inkscape:connector-curvature="0" />
      <path
         style="fill:none;fill-opacity:0.99607843;fill-rule:evenodd;stroke:#23773f;stroke-width:1.23886428;stroke-linecap:round;stroke-linejoin:round;stroke-opacity:0.99607843;stroke-miterlimit:4;stroke-dasharray:none"
         d="m 173.74624,652.34177 c -0.34135,1.12484 -0.22939,2.38035 0.30559,3.42705 0.53498,1.0467 1.48698,1.87285 2.5986,2.25506 0.75178,0.25849 1.55825,0.31778 2.35312,0.30448 0.79487,-0.0133 1.5872,-0.0969 2.38197,-0.11507 0.60812,-0.0139 1.22517,0.01 1.81519,-0.13832 0.29501,-0.074 0.5814,-0.19153 0.82915,-0.36795 0.24774,-0.17641 0.45584,-0.41369 0.57552,-0.69329 0.12022,-0.28086 0.14799,-0.59453 0.12369,-0.89906 -0.0243,-0.30454 -0.0987,-0.60264 -0.17621,-0.89814 -0.0775,-0.2955 -0.15876,-0.59124 -0.19729,-0.89431 -0.0385,-0.30306 -0.033,-0.61629 0.0604,-0.90716 0.13863,-0.4316 0.46327,-0.78531 0.84155,-1.03512 0.37827,-0.24981 0.80989,-0.40585 1.24189,-0.54324 2.95222,-0.93888 6.08439,-1.10111 9.15451,-1.51523 5.39241,-0.72736 10.6519,-2.24513 16.03617,-3.03046 0.65094,-0.0949 1.30345,-0.17914 1.95717,-0.25254"
         id="path9013"
         inkscape:connector-curvature="0" />
      <path
         style="fill:none;fill-opacity:0.99607843;fill-rule:evenodd;stroke:#23773f;stroke-width:1.23886428;stroke-linecap:round;stroke-linejoin:round;stroke-opacity:0.99607843;stroke-miterlimit:4;stroke-dasharray:none"
         d="m 164.48396,650.64349 c 0.26485,1.1059 0.39995,2.24282 0.40165,3.37999 7.3e-4,0.48648 -0.0227,0.9754 0.0418,1.45759 0.0645,0.48219 0.2249,0.96577 0.54824,1.32925 0.37363,0.42001 0.95648,0.64397 1.51523,0.58222"
         id="path9015"
         inkscape:connector-curvature="0" />
      <path
         style="fill:none;fill-opacity:0.99607843;fill-rule:evenodd;stroke:#23773f;stroke-width:1.23886428;stroke-linecap:round;stroke-linejoin:round;stroke-opacity:0.99607843;stroke-miterlimit:4;stroke-dasharray:none"
         d="m 174.28644,629.24142 c -0.45562,2.8636 -1.28723,5.66716 -2.46674,8.31604 -0.69146,1.55284 -1.51381,3.09306 -1.70276,4.78236 -0.0702,0.62754 -0.0457,1.2848 0.22003,1.8576 0.30726,0.66219 0.89892,1.14004 1.46703,1.59847 0.56811,0.45843 1.15306,0.94893 1.43716,1.62139 0.2833,0.67057 0.22772,1.43747 0.0631,2.14657 -0.37855,1.63064 -1.29324,3.08994 -2.34724,4.39046 -1.054,1.30052 -2.25754,2.47264 -3.33487,3.7539 -0.48712,0.57933 -0.95348,1.18973 -1.24477,1.88834 -0.29129,0.69862 -0.39448,1.50107 -0.14419,2.2154 0.17701,0.5052 0.52158,0.94113 0.93528,1.28086 0.4137,0.33973 0.89522,0.58839 1.39097,0.79037 0.6911,0.28158 1.41724,0.47703 2.1563,0.58042"
         id="path9017"
         inkscape:connector-curvature="0" />
      <path
         style="fill:none;fill-opacity:0.99607843;fill-rule:evenodd;stroke:#23773f;stroke-width:1.23886428;stroke-linecap:round;stroke-linejoin:round;stroke-opacity:0.99607843;stroke-miterlimit:4;stroke-dasharray:none"
         d="m 170.84821,663.47826 c 0.54221,-0.11271 1.11346,-0.0826 1.64079,0.0866 0.47316,0.15179 0.90355,0.41007 1.35028,0.62766 0.54839,0.26711 1.13404,0.47626 1.74223,0.523 0.60819,0.0467 1.24308,-0.0798 1.73992,-0.4337 0.49675,-0.35381 0.82943,-0.92894 0.88844,-1.53595 0.059,-0.60701 -0.15664,-1.23546 -0.57594,-1.67833"
         id="path9019"
         inkscape:connector-curvature="0" />
      <path
         style="fill:none;fill-opacity:0.99607843;fill-rule:evenodd;stroke:#23773f;stroke-width:1.23886428;stroke-linecap:round;stroke-linejoin:round;stroke-opacity:0.99607843;stroke-miterlimit:4;stroke-dasharray:none"
         d="m 174.06191,644.38682 c 0.93546,-0.64562 2.02859,-1.061 3.15673,-1.19955 1.71962,-0.21119 3.44959,0.21302 5.11389,0.69448 2.11584,0.61209 4.23797,1.32848 6.43973,1.38896 0.30151,0.008 0.60384,0.004 0.90399,0.034 0.30014,0.0298 0.60071,0.095 0.86849,0.23378 0.26777,0.13883 0.50165,0.35672 0.62062,0.63389 0.0595,0.13859 0.0894,0.29044 0.0814,0.44104 -0.008,0.15059 -0.0547,0.29968 -0.13848,0.42505 -0.0965,0.14431 -0.23897,0.25349 -0.39373,0.33212 -0.15476,0.0786 -0.32232,0.12862 -0.49016,0.17296 -2.33879,0.61781 -4.80997,0.20063 -7.19734,-0.1894 -1.38006,-0.22546 -2.76852,-0.4414 -4.16687,-0.44195 -0.54616,-2.2e-4 -1.09287,0.0325 -1.63811,7.1e-4 -0.54524,-0.0317 -1.09541,-0.131 -1.58176,-0.37951 -0.55391,-0.28304 -1.007,-0.75878 -1.26269,-1.32583"
         id="path9021"
         inkscape:connector-curvature="0" />
      <path
         style="fill:none;fill-opacity:0.99607843;fill-rule:evenodd;stroke:#23773f;stroke-width:1.23886428;stroke-linecap:round;stroke-linejoin:round;stroke-opacity:0.99607843;stroke-miterlimit:4;stroke-dasharray:none"
         d="m 169.55357,644.23718 c -0.30608,0.21799 -0.52741,0.55193 -0.60892,0.91875 -0.0815,0.36682 -0.0225,0.76308 0.16249,1.09018 0.14935,0.26415 0.37583,0.48019 0.63332,0.64074 0.25749,0.16056 0.54558,0.26756 0.8399,0.3414 0.50902,0.12771 1.04225,0.15818 1.5625,0.0893"
         id="path9023"
         inkscape:connector-curvature="0" />
      <path
         transform="matrix(0.78699258,-0.30343105,0.25061356,0.9528534,-124.44377,85.813395)"
         style="opacity:1;fill:#23753f;fill-opacity:0.99607843;stroke:none;stroke-width:1;stroke-linecap:round;stroke-linejoin:round;stroke-miterlimit:4;stroke-dasharray:none;stroke-dashoffset:12.75590515;stroke-opacity:0.99607843"
         d="m 182.96388,651.26849 a 1.1995561,1.3889598 0 0 1 -1.19955,1.38896 1.1995561,1.3889598 0 0 1 -1.19956,-1.38896 1.1995561,1.3889598 0 0 1 1.19956,-1.38896 1.1995561,1.3889598 0 0 1 1.19955,1.38896 z"
         id="path9025"
         inkscape:connector-curvature="0" />
      <path
         style="fill:none;fill-opacity:0.99607843;fill-rule:evenodd;stroke:#23773f;stroke-width:1.23886428;stroke-linecap:round;stroke-linejoin:round;stroke-opacity:0.99607843;stroke-miterlimit:4;stroke-dasharray:none"
         d="m 171.01567,671.4084 c 0.21537,0.75277 0.81022,1.38637 1.54792,1.64876 0.50021,0.17791 1.04477,0.19022 1.57378,0.14538 0.52901,-0.0448 1.05239,-0.14464 1.58182,-0.18418 0.57123,-0.0427 1.1463,-0.0148 1.71471,0.0562 0.62145,0.0776 1.23645,0.2068 1.83661,0.38578 -0.30109,0.31753 -0.65454,0.5853 -1.04172,0.78919 -0.6556,0.34525 -1.39171,0.50187 -2.11918,0.64257 -0.72747,0.14069 -1.46535,0.27176 -2.14241,0.57276 -0.39728,0.17662 -0.775,0.41206 -1.20049,0.50144 -0.21274,0.0447 -0.43646,0.0509 -0.64588,-0.007 -0.20941,-0.0583 -0.40355,-0.18492 -0.52117,-0.36774 -0.0987,-0.15347 -0.13957,-0.3376 -0.15421,-0.5195 -0.0411,-0.51137 0.11887,-1.03625 0.43832,-1.43767"
         id="path9027"
         inkscape:connector-curvature="0" />
      <path
         style="fill:none;fill-opacity:0.99607843;fill-rule:evenodd;stroke:#23773f;stroke-width:1.23886428;stroke-linecap:round;stroke-linejoin:round;stroke-opacity:0.99607843;stroke-miterlimit:4;stroke-dasharray:none"
         d="m 214.08921,648.99564 c 1.43782,-1.38952 3.50403,-2.102 5.4927,-1.89403 1.99959,0.20911 3.89991,1.36375 4.92449,3.09359 0.65363,1.10355 0.94715,2.41149 0.8588,3.69104 -0.0883,1.27955 -0.55405,2.52659 -1.30074,3.56943 -0.80753,1.12781 -1.91942,2.00408 -2.77792,3.09359 -0.75575,0.95912 -1.30041,2.06417 -1.95717,3.0936 -0.6215,0.97416 -1.34511,1.88237 -2.14657,2.71478 -0.47096,0.48914 -0.97604,0.95758 -1.57263,1.28184 -0.5966,0.32425 -1.29762,0.4955 -1.96291,0.35966 -0.70381,-0.1437 -1.3102,-0.62204 -1.71418,-1.21602 -0.40399,-0.59397 -0.62232,-1.2966 -0.74806,-2.00384 -0.0668,-0.37552 -0.10897,-0.7554 -0.12627,-1.13642"
         id="path9029"
         inkscape:connector-curvature="0" />
      <path
         style="fill:none;fill-opacity:0.99607843;fill-rule:evenodd;stroke:#23773f;stroke-width:1.23886428;stroke-linecap:round;stroke-linejoin:round;stroke-opacity:0.99607843;stroke-miterlimit:4;stroke-dasharray:none"
         d="m 215.79384,654.67775 c -0.24406,-1.22295 0.0629,-2.54517 0.82075,-3.53553 0.37763,-0.49348 0.86282,-0.90662 1.41821,-1.18532 0.55539,-0.27871 1.18089,-0.42112 1.80165,-0.39305 0.6072,0.0275 1.20794,0.21948 1.71103,0.56059 0.50308,0.34111 0.9058,0.83162 1.13002,1.39658 0.18925,0.47686 0.2507,0.99898 0.21795,1.51097 -0.0327,0.51199 -0.15758,1.01496 -0.32947,1.49834 -0.34377,0.96678 -0.87281,1.85614 -1.27744,2.79907 -0.29842,0.69543 -0.5345,1.4299 -0.98159,2.04046 -0.22355,0.30528 -0.50021,0.57639 -0.83057,0.76086 -0.33036,0.18448 -0.71689,0.27856 -1.09203,0.22914 -0.30331,-0.04 -0.59356,-0.17392 -0.82075,-0.37881 l 0,0"
         id="path9031"
         inkscape:connector-curvature="0" />
      <path
         style="fill:none;fill-opacity:0.99607843;fill-rule:evenodd;stroke:#23773f;stroke-width:1.23886428;stroke-linecap:round;stroke-linejoin:round;stroke-opacity:0.99607843;stroke-miterlimit:4;stroke-dasharray:none"
         d="m 213.52099,655.18283 c 0.44539,0.40821 0.72811,0.98926 0.77445,1.59163 0.0463,0.60238 -0.14419,1.21983 -0.52191,1.69136 -0.32179,0.40171 -0.76683,0.69411 -1.07123,1.10916 -0.1522,0.20753 -0.26777,0.44818 -0.2932,0.70427 -0.0127,0.12805 -0.003,0.25885 0.035,0.38192 0.0375,0.12308 0.10282,0.23825 0.193,0.33004 0.15147,0.15418 0.36784,0.23562 0.58373,0.24592 0.21589,0.0103 0.43121,-0.0464 0.62725,-0.13737 0.39208,-0.18202 0.70661,-0.49362 1.06186,-0.7399 0.41528,-0.2879 0.88489,-0.48552 1.34567,-0.69295 0.46078,-0.20743 0.9222,-0.43042 1.30598,-0.75914 0.65105,-0.55765 1.03568,-1.416 1.01016,-2.27285 -0.0184,-0.61645 -0.24373,-1.22494 -0.63135,-1.70463"
         id="path9033"
         inkscape:connector-curvature="0" />
      <path
         style="fill:none;fill-opacity:0.99607843;fill-rule:evenodd;stroke:#23773f;stroke-width:1.23886428;stroke-linecap:round;stroke-linejoin:round;stroke-opacity:0.99607843;stroke-miterlimit:4;stroke-dasharray:none"
         d="m 222.86491,660.04419 c 0.25585,1.37911 0.25892,2.80472 0.009,4.18492 -0.17372,0.95939 -0.46975,1.9141 -0.40813,2.88715 0.0308,0.48652 0.155,0.97361 0.41198,1.38787 0.25699,0.41426 0.65425,0.75095 1.12325,0.88397 0.33933,0.0962 0.70514,0.0838 1.04484,-0.0112 0.33971,-0.0949 0.65402,-0.27007 0.93036,-0.48926 0.55268,-0.43839 0.94791,-1.04076 1.32048,-1.63979 1.40598,-2.2606 2.6322,-4.63533 3.61848,-7.10805 1.34854,-3.38093 2.24634,-6.94921 2.55602,-10.57597 0.33366,-3.90766 -0.0144,-7.83811 -0.37881,-11.74302 -0.2446,-2.62104 -0.4974,-5.24667 -1.01015,-7.82868 -0.82978,-4.17848 -2.42214,-8.347 -5.42957,-11.36422 -1.78226,-1.78806 -3.99454,-3.10248 -6.31541,-4.09604 -2.32088,-0.99356 -4.75953,-1.68014 -7.19538,-2.34368 -6.71969,-1.83049 -13.77977,-3.5158 -20.58186,-2.0203 -3.72401,0.81876 -7.17062,2.55456 -10.73287,3.91434 -2.05683,0.78513 -4.18069,1.4571 -6.0492,2.62141 -0.93426,0.58216 -1.79939,1.28753 -2.49436,2.14121 -0.69497,0.85367 -1.21622,1.86029 -1.4317,2.93979 -0.35837,1.79533 0.18507,3.74537 1.4121,5.10405 1.31722,1.45853 3.30314,2.18178 5.26364,2.31901 1.96049,0.13723 3.91811,-0.25614 5.82522,-0.7308 4.04048,-1.00564 8.09197,-2.39836 12.2481,-2.14657 1.44836,0.0878 2.91828,0.39045 4.14834,1.16012 0.61503,0.38484 1.16247,0.88461 1.56974,1.48502 0.40728,0.6004 0.67126,1.30305 0.72164,2.02681 0.0524,0.75307 -0.12501,1.50773 -0.40597,2.20838 -0.28096,0.70066 -0.66365,1.35511 -1.0406,2.00915 -0.37694,0.65404 -0.75126,1.31419 -1.01359,2.02204 -0.26233,0.70784 -0.40993,1.47122 -0.31776,2.22046 0.0741,0.60233 0.30122,1.17902 0.60744,1.70297 0.30622,0.52395 0.69057,0.99824 1.0963,1.44955 0.81144,0.90263 1.72382,1.73458 2.33687,2.78213 0.61202,1.04578 0.89382,2.26309 0.93688,3.47403 0.043,1.21094 -0.14433,2.42004 -0.42078,3.59979 -0.55291,2.35949 -1.46626,4.65207 -1.65252,7.06831 -0.24822,3.22003 0.8132,6.45935 0.37881,9.65958 -0.19669,1.44904 -0.7095,2.86852 -1.58237,4.04177 -0.87287,1.17324 -2.11752,2.08827 -3.53152,2.46109 -1.26524,0.33359 -2.60487,0.22949 -3.89545,0.0138 -1.29057,-0.2157 -2.56581,-0.54071 -3.87011,-0.64512 -0.90441,-0.0724 -1.81609,-0.038 -2.71764,-0.14001 -0.90156,-0.10199 -1.81552,-0.35492 -2.51935,-0.92748 -0.67233,-0.54693 -1.09512,-1.33388 -1.51548,-2.09181 -0.42036,-0.75794 -0.87793,-1.533 -1.59026,-2.02671 -0.69709,-0.48314 -1.56435,-0.6442 -2.40774,-0.73401 -0.84338,-0.0898 -1.70405,-0.12254 -2.50778,-0.39344 -1.23796,-0.41726 -2.24521,-1.36778 -3.49089,-1.76142 -0.89386,-0.28246 -1.88233,-0.25549 -2.75945,0.0753 -0.44235,0.0927 -0.85248,0.33293 -1.14979,0.67334 -0.29731,0.34042 -0.48011,0.77914 -0.51248,1.22995 -0.0366,0.51031 0.12141,1.03221 0.43502,1.43644 0.31361,0.40423 0.77986,0.68703 1.28326,0.77836 2.48199,-0.57445 5.15135,-0.30526 7.46867,0.75319 0.69965,0.31957 1.37067,0.71085 1.95722,1.20845 0.58655,0.49759 1.08767,1.10457 1.41397,1.80111 0.48351,1.03214 0.5621,2.23538 0.28491,3.34094 -0.27719,1.10556 -0.89847,2.11229 -1.71348,2.90906 -0.64721,0.63272 -1.42306,1.14181 -2.28054,1.43151 -0.85749,0.2897 -1.79767,0.3542 -2.67482,0.13099 -0.58509,-0.14889 -1.13142,-0.42026 -1.70638,-0.60444 -0.28748,-0.0921 -0.5835,-0.1625 -0.8847,-0.18261 -0.3012,-0.0201 -0.60845,0.0113 -0.89106,0.11741 -0.53413,0.20055 -0.94223,0.65447 -1.20536,1.16071 -0.45101,0.86771 -0.51983,1.90456 -0.29953,2.85735 0.2203,0.95279 0.71398,1.82658 1.3263,2.58908 1.12307,1.39851 2.72672,2.4765 4.50893,2.67857 1.09269,0.12389 2.1943,-0.0803 3.26794,-0.31821 1.07365,-0.23793 2.15036,-0.51198 3.24991,-0.53001 1.88068,-0.0308 3.69348,0.68894 5.36256,1.55615 2.38543,1.2394 4.60078,2.80562 6.56475,4.64117"
         id="path9035"
         inkscape:connector-curvature="0" />
      <path
         style="fill:none;fill-opacity:0.99607843;fill-rule:evenodd;stroke:#23773f;stroke-width:1.23886428;stroke-linecap:round;stroke-linejoin:round;stroke-opacity:0.99607843;stroke-miterlimit:4;stroke-dasharray:none"
         d="m 186.16071,688.25504 c 3.98716,-2.03653 8.07061,-3.88451 12.23215,-5.53572 1.24479,-0.49391 2.50731,-0.97567 3.62742,-1.7097 1.12011,-0.73404 2.10311,-1.75421 2.53329,-3.02244 0.0789,-0.23268 0.13871,-0.47184 0.17857,-0.71428"
         id="path9037"
         inkscape:connector-curvature="0" />
      <path
         style="fill:none;fill-opacity:0.99607843;fill-rule:evenodd;stroke:#23773f;stroke-width:1.23886428;stroke-linecap:round;stroke-linejoin:round;stroke-opacity:0.99607843;stroke-miterlimit:4;stroke-dasharray:none"
         d="m 189.46429,695.3979 c -1.83858,0.95132 -3.50885,2.2268 -4.91072,3.75 -1.2233,1.32918 -2.25982,2.88563 -2.67857,4.64285 -0.36291,1.52289 -0.24364,3.13534 0.17857,4.64286 0.57285,2.04537 1.67976,3.89853 2.41072,5.89286 1.01805,2.7776 1.26664,5.9468 0.0893,8.66071 -0.25227,0.58151 -0.56142,1.13653 -0.83002,1.71068 -0.2686,0.57415 -0.4874,1.17012 -0.68784,1.77146 l -0.17857,0.53572 0,0"
         id="path9039"
         inkscape:connector-curvature="0" />
      <path
         style="fill:none;fill-opacity:0.99607843;fill-rule:evenodd;stroke:#23773f;stroke-width:1.23886428;stroke-linecap:round;stroke-linejoin:round;stroke-opacity:0.99607843;stroke-miterlimit:4;stroke-dasharray:none"
         d="m 191.78571,698.61218 c -0.26344,3.45491 0.13267,6.95895 1.16072,10.26786 0.483,1.55459 1.10359,3.06579 1.5313,4.63649 0.4277,1.57071 0.6589,3.2307 0.3437,4.82779 -0.16132,0.81742 -0.46485,1.60658 -0.89286,2.32143"
         id="path9041"
         inkscape:connector-curvature="0" />
      <path
         style="fill:none;fill-opacity:0.99607843;fill-rule:evenodd;stroke:#23773f;stroke-width:1.23886428;stroke-linecap:round;stroke-linejoin:round;stroke-opacity:0.99607843;stroke-miterlimit:4;stroke-dasharray:none"
         d="m 225.80357,672.80861 c -0.45061,2.9707 -0.0759,6.06227 1.07143,8.83929 1.28513,3.11063 3.51493,5.79033 6.20536,7.8125 0.71309,0.53597 1.45899,1.02827 2.23214,1.47323"
         id="path9043"
         inkscape:connector-curvature="0" />
      <path
         style="fill:none;fill-opacity:0.99607843;fill-rule:evenodd;stroke:#23773f;stroke-width:1.23886428;stroke-linecap:round;stroke-linejoin:round;stroke-opacity:0.99607843;stroke-miterlimit:4;stroke-dasharray:none"
         d="m 231.875,685.57647 c 0.75837,-0.42156 1.65316,-0.59292 2.51363,-0.48138 0.86046,0.11154 1.68198,0.50539 2.3078,1.10638 0.85879,0.82472 1.32494,2.01495 1.367,3.20487 0.042,1.18992 -0.3193,2.37458 -0.92057,3.40227 -0.69642,1.19032 -1.70364,2.17771 -2.82383,2.98209 -1.12019,0.80439 -2.35508,1.43463 -3.60474,2.01791 -1.44858,0.67613 -2.92397,1.29344 -4.375,1.96429 -2.33435,1.07923 -4.60525,2.29708 -6.78572,3.66071 -3.25191,2.03369 -6.33761,4.40938 -9.91071,5.80357 -3.0128,1.17556 -6.3545,1.64764 -9.01786,3.48214 -1.49485,1.02964 -2.69284,2.44015 -3.70043,3.94994 -1.00759,1.5098 -1.8392,3.12822 -2.72814,4.71078 -1.77206,3.15477 -3.80313,6.23504 -4.73214,9.73214 -0.14843,0.55875 -0.2677,1.12526 -0.35715,1.69643"
         id="path9045"
         inkscape:connector-curvature="0" />
      <path
         style="fill:none;fill-opacity:0.99607843;fill-rule:evenodd;stroke:#23773f;stroke-width:1.23886428;stroke-linecap:round;stroke-linejoin:round;stroke-opacity:0.99607843;stroke-miterlimit:4;stroke-dasharray:none"
         d="m 212.58929,715.48718 c 3.64332,-2.51589 7.39823,-4.87016 11.25,-7.05357 4.97316,-2.81909 10.27964,-5.40226 15.98214,-5.80357 2.78418,-0.19593 5.58472,0.13672 8.36982,-0.0457 1.39255,-0.0912 2.78482,-0.31351 4.09875,-0.78373 1.31393,-0.47021 2.55037,-1.19642 3.51357,-2.20626 0.71586,-0.75053 1.28115,-1.67181 1.47713,-2.69032 0.098,-0.50925 0.10204,-1.03836 -0.008,-1.54525 -0.1096,-0.50688 -0.33427,-0.99082 -0.66601,-1.38943 -0.57433,-0.69009 -1.42964,-1.08706 -2.29242,-1.33546 -0.86277,-0.2484 -1.75861,-0.36993 -2.61829,-0.62882 -1.99282,-0.60012 -3.68722,-1.90084 -5.53572,-2.85714 -1.32492,-0.68543 -2.73959,-1.19712 -4.19642,-1.51786 l -0.35715,-0.53572"
         id="path9047"
         inkscape:connector-curvature="0" />
      <path
         style="fill:none;fill-opacity:0.99607843;fill-rule:evenodd;stroke:#23773f;stroke-width:1.23886428;stroke-linecap:round;stroke-linejoin:round;stroke-opacity:0.99607843;stroke-miterlimit:4;stroke-dasharray:none"
         d="m 180.35714,702.36218 -13.39285,5.17857"
         id="path9049"
         inkscape:connector-curvature="0" />
      <path
         style="fill:none;fill-opacity:0.99607843;fill-rule:evenodd;stroke:#23773f;stroke-width:1.23886428;stroke-linecap:round;stroke-linejoin:round;stroke-opacity:0.99607843;stroke-miterlimit:4;stroke-dasharray:none"
         d="m 257.14286,700.21932 7.14285,2.32143"
         id="path9051"
         inkscape:connector-curvature="0" />
      <path
         transform="translate(3.776005e-6,-4.2212391e-6)"
         style="fill:none;fill-opacity:0.99607843;fill-rule:evenodd;stroke:#23773f;stroke-width:1.23886428;stroke-linecap:round;stroke-linejoin:round;stroke-opacity:0.99607843;stroke-miterlimit:4;stroke-dasharray:none"
         d="m 174.72482,677.31145 c 0.30341,0.13927 0.55371,0.39085 0.69142,0.69497 0.13772,0.30413 0.16168,0.6582 0.0662,0.9781 -0.10921,0.36591 -0.36585,0.67454 -0.66915,0.90655 -0.3033,0.23201 -0.65311,0.39471 -1.00392,0.54554 -0.19661,0.0845 -0.39641,0.16651 -0.60694,0.20499 -0.21053,0.0385 -0.43488,0.0309 -0.62927,-0.0586 -0.16898,-0.0778 -0.30719,-0.2143 -0.40414,-0.37309 -0.0969,-0.15878 -0.15447,-0.33924 -0.18708,-0.52241 -0.0652,-0.36632 -0.0334,-0.74272 -0.0666,-1.11332 -0.0356,-0.39702 -0.14675,-0.78713 -0.32577,-1.14327 0.50885,-0.002 1.01766,-0.0125 1.52616,-0.0314 0.53682,-0.0199 1.07329,-0.0493 1.60909,-0.088 l 0,-2e-5 z"
         id="path9053"
         inkscape:connector-curvature="0" />
    </g>
  </g>
</svg>
