<?xml version="1.0" encoding="UTF-8" standalone="no"?>
<!-- Created with Inkscape (http://www.inkscape.org/) -->

<svg
   xmlns:dc="http://purl.org/dc/elements/1.1/"
   xmlns:cc="http://creativecommons.org/ns#"
   xmlns:rdf="http://www.w3.org/1999/02/22-rdf-syntax-ns#"
   xmlns:svg="http://www.w3.org/2000/svg"
   xmlns="http://www.w3.org/2000/svg"
   xmlns:sodipodi="http://sodipodi.sourceforge.net/DTD/sodipodi-0.dtd"
   xmlns:inkscape="http://www.inkscape.org/namespaces/inkscape"
   width="51.309471mm"
   height="60.175762mm"
   viewBox="0 0 181.80521 213.2212"
   id="svg6331"
   version="1.1"
   inkscape:version="0.91 r"
   sodipodi:docname="Gerrit-Rietveld.svg">
  <defs
     id="defs6333" />
  <sodipodi:namedview
     id="base"
     pagecolor="#ffffff"
     bordercolor="#666666"
     borderopacity="1.0"
     inkscape:pageopacity="0.0"
     inkscape:pageshadow="2"
     inkscape:zoom="0.98994949"
     inkscape:cx="-42.059658"
     inkscape:cy="49.606534"
     inkscape:document-units="mm"
     inkscape:current-layer="layer1"
     showgrid="false"
     fit-margin-top="5"
     fit-margin-left="5"
     fit-margin-right="5"
     fit-margin-bottom="5" />
  <metadata
     id="metadata6336">
    <rdf:RDF>
      <cc:Work
         rdf:about="">
        <dc:format>image/svg+xml</dc:format>
        <dc:type
           rdf:resource="http://purl.org/dc/dcmitype/StillImage" />
        <dc:title></dc:title>
      </cc:Work>
    </rdf:RDF>
  </metadata>
  <g
     inkscape:label="Calque 1"
     inkscape:groupmode="layer"
     id="layer1"
     transform="translate(-296.31293,-349.05133)">
    <g
       transform="matrix(1.3246653,0,0,1.3239648,-604.59993,225.16027)"
       style="display:inline;fill:none;fill-opacity:0.99607843;stroke:#23773f;stroke-width:0.58430129;stroke-opacity:0.99607843"
       id="g8595">
      <path
         style="fill:none;fill-opacity:0.99607843;fill-rule:evenodd;stroke:#23773f;stroke-width:1.33778858;stroke-linecap:round;stroke-linejoin:round;stroke-miterlimit:4;stroke-dasharray:none;stroke-opacity:0.99607843"
         d="m 722.14286,159.77289 c 1.5552,-3.28443 3.13262,-6.55834 4.73214,-9.82142 1.38381,-2.82303 2.78612,-5.6424 3.92857,-8.57143 0.98314,-2.52059 1.77756,-5.15337 1.875,-7.85715 0.0427,-1.18377 -0.0488,-2.3682 -0.0488,-3.55274 -6e-5,-1.18454 0.095,-2.38598 0.49527,-3.50083 0.43144,-1.20158 1.20998,-2.26521 2.17214,-3.10437 0.96216,-0.83917 2.10389,-1.45918 3.30565,-1.89014 2.40351,-0.86192 5.0046,-0.97139 7.55793,-0.98763 5.88058,-0.0374 11.76155,0.37318 17.58928,1.16071 3.56326,0.48152 7.15205,1.11714 10.43054,2.59372 3.27848,1.47657 6.25526,3.88383 7.78375,7.13843 1.5835,3.37173 1.48,7.26407 2.32143,10.89285 0.92143,3.97382 2.97724,7.62003 3.83928,11.60715 0.2868,1.3265 0.43879,2.68015 0.74973,4.0012 0.31094,1.32105 0.79583,2.63174 1.66099,3.67737 0.32452,0.39222 0.70241,0.74499 1.14071,1.0039 0.4383,0.25892 0.93952,0.42139 1.44857,0.42467 0.45438,0.003 0.90646,-0.12141 1.3054,-0.33892 0.39895,-0.21751 0.74528,-0.52653 1.02297,-0.88619 0.55539,-0.71932 0.82867,-1.62435 0.92275,-2.52825 0.18816,-1.80779 -0.29663,-3.63353 -0.12612,-5.44307 0.18528,-1.96625 1.13062,-3.77897 2.20412,-5.4367 1.0735,-1.65773 2.29849,-3.22921 3.15302,-5.00973 0.87268,-1.81832 1.33903,-3.84179 1.25974,-5.85712 -0.0793,-2.01533 -0.71438,-4.01814 -1.88474,-5.66073 -0.84033,-1.1794 -1.9318,-2.15215 -2.98851,-3.14235 -1.05671,-0.9902 -2.10176,-2.02594 -2.81506,-3.28623 -0.90022,-1.59054 -1.21598,-3.43481 -1.52909,-5.23541 -0.3131,-1.8006 -0.65451,-3.64449 -1.59591,-5.21101 -0.79072,-1.31578 -1.97568,-2.37005 -3.30984,-3.12934 -1.33417,-0.75929 -2.81551,-1.23426 -4.32054,-1.53658 -3.01007,-0.60465 -6.11487,-0.53286 -9.15533,-0.95908 -3.70463,-0.51932 -7.33148,-1.77852 -11.07143,-1.69643 -3.49029,0.0766 -6.83728,1.31693 -10.26786,1.96428 -1.96593,0.37097 -3.9703,0.54866 -5.90668,1.05159 -1.93638,0.50293 -3.84605,1.37248 -5.16475,2.87698 -0.71766,0.81878 -1.23304,1.79301 -1.88832,2.66252 -0.32763,0.43476 -0.69259,0.84535 -1.12077,1.18153 -0.42819,0.33618 -0.92261,0.59675 -1.45519,0.70953 -0.90003,0.1906 -1.83298,-0.049 -2.70325,-0.34738 -0.87027,-0.29834 -1.73609,-0.66072 -2.65389,-0.72405 -0.88117,-0.0608 -1.76786,0.16229 -2.56032,0.55235 -0.79247,0.39006 -1.49619,0.94227 -2.13273,1.55462 -1.27308,1.22469 -2.29455,2.6967 -3.61053,3.87517 -2.17208,1.94512 -5.12323,2.99441 -8.03571,2.85714 l 0,0"
         id="path8597"
         inkscape:connector-curvature="0" />
      <path
         style="fill:none;fill-opacity:0.99607843;fill-rule:evenodd;stroke:#23773f;stroke-width:1.33778858;stroke-linecap:round;stroke-linejoin:round;stroke-miterlimit:4;stroke-dasharray:none;stroke-opacity:0.99607843"
         d="m 712.76786,129.23718 13.125,-1.16071 4.01786,-1.33929"
         id="path8599"
         inkscape:connector-curvature="0" />
      <path
         style="fill:none;fill-opacity:0.99607843;fill-rule:evenodd;stroke:#23773f;stroke-width:1.33778858;stroke-linecap:round;stroke-linejoin:round;stroke-miterlimit:4;stroke-dasharray:none;stroke-opacity:0.99607843"
         d="m 714.375,131.64789 c 5.10887,1.14127 10.65316,0.18989 15.08929,-2.58928 0.81288,-0.50925 1.58932,-1.07665 2.32143,-1.69643"
         id="path8601"
         inkscape:connector-curvature="0" />
      <path
         style="fill:none;fill-opacity:0.99607843;fill-rule:evenodd;stroke:#23773f;stroke-width:1.33778858;stroke-linecap:round;stroke-linejoin:round;stroke-miterlimit:4;stroke-dasharray:none;stroke-opacity:0.99607843"
         d="m 714.73214,136.20147 c 4.58599,-8.8e-4 9.16742,-1.14624 13.21429,-3.30358 1.05025,-0.55988 2.06487,-1.18656 3.03571,-1.875"
         id="path8603"
         inkscape:connector-curvature="0" />
      <path
         style="fill:none;fill-opacity:0.99607843;fill-rule:evenodd;stroke:#23773f;stroke-width:1.33778858;stroke-linecap:round;stroke-linejoin:round;stroke-miterlimit:4;stroke-dasharray:none;stroke-opacity:0.99607843"
         d="m 719.01786,159.05861 c -0.14767,-3.60037 -0.59617,-7.18835 -1.33929,-10.71429 -0.56102,-2.66192 -1.29311,-5.31571 -1.33928,-8.03571 -0.0152,-0.89575 0.0446,-1.79276 0.17857,-2.67857"
         id="path8605"
         inkscape:connector-curvature="0" />
      <path
         style="fill:none;fill-opacity:0.99607843;fill-rule:evenodd;stroke:#23773f;stroke-width:1.33778858;stroke-linecap:round;stroke-linejoin:round;stroke-miterlimit:4;stroke-dasharray:none;stroke-opacity:0.99607843"
         d="m 728.8882,150.29596 c 1.78645,0.405 3.72285,0.10531 5.3033,-0.82075 1.85738,-1.08833 3.14181,-2.93484 4.86136,-4.23002 2.09942,-1.58131 4.8981,-2.27121 7.44987,-1.64149 1.70199,0.42001 3.25752,1.41195 4.35629,2.77792"
         id="path8607"
         inkscape:connector-curvature="0" />
      <path
         style="fill:none;fill-opacity:0.99607843;fill-rule:evenodd;stroke:#23773f;stroke-width:1.33778858;stroke-linecap:round;stroke-linejoin:round;stroke-miterlimit:4;stroke-dasharray:none;stroke-opacity:0.99607843"
         d="m 766.39011,147.83371 c 1.92402,-1.50356 4.31689,-2.39809 6.7554,-2.52538 1.17934,-0.0616 2.38021,0.0553 3.48695,0.46737 1.10674,0.41203 2.11623,1.13329 2.76336,2.12115 0.38729,0.5912 0.63679,1.25951 0.92584,1.90446 0.28906,0.64495 0.63124,1.28568 1.1576,1.75734 0.59569,0.53379 1.41182,0.8136 2.20971,0.75761 l 0.0631,0 0.94702,0.37881"
         id="path8609"
         inkscape:connector-curvature="0" />
      <path
         style="fill:none;fill-opacity:0.99607843;fill-rule:evenodd;stroke:#23773f;stroke-width:1.33778858;stroke-linecap:round;stroke-linejoin:round;stroke-miterlimit:4;stroke-dasharray:none;stroke-opacity:0.99607843"
         d="m 751.23782,141.45712 c 1.77414,-1.16068 3.26105,-2.75692 4.29315,-4.60882 0.64759,-1.16197 1.11767,-2.42265 1.38896,-3.72494"
         id="path8611"
         inkscape:connector-curvature="0" />
      <path
         style="fill:none;fill-opacity:0.99607843;fill-rule:evenodd;stroke:#23773f;stroke-width:1.33778858;stroke-linecap:round;stroke-linejoin:round;stroke-miterlimit:4;stroke-dasharray:none;stroke-opacity:0.99607843"
         d="m 758.56143,138.04786 c 0.41657,-2.26986 0.81644,-4.54278 1.19955,-6.81853 0.085,-0.50494 0.16918,-1.01002 0.25254,-1.51523 l 0,0 0,0"
         id="path8613"
         inkscape:connector-curvature="0" />
      <path
         style="fill:none;fill-opacity:0.99607843;fill-rule:evenodd;stroke:#23773f;stroke-width:1.33778858;stroke-linecap:round;stroke-linejoin:round;stroke-miterlimit:4;stroke-dasharray:none;stroke-opacity:0.99607843"
         d="m 752.81619,164.6275 c -0.68777,0.52718 -1.60151,0.74853 -2.45429,0.59456 -0.85279,-0.15398 -1.63141,-0.6809 -2.0914,-1.41531 -0.49299,-0.7871 -0.61122,-1.76752 -0.4781,-2.68667 0.13312,-0.91915 0.50001,-1.7883 0.92004,-2.61663 0.63472,-1.2517 1.39883,-2.43748 2.27284,-3.53554 0.45515,-0.57183 0.94006,-1.11998 1.4521,-1.64149"
         id="path8615"
         inkscape:connector-curvature="0" />
      <path
         style="fill:none;fill-opacity:0.99607843;fill-rule:evenodd;stroke:#23773f;stroke-width:1.33778858;stroke-linecap:round;stroke-linejoin:round;stroke-miterlimit:4;stroke-dasharray:none;stroke-opacity:0.99607843"
         d="m 760.70797,164.50123 c 0.14793,0.0399 0.29526,0.082 0.44194,0.12627 0.63086,0.19044 1.25038,0.42148 1.8925,0.56958 0.64212,0.14811 1.31689,0.21116 1.95871,0.0618 0.77158,-0.1796 1.4589,-0.66723 1.92164,-1.31024 0.46273,-0.64301 0.70523,-1.43347 0.73001,-2.22529 0.0298,-0.95289 -0.2466,-1.89704 -0.67374,-2.74935 -0.42714,-0.85231 -1.00149,-1.62175 -1.5991,-2.36455 -1.22589,-1.52373 -2.57219,-2.97005 -3.53554,-4.67196 -0.63241,-1.11725 -1.09267,-2.34201 -1.25588,-3.61541 -0.16321,-1.2734 -0.0209,-2.59719 0.4983,-3.77132 0.5737,-1.29728 1.59251,-2.37406 2.79847,-3.12087 1.20597,-0.74682 2.59263,-1.17468 3.99932,-1.3572 2.75034,-0.35687 5.55081,0.20605 8.16509,1.13193 1.28032,0.45344 2.53069,0.99452 3.72494,1.6415 0.40012,0.21676 0.80534,0.44941 1.2553,0.51735 0.22498,0.034 0.45893,0.0246 0.67435,-0.0486 0.21542,-0.0732 0.41123,-0.21319 0.5326,-0.40564 0.0889,-0.14097 0.13611,-0.30693 0.14121,-0.47352 0.005,-0.16659 -0.0313,-0.33357 -0.0993,-0.48574 -0.13597,-0.30434 -0.39437,-0.54294 -0.688,-0.70071 -0.58727,-0.31555 -1.28364,-0.32154 -1.94247,-0.42347 -1.43008,-0.22124 -2.73688,-0.9138 -4.10374,-1.38896 -1.30166,-0.4525 -2.66705,-0.70932 -4.04061,-0.82075 -0.60888,-0.0494 -1.22006,-0.0705 -1.8309,-0.0632"
         id="path8617"
         inkscape:connector-curvature="0" />
      <path
         style="fill:none;fill-opacity:0.99607843;fill-rule:evenodd;stroke:#23773f;stroke-width:1.33778858;stroke-linecap:round;stroke-linejoin:round;stroke-miterlimit:4;stroke-dasharray:none;stroke-opacity:0.99607843"
         d="m 750.33997,160.4061 c 0.45866,-0.83984 1.35491,-1.42429 2.30839,-1.50532 0.95349,-0.081 1.93551,0.34382 2.5293,1.09422 0.19626,0.24802 0.35055,0.52592 0.51754,0.79452 0.16698,0.26861 0.35036,0.53228 0.59179,0.73659 0.24596,0.20815 0.54687,0.34822 0.86192,0.41576 0.31506,0.0676 0.64383,0.0636 0.9601,0.002 0.63253,-0.12326 1.20381,-0.47237 1.68085,-0.90564 0.45805,-0.41602 0.83853,-0.90983 1.27795,-1.34548 0.43942,-0.43564 0.95991,-0.82257 1.56612,-0.94663 0.62234,-0.12736 1.29966,0.0494 1.78035,0.46473 0.48069,0.41529 0.75397,1.05976 0.71833,1.694"
         id="path8619"
         inkscape:connector-curvature="0" />
      <path
         style="fill:none;fill-opacity:0.99607843;fill-rule:evenodd;stroke:#23773f;stroke-width:1.33778858;stroke-linecap:round;stroke-linejoin:round;stroke-miterlimit:4;stroke-dasharray:none;stroke-opacity:0.99607843"
         d="m 739.33036,138.47825 c 2.22632,0.20474 4.4371,0.57818 6.60714,1.11607 0.52667,0.13055 1.05466,0.27138 1.59599,0.3087 0.54132,0.0373 1.10466,-0.0358 1.57366,-0.3087 0.34612,-0.20139 0.63179,-0.51147 0.78436,-0.88172 0.15256,-0.37025 0.16681,-0.79959 0.0192,-1.17185 -0.10029,-0.25294 -0.27167,-0.47515 -0.481,-0.64899 -0.20933,-0.17383 -0.45581,-0.30029 -0.71454,-0.38451 -0.51747,-0.16844 -1.07434,-0.16862 -1.61696,-0.12721 -1.38131,0.10542 -2.73075,0.46795 -4.10715,0.625 -0.54817,0.0625 -1.10006,0.0924 -1.65178,0.0893"
         id="path8621"
         inkscape:connector-curvature="0" />
      <path
         style="fill:none;fill-opacity:0.99607843;fill-rule:evenodd;stroke:#23773f;stroke-width:1.33778858;stroke-linecap:round;stroke-linejoin:round;stroke-miterlimit:4;stroke-dasharray:none;stroke-opacity:0.99607843"
         d="m 742.71466,179.90605 c 1.32259,-0.92579 2.77114,-1.67136 4.29315,-2.2097 3.08015,-1.08945 6.39327,-1.31495 9.65958,-1.38896 2.24043,-0.0508 4.50212,-0.0328 6.69226,0.44194 1.51199,0.32778 2.97106,0.86952 4.48256,1.19955 1.16024,0.25333 2.34796,0.38059 3.53553,0.37881"
         id="path8623"
         inkscape:connector-curvature="0" />
      <path
         transform="translate(-0.1894036,0.50507627)"
         style="fill:none;fill-opacity:0.99607843;fill-rule:evenodd;stroke:#23773f;stroke-width:1.33778858;stroke-linecap:round;stroke-linejoin:round;stroke-miterlimit:4;stroke-dasharray:none;stroke-opacity:0.99607843"
         d="m 743.1566,175.99171 c 1.84978,0.3286 3.80096,0.0595 5.49271,-0.75761 0.88223,-0.4261 1.68834,-0.9927 2.54231,-1.47295 0.85397,-0.48024 1.78232,-0.88042 2.76099,-0.92616 0.69318,-0.0324 1.38126,0.1143 2.05662,0.27382 0.67535,0.15952 1.35359,0.33363 2.04712,0.35752 1.46448,0.0504 2.89242,-0.57084 4.35629,-0.50507 0.99559,0.0447 1.95334,0.40729 2.83109,0.87928 0.87774,0.47198 1.6905,1.05433 2.53534,1.58296 1.08636,0.67976 2.22773,1.27158 3.40927,1.76777 l 0.31567,-0.0631"
         id="path8625"
         inkscape:connector-curvature="0" />
      <path
         style="fill:none;fill-opacity:0.99607843;fill-rule:evenodd;stroke:#23773f;stroke-width:1.33778858;stroke-linecap:round;stroke-linejoin:round;stroke-miterlimit:4;stroke-dasharray:none;stroke-opacity:0.99607843"
         d="m 748.77558,149.47521 c -1.95497,0.7276 -3.9607,1.31877 -5.99778,1.76777 -2.21486,0.48819 -4.47342,0.81036 -6.62913,1.51522 -1.43522,0.46928 -2.8155,1.10633 -4.10375,1.89404 l -0.1894,0.1894"
         id="path8627"
         inkscape:connector-curvature="0" />
      <path
         style="fill:none;fill-opacity:0.99607843;fill-rule:evenodd;stroke:#23773f;stroke-width:1.33778858;stroke-linecap:round;stroke-linejoin:round;stroke-miterlimit:4;stroke-dasharray:none;stroke-opacity:0.99607843"
         d="m 767.71594,150.16969 c 2.04407,1.1675 4.2664,2.02224 6.56599,2.52538 2.36844,0.51821 4.87168,0.6844 7.00793,1.8309 0.71831,0.38551 1.37996,0.87641 1.95717,1.4521"
         id="path8629"
         inkscape:connector-curvature="0" />
      <path
         style="fill:none;fill-opacity:0.99607843;fill-rule:evenodd;stroke:#23773f;stroke-width:1.33778858;stroke-linecap:round;stroke-linejoin:round;stroke-miterlimit:4;stroke-dasharray:none;stroke-opacity:0.99607843"
         d="m 720.84822,160.75504 c -0.7416,-0.20893 -1.53779,-0.22073 -2.28525,-0.0339 -0.74747,0.18686 -1.44444,0.57195 -2.00047,1.10529 -0.71252,0.68344 -1.18222,1.5949 -1.43127,2.55029 -0.24904,0.95538 -0.28665,1.95569 -0.22051,2.94078 0.10082,1.50149 0.44159,2.98856 1.02678,4.375 0.46499,1.10167 1.08985,2.1632 1.25,3.34821 0.11365,0.84097 -0.0152,1.69479 -0.17456,2.52831 -0.15932,0.83352 -0.35011,1.66779 -0.36115,2.51633 -0.017,1.30496 0.42524,2.6399 1.33928,3.57143 0.90304,0.92033 2.25108,1.39259 3.52679,1.20536 0.85792,-0.12592 1.67092,-0.54038 2.27679,-1.16071"
         id="path8631"
         inkscape:connector-curvature="0" />
      <path
         style="fill:none;fill-opacity:0.99607843;fill-rule:evenodd;stroke:#23773f;stroke-width:1.33778858;stroke-linecap:round;stroke-linejoin:round;stroke-miterlimit:4;stroke-dasharray:none;stroke-opacity:0.99607843"
         d="m 716.74107,167.58539 c -0.26399,-0.28004 -0.45011,-0.63275 -0.5323,-1.00873 -0.0822,-0.37598 -0.0602,-0.77417 0.0629,-1.13882 0.12307,-0.36465 0.34689,-0.69473 0.6401,-0.94401 0.29321,-0.24928 0.655,-0.41707 1.0347,-0.47986 0.37328,-0.0617 0.76438,-0.0215 1.11315,0.12517 0.34877,0.14664 0.65331,0.40053 0.85114,0.72304 0.24492,0.39928 0.3191,0.8885 0.26408,1.35367 -0.055,0.46517 -0.2322,0.90892 -0.45877,1.3189 -0.45313,0.81995 -1.10551,1.52316 -1.50174,2.37207 -0.32971,0.70639 -0.4698,1.50022 -0.40179,2.27679"
         id="path8633"
         inkscape:connector-curvature="0" />
      <path
         style="fill:none;fill-opacity:0.99607843;fill-rule:evenodd;stroke:#23773f;stroke-width:1.33778858;stroke-linecap:round;stroke-linejoin:round;stroke-miterlimit:4;stroke-dasharray:none;stroke-opacity:0.99607843"
         d="m 720.35715,179.95147 c 0.63737,-0.69448 1.09335,-1.554 1.31098,-2.47115 0.21763,-0.91716 0.19642,-1.88991 -0.061,-2.79671 -0.15568,-0.54844 -0.3946,-1.06894 -0.59841,-1.60137 -0.20381,-0.53243 -0.3745,-1.08753 -0.38374,-1.65756 -0.0128,-0.78826 0.2994,-1.5769 0.84822,-2.14286 l 0,0.0446 0,0"
         id="path8635"
         inkscape:connector-curvature="0" />
      <path
         style="fill:none;fill-opacity:0.99607843;fill-rule:evenodd;stroke:#23773f;stroke-width:1.33778858;stroke-linecap:round;stroke-linejoin:round;stroke-miterlimit:4;stroke-dasharray:none;stroke-opacity:0.99607843"
         d="m 790.35714,164.32647 c 0.9393,-0.009 1.88003,0.226 2.70408,0.6769 0.82406,0.45089 1.52961,1.11619 2.02807,1.91238 0.58035,0.92698 0.87477,2.01807 0.92333,3.11065 0.0486,1.09258 -0.14214,2.18747 -0.4769,3.22864 -0.59252,1.84286 -1.62666,3.5185 -2.23215,5.35714 -0.47257,1.43501 -0.67529,2.94194 -0.92887,4.43133 -0.25359,1.48939 -0.5666,2.98927 -1.2375,4.34296 -0.38991,0.78672 -0.90518,1.52301 -1.58434,2.07952 -0.67915,0.5565 -1.532,0.92405 -2.41,0.9319 -0.58895,0.005 -1.16616,-0.14766 -1.74842,-0.23633 -0.58225,-0.0887 -1.20276,-0.10785 -1.73372,0.14703 -0.34136,0.16386 -0.62533,0.43367 -0.83974,0.74577 -0.21441,0.3121 -0.36222,0.66586 -0.47252,1.02809 -0.22061,0.72446 -0.29599,1.48856 -0.5398,2.20554 -0.30247,0.88948 -0.85336,1.67394 -1.46023,2.39115 -0.60686,0.7172 -1.27621,1.38052 -1.86629,2.11159 -1.58088,1.95861 -2.54559,4.34537 -3.23354,6.76654 -0.68795,2.42117 -1.12027,4.90795 -1.76646,7.3406 -0.99633,3.75078 -2.50257,7.36575 -4.46428,10.71429"
         id="path8637"
         inkscape:connector-curvature="0" />
      <path
         style="fill:none;fill-opacity:0.99607843;fill-rule:evenodd;stroke:#23773f;stroke-width:1.33778858;stroke-linecap:round;stroke-linejoin:round;stroke-miterlimit:4;stroke-dasharray:none;stroke-opacity:0.99607843"
         d="m 790.17857,170.66575 c -0.2071,-0.30135 -0.32903,-0.66057 -0.34817,-1.02572 -0.0192,-0.36515 0.0646,-0.73514 0.23901,-1.0565 0.17445,-0.32136 0.43912,-0.59311 0.75576,-0.77598 0.31664,-0.18287 0.6843,-0.2763 1.04983,-0.2668 0.5866,0.0153 1.14958,0.2957 1.56445,0.71068 0.41487,0.41498 0.68918,0.95608 0.84627,1.52146 0.27197,0.97884 0.19906,2.04988 -0.20308,2.98282 -0.40213,0.93295 -1.13071,1.72138 -2.02907,2.19576 -0.36223,0.59434 -0.61155,1.25564 -0.74564,1.93863 -0.13408,0.68298 -0.14721,1.3832 -0.14721,2.07922 l 0,2.94643"
         id="path8639"
         inkscape:connector-curvature="0" />
      <path
         style="fill:none;fill-opacity:0.99607843;fill-rule:evenodd;stroke:#23773f;stroke-width:1.33778858;stroke-linecap:round;stroke-linejoin:round;stroke-miterlimit:4;stroke-dasharray:none;stroke-opacity:0.99607843"
         d="m 768.57143,180.66575 c -1.5196,0.80154 -3.17036,1.34798 -4.86307,1.64187 -1.69272,0.29389 -3.41889,0.32242 -5.13693,0.32242 l -1.42857,0"
         id="path8641"
         inkscape:connector-curvature="0" />
      <path
         style="fill:none;fill-opacity:0.99607843;fill-rule:evenodd;stroke:#23773f;stroke-width:1.33778858;stroke-linecap:round;stroke-linejoin:round;stroke-miterlimit:4;stroke-dasharray:none;stroke-opacity:0.99607843"
         d="m 723.03572,178.96932 c -0.61175,6.01477 0.85999,12.22166 4.10714,17.32143 2.29608,3.60608 5.42155,6.62838 8.83928,9.19643 2.90475,2.18261 6.03181,4.05682 8.92858,6.25 3.50559,2.65412 6.67491,5.77534 10.44642,8.03571 0.63991,0.38352 1.29539,0.74105 1.96429,1.07143"
         id="path8643"
         inkscape:connector-curvature="0" />
      <path
         style="fill:none;fill-opacity:0.99607843;fill-rule:evenodd;stroke:#23773f;stroke-width:1.33778858;stroke-linecap:round;stroke-linejoin:round;stroke-miterlimit:4;stroke-dasharray:none;stroke-opacity:0.99607843"
         d="m 722.85714,189.68361 c -0.48641,3.36922 0.21944,6.89846 1.96429,9.82143 1.44227,2.4161 3.52641,4.3694 5.53571,6.33928 2.24653,2.20246 4.4512,4.48214 7.05358,6.25 1.8958,1.28786 3.97155,2.28239 5.97959,3.38713 2.00803,1.10475 3.97913,2.34377 5.53826,4.02359 0.31641,0.34091 0.6146,0.69873 0.89286,1.07143 l 0,0 0,0"
         id="path8645"
         inkscape:connector-curvature="0" />
      <path
         style="fill:none;fill-opacity:0.99607843;fill-rule:evenodd;stroke:#23773f;stroke-width:1.33778858;stroke-linecap:round;stroke-linejoin:round;stroke-miterlimit:4;stroke-dasharray:none;stroke-opacity:0.99607843"
         d="m 694.15852,218.44567 c 3.64459,-0.90622 7.32095,-1.68468 11.02005,-2.33349 0.6338,-0.11117 1.27278,-0.21973 1.875,-0.44643 0.82599,-0.31094 1.55979,-0.83767 2.18246,-1.46316 0.62267,-0.62548 1.13904,-1.34905 1.60478,-2.09873 0.93149,-1.49937 1.67931,-3.12667 2.81991,-4.47382 0.96814,-1.14345 2.22634,-2.06715 3.66071,-2.5 1.9454,-0.58706 4.07845,-0.23438 5.94386,0.57152 1.86541,0.8059 3.51055,2.03711 5.12757,3.26776 3.14877,2.3964 6.26911,4.83762 9.19643,7.5 2.42389,2.20452 4.72767,4.57727 6.51785,7.32143 0.63385,0.97162 1.20109,1.98669 1.69643,3.03572"
         id="path8647"
         inkscape:connector-curvature="0" />
      <path
         style="fill:none;fill-opacity:0.99607843;fill-rule:evenodd;stroke:#23773f;stroke-width:1.33778858;stroke-linecap:round;stroke-linejoin:round;stroke-miterlimit:4;stroke-dasharray:none;stroke-opacity:0.99607843"
         d="m 707.67857,215.75504 c 1.57055,2.44626 3.69179,4.53675 6.16072,6.07143 2.78516,1.73125 5.94986,2.73543 8.92857,4.10714 2.48958,1.14647 4.85811,2.55559 7.05357,4.19643"
         id="path8649"
         inkscape:connector-curvature="0" />
      <path
         style="fill:none;fill-opacity:0.99607843;fill-rule:evenodd;stroke:#23773f;stroke-width:1.33778858;stroke-linecap:round;stroke-linejoin:round;stroke-miterlimit:4;stroke-dasharray:none;stroke-opacity:0.99607843"
         d="m 716.875,204.68361 c -0.19409,-1.11789 0.20921,-2.32189 1.03751,-3.09732 0.82829,-0.77542 2.05624,-1.09855 3.15892,-0.83125 0.5688,0.13788 1.09625,0.4206 1.55943,0.7784 0.46317,0.35779 0.86472,0.78974 1.23042,1.24669 0.73141,0.9139 1.3281,1.93512 2.12086,2.79634 1.00493,1.0917 2.29074,1.8879 3.62149,2.54427 1.33074,0.65636 2.72069,1.18595 4.05709,1.83073 0.7319,0.35313 1.44723,0.7406 2.14285,1.16071"
         id="path8651"
         inkscape:connector-curvature="0" />
      <path
         style="fill:none;fill-opacity:0.99607843;fill-rule:evenodd;stroke:#23773f;stroke-width:1.33778858;stroke-linecap:round;stroke-linejoin:round;stroke-miterlimit:4;stroke-dasharray:none;stroke-opacity:0.99607843"
         d="m 736.14867,196.2579 c 4.61642,3.77288 10.104,6.47312 15.9099,7.82868 5.17946,1.2093 10.67149,1.34181 15.78363,-0.12627 2.74472,-0.78821 5.35838,-2.03077 7.70242,-3.6618"
         id="path8653"
         inkscape:connector-curvature="0" />
      <path
         style="fill:none;fill-opacity:0.99607843;fill-rule:evenodd;stroke:#23773f;stroke-width:1.33778858;stroke-linecap:round;stroke-linejoin:round;stroke-miterlimit:4;stroke-dasharray:none;stroke-opacity:0.99607843"
         d="m 731.72925,124.28453 c -2.3811,1.20039 -5.03616,1.85327 -7.70241,1.89404 -0.80133,0.0123 -1.60349,-0.03 -2.39911,-0.12627"
         id="path8655"
         inkscape:connector-curvature="0" />
      <path
         transform="matrix(1.0547264,0,0,1.0547264,-40.59235,-8.5874281)"
         style="opacity:1;fill:#23763f;fill-opacity:1;stroke:none;stroke-width:1;stroke-linecap:round;stroke-linejoin:round;stroke-miterlimit:4;stroke-dasharray:none;stroke-dashoffset:12.75590515;stroke-opacity:0.99607843"
         d="m 743.7723,146.08986 a 2.2433035,1.8526785 0 0 1 -2.24331,1.85268 2.2433035,1.8526785 0 0 1 -2.2433,-1.85268 2.2433035,1.8526785 0 0 1 2.2433,-1.85268 2.2433035,1.8526785 0 0 1 2.24331,1.85268 z"
         id="path8657"
         inkscape:connector-curvature="0" />
      <path
         transform="matrix(1.0547264,0,0,1.0547264,-10.324493,-6.8909995)"
         style="opacity:1;fill:#23763f;fill-opacity:1;stroke:none;stroke-width:1;stroke-linecap:round;stroke-linejoin:round;stroke-miterlimit:4;stroke-dasharray:none;stroke-dashoffset:12.75590515;stroke-opacity:0.99607843"
         d="m 743.7723,146.08986 a 2.2433035,1.8526785 0 0 1 -2.24331,1.85268 2.2433035,1.8526785 0 0 1 -2.2433,-1.85268 2.2433035,1.8526785 0 0 1 2.2433,-1.85268 2.2433035,1.8526785 0 0 1 2.24331,1.85268 z"
         id="path8659"
         inkscape:connector-curvature="0" />
      <path
         style="fill:none;fill-opacity:0.99607843;fill-rule:evenodd;stroke:#23773f;stroke-width:1.33778858;stroke-linecap:round;stroke-linejoin:round;stroke-miterlimit:4;stroke-dasharray:none;stroke-opacity:0.99607843"
         d="m 736.91965,148.21039 c 2.07592,-0.34676 4.16003,-0.64449 6.25,-0.89285 2.00029,-0.2377 4.01898,-0.43036 6.02678,-0.26786 0.38828,0.0314 0.77549,0.0761 1.16072,0.13393"
         id="path8661"
         inkscape:connector-curvature="0" />
      <path
         style="fill:none;fill-opacity:0.99607843;fill-rule:evenodd;stroke:#23773f;stroke-width:1.33778858;stroke-linecap:round;stroke-linejoin:round;stroke-miterlimit:4;stroke-dasharray:none;stroke-opacity:0.99607843"
         d="m 766.875,148.74611 c 1.18827,-0.099 2.38601,-0.0841 3.57143,0.0446 2.29684,0.24933 4.53236,0.92227 6.83036,1.16072 0.44513,0.0462 0.89196,0.076 1.33928,0.0893"
         id="path8663"
         inkscape:connector-curvature="0" />
      <path
         style="fill:none;fill-opacity:0.99607843;fill-rule:evenodd;stroke:#23773f;stroke-width:1.33778858;stroke-linecap:round;stroke-linejoin:round;stroke-miterlimit:4;stroke-dasharray:none;stroke-opacity:0.99607843"
         d="m 728.69879,156.48314 c -2.11589,4.48843 -2.8306,9.6254 -2.0203,14.52095 0.46091,2.78468 1.40517,5.48869 2.77792,7.95495"
         id="path8665"
         inkscape:connector-curvature="0" />
      <path
         style="fill:none;fill-opacity:0.99607843;fill-rule:evenodd;stroke:#23773f;stroke-width:1.33778858;stroke-linecap:butt;stroke-linejoin:miter;stroke-miterlimit:4;stroke-dasharray:none;stroke-opacity:0.99607843"
         d="m 771.25147,219.61768 c -0.3353,2.24693 0.11792,4.60369 1.26269,6.56599 1.22191,2.09455 3.17877,3.69424 5.34242,4.78914 2.16365,1.0949 4.53602,1.71603 6.91755,2.17266 4.76306,0.91328 9.78793,1.24781 14.004,3.6448 1.80142,1.02417 3.39877,2.40566 4.67195,4.04061"
         id="path8667"
         inkscape:connector-curvature="0" />
      <path
         style="fill:none;fill-opacity:0.99607843;fill-rule:evenodd;stroke:#23773f;stroke-width:1.33778858;stroke-linecap:round;stroke-linejoin:round;stroke-miterlimit:4;stroke-dasharray:none;stroke-opacity:0.99607843"
         d="m 789.46429,165.93361 c 0.0493,3.41935 -0.31121,6.84443 -1.07143,10.17857 -0.88016,3.86019 -2.29679,7.59766 -4.19643,11.07143"
         id="path8669"
         inkscape:connector-curvature="0" />
    </g>
  </g>
</svg>
