<?xml version="1.0" encoding="UTF-8" standalone="no"?>
<!-- Created with Inkscape (http://www.inkscape.org/) -->

<svg
   xmlns:dc="http://purl.org/dc/elements/1.1/"
   xmlns:cc="http://creativecommons.org/ns#"
   xmlns:rdf="http://www.w3.org/1999/02/22-rdf-syntax-ns#"
   xmlns:svg="http://www.w3.org/2000/svg"
   xmlns="http://www.w3.org/2000/svg"
   xmlns:sodipodi="http://sodipodi.sourceforge.net/DTD/sodipodi-0.dtd"
   xmlns:inkscape="http://www.inkscape.org/namespaces/inkscape"
   width="61.85442mm"
   height="60mm"
   viewBox="0 0 219.16917 212.59843"
   id="svg6331"
   version="1.1"
   inkscape:version="0.91 r"
   sodipodi:docname="guy-bulle.svg">
  <defs
     id="defs6333">
    <inkscape:path-effect
       is_visible="true"
       id="path-effect9099-9"
       effect="spiro" />
    <inkscape:path-effect
       is_visible="true"
       id="path-effect9103-9"
       effect="spiro" />
    <inkscape:path-effect
       is_visible="true"
       id="path-effect9107-4"
       effect="spiro" />
    <inkscape:path-effect
       is_visible="true"
       id="path-effect9111-1"
       effect="spiro" />
    <inkscape:path-effect
       is_visible="true"
       id="path-effect9115-6"
       effect="spiro" />
    <inkscape:path-effect
       is_visible="true"
       id="path-effect9119-3"
       effect="spiro" />
    <inkscape:path-effect
       is_visible="true"
       id="path-effect9123-5"
       effect="spiro" />
    <inkscape:path-effect
       is_visible="true"
       id="path-effect9127-0"
       effect="spiro" />
    <inkscape:path-effect
       is_visible="true"
       id="path-effect9131-0"
       effect="spiro" />
    <inkscape:path-effect
       is_visible="true"
       id="path-effect9135-1"
       effect="spiro" />
    <inkscape:path-effect
       is_visible="true"
       id="path-effect9139-3"
       effect="spiro" />
    <inkscape:path-effect
       is_visible="true"
       id="path-effect9143-8"
       effect="spiro" />
    <inkscape:path-effect
       is_visible="true"
       id="path-effect9147-6"
       effect="spiro" />
    <inkscape:path-effect
       is_visible="true"
       id="path-effect9151-4"
       effect="spiro" />
    <inkscape:path-effect
       is_visible="true"
       id="path-effect9155-3"
       effect="spiro" />
    <inkscape:path-effect
       is_visible="true"
       id="path-effect9159-2"
       effect="spiro" />
    <inkscape:path-effect
       is_visible="true"
       id="path-effect9163-5"
       effect="spiro" />
    <inkscape:path-effect
       is_visible="true"
       id="path-effect9167-8"
       effect="spiro" />
    <inkscape:path-effect
       is_visible="true"
       id="path-effect9171-2"
       effect="spiro" />
    <inkscape:path-effect
       is_visible="true"
       id="path-effect9175-0"
       effect="spiro" />
    <inkscape:path-effect
       is_visible="true"
       id="path-effect9179-3"
       effect="spiro" />
    <inkscape:path-effect
       is_visible="true"
       id="path-effect9183-2"
       effect="spiro" />
    <inkscape:path-effect
       is_visible="true"
       id="path-effect9187-9"
       effect="spiro" />
    <inkscape:path-effect
       is_visible="true"
       id="path-effect9195-7"
       effect="spiro" />
    <inkscape:path-effect
       is_visible="true"
       id="path-effect9199-8"
       effect="spiro" />
    <inkscape:path-effect
       is_visible="true"
       id="path-effect9203-1"
       effect="spiro" />
    <inkscape:path-effect
       is_visible="true"
       id="path-effect5621"
       effect="spiro" />
    <inkscape:path-effect
       effect="spiro"
       id="path-effect5637"
       is_visible="true" />
  </defs>
  <sodipodi:namedview
     id="base"
     pagecolor="#ffffff"
     bordercolor="#666666"
     borderopacity="1.0"
     inkscape:pageopacity="0.0"
     inkscape:pageshadow="2"
     inkscape:zoom="1.979899"
     inkscape:cx="112.37107"
     inkscape:cy="93.117231"
     inkscape:document-units="mm"
     inkscape:current-layer="layer1"
     showgrid="false"
     fit-margin-top="5"
     fit-margin-left="5"
     fit-margin-right="5"
     fit-margin-bottom="5" />
  <metadata
     id="metadata6336">
    <rdf:RDF>
      <cc:Work
         rdf:about="">
        <dc:format>image/svg+xml</dc:format>
        <dc:type
           rdf:resource="http://purl.org/dc/dcmitype/StillImage" />
        <dc:title></dc:title>
      </cc:Work>
    </rdf:RDF>
  </metadata>
  <g
     inkscape:label="Calque 1"
     inkscape:groupmode="layer"
     id="layer1"
     transform="translate(-340.60904,-276.06848)">
    <g
       style="display:inline"
       id="g8057"
       transform="matrix(0.91462253,0,0,0.91486207,-1305.6876,-1331.3986)">
      <g
         id="g20792"
         transform="matrix(-1.6495475,0,0,1.6495475,2869.134,1537.5301)"
         style="stroke-width:1.17412744;stroke-miterlimit:4;stroke-dasharray:none;stroke-linejoin:round;stroke-linecap:round">
        <g
           id="layer1-06"
           transform="matrix(6.3935527,0,0,6.3935527,-857.08233,-6653.0421)"
           style="stroke-width:0.18364241;stroke-miterlimit:4;stroke-dasharray:none;stroke-linejoin:round;stroke-linecap:round">
          <g
             id="g5587"
             transform="matrix(0.26873,0,0,0.26873,-29.313,925.25)"
             style="stroke-width:0.68337146;stroke-miterlimit:4;stroke-dasharray:none;stroke-linejoin:round;stroke-linecap:round">
            <path
               transform="matrix(0.55359738,0,0,0.55193464,842.03909,343.42721)"
               style="fill:#075c63;fill-rule:evenodd;stroke-width:1.23627759;stroke-linecap:round;stroke-linejoin:round;stroke-miterlimit:4;stroke-dasharray:none"
               inkscape:connector-curvature="0"
               id="path3089-0-9-9"
               d="m 149.28,431.74 c 0.0229,0.35228 0.26271,0.0218 0.26271,0.0218 L 149.28,431.74 Z" />
            <path
               transform="matrix(0.55359738,0,0,0.55193464,842.03909,346.27858)"
               sodipodi:nodetypes="ccccc"
               style="fill:#ffffff;fill-rule:evenodd;stroke:#23793f;stroke-width:1.23627759;stroke-linecap:round;stroke-linejoin:round;stroke-miterlimit:4;stroke-dasharray:none;stroke-opacity:0.99607843"
               inkscape:connector-curvature="0"
               id="path3091-1-6-9"
               d="m 185.01948,422.22452 c 1.30418,-0.90339 -0.32018,-3.65443 0.53108,-34.46387 l -5.6e-4,-6.5e-4 -13.318,0.72921 1.14603,33.87804" />
            <path
               transform="matrix(0.55359738,0,0,0.55193464,842.03909,346.27858)"
               sodipodi:nodetypes="csssccccccccscccc"
               style="fill:#23793f;fill-opacity:0.99607843;fill-rule:evenodd;stroke:#23793f;stroke-width:1.23627759;stroke-linecap:round;stroke-linejoin:round;stroke-miterlimit:4;stroke-dasharray:none;stroke-opacity:0.99607843"
               inkscape:connector-curvature="0"
               id="path3093-1-7-8"
               d="m 137.81,366.3 c -2.8085,0.3096 -5.5954,1.0508 -6.48,1.0508 -1.7691,0 -3.892,1.7868 -6.5457,4.7943 -2.6537,3.0075 -4.4168,7.4135 -4.9476,12.544 -0.12204,1.1797 -0.0862,6.437 -0.13135,9.917 l 7.7278,-1.3354 9.13207,0.96 -1.48538,26.1859 23.85011,2.33901 c 0.0734,0.34251 14.6726,1.39377 14.6726,1.39377 l 4.09357,-34.59728 7.85958,-1.79825 c 0.11442,-4.1478 0.20991,-7.921 0.2627,-9.6105 0.17691,-5.6612 -0.8809,-6.8858 -6.8959,-10.07 -6.015,-3.1844 -32.555,3.3631 -34.502,-0.17513 -0.97302,-1.7691 -3.8028,-1.9077 -6.6113,-1.5981 z" />
            <path
               transform="matrix(0.55359738,0,0,0.55193464,842.03909,343.42721)"
               sodipodi:nodetypes="csscsccscc"
               style="fill:#ffffff;fill-rule:evenodd;stroke:#23793f;stroke-width:1.23627759;stroke-linecap:round;stroke-linejoin:round;stroke-miterlimit:4;stroke-dasharray:none;stroke-opacity:0.99607843"
               inkscape:connector-curvature="0"
               id="path3095-3-2-6"
               d="m 177.93083,345.14665 c 0,0 5.43793,7.60404 5.05584,14.1288 -0.0948,1.61955 -3.94689,1.34797 -4.37395,2.47688 -1.1193,2.95883 -0.44475,5.60738 -0.68719,6.63765 -0.70764,3.0075 1.72589,4.50903 -11.18851,6.45503 -12.915,1.946 -17.72412,10.02749 -20.90812,2.24329 -3.1844,-7.7842 -1.2384,-15.568 -1.2384,-15.568 0,0 -1.4153,-25.122 8.3149,-29.368 9.7302,-4.2459 28.37643,-2.96694 28.55343,6.23251 z" />
            <path
               transform="matrix(0.55359738,0,0,0.55193464,842.03909,343.42721)"
               sodipodi:nodetypes="sssccscssccsccccs"
               style="fill:#23793f;fill-opacity:0.99607843;fill-rule:evenodd;stroke:#23793f;stroke-width:1.23627759;stroke-linecap:round;stroke-linejoin:round;stroke-miterlimit:4;stroke-dasharray:none;stroke-opacity:0.99607843"
               inkscape:connector-curvature="0"
               id="path3107-1-7-7"
               d="m 137.16309,355.141 c -1.59221,-1.946 -4.2286,-5.7305 -1.5922,-9.5533 3.5382,-5.1305 8.3601,-4.1856 8.138,-7.9611 -0.17691,-3.0075 1.946,-7.7842 7.9611,-10.969 6.015,-3.1844 10.261,-1.946 10.969,0 0.70765,1.946 3.5383,-5.3074 10.969,-3.3613 7.4303,1.946 11.499,7.7842 12.561,11.676 1.0615,3.8921 2.4768,8.138 0,9.7302 -2.4768,1.5922 -4.9536,2.8306 -8.138,1.5922 -3.1844,-1.2384 -6.1919,-2.1229 -8.138,-6.1919 -1.946,-4.069 -2.2999,-4.069 -2.2999,-4.069 0,0 -1.6205,4.7031 -8.138,7.2534 -4.069,1.5922 -5.8381,1.4153 -5.8381,1.4153 0,0 3.5383,6.5458 1.5922,11.146 -1.946,4.5997 -4.2459,8.6687 -7.7842,10.615 -3.5382,1.946 -6.7236,2.0009 -7.96201,-2.6263 -1.23841,-4.6272 -0.70768,-6.7502 -2.29989,-8.6962 z" />
            <path
               transform="matrix(0.55359738,0,0,0.55193464,842.03909,346.27858)"
               sodipodi:nodetypes="ccccc"
               style="fill:#ffffff;fill-rule:evenodd;stroke:#23793f;stroke-width:1.23627759;stroke-linecap:round;stroke-linejoin:round;stroke-miterlimit:4;stroke-dasharray:none;stroke-opacity:0.99607843"
               inkscape:connector-curvature="0"
               id="path3111-5-1-1"
               d="m 135.3977,416.54751 1.20066,-22.23806 -9.16836,-1.03375 -7.7278,1.3354 c -1.41257,8.00133 -0.89627,14.55872 0.97798,19.88713" />
          </g>
        </g>
      </g>
      <path
         sodipodi:nodetypes="cscccsc"
         inkscape:connector-curvature="0"
         inkscape:original-d="m 226.56245,539.17699 c 0,0 9.81325,-6.0332 -16.45072,22.75615 -26.26396,28.78935 7.57614,54.54824 7.57614,54.54824 0,0 -5.55583,8.5863 -20.70812,8.08122 l 24.24366,-4.04061 c 0,0 33.31492,6.56599 39.64849,11.61676 17.04888,13.5958 18.68781,-3.53554 18.68781,-3.53554"
         inkscape:path-effect="#path-effect5637"
         id="path5635"
         d="m 226.56245,539.17699 c -7.28056,6.0402 -12.99784,13.94887 -16.45072,22.75615 -3.50096,8.92992 -4.66499,18.76441 -3.34548,28.26489 1.31951,9.50048 5.11958,18.64551 10.92162,26.28335 l -20.70812,8.08122 24.24366,-4.04061 c 11.49155,8.02565 25.64283,12.17189 39.64849,11.61676 6.35778,-0.252 12.67737,-1.4476 18.68781,-3.53554"
         style="fill:none;fill-rule:evenodd;stroke:#23793f;stroke-width:1.93677898;stroke-linecap:round;stroke-linejoin:round;stroke-miterlimit:4;stroke-dasharray:none;stroke-opacity:0.99607843"
         transform="matrix(-1,0,0,1,2099.2852,1238.1421)" />
    </g>
  </g>
</svg>
