<?xml version="1.0" encoding="UTF-8" standalone="no"?>
<!-- Created with Inkscape (http://www.inkscape.org/) -->

<svg
   xmlns:dc="http://purl.org/dc/elements/1.1/"
   xmlns:cc="http://creativecommons.org/ns#"
   xmlns:rdf="http://www.w3.org/1999/02/22-rdf-syntax-ns#"
   xmlns:svg="http://www.w3.org/2000/svg"
   xmlns="http://www.w3.org/2000/svg"
   xmlns:sodipodi="http://sodipodi.sourceforge.net/DTD/sodipodi-0.dtd"
   xmlns:inkscape="http://www.inkscape.org/namespaces/inkscape"
   width="41.257214mm"
   height="60mm"
   viewBox="0 0 146.18697 212.59842"
   id="svg6331"
   version="1.1"
   inkscape:version="0.91 r"
   sodipodi:docname="Jean-Prouve.svg">
  <defs
     id="defs6333">
    <inkscape:path-effect
       is_visible="true"
       id="path-effect9099-9"
       effect="spiro" />
    <inkscape:path-effect
       is_visible="true"
       id="path-effect9103-9"
       effect="spiro" />
    <inkscape:path-effect
       is_visible="true"
       id="path-effect9107-4"
       effect="spiro" />
    <inkscape:path-effect
       is_visible="true"
       id="path-effect9111-1"
       effect="spiro" />
    <inkscape:path-effect
       is_visible="true"
       id="path-effect9115-6"
       effect="spiro" />
    <inkscape:path-effect
       is_visible="true"
       id="path-effect9119-3"
       effect="spiro" />
    <inkscape:path-effect
       is_visible="true"
       id="path-effect9123-5"
       effect="spiro" />
    <inkscape:path-effect
       is_visible="true"
       id="path-effect9127-0"
       effect="spiro" />
    <inkscape:path-effect
       is_visible="true"
       id="path-effect9131-0"
       effect="spiro" />
    <inkscape:path-effect
       is_visible="true"
       id="path-effect9135-1"
       effect="spiro" />
    <inkscape:path-effect
       is_visible="true"
       id="path-effect9139-3"
       effect="spiro" />
    <inkscape:path-effect
       is_visible="true"
       id="path-effect9143-8"
       effect="spiro" />
    <inkscape:path-effect
       is_visible="true"
       id="path-effect9147-6"
       effect="spiro" />
    <inkscape:path-effect
       is_visible="true"
       id="path-effect9151-4"
       effect="spiro" />
    <inkscape:path-effect
       is_visible="true"
       id="path-effect9155-3"
       effect="spiro" />
    <inkscape:path-effect
       is_visible="true"
       id="path-effect9159-2"
       effect="spiro" />
    <inkscape:path-effect
       is_visible="true"
       id="path-effect9163-5"
       effect="spiro" />
    <inkscape:path-effect
       is_visible="true"
       id="path-effect9167-8"
       effect="spiro" />
    <inkscape:path-effect
       is_visible="true"
       id="path-effect9171-2"
       effect="spiro" />
    <inkscape:path-effect
       is_visible="true"
       id="path-effect9175-0"
       effect="spiro" />
    <inkscape:path-effect
       is_visible="true"
       id="path-effect9179-3"
       effect="spiro" />
    <inkscape:path-effect
       is_visible="true"
       id="path-effect9183-2"
       effect="spiro" />
    <inkscape:path-effect
       is_visible="true"
       id="path-effect9187-9"
       effect="spiro" />
    <inkscape:path-effect
       is_visible="true"
       id="path-effect9195-7"
       effect="spiro" />
    <inkscape:path-effect
       is_visible="true"
       id="path-effect9199-8"
       effect="spiro" />
    <inkscape:path-effect
       is_visible="true"
       id="path-effect9203-1"
       effect="spiro" />
  </defs>
  <sodipodi:namedview
     id="base"
     pagecolor="#ffffff"
     bordercolor="#666666"
     borderopacity="1.0"
     inkscape:pageopacity="0.0"
     inkscape:pageshadow="2"
     inkscape:zoom="1.979899"
     inkscape:cx="-63.743383"
     inkscape:cy="50.074592"
     inkscape:document-units="mm"
     inkscape:current-layer="g9381"
     showgrid="false"
     fit-margin-top="5"
     fit-margin-left="5"
     fit-margin-right="5"
     fit-margin-bottom="5" />
  <metadata
     id="metadata6336">
    <rdf:RDF>
      <cc:Work
         rdf:about="">
        <dc:format>image/svg+xml</dc:format>
        <dc:type
           rdf:resource="http://purl.org/dc/dcmitype/StillImage" />
        <dc:title></dc:title>
      </cc:Work>
    </rdf:RDF>
  </metadata>
  <g
     inkscape:label="Calque 1"
     inkscape:groupmode="layer"
     id="layer1"
     transform="translate(-324.88481,-337.57741)">
    <g
       id="g9381"
       style="display:inline;fill:none"
       transform="matrix(1.3421951,0,0,1.3406362,1561.2252,-164.98507)">
      <path
         sodipodi:nodetypes="csszssssssscssc"
         inkscape:connector-curvature="0"
         inkscape:original-d="m 364.73771,589.95232 c 0.10949,-1.20448 0.23778,-2.36944 0.89477,-2.36944 0.26763,0 1.47225,-0.1255 2.91265,-0.13396 2.09553,-0.0123 3.58486,0.36707 3.77531,0.58718 0.19045,0.22011 3.55868,-0.52011 2.7922,1.34135 -0.26804,0.65096 -0.37205,1.29187 -0.41738,1.91572 -0.0843,1.1601 0.0343,2.26117 -0.32173,3.25806 -0.54749,1.53297 0.20571,1.63583 -0.88927,3.3878 -1.09498,1.75196 -1.51969,1.75861 -2.28617,3.62007 -0.76649,1.86147 -3.28494,1.42348 -0.65699,3.39444 2.62795,1.97096 2.51845,3.50393 4.05142,2.84695 1.53297,-0.65699 4.13777,-1.62482 4.79476,-1.84382 0.65699,-0.21899 2.10361,0.31084 2.8701,-0.78414 0.76649,-1.09497 1.18455,-2.12468 0.52756,-3.32915 -0.65698,-1.20448 -0.88148,-1.3007 -0.88148,-1.3007"
         inkscape:path-effect="#path-effect9099-9"
         id="path9097"
         d="m 364.73771,589.95232 c -0.13996,-0.43376 -0.12818,-0.91488 0.0328,-1.34127 0.16101,-0.42639 0.47019,-0.7952 0.86193,-1.02817 0.42781,-0.25443 0.93771,-0.34356 1.43541,-0.33642 0.4977,0.007 0.98908,0.10524 1.47724,0.20246 1.24989,0.24892 2.50421,0.49504 3.77531,0.58718 0.55335,0.0401 1.11814,0.0527 1.64254,0.2338 0.2622,0.0906 0.51206,0.22393 0.71742,0.41042 0.20536,0.18649 0.36474,0.42807 0.43224,0.69713 0.0808,0.3222 0.0274,0.66422 -0.0714,0.98137 -0.0988,0.31715 -0.2419,0.6189 -0.34602,0.93435 -0.34324,1.03997 -0.24721,2.16545 -0.32173,3.25806 -0.08,1.17243 -0.36447,2.33634 -0.88927,3.3878 -0.63785,1.27794 -1.61159,2.36113 -2.28617,3.62007 -0.27792,0.51866 -0.50458,1.06801 -0.63068,1.64277 -0.1261,0.57476 -0.14968,1.17632 -0.0263,1.75167 0.18958,0.88412 0.73319,1.68419 1.47614,2.19958 0.74294,0.51539 1.67627,0.74425 2.57528,0.64737 0.85517,-0.0922 1.65316,-0.46217 2.42111,-0.84954 0.76796,-0.38737 1.53538,-0.80163 2.37365,-0.99428 0.48876,-0.11233 0.99192,-0.14678 1.4855,-0.23557 0.49357,-0.0888 0.99031,-0.23866 1.3846,-0.54857 0.47589,-0.37404 0.76161,-0.96 0.83274,-1.5611 0.0711,-0.6011 -0.0598,-1.21475 -0.30518,-1.76805 -0.21349,-0.4813 -0.51355,-0.92406 -0.88148,-1.3007"
         style="display:inline;fill:none;fill-opacity:1;fill-rule:evenodd;stroke:#23763f;stroke-width:1.32073443;stroke-linecap:round;stroke-linejoin:round;stroke-opacity:1;stroke-miterlimit:4;stroke-dasharray:none"
         transform="translate(-1267.6179,-155.83325)" />
      <path
         sodipodi:nodetypes="ccc"
         inkscape:connector-curvature="0"
         inkscape:original-d="m 366.38018,589.29533 c 2.73744,0.0548 3.58136,0.61885 4.23834,0.29035 0.65699,-0.32849 3.07855,-0.0833 3.07855,-0.0833"
         inkscape:path-effect="#path-effect9103-9"
         id="path9101"
         d="m 366.38018,589.29533 c 1.40598,0.17487 2.82165,0.27185 4.23834,0.29035 1.02675,0.0134 2.05403,-0.0144 3.07855,-0.0833"
         style="display:inline;fill:none;fill-opacity:1;fill-rule:evenodd;stroke:#23763f;stroke-width:1.32073443;stroke-linecap:round;stroke-linejoin:round;stroke-opacity:1;stroke-miterlimit:4;stroke-dasharray:none"
         transform="translate(-1267.6179,-155.83325)" />
      <path
         inkscape:connector-curvature="0"
         inkscape:original-d="m 383.59873,590.96517 c 1.42347,-0.43799 2.29946,-1.14972 3.20282,-1.50559 0.90335,-0.35587 2.76482,-0.60224 3.25756,-0.219 0.49274,0.38324 2.4637,1.06761 3.03857,1.77934 0.57486,0.71174 1.2866,1.12236 1.2866,1.12236"
         inkscape:path-effect="#path-effect9107-4"
         id="path9105"
         d="m 383.59873,590.96517 c 0.98413,-0.65853 2.06784,-1.16797 3.20282,-1.50559 1.05547,-0.31397 2.18734,-0.47829 3.25756,-0.219 1.15126,0.27893 2.13013,1.01912 3.03857,1.77934 0.43648,0.36527 0.86547,0.73949 1.2866,1.12236"
         style="display:inline;fill:none;fill-opacity:1;fill-rule:evenodd;stroke:#23763f;stroke-width:1.32073443;stroke-linecap:round;stroke-linejoin:round;stroke-opacity:1;stroke-miterlimit:4;stroke-dasharray:none"
         transform="translate(-1267.6179,-155.83325)" />
      <path
         sodipodi:nodetypes="ccc"
         inkscape:connector-curvature="0"
         inkscape:original-d="m 384.77583,591.0473 c 1.83409,-0.0274 3.12734,0.0293 4.57818,0.27567 1.45085,0.24637 2.22926,0.41237 3.11405,0.1623"
         inkscape:path-effect="#path-effect9111-1"
         id="path9109"
         d="m 384.77583,591.0473 c 1.52561,0.0992 3.05169,0.19111 4.57818,0.27567 1.03784,0.0575 2.07586,0.11159 3.11405,0.1623"
         style="display:inline;fill:none;fill-opacity:1;fill-rule:evenodd;stroke:#23763f;stroke-width:1.32073443;stroke-linecap:round;stroke-linejoin:round;stroke-opacity:1;stroke-miterlimit:4;stroke-dasharray:none"
         transform="translate(-1267.6179,-155.83325)" />
      <path
         inkscape:connector-curvature="0"
         inkscape:original-d="m 383.37973,592.19703 c 1.45085,1.0676 3.09332,2.2447 4.70842,2.32683 1.61509,0.0821 3.14806,0.19162 3.14806,0.19162"
         inkscape:path-effect="#path-effect9115-6"
         id="path9113"
         d="m 383.37973,592.19703 c 1.34335,1.15091 2.97818,1.95882 4.70842,2.32683 1.0321,0.21952 2.09696,0.28434 3.14806,0.19162"
         style="display:inline;fill:none;fill-opacity:1;fill-rule:evenodd;stroke:#23763f;stroke-width:1.32073443;stroke-linecap:round;stroke-linejoin:round;stroke-opacity:1;stroke-miterlimit:4;stroke-dasharray:none"
         transform="translate(-1267.6179,-155.83325)" />
      <path
         inkscape:connector-curvature="0"
         inkscape:original-d="m 381.2719,587.78973 c 1.99834,-0.0274 7.88385,-0.52011 8.59559,-0.46536 0.71173,0.0547 1.77934,0.27374 2.08046,0.46536 0.30112,0.19162 0.60224,1.12236 0.60224,1.12236"
         inkscape:path-effect="#path-effect9119-3"
         id="path9117"
         d="m 381.2719,587.78973 c 2.85668,-0.27917 5.72547,-0.43448 8.59559,-0.46536 0.36275,-0.004 0.72767,-0.006 1.08547,0.0542 0.35781,0.0599 0.71141,0.18492 0.99499,0.41116 0.34114,0.27216 0.56407,0.68763 0.60224,1.12236"
         style="display:inline;fill:none;fill-opacity:1;fill-rule:evenodd;stroke:#23763f;stroke-width:1.32073443;stroke-linecap:round;stroke-linejoin:round;stroke-opacity:1;stroke-miterlimit:4;stroke-dasharray:none"
         transform="translate(-1267.6179,-155.83325)" />
      <path
         inkscape:connector-curvature="0"
         inkscape:original-d="m 371.22255,586.25317 c -2.09052,-0.46456 -2.86479,-0.77427 -4.41332,-0.8517 -1.54854,-0.0774 -2.47766,0.11614 -2.67122,0.54199 -0.19357,0.42585 -0.19357,0.46456 -0.19357,0.46456"
         inkscape:path-effect="#path-effect9123-5"
         id="path9121"
         d="m 371.22255,586.25317 c -1.46883,-0.29555 -2.94,-0.57946 -4.41332,-0.8517 -0.47431,-0.0876 -0.95692,-0.17442 -1.43639,-0.12191 -0.23974,0.0263 -0.47702,0.088 -0.69203,0.19719 -0.21502,0.10923 -0.40733,0.26719 -0.5428,0.46671 -0.0949,0.13973 -0.16116,0.2988 -0.19357,0.46456"
         style="display:inline;fill:none;fill-opacity:1;fill-rule:evenodd;stroke:#23763f;stroke-width:1.32073443;stroke-linecap:round;stroke-linejoin:round;stroke-opacity:1;stroke-miterlimit:4;stroke-dasharray:none"
         transform="translate(-1267.6179,-155.83325)" />
      <path
         sodipodi:nodetypes="cssssssc"
         inkscape:connector-curvature="0"
         inkscape:original-d="m 363.15414,570.45488 c 1.54853,-2.86479 -1.8035,-4.02296 5.47462,-4.02296 7.27811,0 9.67834,-0.61941 15.17564,-0.85169 5.4973,-0.23228 5.41987,-1.78082 10.22033,-1.62597 4.80046,0.15486 7.97496,0.61942 8.51694,4.02619 0.54199,3.40678 0.15486,4.80046 1.54854,8.6718 1.39368,3.87134 3.25192,5.96186 4.56818,7.74268 1.31625,1.78081 2.01309,3.87133 2.01309,3.87133"
         inkscape:path-effect="#path-effect9127-0"
         id="path9125"
         d="m 363.15414,570.45488 c 1.3963,-1.82152 3.31917,-3.23452 5.47462,-4.02296 2.39219,-0.87503 4.99412,-0.9777 7.54039,-0.90845 2.54626,0.0692 5.09973,0.30046 7.63525,0.0568 3.43759,-0.33041 6.7683,-1.52768 10.22033,-1.62597 1.65385,-0.0471 3.33472,0.16718 4.85724,0.81478 1.52252,0.64759 2.87962,1.75232 3.6597,3.21141 0.69649,1.30275 0.90472,2.80672 1.0178,4.27963 0.11309,1.47291 0.14487,2.96621 0.53074,4.39217 0.78687,2.90783 2.93816,5.20937 4.56818,7.74268 0.78814,1.22489 1.46298,2.52266 2.01309,3.87133"
         style="display:inline;fill:none;fill-opacity:1;fill-rule:evenodd;stroke:#23763f;stroke-width:1.32073443;stroke-linecap:round;stroke-linejoin:round;stroke-opacity:1;stroke-miterlimit:4;stroke-dasharray:none"
         transform="translate(-1267.6179,-155.83325)" />
      <path
         sodipodi:nodetypes="cccssssssssssscssc"
         inkscape:connector-curvature="0"
         inkscape:original-d="m 362.35719,565.11567 c 0.23228,-4.10362 -0.46453,-2.32281 -0.77427,-4.18105 -0.3097,-1.85824 -1.1614,-2.47766 -1.39368,-2.78736 -0.23228,-0.30971 0.38714,-0.38714 1.39368,-0.8517 1.00655,-0.46456 3.01965,-0.77426 3.48421,-2.16795 0.46456,-1.39368 -1.54854,-1.54853 1.31625,-2.63251 2.86479,-1.08397 5.41987,-3.40677 7.5104,-3.79391 2.09052,-0.38713 5.11016,-1.08397 7.66525,-1.85824 2.55508,-0.77427 5.57472,-2.63251 9.21378,-2.47765 3.63906,0.15485 6.58127,0.61941 10.1429,2.09052 3.56163,1.47111 3.71649,2.78736 6.03929,4.56818 2.3228,1.78081 5.11017,3.25192 4.3359,4.02619 -0.77427,0.77427 2.55508,0.54198 3.17449,1.85824 0.61942,1.31625 1.39369,3.87134 1.00655,6.81355 -0.38713,2.94222 0.61942,6.19414 0.0774,8.20724 -0.54199,2.01309 -0.8517,2.55508 -1.23883,4.72303 -0.38713,2.16795 -1.23883,5.88443 -2.01309,7.43297 -0.77427,1.54853 -1.62597,4.18104 -1.62597,4.18104"
         inkscape:path-effect="#path-effect9131-0"
         id="path9129"
         d="m 362.35719,565.11567 c 0.26143,-0.69719 0.32911,-1.46591 0.19352,-2.19805 -0.13558,-0.73215 -0.47404,-1.42565 -0.96779,-1.983 -0.37073,-0.41848 -0.82646,-0.76161 -1.15307,-1.21537 -0.16331,-0.22688 -0.29295,-0.48218 -0.3464,-0.75656 -0.0535,-0.27439 -0.0265,-0.56919 0.10579,-0.81543 0.13236,-0.24632 0.36067,-0.42981 0.60886,-0.55863 0.24819,-0.12882 0.51829,-0.20849 0.78482,-0.29307 0.66365,-0.21061 1.31948,-0.45771 1.92338,-0.80426 0.6039,-0.34655 1.15665,-0.79675 1.56083,-1.36369 0.57041,-0.80011 0.81731,-1.78598 1.31625,-2.63251 0.73509,-1.24718 1.984,-2.12461 3.31993,-2.6824 1.33593,-0.55778 2.77081,-0.82797 4.19047,-1.11151 2.57928,-0.51515 5.15069,-1.08683 7.66525,-1.85824 3.04692,-0.93473 6.04168,-2.16914 9.21378,-2.47765 3.48366,-0.33881 7.03509,0.48048 10.1429,2.09052 2.25132,1.16632 4.28382,2.73868 6.03929,4.56818 1.37132,1.42915 2.61467,3.04623 4.3359,4.02619 0.53554,0.3049 1.10686,0.54122 1.65797,0.81698 0.5511,0.27576 1.08956,0.59689 1.51652,1.04126 0.41059,0.42733 0.70558,0.95796 0.89533,1.51937 0.18975,0.56142 0.2769,1.15381 0.30299,1.74585 0.0522,1.18409 -0.13615,2.3644 -0.19177,3.54833 -0.12857,2.73659 0.45154,5.4933 0.0774,8.20724 -0.22253,1.61419 -0.77626,3.16061 -1.23883,4.72303 -0.72878,2.46162 -1.23645,4.98602 -2.01309,7.43297 -0.45268,1.42625 -0.99613,2.82368 -1.62597,4.18104"
         style="display:inline;fill:none;fill-opacity:1;fill-rule:evenodd;stroke:#23763f;stroke-width:1.32073443;stroke-linecap:round;stroke-linejoin:round;stroke-opacity:1;stroke-miterlimit:4;stroke-dasharray:none"
         transform="translate(-1267.6179,-155.83325)" />
      <path
         sodipodi:nodetypes="csssssscc"
         inkscape:connector-curvature="0"
         inkscape:original-d="m 409.52237,589.45958 c 0.71378,-0.93576 1.68564,-1.45074 2.66052,-1.72215 1.06302,-0.29596 2.12964,-0.30231 2.86913,-0.24882 5.29781,0.38325 3.20263,-0.0815 1.64247,5.03691 -0.57688,1.89259 -1.58772,4.16092 -1.91622,5.20115 -0.32849,1.04023 -0.98548,2.18997 -1.53297,3.1207 -0.54749,0.93073 -2.5732,2.68269 -3.28494,3.28493 -0.71174,0.60224 -0.65698,1.58773 -2.29945,1.64248 -1.64247,0.0548 -1.91622,0.43804 -1.91622,0.43804"
         inkscape:path-effect="#path-effect9135-1"
         id="path9133"
         d="m 409.52237,589.45958 c 0.77677,-0.72402 1.68192,-1.30992 2.66052,-1.72215 0.45388,-0.19119 0.92679,-0.34607 1.41556,-0.4066 0.48877,-0.0605 0.99567,-0.0236 1.45357,0.15778 0.44817,0.17749 0.83792,0.48986 1.13166,0.87204 0.29375,0.38219 0.49345,0.83242 0.60773,1.30071 0.22856,0.93658 0.11823,1.92441 -0.0969,2.86416 -0.41291,1.8036 -1.19875,3.49565 -1.91622,5.20115 -0.45022,1.07022 -0.88028,2.16045 -1.53297,3.1207 -0.87337,1.28491 -2.10286,2.27674 -3.28494,3.28493 -0.71915,0.61336 -1.44035,1.24837 -2.29945,1.64248 -0.59975,0.27513 -1.2565,0.42526 -1.91622,0.43804"
         style="display:inline;fill:none;fill-opacity:1;fill-rule:evenodd;stroke:#23763f;stroke-width:1.32073443;stroke-linecap:round;stroke-linejoin:round;stroke-opacity:1;stroke-miterlimit:4;stroke-dasharray:none"
         transform="translate(-1267.6179,-155.83325)" />
      <path
         sodipodi:nodetypes="cssscssssc"
         inkscape:connector-curvature="0"
         inkscape:original-d="m 408.55567,597.92091 c 0.14954,-1.09656 0.65097,-0.99255 0.75951,-1.96382 0.0699,-0.6252 -0.65697,-1.16354 -0.56039,-2.01537 0.083,-0.73198 0.95627,-1.79671 1.36982,-2.18269 1.64247,-1.53298 3.50394,-2.84694 3.83243,-2.90169 0.32849,-0.0548 1.58772,0.82123 1.58772,1.75197 0,0.93073 -0.82124,1.69721 -1.09498,3.17544 -0.27374,1.47822 -0.93073,2.40895 -1.25923,3.44918 -0.32849,1.04023 -1.25922,2.51846 -2.13521,3.39444 -0.87598,0.87598 -3.23019,1.14973 -3.33968,0.93073"
         inkscape:path-effect="#path-effect9139-3"
         id="path9137"
         d="m 408.55567,597.92091 c 0.28983,-0.22734 0.51684,-0.53395 0.64971,-0.8775 0.13287,-0.34356 0.17123,-0.72313 0.1098,-1.08632 -0.0585,-0.34576 -0.20369,-0.66964 -0.33143,-0.99622 -0.12774,-0.32658 -0.24053,-0.66867 -0.22896,-1.01915 0.0145,-0.43924 0.22435,-0.85129 0.49045,-1.20106 0.26609,-0.34977 0.58983,-0.65101 0.87937,-0.98163 0.55644,-0.6354 0.98557,-1.37817 1.57803,-1.98011 0.29623,-0.30097 0.63464,-0.56601 1.01944,-0.73998 0.3848,-0.17397 0.81879,-0.25328 1.23496,-0.1816 0.41627,0.0717 0.80261,0.29482 1.0829,0.61081 0.2803,0.316 0.45478,0.72174 0.50482,1.14116 0.0674,0.56513 -0.0858,1.13623 -0.31354,1.65782 -0.22773,0.5216 -0.52938,1.00734 -0.78144,1.51762 -0.54251,1.09827 -0.84861,2.2951 -1.25923,3.44918 -0.45411,1.2763 -1.07433,2.55201 -2.13521,3.39444 -0.92952,0.73812 -2.16238,1.0817 -3.33968,0.93073"
         style="display:inline;fill:none;fill-opacity:1;fill-rule:evenodd;stroke:#23763f;stroke-width:1.32073443;stroke-linecap:round;stroke-linejoin:round;stroke-opacity:1;stroke-miterlimit:4;stroke-dasharray:none"
         transform="translate(-1267.6179,-155.83325)" />
      <path
         sodipodi:nodetypes="cssc"
         inkscape:connector-curvature="0"
         inkscape:original-d="m 384.61159,602.65408 c 0.49676,1.60856 1.16727,2.58343 1.80839,3.22933 0.84273,0.84901 1.6347,1.12962 1.91454,1.53383 0.49274,0.71174 1.42347,3.39444 1.47822,4.05143"
         inkscape:path-effect="#path-effect9143-8"
         id="path9141"
         d="m 384.61159,602.65408 c 0.23041,1.23454 0.87621,2.38778 1.80839,3.22933 0.60736,0.54832 1.32712,0.9642 1.91454,1.53383 1.06784,1.03549 1.6283,2.57156 1.47822,4.05143"
         style="display:inline;fill:none;fill-opacity:1;fill-rule:evenodd;stroke:#23763f;stroke-width:1.32073443;stroke-linecap:round;stroke-linejoin:round;stroke-opacity:1;stroke-miterlimit:4;stroke-dasharray:none"
         transform="translate(-1267.6179,-155.83325)" />
      <path
         inkscape:connector-curvature="0"
         inkscape:original-d="m 369.39137,602.38034 c -2.02571,2.3542 -2.02571,3.23019 -2.24471,4.27042 -0.21899,1.04023 0.219,1.75196 -0.27374,2.73745 -0.49274,0.98548 -0.71174,1.75196 0.38324,2.5732 1.09498,0.82123 1.69722,1.42347 2.35421,2.18996 0.65698,0.76648 1.64246,1.91621 1.69721,2.18996"
         inkscape:path-effect="#path-effect9147-6"
         id="path9145"
         d="m 369.39137,602.38034 c -1.11926,1.1828 -1.90509,2.6778 -2.24471,4.27042 -0.19151,0.89808 -0.2432,1.81968 -0.27374,2.73745 -0.0146,0.43862 -0.0244,0.87893 0.023,1.31522 0.0474,0.4363 0.15383,0.87071 0.36028,1.25798 0.25411,0.47667 0.64906,0.86353 1.06972,1.20239 0.42065,0.33887 0.87284,0.63782 1.28449,0.98757 0.70888,0.60228 1.29086,1.35322 1.69721,2.18996"
         style="display:inline;fill:none;fill-opacity:1;fill-rule:evenodd;stroke:#23763f;stroke-width:1.32073443;stroke-linecap:round;stroke-linejoin:round;stroke-opacity:1;stroke-miterlimit:4;stroke-dasharray:none"
         transform="translate(-1267.6179,-155.83325)" />
      <path
         sodipodi:nodetypes="cscssssssscsssscc"
         inkscape:connector-curvature="0"
         inkscape:original-d="m 362.1645,575.71758 c 0.38325,3.72293 0.16425,4.81791 0.3285,6.78888 0.16424,1.97096 0.0548,3.88717 -0.54749,5.58439 -0.60224,1.69722 -1.91622,3.83243 -1.25923,6.56988 0.65699,2.73745 0.219,4.10617 0.60224,6.62463 0.38324,2.51845 2.08046,8.43134 2.6827,9.58107 0.60224,1.14973 1.91621,2.29946 2.4637,4.32517 0.54749,2.02571 1.31398,4.10617 2.02572,5.63914 0.71173,1.53297 1.31397,4.32517 2.5732,5.74865 1.25923,1.42347 3.44918,2.02571 4.98216,2.4637 1.53297,0.43799 1.97096,1.09498 4.43466,1.14973 2.46371,0.0548 5.85814,-1.04023 7.44586,-1.80672 1.58773,-0.76648 3.31312,-1.6956 5.28409,-2.95483 1.97096,-1.25923 6.08653,-5.49368 7.01726,-6.80766 0.93074,-1.31397 3.57586,-5.18398 4.23285,-6.33371 0.65698,-1.14973 2.29945,-10.29281 2.3542,-12.20902 0.0548,-1.91621 0.16425,-3.61343 0.38325,-4.59891"
         inkscape:path-effect="#path-effect9151-4"
         id="path9149"
         d="m 362.1645,575.71758 c 0.2719,2.2512 0.38177,4.52195 0.3285,6.78888 -0.044,1.87196 -0.19961,3.74451 -0.54749,5.58439 -0.41465,2.19305 -1.10244,4.34348 -1.25923,6.56988 -0.15617,2.21764 0.21989,4.43462 0.60224,6.62463 0.5726,3.27975 1.18,6.61012 2.6827,9.58107 0.74905,1.48093 1.70891,2.84715 2.4637,4.32517 0.91013,1.78221 1.5111,3.70529 2.02572,5.63914 0.27341,1.02741 0.52469,2.06406 0.90895,3.05536 0.38426,0.99129 0.90984,1.94416 1.66425,2.69329 0.66375,0.65911 1.4851,1.14132 2.3415,1.51756 0.85641,0.37624 1.75268,0.65208 2.64066,0.94614 1.45334,0.48129 2.9094,1.01776 4.43466,1.14973 2.57432,0.22274 5.10012,-0.72309 7.44586,-1.80672 1.83451,-0.84747 3.63072,-1.79293 5.28409,-2.95483 2.67439,-1.87943 4.92966,-4.2924 7.01726,-6.80766 1.62667,-1.95991 3.17797,-4.01541 4.23285,-6.33371 1.72593,-3.79308 2.02705,-8.05459 2.3542,-12.20902 0.12076,-1.53354 0.24851,-3.06653 0.38325,-4.59891"
         style="display:inline;fill:none;fill-opacity:1;fill-rule:evenodd;stroke:#23763f;stroke-width:1.32073443;stroke-linecap:round;stroke-linejoin:round;stroke-opacity:1;stroke-miterlimit:4;stroke-dasharray:none"
         transform="translate(-1267.6179,-155.83325)" />
      <path
         inkscape:connector-curvature="0"
         inkscape:original-d="m 370.2126,612.56365 c 2.57321,-0.16425 4.10618,0.54749 5.03691,0.54749 0.93073,0 2.08046,-0.3285 3.28494,-0.1095 1.20448,0.21899 3.39444,0.60224 4.87266,0.54749 1.47822,-0.0548 3.61343,0.32849 3.61343,0.32849 l 0.43799,0.1095"
         inkscape:path-effect="#path-effect9155-3"
         id="path9153"
         d="m 370.2126,612.56365 c 1.64719,0.39253 3.34385,0.57695 5.03691,0.54749 1.09559,-0.0191 2.18933,-0.1272 3.28494,-0.1095 1.63537,0.0264 3.25128,0.33241 4.87266,0.54749 1.19928,0.15909 2.40512,0.26871 3.61343,0.32849 l 0.43799,0.1095"
         style="display:inline;fill:none;fill-opacity:1;fill-rule:evenodd;stroke:#23763f;stroke-width:1.32073443;stroke-linecap:round;stroke-linejoin:round;stroke-opacity:1;stroke-miterlimit:4;stroke-dasharray:none"
         transform="translate(-1267.6179,-155.83325)" />
      <path
         inkscape:connector-curvature="0"
         inkscape:original-d="m 372.06225,612.91411 c 3.13251,1.4015 3.5705,1.67525 5.15822,1.56575 1.58772,-0.1095 2.48679,1.34939 4.87266,0.27375"
         inkscape:path-effect="#path-effect9159-2"
         id="path9157"
         d="m 372.06225,612.91411 c 1.64504,0.73453 3.38245,1.26192 5.15822,1.56575 1.60692,0.27494 3.24506,0.36698 4.87266,0.27375"
         style="display:inline;fill:none;fill-opacity:1;fill-rule:evenodd;stroke:#23763f;stroke-width:1.32073443;stroke-linecap:round;stroke-linejoin:round;stroke-opacity:1;stroke-miterlimit:4;stroke-dasharray:none"
         transform="translate(-1267.6179,-155.83325)" />
      <path
         inkscape:connector-curvature="0"
         inkscape:original-d="m 372.29307,614.91785 c 1.04023,1.58772 -0.16425,2.08046 2.3542,2.51846 2.51845,0.43799 2.6827,1.20447 4.81791,0.60223 2.13521,-0.60223 4.32517,-1.53297 4.76316,-1.69721"
         inkscape:path-effect="#path-effect9163-5"
         id="path9161"
         d="m 372.29307,614.91785 c 0.48268,1.06559 1.32354,1.96512 2.3542,2.51846 1.45124,0.77915 3.18969,0.85138 4.81791,0.60223 1.67622,-0.2565 3.30243,-0.83595 4.76316,-1.69721"
         style="display:inline;fill:none;fill-opacity:1;fill-rule:evenodd;stroke:#23763f;stroke-width:1.32073443;stroke-linecap:round;stroke-linejoin:round;stroke-opacity:1;stroke-miterlimit:4;stroke-dasharray:none"
         transform="translate(-1267.6179,-155.83325)" />
      <path
         inkscape:connector-curvature="0"
         inkscape:original-d="m 408.42739,607.58149 c 1.20448,2.95644 1.25923,4.27042 1.31398,5.20115 0.0547,0.93074 0.87598,0.54749 2.62795,1.04023 1.75197,0.49274 4.92741,3.17544 6.18663,4.16093 1.25923,0.98548 0.54749,1.91621 4.05143,2.6827 3.50393,0.76648 10.8403,5.20115 13.35875,5.91289 2.51845,0.71173 5.85814,3.33968 5.85814,3.33968"
         inkscape:path-effect="#path-effect9167-8"
         id="path9165"
         d="m 408.42739,607.58149 c -0.47955,0.86067 -0.61671,1.90615 -0.37538,2.86139 0.24132,0.95524 0.85857,1.81013 1.68936,2.33976 0.79645,0.50774 1.74334,0.70915 2.62795,1.04023 2.33785,0.87498 4.20789,2.63918 6.18663,4.16093 1.28502,0.98824 2.63875,1.88756 4.05143,2.6827 4.24604,2.38991 8.9638,3.80932 13.35875,5.91289 2.02921,0.97125 3.98863,2.0883 5.85814,3.33968"
         style="display:inline;fill:none;fill-opacity:1;fill-rule:evenodd;stroke:#23763f;stroke-width:1.32073443;stroke-linecap:round;stroke-linejoin:round;stroke-opacity:1;stroke-miterlimit:4;stroke-dasharray:none"
         transform="translate(-1267.6179,-155.83325)" />
      <path
         sodipodi:nodetypes="cscscscsssscc"
         inkscape:connector-curvature="0"
         inkscape:original-d="m 394.46357,626.36067 c -4.43467,2.08046 -14.50565,8.15732 -17.46209,8.32156 -2.95645,0.16425 -4.59892,0.60224 -4.59892,0.60224 0,0 6.18664,3.99668 9.25258,4.76316 3.06594,0.76649 5.80339,1.58773 5.80339,1.58773 0,0 -0.98548,0.32849 -1.47822,1.53297 -0.49274,1.20447 -0.1095,2.4637 0.0548,3.44918 0.16425,0.98548 0.54749,0.82124 -0.219,2.40896 -0.76648,1.58772 -1.09498,2.73745 -1.20447,4.32517 -0.1095,1.58772 1.64247,0.87598 -0.1095,3.33968 -1.75197,2.46371 -1.97097,1.86147 -2.08046,3.55869 -0.1095,1.69722 0.0548,7.61011 0.76648,8.75984 0.71174,1.14972 1.75197,5.47489 1.91622,6.67937"
         inkscape:path-effect="#path-effect9171-2"
         id="path9169"
         d="m 394.46357,626.36067 c -4.98977,4.19332 -11.06224,7.08716 -17.46209,8.32156 -1.519,0.29298 -3.0557,0.49422 -4.59892,0.60224 2.85645,1.98596 5.97658,3.59218 9.25258,4.76316 1.89037,0.6757 3.83233,1.20699 5.80339,1.58773 -0.67828,0.27322 -1.22984,0.84521 -1.47822,1.53297 -0.19718,0.54598 -0.20676,1.14244 -0.15351,1.72048 0.0533,0.57805 0.16685,1.14969 0.20831,1.7287 0.0578,0.80752 -0.026,1.62272 -0.219,2.40896 -0.35766,1.45688 -1.08854,2.82951 -1.20447,4.32517 -0.0863,1.11397 0.17351,2.25881 -0.1095,3.33968 -0.17483,0.66773 -0.54698,1.26565 -0.9437,1.83049 -0.39671,0.56484 -0.82548,1.11214 -1.13676,1.7282 -0.68038,1.34654 -0.74892,2.93334 -0.5042,4.42203 0.24472,1.48869 0.78238,2.91035 1.27068,4.33781 0.75001,2.19251 1.38982,4.42271 1.91622,6.67937"
         style="display:inline;fill:none;fill-opacity:1;fill-rule:evenodd;stroke:#23763f;stroke-width:1.32073443;stroke-linecap:round;stroke-linejoin:round;stroke-opacity:1;stroke-miterlimit:4;stroke-dasharray:none"
         transform="translate(-1267.6179,-155.83325)" />
      <path
         inkscape:connector-curvature="0"
         inkscape:original-d="m 366.70867,624.00618 c -2.84695,5.91289 -4.92741,5.91289 -4.05143,10.51181 0.87599,4.59891 0,10.18331 0.3285,13.46825 0.32849,3.28494 -0.76649,8.43134 0.54749,13.13975 1.31397,4.70841 2.62795,6.78888 2.62795,6.78888"
         inkscape:path-effect="#path-effect9175-0"
         id="path9173"
         d="m 366.70867,624.00618 c -2.18058,3.1034 -3.58515,6.74769 -4.05143,10.51181 -0.55289,4.46329 0.19587,8.97281 0.3285,13.46825 0.1295,4.38948 -0.32555,8.83602 0.54749,13.13975 0.48473,2.38954 1.37746,4.69577 2.62795,6.78888"
         style="display:inline;fill:none;fill-opacity:1;fill-rule:evenodd;stroke:#23763f;stroke-width:1.32073443;stroke-linecap:round;stroke-linejoin:round;stroke-opacity:1;stroke-miterlimit:4;stroke-dasharray:none"
         transform="translate(-1267.6179,-155.83325)" />
      <path
         inkscape:connector-curvature="0"
         inkscape:original-d="m 373.11951,638.67108 c -1.54854,1.62596 -2.63251,2.16795 -1.78082,3.32935 0.8517,1.1614 2.63251,-0.23228 1.23883,2.16795 -1.39368,2.40023 -1.39368,2.70993 -1.39368,2.70993"
         inkscape:path-effect="#path-effect9179-3"
         id="path9177"
         d="m 373.11951,638.67108 c -0.69903,0.15189 -1.32219,0.62248 -1.65958,1.25326 -0.3374,0.63077 -0.38292,1.41033 -0.12124,2.07609 0.15276,0.38866 0.40034,0.7313 0.63932,1.07376 0.23898,0.34247 0.47496,0.69559 0.59951,1.09419 0.1679,0.53734 0.1159,1.1399 -0.14157,1.64054 -0.25747,0.50063 -0.71736,0.89341 -1.25211,1.06939"
         style="display:inline;fill:none;fill-opacity:1;fill-rule:evenodd;stroke:#23763f;stroke-width:1.32073443;stroke-linecap:round;stroke-linejoin:round;stroke-opacity:1;stroke-miterlimit:4;stroke-dasharray:none"
         transform="translate(-1267.6179,-155.83325)" />
      <path
         inkscape:connector-curvature="0"
         inkscape:original-d="m 375.21003,639.67763 c 0.77427,1.31625 0.61942,1.4711 1.08398,2.94221 0.46456,1.47111 0.0774,0.8517 1.85824,2.09052 1.78081,1.23883 2.24537,0.8517 3.94876,2.47766 1.70339,1.62596 3.1604,3.58068 3.06951,3.84833"
         inkscape:path-effect="#path-effect9183-2"
         id="path9181"
         d="m 375.21003,639.67763 c 0.16233,1.03945 0.53313,2.0459 1.08398,2.94221 0.49067,0.7984 1.12338,1.50899 1.85824,2.09052 1.21958,0.96511 2.69277,1.56044 3.94876,2.47766 1.34097,0.97928 2.4129,2.32319 3.06951,3.84833"
         style="display:inline;fill:none;fill-opacity:1;fill-rule:evenodd;stroke:#23763f;stroke-width:1.32073443;stroke-linecap:round;stroke-linejoin:round;stroke-opacity:1;stroke-miterlimit:4;stroke-dasharray:none"
         transform="translate(-1267.6179,-155.83325)" />
      <path
         inkscape:connector-curvature="0"
         inkscape:original-d="m 380.70733,641.61329 c 0.92912,2.94222 1.39368,5.57473 1.39368,5.57473"
         inkscape:path-effect="#path-effect9187-9"
         id="path9185"
         d="m 380.70733,641.61329 1.39368,5.57473"
         style="display:inline;fill:none;fill-opacity:1;fill-rule:evenodd;stroke:#23763f;stroke-width:1.32073443;stroke-linecap:round;stroke-linejoin:round;stroke-opacity:1;stroke-miterlimit:4;stroke-dasharray:none"
         transform="translate(-1267.6179,-155.83325)" />
      <ellipse
         transform="matrix(1.2024514,0,0,1.2024514,-1346.315,-275.32987)"
         ry="0.94650573"
         rx="1.3244033"
         cy="590.24835"
         cx="388.72125"
         id="ellipse9189"
         style="display:inline;opacity:1;fill:#23763f;fill-opacity:1;stroke:none;stroke-width:1;stroke-linecap:round;stroke-linejoin:round;stroke-miterlimit:4;stroke-dasharray:none;stroke-dashoffset:12.75590515;stroke-opacity:1" />
      <ellipse
         transform="matrix(1.2281517,0,0,1.2281517,-1351.9947,-290.07005)"
         ry="0.95986962"
         rx="1.4220183"
         cy="588.36633"
         cx="369.82791"
         id="ellipse9191"
         style="display:inline;opacity:1;fill:#23763f;fill-opacity:1;stroke:none;stroke-width:1;stroke-linecap:round;stroke-linejoin:round;stroke-miterlimit:4;stroke-dasharray:none;stroke-dashoffset:12.75590515;stroke-opacity:1" />
      <path
         inkscape:connector-curvature="0"
         inkscape:original-d="m 390.25073,642.40184 c 1.86147,-0.43799 9.52632,-1.20448 11.16879,-3.06594 1.64247,-1.86147 7.88386,-6.13189 8.75984,-9.08833 0.87598,-2.95645 3.83243,-9.52632 3.83243,-9.52632"
         inkscape:path-effect="#path-effect9195-7"
         id="path9193"
         d="m 390.25073,642.40184 c 3.90906,0.0208 7.81823,-1.05225 11.16879,-3.06594 3.6429,-2.18939 6.57831,-5.44072 8.75984,-9.08833 1.76403,-2.94953 3.0624,-6.17691 3.83243,-9.52632"
         style="display:inline;fill:none;fill-opacity:1;fill-rule:evenodd;stroke:#23763f;stroke-width:1.32073443;stroke-linecap:butt;stroke-linejoin:miter;stroke-opacity:1;stroke-miterlimit:4;stroke-dasharray:none"
         transform="translate(-1267.6179,-155.83325)" />
      <path
         sodipodi:nodetypes="ccc"
         inkscape:connector-curvature="0"
         inkscape:original-d="m 374.11971,633.75426 c 0.43799,-3.61344 0.14432,-4.71117 0.14432,-4.71117 l 0,0.219"
         inkscape:path-effect="#path-effect9199-8"
         id="path9197"
         d="m 374.11971,633.75426 0.14432,-4.71117 0,0.219"
         style="display:inline;fill:none;fill-opacity:1;fill-rule:evenodd;stroke:#23763f;stroke-width:1.32073443;stroke-linecap:round;stroke-linejoin:round;stroke-opacity:1;stroke-miterlimit:4;stroke-dasharray:none"
         transform="translate(-1267.6179,-155.83325)" />
      <path
         sodipodi:nodetypes="cc"
         inkscape:connector-curvature="0"
         inkscape:original-d="m 374.46196,628.8871 c 0.93073,1.91621 3.08701,4.26216 3.08701,4.26216"
         inkscape:path-effect="#path-effect9203-1"
         id="path9201"
         d="m 374.46196,628.8871 3.08701,4.26216"
         style="display:inline;fill:none;fill-opacity:1;fill-rule:evenodd;stroke:#23763f;stroke-width:1.32073443;stroke-linecap:round;stroke-linejoin:round;stroke-opacity:1;stroke-miterlimit:4;stroke-dasharray:none"
         transform="translate(-1267.6179,-155.83325)" />
    </g>
  </g>
</svg>
