<?xml version="1.0" encoding="UTF-8" standalone="no"?>
<!-- Created with Inkscape (http://www.inkscape.org/) -->

<svg
   xmlns:dc="http://purl.org/dc/elements/1.1/"
   xmlns:cc="http://creativecommons.org/ns#"
   xmlns:rdf="http://www.w3.org/1999/02/22-rdf-syntax-ns#"
   xmlns:svg="http://www.w3.org/2000/svg"
   xmlns="http://www.w3.org/2000/svg"
   xmlns:sodipodi="http://sodipodi.sourceforge.net/DTD/sodipodi-0.dtd"
   xmlns:inkscape="http://www.inkscape.org/namespaces/inkscape"
   width="61.092163mm"
   height="60mm"
   viewBox="0 0 216.46828 212.59842"
   id="svg6331"
   version="1.1"
   inkscape:version="0.91 r"
   sodipodi:docname="Julien-Deswaef.svg">
  <defs
     id="defs6333">
    <inkscape:path-effect
       is_visible="true"
       id="path-effect9099-9"
       effect="spiro" />
    <inkscape:path-effect
       is_visible="true"
       id="path-effect9103-9"
       effect="spiro" />
    <inkscape:path-effect
       is_visible="true"
       id="path-effect9107-4"
       effect="spiro" />
    <inkscape:path-effect
       is_visible="true"
       id="path-effect9111-1"
       effect="spiro" />
    <inkscape:path-effect
       is_visible="true"
       id="path-effect9115-6"
       effect="spiro" />
    <inkscape:path-effect
       is_visible="true"
       id="path-effect9119-3"
       effect="spiro" />
    <inkscape:path-effect
       is_visible="true"
       id="path-effect9123-5"
       effect="spiro" />
    <inkscape:path-effect
       is_visible="true"
       id="path-effect9127-0"
       effect="spiro" />
    <inkscape:path-effect
       is_visible="true"
       id="path-effect9131-0"
       effect="spiro" />
    <inkscape:path-effect
       is_visible="true"
       id="path-effect9135-1"
       effect="spiro" />
    <inkscape:path-effect
       is_visible="true"
       id="path-effect9139-3"
       effect="spiro" />
    <inkscape:path-effect
       is_visible="true"
       id="path-effect9143-8"
       effect="spiro" />
    <inkscape:path-effect
       is_visible="true"
       id="path-effect9147-6"
       effect="spiro" />
    <inkscape:path-effect
       is_visible="true"
       id="path-effect9151-4"
       effect="spiro" />
    <inkscape:path-effect
       is_visible="true"
       id="path-effect9155-3"
       effect="spiro" />
    <inkscape:path-effect
       is_visible="true"
       id="path-effect9159-2"
       effect="spiro" />
    <inkscape:path-effect
       is_visible="true"
       id="path-effect9163-5"
       effect="spiro" />
    <inkscape:path-effect
       is_visible="true"
       id="path-effect9167-8"
       effect="spiro" />
    <inkscape:path-effect
       is_visible="true"
       id="path-effect9171-2"
       effect="spiro" />
    <inkscape:path-effect
       is_visible="true"
       id="path-effect9175-0"
       effect="spiro" />
    <inkscape:path-effect
       is_visible="true"
       id="path-effect9179-3"
       effect="spiro" />
    <inkscape:path-effect
       is_visible="true"
       id="path-effect9183-2"
       effect="spiro" />
    <inkscape:path-effect
       is_visible="true"
       id="path-effect9187-9"
       effect="spiro" />
    <inkscape:path-effect
       is_visible="true"
       id="path-effect9195-7"
       effect="spiro" />
    <inkscape:path-effect
       is_visible="true"
       id="path-effect9199-8"
       effect="spiro" />
    <inkscape:path-effect
       is_visible="true"
       id="path-effect9203-1"
       effect="spiro" />
  </defs>
  <sodipodi:namedview
     id="base"
     pagecolor="#ffffff"
     bordercolor="#666666"
     borderopacity="1.0"
     inkscape:pageopacity="0.0"
     inkscape:pageshadow="2"
     inkscape:zoom="1.979899"
     inkscape:cx="-55.551658"
     inkscape:cy="36.690532"
     inkscape:document-units="mm"
     inkscape:current-layer="layer1"
     showgrid="false"
     fit-margin-top="5"
     fit-margin-left="5"
     fit-margin-right="5"
     fit-margin-bottom="5" />
  <metadata
     id="metadata6336">
    <rdf:RDF>
      <cc:Work
         rdf:about="">
        <dc:format>image/svg+xml</dc:format>
        <dc:type
           rdf:resource="http://purl.org/dc/dcmitype/StillImage" />
        <dc:title></dc:title>
      </cc:Work>
    </rdf:RDF>
  </metadata>
  <g
     inkscape:label="Calque 1"
     inkscape:groupmode="layer"
     id="layer1"
     transform="translate(-316.69309,-324.19335)">
    <g
       style="display:inline;fill:none;fill-opacity:0.99607843;stroke:#23773f;stroke-width:0.70779532;stroke-opacity:0.99607843"
       id="g8671"
       transform="matrix(1.6539872,0,0,1.6540682,-408.16786,-192.22658)">
      <path
         transform="translate(9.8863758e-8,3.3185045e-6)"
         style="display:inline;fill:none;fill-opacity:0.99607843;fill-rule:evenodd;stroke:#23773f;stroke-width:1.07111479;stroke-linecap:round;stroke-linejoin:round;stroke-opacity:0.99607843;stroke-miterlimit:4;stroke-dasharray:none"
         d="m 483.67367,332.31282 c 2.68007,1.91582 5.87414,3.10533 9.1545,3.40926 1.60423,0.14863 3.26755,0.0805 4.75409,-0.54068 0.74327,-0.31057 1.43356,-0.75893 1.98765,-1.34365 0.55409,-0.58472 0.96872,-1.30827 1.15008,-2.09314 0.13654,-0.59087 0.1406,-1.20411 0.23924,-1.80247 0.0493,-0.29918 0.12285,-0.59605 0.24545,-0.87338 0.12259,-0.27733 0.29589,-0.53533 0.52546,-0.73342 0.36509,-0.31502 0.8594,-0.46181 1.34132,-0.44503 0.48192,0.0168 0.95075,0.18889 1.35798,0.44714 0.81447,0.51649 1.36973,1.34525 1.90952,2.14447 1.48982,2.20583 3.04688,4.37209 4.79823,6.37659 1.39815,1.60024 2.94211,3.13005 3.85121,5.05076 0.87561,1.84995 1.10005,3.94428 1.07613,5.99085 -0.0239,2.04656 -0.28278,4.08459 -0.31852,6.13098 -0.0426,2.44119 0.23244,4.88157 0.14486,7.32156 -0.0876,2.43999 -0.5736,4.94805 -1.97576,6.94684 -1.26714,1.80632 -3.16731,3.0462 -4.98763,4.29315 -0.78516,0.53784 -1.56389,1.08506 -2.33598,1.6415 -0.15704,-0.60754 -0.46312,-1.17597 -0.88388,-1.6415 -0.83631,-0.92529 -2.05227,-1.39235 -3.21986,-1.8309 -1.12206,-0.42145 -2.24625,-0.84652 -3.40927,-1.13642 -1.30122,-0.32435 -2.63957,-0.4765 -3.97747,-0.56821 -1.11737,-0.0766 -2.25144,-0.11047 -3.34613,0.12627 -1.33532,0.28878 -2.55202,0.96639 -3.85121,1.38896 -0.44404,0.14442 -0.90013,0.25995 -1.3208,0.46258 -0.42067,0.20263 -0.81206,0.50594 -1.01518,0.92638 -0.16252,0.3364 -0.19292,0.72304 -0.16357,1.09548 0.0293,0.37244 0.11516,0.7378 0.17453,1.10665 0.0594,0.36885 0.092,0.74865 0.0151,1.11426 -0.0384,0.1828 -0.10443,0.36066 -0.20342,0.51908 -0.099,0.15841 -0.23155,0.29705 -0.39089,0.39454 -0.23436,0.14339 -0.51877,0.19251 -0.79258,0.16987 -0.27382,-0.0226 -0.53836,-0.1135 -0.78578,-0.23297 -0.65499,-0.31627 -1.20121,-0.83479 -1.60635,-1.43886 -0.40513,-0.60408 -0.67416,-1.29192 -0.85122,-1.99739 -0.35411,-1.41095 -0.34703,-2.88372 -0.50975,-4.3293 -0.16537,-1.46908 -0.5066,-2.91168 -0.82075,-4.35628 -0.30893,-1.42059 -0.59262,-2.84875 -0.75762,-4.29315 -0.28228,-2.47105 -0.21502,-4.96816 -0.37881,-7.44988 -0.19182,-2.90642 -0.70079,-5.80284 -0.56821,-8.71256 0.0876,-1.92296 0.46016,-3.84169 1.19956,-5.61898 0.74967,-1.80198 1.87499,-3.44668 3.283,-4.79822 l 1.26269,-0.82078 z"
         id="path8673"
         inkscape:connector-curvature="0" />
      <path
         transform="translate(9.8863758e-8,3.3185045e-6)"
         style="display:inline;fill:none;fill-opacity:0.99607843;fill-rule:evenodd;stroke:#23773f;stroke-width:1.07111479;stroke-linecap:round;stroke-linejoin:round;stroke-opacity:0.99607843;stroke-miterlimit:4;stroke-dasharray:none"
         d="m 480.89575,376.38076 c 0.47764,1.89634 1.39189,3.6813 2.65165,5.17704 1.74826,2.07575 4.10172,3.55102 5.99778,5.4927 0.8871,0.90844 1.66839,1.91323 2.46225,2.90419 1.07744,1.34495 2.21807,2.69938 3.72493,3.53553 1.17278,0.65077 2.52521,0.95399 3.86637,0.94003 1.34117,-0.014 2.67065,-0.33876 3.89918,-0.87693 1.62559,-0.71211 3.101,-1.81871 4.10375,-3.283 0.92211,-1.34652 1.41416,-2.93472 1.86053,-4.50449 0.44637,-1.56976 0.868,-3.16837 1.675,-4.58688 0.76264,-1.34054 1.84418,-2.47405 2.65165,-3.78807 1.82748,-2.97389 2.11688,-6.6145 2.27284,-10.10153 0.13973,-3.12422 0.21212,-6.26451 0.75762,-9.34391 0.34359,-1.93958 0.87252,-3.84066 1.38699,-5.74207 0.41051,-1.51718 0.81397,-3.04606 0.94898,-4.61199 0.23993,-2.78286 -0.3795,-5.5795 -1.32582,-8.20749 -0.92766,-2.57615 -2.18849,-5.06137 -3.97748,-7.1342 -1.45631,-1.68736 -3.23167,-3.0683 -5.05076,-4.35629 -2.19886,-1.55688 -4.51131,-3.01066 -7.07107,-3.8512 -3.1054,-1.01971 -6.51659,-1.0866 -9.65958,-0.18941 -2.6422,0.83997 -5.13411,2.15037 -7.32361,3.85121 -1.81375,1.40895 -3.41439,3.0778 -4.86136,4.86136 -1.12845,1.39095 -2.18938,2.90182 -2.62008,4.64039 -0.31609,1.27593 -0.27636,2.61031 -0.44194,3.91434 -0.17992,1.41699 -0.60305,2.8029 -0.66291,4.23001 -0.0952,2.26968 0.73015,4.46948 1.01015,6.72383 0.22203,1.78759 0.0995,3.59892 0.1894,5.398 0.0583,1.16649 0.2062,2.32849 0.44195,3.4724"
         id="path8675"
         inkscape:connector-curvature="0" />
      <path
         transform="translate(9.8863758e-8,3.3185045e-6)"
         style="display:inline;fill:none;fill-opacity:0.99607843;fill-rule:evenodd;stroke:#23773f;stroke-width:1.07111479;stroke-linecap:round;stroke-linejoin:round;stroke-opacity:0.99607843;stroke-miterlimit:4;stroke-dasharray:none"
         d="m 487.77741,385.4721 c 3.46702,2.28654 7.8957,3.0598 11.93243,2.08344 3.77768,-0.9137 7.06054,-3.23736 9.97525,-5.80838 0.49156,-0.4336 0.97569,-0.87563 1.4521,-1.32583"
         id="path8677"
         inkscape:connector-curvature="0" />
      <path
         transform="translate(9.8863758e-8,3.3185045e-6)"
         style="display:inline;fill:none;fill-opacity:0.99607843;fill-rule:evenodd;stroke:#23773f;stroke-width:1.07111479;stroke-linecap:round;stroke-linejoin:round;stroke-opacity:0.99607843;stroke-miterlimit:4;stroke-dasharray:none"
         d="m 488.09308,374.48669 c -0.71234,1.03211 -1.06031,2.3105 -0.96934,3.56126 0.091,1.25077 0.62024,2.46536 1.47442,3.38354 0.40983,0.44053 0.90241,0.81962 1.47311,1.01024 0.28535,0.0953 0.58805,0.14215 0.88839,0.1247 0.30033,-0.0175 0.59813,-0.1001 0.85836,-0.25106 0.26841,-0.15571 0.49213,-0.38052 0.67561,-0.63077 0.18348,-0.25025 0.32865,-0.52631 0.46358,-0.80574 0.26985,-0.55887 0.51081,-1.14978 0.94425,-1.59395 0.50998,-0.52261 1.26517,-0.7888 1.99233,-0.72221 0.72717,0.0666 1.4144,0.45854 1.85888,1.03789 0.45276,0.59014 0.64698,1.33123 0.91867,2.02364 0.13584,0.3462 0.29449,0.68644 0.51336,0.98711 0.21888,0.30068 0.50162,0.56166 0.84081,0.71418 0.46891,0.21085 1.02188,0.1985 1.50333,0.0181 0.48145,-0.18039 0.89385,-0.51879 1.21257,-0.92221 0.63743,-0.80686 0.90093,-1.83653 1.19844,-2.82082 0.13817,-0.45714 0.27964,-0.92147 0.2808,-1.39903 0.001,-0.47756 -0.15578,-0.93994 -0.3439,-1.37889 l -0.18941,-0.44195"
         id="path8679"
         inkscape:connector-curvature="0" />
      <path
         transform="translate(9.8863758e-8,3.3185045e-6)"
         style="display:inline;fill:none;fill-opacity:0.99607843;fill-rule:evenodd;stroke:#23773f;stroke-width:1.07111479;stroke-linecap:round;stroke-linejoin:round;stroke-opacity:0.99607843;stroke-miterlimit:4;stroke-dasharray:none"
         d="m 489.26107,374.10788 c 1.3606,-0.89113 3.01838,-1.31967 4.64039,-1.19955 0.96155,0.0712 1.89816,0.32744 2.84357,0.51682 0.94541,0.18938 1.92633,0.31184 2.87011,0.11452 0.65482,-0.13691 1.29174,-0.42677 1.95978,-0.39117 0.33401,0.0178 0.67156,0.1239 0.92196,0.34567 0.1252,0.11089 0.22677,0.24956 0.28797,0.4052 0.0612,0.15564 0.0812,0.32829 0.0501,0.49262 -0.0345,0.1822 -0.13066,0.34982 -0.25938,0.4833 -0.12872,0.13347 -0.28891,0.23405 -0.45912,0.30763 -0.34041,0.14715 -0.71541,0.18757 -1.08084,0.25079 -1.78095,0.3081 -3.42607,1.18484 -5.2086,1.48366 -1.2286,0.20596 -2.50712,0.12784 -3.69337,-0.25254 -0.79075,-0.25356 -1.5534,-0.65099 -2.115,-1.26269 -0.34065,-0.37104 -0.60086,-0.81557 -0.75762,-1.29426 z"
         id="path8681"
         inkscape:connector-curvature="0" />
      <path
         transform="translate(9.8863758e-8,3.3185045e-6)"
         style="display:inline;fill:none;fill-opacity:0.99607843;fill-rule:evenodd;stroke:#23773f;stroke-width:1.07111479;stroke-linecap:round;stroke-linejoin:round;stroke-opacity:0.99607843;stroke-miterlimit:4;stroke-dasharray:none"
         d="m 490.89808,374.50518 c 1.48126,0.0876 2.96345,0.15941 4.44623,0.21555 1.39224,0.0527 2.78954,0.0914 4.17612,-0.0446 0.38275,-0.0376 0.7642,-0.0884 1.14342,-0.15239"
         id="path8683"
         inkscape:connector-curvature="0" />
      <path
         transform="translate(9.8863758e-8,3.3185045e-6)"
         style="display:inline;fill:none;fill-opacity:0.99607843;fill-rule:evenodd;stroke:#23773f;stroke-width:1.07111479;stroke-linecap:round;stroke-linejoin:round;stroke-opacity:0.99607843;stroke-miterlimit:4;stroke-dasharray:none"
         d="m 480.17857,352.89789 c 0.75633,-0.58979 1.69816,-0.93802 2.65625,-0.98214 0.65742,-0.0303 1.31205,0.0784 1.96579,0.15421 0.65374,0.0758 1.3245,0.11776 1.96278,-0.0426 0.18178,-0.0457 0.36222,-0.10889 0.51487,-0.21765 0.15265,-0.10876 0.27602,-0.26786 0.31103,-0.45199 0.0331,-0.17407 -0.016,-0.35838 -0.11555,-0.50496 -0.0996,-0.14658 -0.2463,-0.25718 -0.407,-0.3318 -0.32142,-0.14924 -0.68703,-0.15804 -1.03995,-0.19003 -1.08334,-0.0982 -2.15185,-0.43817 -3.23661,-0.35714 -0.69483,0.0519 -1.38951,0.27611 -2.07589,0.15625 -0.1814,-0.0317 -0.35865,-0.0871 -0.54174,-0.10679 -0.0915,-0.01 -0.18456,-0.0106 -0.27527,0.005 -0.0907,0.0158 -0.17923,0.0485 -0.25442,0.1016 -0.13936,0.0985 -0.22378,0.26182 -0.25319,0.42991 -0.0294,0.1681 -0.008,0.34133 0.03,0.50759 0.068,0.29404 0.18971,0.57251 0.3125,0.84821 0.14631,0.32851 0.29513,0.6559 0.44643,0.98214 z"
         id="path8685"
         inkscape:connector-curvature="0" />
      <path
         transform="translate(9.8863758e-8,3.3185045e-6)"
         style="display:inline;fill:none;fill-opacity:0.99607843;fill-rule:evenodd;stroke:#23773f;stroke-width:1.07111479;stroke-linecap:round;stroke-linejoin:round;stroke-opacity:0.99607843;stroke-miterlimit:4;stroke-dasharray:none"
         d="m 498.88909,350.24303 c 1.72596,-0.31729 3.46377,-0.57007 5.2086,-0.75762 0.70584,-0.0759 1.41623,-0.14114 2.12483,-0.0982 0.70861,0.0429 1.41996,0.19818 2.04205,0.54018 0.2615,0.14377 0.5082,0.32063 0.79113,0.41552 0.14147,0.0474 0.29162,0.0735 0.44031,0.0611 0.1487,-0.0124 0.29601,-0.0648 0.41006,-0.16099 0.10121,-0.0854 0.17345,-0.20315 0.20989,-0.33045 0.0364,-0.12729 0.0377,-0.26366 0.01,-0.39314 -0.0554,-0.25896 -0.22351,-0.48337 -0.42846,-0.65109 -0.40988,-0.33543 -0.95192,-0.46015 -1.40138,-0.74033 -0.33596,-0.20943 -0.61172,-0.50018 -0.89763,-0.77402 -0.2859,-0.27383 -0.59422,-0.5389 -0.96484,-0.67807 -0.36781,-0.13812 -0.77708,-0.14221 -1.1611,-0.0592 -0.38403,0.083 -0.74555,0.24945 -1.08662,0.44448 -0.68213,0.39006 -1.30369,0.90214 -2.04543,1.16153 -0.53537,0.18722 -1.11351,0.23482 -1.6415,0.44194 -0.7188,0.28196 -1.31379,0.8653 -1.60993,1.57837 z"
         id="path8687"
         inkscape:connector-curvature="0" />
      <path
         transform="translate(9.8863758e-8,3.3185045e-6)"
         style="display:inline;fill:none;fill-opacity:0.99607843;fill-rule:evenodd;stroke:#23773f;stroke-width:1.07111479;stroke-linecap:round;stroke-linejoin:round;stroke-opacity:0.99607843;stroke-miterlimit:4;stroke-dasharray:none"
         d="m 480.82589,357.74164 c 0.55201,-0.84892 1.18862,-1.64281 1.89733,-2.36607 0.56459,-0.57618 1.1862,-1.11503 1.91964,-1.45089 1.14584,-0.52471 2.52421,-0.50006 3.66071,0.0446 0.72212,0.34607 1.34685,0.89271 1.78572,1.5625"
         id="path8689"
         inkscape:connector-curvature="0" />
      <path
         transform="translate(9.8863758e-8,3.3185045e-6)"
         style="display:inline;fill:none;fill-opacity:0.99607843;fill-rule:evenodd;stroke:#23773f;stroke-width:1.07111479;stroke-linecap:round;stroke-linejoin:round;stroke-opacity:0.99607843;stroke-miterlimit:4;stroke-dasharray:none"
         d="m 499.61514,354.40991 c 0.68788,-0.92833 1.6074,-1.68365 2.65165,-2.17814 0.50273,-0.23806 1.03818,-0.41741 1.59152,-0.47415 0.55334,-0.0567 1.12637,0.0135 1.62834,0.25317 0.56201,0.26833 1.0143,0.71834 1.5333,1.06258 0.51899,0.34423 1.11394,0.55414 1.71813,0.70519 l 0.3788,0.0947"
         id="path8691"
         inkscape:connector-curvature="0" />
      <path
         transform="translate(0.3788071,-0.31566568)"
         style="display:inline;fill:none;fill-opacity:0.99607843;fill-rule:evenodd;stroke:#23773f;stroke-width:1.07111479;stroke-linecap:round;stroke-linejoin:round;stroke-opacity:0.99607843;stroke-miterlimit:4;stroke-dasharray:none"
         d="m 491.02884,362.77523 c -0.15981,1.02221 -0.51537,2.01346 -1.04172,2.90419 -0.14032,0.23746 -0.29297,0.46847 -0.41065,0.71793 -0.11768,0.24945 -0.20012,0.5217 -0.18913,0.7973 0.0158,0.39678 0.23251,0.77441 0.54994,1.01297 0.31744,0.23857 0.72709,0.3417 1.12313,0.31285 0.26432,-0.0192 0.52438,-0.0951 0.75761,-0.22097"
         id="path8693"
         inkscape:connector-curvature="0" />
      <path
         transform="translate(9.8863758e-8,3.3185045e-6)"
         style="display:inline;fill:none;fill-opacity:0.99607843;fill-rule:evenodd;stroke:#23773f;stroke-width:1.07111479;stroke-linecap:round;stroke-linejoin:round;stroke-opacity:0.99607843;stroke-miterlimit:4;stroke-dasharray:none"
         d="m 499.11006,364.16419 c 0.49752,0.37264 0.83415,0.95307 0.91052,1.56996 0.0764,0.61689 -0.10853,1.26189 -0.50015,1.74461 -0.25966,0.32007 -0.60633,0.56883 -0.99269,0.71234 -0.38636,0.1435 -0.81137,0.18136 -1.21701,0.1084"
         id="path8695"
         inkscape:connector-curvature="0" />
      <path
         transform="translate(9.8863758e-8,3.3185045e-6)"
         style="display:inline;fill:none;fill-opacity:0.99607843;fill-rule:evenodd;stroke:#23773f;stroke-width:1.07111479;stroke-linecap:round;stroke-linejoin:round;stroke-opacity:0.99607843;stroke-miterlimit:4;stroke-dasharray:none"
         d="m 491.97586,365.01651 c 0.0184,0.43083 0.16871,0.85514 0.42565,1.20146 0.25694,0.34631 0.61944,0.6132 1.02644,0.75571 0.46351,0.1623 0.97112,0.16276 1.45541,0.0812 0.48428,-0.0816 0.95119,-0.24193 1.41721,-0.39687 0.31201,-0.10374 0.62847,-0.20608 0.95635,-0.2307 0.32788,-0.0246 0.67308,0.0355 0.93769,0.2307 0.0841,0.0621 0.15891,0.13683 0.22097,0.22097"
         id="path8697"
         inkscape:connector-curvature="0" />
      <path
         transform="translate(9.8863758e-8,3.3185045e-6)"
         style="display:inline;fill:none;fill-opacity:0.99607843;fill-rule:evenodd;stroke:#23773f;stroke-width:1.07111479;stroke-linecap:round;stroke-linejoin:round;stroke-opacity:0.99607843;stroke-miterlimit:4;stroke-dasharray:none"
         d="m 518.32424,351.90936 c 0.25753,-0.2103 0.61469,-0.29266 0.93831,-0.21637 0.22611,0.0533 0.43197,0.17947 0.5952,0.34478 0.16323,0.1653 0.2851,0.36862 0.37105,0.58445 0.17191,0.43165 0.20128,0.90475 0.22874,1.36856 0.11048,1.86618 0.22222,3.7324 0.3679,5.59616 0.1073,1.37278 0.23124,2.77174 -0.0824,4.11251 -0.27437,1.17291 -0.89031,2.26971 -1.77721,3.08483 -0.5808,0.5338 -1.27361,0.94515 -2.0203,1.19955 l -0.25254,-0.12627"
         id="path8699"
         inkscape:connector-curvature="0" />
      <path
         transform="matrix(0.71127231,-0.70291657,0.70291657,0.71127231,-103.4493,461.55446)"
         style="display:inline;fill:none;fill-opacity:0.99607843;fill-rule:evenodd;stroke:#23773f;stroke-width:1.07111479;stroke-linecap:round;stroke-linejoin:round;stroke-opacity:0.99607843;stroke-miterlimit:4;stroke-dasharray:none"
         d="m 517.07184,362.23859 c 0.51457,-0.17195 0.95115,-0.56478 1.17627,-1.05841 0.22679,-0.49729 0.23545,-1.08953 0.0233,-1.59324"
         id="path8701"
         inkscape:connector-curvature="0" />
      <path
         transform="translate(9.8863758e-8,3.3185045e-6)"
         style="display:inline;fill:none;fill-opacity:0.99607843;fill-rule:evenodd;stroke:#23773f;stroke-width:1.07111479;stroke-linecap:round;stroke-linejoin:round;stroke-opacity:0.99607843;stroke-miterlimit:4;stroke-dasharray:none"
         d="m 516.914,362.04919 c 0.38324,0.32104 0.92365,0.44454 1.4083,0.32184 0.48466,-0.1227 0.90119,-0.48846 1.08551,-0.95319 0.18071,-0.45564 0.14068,-0.97264 0.006,-1.44406 -0.13426,-0.47143 -0.35714,-0.91188 -0.54305,-1.36543 -0.0964,-0.23526 -0.18969,-0.47628 -0.34673,-0.67625 -0.15704,-0.19996 -0.37594,-0.34052 -0.60029,-0.46017 l -0.47351,-0.25254"
         id="path8703"
         inkscape:connector-curvature="0" />
      <path
         transform="translate(-0.1894039,-0.34723568)"
         style="display:inline;opacity:1;fill:#23743f;fill-opacity:0.99607843;stroke:none;stroke-width:1;stroke-linecap:round;stroke-linejoin:round;stroke-miterlimit:4;stroke-dasharray:none;stroke-dashoffset:12.75590515;stroke-opacity:0.99607843"
         d="m 487.93526,355.862 a 1.8782524,1.7046324 0 0 1 -1.87825,1.70463 1.8782524,1.7046324 0 0 1 -1.87826,-1.70463 1.8782524,1.7046324 0 0 1 1.87826,-1.70463 1.8782524,1.7046324 0 0 1 1.87825,1.70463 z"
         id="path8705"
         inkscape:connector-curvature="0" />
      <path
         transform="translate(17.709237,-2.0834357)"
         style="display:inline;opacity:1;fill:#23743f;fill-opacity:0.99607843;stroke:none;stroke-width:1;stroke-linecap:round;stroke-linejoin:round;stroke-miterlimit:4;stroke-dasharray:none;stroke-dashoffset:12.75590515;stroke-opacity:0.99607843"
         d="m 487.93526,355.862 a 1.8782524,1.7046324 0 0 1 -1.87825,1.70463 1.8782524,1.7046324 0 0 1 -1.87826,-1.70463 1.8782524,1.7046324 0 0 1 1.87826,-1.70463 1.8782524,1.7046324 0 0 1 1.87825,1.70463 z"
         id="path8707"
         inkscape:connector-curvature="0" />
      <path
         transform="translate(9.8863758e-8,3.3185045e-6)"
         style="display:inline;fill:none;fill-opacity:0.99607843;fill-rule:evenodd;stroke:#23773f;stroke-width:1.07111479;stroke-linecap:round;stroke-linejoin:round;stroke-opacity:0.99607843;stroke-miterlimit:4;stroke-dasharray:none"
         d="m 515.24093,378.84297 c 0.62809,2.3508 1.00965,4.76738 1.13643,7.19734 0.15214,2.91604 -0.0792,5.91689 -1.2627,8.5863 -1.21765,2.74643 -3.37971,4.98701 -5.80837,6.75539 -2.33689,1.70155 -5.06463,3.04514 -7.95495,3.09359 -2.5256,0.0423 -5.03144,-0.93942 -6.9448,-2.58851 -1.77941,-1.53365 -3.04023,-3.59119 -3.97748,-5.74525 -0.89554,-2.0582 -1.52452,-4.25891 -1.57836,-6.50285 -0.005,-0.21041 -0.005,-0.42094 0,-0.63135"
         id="path8709"
         inkscape:connector-curvature="0" />
      <path
         transform="translate(9.8863758e-8,3.3185045e-6)"
         style="display:inline;fill:none;fill-opacity:0.99607843;fill-rule:evenodd;stroke:#23773f;stroke-width:1.07111479;stroke-linecap:round;stroke-linejoin:round;stroke-opacity:0.99607843;stroke-miterlimit:4;stroke-dasharray:none"
         d="m 515.93541,376.44386 c 1.69258,-1.75682 4.20542,-2.68802 6.63411,-2.45844 2.42869,0.22958 4.72253,1.61514 6.05594,3.658 1.08171,1.65725 1.52629,3.66436 1.59897,5.64206 0.0727,1.97771 -0.20504,3.94935 -0.46255,5.91156 -0.53687,4.09091 -0.98881,8.19435 -1.26269,12.31123 -0.21946,3.29889 -0.32448,6.60672 -0.25254,9.91212 0.0851,3.90967 0.41802,7.81439 1.01015,11.67989 0.1163,0.75923 0.24259,1.51693 0.37881,2.27284"
         id="path8711"
         inkscape:connector-curvature="0" />
      <path
         transform="translate(9.8863758e-8,3.3185045e-6)"
         style="display:inline;fill:none;fill-opacity:0.99607843;fill-rule:evenodd;stroke:#23773f;stroke-width:1.07111479;stroke-linecap:round;stroke-linejoin:round;stroke-opacity:0.99607843;stroke-miterlimit:4;stroke-dasharray:none"
         d="m 530.96143,377.45401 c 2.1246,2.84339 5.30417,4.87923 8.7757,5.61898 1.05396,0.22459 2.129,0.33346 3.18989,0.52261 1.0609,0.18914 2.12128,0.46414 3.06043,0.99261 0.96545,0.54327 1.76808,1.33494 2.49,2.17522 0.72191,0.84028 1.37561,1.73836 2.11882,2.55987 1.80675,1.9971 4.15694,3.52237 6.7554,4.23002 0.1043,0.0284 0.20934,0.0559 0.30855,0.0988 0.0992,0.0429 0.19242,0.10213 0.26607,0.18125 0.0737,0.0791 0.12599,0.17734 0.15338,0.28191 0.0274,0.10456 0.0296,0.21385 0.0296,0.32194 l 0,0.25254 0,0"
         id="path8713"
         inkscape:connector-curvature="0" />
      <path
         transform="translate(9.8863758e-8,3.3185045e-6)"
         style="display:inline;fill:none;fill-opacity:0.99607843;fill-rule:evenodd;stroke:#23773f;stroke-width:1.07111479;stroke-linecap:round;stroke-linejoin:round;stroke-opacity:0.99607843;stroke-miterlimit:4;stroke-dasharray:none"
         d="m 480.76948,380.10566 c -1.16643,-0.29446 -2.31545,-0.65788 -3.43906,-1.08773 -1.0131,-0.38758 -2.02173,-0.83342 -3.0987,-0.96275 -0.53848,-0.0647 -1.09099,-0.0475 -1.61403,0.096 -0.52303,0.14346 -1.01595,0.41748 -1.38153,0.8181 -0.39812,0.43629 -0.62943,1.00065 -0.77874,1.5721 -0.1493,0.57145 -0.22407,1.15968 -0.35419,1.7358 -0.13012,0.57612 -0.32129,1.15072 -0.67373,1.62467 -0.17622,0.23698 -0.39202,0.44628 -0.64321,0.60158 -0.25119,0.1553 -0.5384,0.25552 -0.83312,0.27423 -0.40692,0.0258 -0.809,-0.10256 -1.17924,-0.27336 -0.37024,-0.1708 -0.71959,-0.38503 -1.09361,-0.54739 -1.20576,-0.5234 -2.60171,-0.47115 -3.86239,-0.099 -1.26068,0.37215 -2.41041,1.04269 -3.52435,1.7405 -2.68619,1.68273 -5.30461,3.61842 -7.07106,6.25032 -0.91349,1.36104 -1.57992,2.88737 -1.95717,4.48255"
         id="path8715"
         inkscape:connector-curvature="0" />
      <path
         transform="translate(9.8863758e-8,3.3185045e-6)"
         style="display:inline;fill:none;fill-opacity:0.99607843;fill-rule:evenodd;stroke:#23773f;stroke-width:1.07111479;stroke-linecap:round;stroke-linejoin:round;stroke-opacity:0.99607843;stroke-miterlimit:4;stroke-dasharray:none"
         d="m 486.38845,390.83853 c -1.02318,6.42263 -1.40449,12.94735 -1.13642,19.44544 0.16853,4.0851 0.59282,8.15971 0.63135,12.2481 0.0195,2.07362 -0.0619,4.16137 -0.50508,6.18718 -0.0742,0.33911 -0.15841,0.67603 -0.25254,1.01016 l 0,0"
         id="path8717"
         inkscape:connector-curvature="0" />
    </g>
  </g>
</svg>
