<?xml version="1.0" encoding="UTF-8" standalone="no"?>
<!-- Created with Inkscape (http://www.inkscape.org/) -->

<svg
   xmlns:dc="http://purl.org/dc/elements/1.1/"
   xmlns:cc="http://creativecommons.org/ns#"
   xmlns:rdf="http://www.w3.org/1999/02/22-rdf-syntax-ns#"
   xmlns:svg="http://www.w3.org/2000/svg"
   xmlns="http://www.w3.org/2000/svg"
   xmlns:sodipodi="http://sodipodi.sourceforge.net/DTD/sodipodi-0.dtd"
   xmlns:inkscape="http://www.inkscape.org/namespaces/inkscape"
   width="67.134659mm"
   height="52.46162mm"
   viewBox="0 0 237.8787 185.88761"
   id="svg6331"
   version="1.1"
   inkscape:version="0.91 r"
   sodipodi:docname="kadushin.svg">
  <defs
     id="defs6333">
    <inkscape:path-effect
       effect="spiro"
       id="path-effect4149"
       is_visible="true" />
    <inkscape:path-effect
       effect="spiro"
       id="path-effect4153"
       is_visible="true" />
    <inkscape:path-effect
       effect="spiro"
       id="path-effect4157"
       is_visible="true" />
    <inkscape:path-effect
       effect="spiro"
       id="path-effect4161"
       is_visible="true" />
    <inkscape:path-effect
       effect="spiro"
       id="path-effect4165"
       is_visible="true" />
    <inkscape:path-effect
       effect="spiro"
       id="path-effect4169"
       is_visible="true" />
    <inkscape:path-effect
       effect="spiro"
       id="path-effect4173"
       is_visible="true" />
    <inkscape:path-effect
       effect="spiro"
       id="path-effect4177"
       is_visible="true" />
    <inkscape:path-effect
       effect="spiro"
       id="path-effect4181"
       is_visible="true" />
    <inkscape:path-effect
       effect="spiro"
       id="path-effect4185"
       is_visible="true" />
    <inkscape:path-effect
       effect="spiro"
       id="path-effect4189"
       is_visible="true" />
    <inkscape:path-effect
       effect="spiro"
       id="path-effect4193"
       is_visible="true" />
    <inkscape:path-effect
       effect="spiro"
       id="path-effect4197"
       is_visible="true" />
    <inkscape:path-effect
       effect="spiro"
       id="path-effect4201"
       is_visible="true" />
    <inkscape:path-effect
       effect="spiro"
       id="path-effect4205"
       is_visible="true" />
    <inkscape:path-effect
       effect="spiro"
       id="path-effect4217"
       is_visible="true" />
    <inkscape:path-effect
       effect="spiro"
       id="path-effect4221"
       is_visible="true" />
    <inkscape:path-effect
       effect="spiro"
       id="path-effect4225"
       is_visible="true" />
    <inkscape:path-effect
       effect="spiro"
       id="path-effect4229"
       is_visible="true" />
    <inkscape:path-effect
       effect="spiro"
       id="path-effect4233"
       is_visible="true" />
    <inkscape:path-effect
       effect="spiro"
       id="path-effect4237"
       is_visible="true" />
    <inkscape:path-effect
       effect="spiro"
       id="path-effect4241"
       is_visible="true" />
    <inkscape:path-effect
       effect="spiro"
       id="path-effect4245"
       is_visible="true" />
    <inkscape:path-effect
       effect="spiro"
       id="path-effect4249"
       is_visible="true" />
    <inkscape:path-effect
       effect="spiro"
       id="path-effect4253"
       is_visible="true" />
    <inkscape:path-effect
       effect="spiro"
       id="path-effect4257"
       is_visible="true" />
    <inkscape:path-effect
       effect="spiro"
       id="path-effect4261"
       is_visible="true" />
    <inkscape:path-effect
       effect="spiro"
       id="path-effect4265"
       is_visible="true" />
    <inkscape:path-effect
       effect="spiro"
       id="path-effect4269"
       is_visible="true" />
    <inkscape:path-effect
       effect="spiro"
       id="path-effect4273"
       is_visible="true" />
    <inkscape:path-effect
       effect="spiro"
       id="path-effect4277"
       is_visible="true" />
    <inkscape:path-effect
       effect="spiro"
       id="path-effect4281"
       is_visible="true" />
    <inkscape:path-effect
       effect="spiro"
       id="path-effect4285"
       is_visible="true" />
    <inkscape:path-effect
       effect="spiro"
       id="path-effect4289"
       is_visible="true" />
    <inkscape:path-effect
       effect="spiro"
       id="path-effect4293"
       is_visible="true" />
    <inkscape:path-effect
       effect="spiro"
       id="path-effect4297"
       is_visible="true" />
    <inkscape:path-effect
       effect="spiro"
       id="path-effect4301"
       is_visible="true" />
    <inkscape:path-effect
       effect="spiro"
       id="path-effect4305"
       is_visible="true" />
    <inkscape:path-effect
       effect="spiro"
       id="path-effect4309"
       is_visible="true" />
    <inkscape:path-effect
       effect="spiro"
       id="path-effect4313"
       is_visible="true" />
    <inkscape:path-effect
       effect="spiro"
       id="path-effect4317"
       is_visible="true" />
    <inkscape:path-effect
       effect="spiro"
       id="path-effect4321"
       is_visible="true" />
    <inkscape:path-effect
       effect="spiro"
       id="path-effect4325"
       is_visible="true" />
    <inkscape:path-effect
       effect="spiro"
       id="path-effect4329"
       is_visible="true" />
    <inkscape:path-effect
       effect="spiro"
       id="path-effect4333"
       is_visible="true" />
    <inkscape:path-effect
       effect="spiro"
       id="path-effect4337"
       is_visible="true" />
    <clipPath
       clipPathUnits="userSpaceOnUse"
       id="clipPath4370">
      <rect
         style="color:#000000;clip-rule:nonzero;display:inline;overflow:visible;visibility:visible;opacity:1;isolation:auto;mix-blend-mode:normal;color-interpolation:sRGB;color-interpolation-filters:linearRGB;solid-color:#000000;solid-opacity:1;fill:none;fill-opacity:1;fill-rule:nonzero;stroke:#ff0000;stroke-width:0.793989;stroke-linecap:round;stroke-linejoin:round;stroke-miterlimit:4;stroke-dasharray:none;stroke-dashoffset:0;stroke-opacity:1;color-rendering:auto;image-rendering:auto;shape-rendering:auto;text-rendering:auto;enable-background:accumulate"
         id="rect4372"
         width="295.71429"
         height="362.85715"
         x="33.57143"
         y="22.058485"
         transform="matrix(2.1427919,0,0,2.3235318,-140.83773,2.5344403)" />
    </clipPath>
    <inkscape:path-effect
       effect="spiro"
       id="path-effect9099-9"
       is_visible="true" />
    <inkscape:path-effect
       effect="spiro"
       id="path-effect9103-9"
       is_visible="true" />
    <inkscape:path-effect
       effect="spiro"
       id="path-effect9107-4"
       is_visible="true" />
    <inkscape:path-effect
       effect="spiro"
       id="path-effect9111-1"
       is_visible="true" />
    <inkscape:path-effect
       effect="spiro"
       id="path-effect9115-6"
       is_visible="true" />
    <inkscape:path-effect
       effect="spiro"
       id="path-effect9119-3"
       is_visible="true" />
    <inkscape:path-effect
       effect="spiro"
       id="path-effect9123-5"
       is_visible="true" />
    <inkscape:path-effect
       effect="spiro"
       id="path-effect9127-0"
       is_visible="true" />
    <inkscape:path-effect
       effect="spiro"
       id="path-effect9131-0"
       is_visible="true" />
    <inkscape:path-effect
       effect="spiro"
       id="path-effect9135-1"
       is_visible="true" />
    <inkscape:path-effect
       effect="spiro"
       id="path-effect9139-3"
       is_visible="true" />
    <inkscape:path-effect
       effect="spiro"
       id="path-effect9143-8"
       is_visible="true" />
    <inkscape:path-effect
       effect="spiro"
       id="path-effect9147-6"
       is_visible="true" />
    <inkscape:path-effect
       effect="spiro"
       id="path-effect9151-4"
       is_visible="true" />
    <inkscape:path-effect
       effect="spiro"
       id="path-effect9155-3"
       is_visible="true" />
    <inkscape:path-effect
       effect="spiro"
       id="path-effect9159-2"
       is_visible="true" />
    <inkscape:path-effect
       effect="spiro"
       id="path-effect9163-5"
       is_visible="true" />
    <inkscape:path-effect
       effect="spiro"
       id="path-effect9167-8"
       is_visible="true" />
    <inkscape:path-effect
       effect="spiro"
       id="path-effect9171-2"
       is_visible="true" />
    <inkscape:path-effect
       effect="spiro"
       id="path-effect9175-0"
       is_visible="true" />
    <inkscape:path-effect
       effect="spiro"
       id="path-effect9179-3"
       is_visible="true" />
    <inkscape:path-effect
       effect="spiro"
       id="path-effect9183-2"
       is_visible="true" />
    <inkscape:path-effect
       effect="spiro"
       id="path-effect9187-9"
       is_visible="true" />
    <inkscape:path-effect
       effect="spiro"
       id="path-effect9195-7"
       is_visible="true" />
    <inkscape:path-effect
       effect="spiro"
       id="path-effect9199-8"
       is_visible="true" />
    <inkscape:path-effect
       effect="spiro"
       id="path-effect9203-1"
       is_visible="true" />
    <inkscape:path-effect
       effect="spiro"
       id="path-effect5621"
       is_visible="true" />
    <inkscape:path-effect
       is_visible="true"
       id="path-effect5637"
       effect="spiro" />
    <inkscape:path-effect
       effect="spiro"
       id="path-effect4149-8"
       is_visible="true" />
    <inkscape:path-effect
       effect="spiro"
       id="path-effect4153-0"
       is_visible="true" />
    <inkscape:path-effect
       effect="spiro"
       id="path-effect4157-1"
       is_visible="true" />
    <inkscape:path-effect
       effect="spiro"
       id="path-effect4161-8"
       is_visible="true" />
    <inkscape:path-effect
       effect="spiro"
       id="path-effect4165-4"
       is_visible="true" />
    <inkscape:path-effect
       effect="spiro"
       id="path-effect4169-9"
       is_visible="true" />
    <inkscape:path-effect
       effect="spiro"
       id="path-effect4173-1"
       is_visible="true" />
    <inkscape:path-effect
       effect="spiro"
       id="path-effect4177-8"
       is_visible="true" />
    <inkscape:path-effect
       effect="spiro"
       id="path-effect4181-5"
       is_visible="true" />
    <inkscape:path-effect
       effect="spiro"
       id="path-effect4185-4"
       is_visible="true" />
    <inkscape:path-effect
       effect="spiro"
       id="path-effect4189-9"
       is_visible="true" />
    <inkscape:path-effect
       effect="spiro"
       id="path-effect4193-7"
       is_visible="true" />
    <inkscape:path-effect
       effect="spiro"
       id="path-effect4201-2"
       is_visible="true" />
    <inkscape:path-effect
       effect="spiro"
       id="path-effect4205-5"
       is_visible="true" />
    <inkscape:path-effect
       effect="spiro"
       id="path-effect4217-1"
       is_visible="true" />
    <inkscape:path-effect
       effect="spiro"
       id="path-effect4329-0"
       is_visible="true" />
    <inkscape:path-effect
       effect="spiro"
       id="path-effect4333-1"
       is_visible="true" />
    <inkscape:path-effect
       effect="spiro"
       id="path-effect4337-6"
       is_visible="true" />
  </defs>
  <sodipodi:namedview
     id="base"
     pagecolor="#ffffff"
     bordercolor="#666666"
     borderopacity="1.0"
     inkscape:pageopacity="0.0"
     inkscape:pageshadow="2"
     inkscape:zoom="1.4"
     inkscape:cx="-66.217969"
     inkscape:cy="20.861166"
     inkscape:document-units="mm"
     inkscape:current-layer="layer1"
     showgrid="false"
     fit-margin-top="5"
     fit-margin-left="5"
     fit-margin-right="5"
     fit-margin-bottom="5" />
  <metadata
     id="metadata6336">
    <rdf:RDF>
      <cc:Work
         rdf:about="">
        <dc:format>image/svg+xml</dc:format>
        <dc:type
           rdf:resource="http://purl.org/dc/dcmitype/StillImage" />
        <dc:title></dc:title>
      </cc:Work>
    </rdf:RDF>
  </metadata>
  <g
     inkscape:label="Calque 1"
     inkscape:groupmode="layer"
     id="layer1"
     transform="translate(-288.32547,-332.63654)">
    <g
       id="g4735"
       transform="matrix(0.56216901,0,0,0.56216901,281.47627,311.81729)">
      <path
         style="fill:none;fill-rule:evenodd;stroke:#23773f;stroke-width:3.15146032;stroke-linecap:round;stroke-linejoin:round;stroke-miterlimit:4;stroke-dasharray:none;stroke-opacity:1"
         d="m 203.54574,71.882889 c -11.14317,3.483834 -21.54078,9.332489 -30.30458,17.046325 -7.05604,6.210676 -13.0674,13.641936 -17.42513,21.970816 -3.14313,6.00742 -5.41124,12.43565 -7.32361,18.94036 -1.0637,3.61807 -2.02935,7.34957 -1.76776,11.11168 0.21885,3.14737 1.2874,6.16667 2.38948,9.1229 1.10208,2.95622 2.25683,5.93091 2.66128,9.05985 0.58871,4.55448 -0.44534,9.15409 -1.66862,13.58054 -1.22327,4.42645 -2.65273,8.85415 -2.87707,13.44104 -0.29155,5.96111 1.47024,11.82564 3.53554,17.42513 2.29932,6.23395 4.99595,12.31224 7.57614,18.43528 3.06507,7.27369 6.02685,14.71967 10.85914,20.96067 2.70467,3.49314 5.95281,6.54455 9.47018,9.21763 16.31895,12.40184 37.52356,16.20142 57.9575,17.80395 10.97146,0.86043 22.1599,1.17978 32.82996,-1.51523 7.7549,-1.95871 15.10538,-5.50423 21.46574,-10.35406"
         id="path4737"
         inkscape:original-d="m 203.54574,71.882889 c -23.99113,8.333758 -23.23351,12.2481 -30.30458,17.046325 -7.07107,4.798224 -12.37437,14.647216 -17.42513,21.970816 -5.05076,7.32361 -4.54569,11.61676 -7.32361,18.94036 -2.77792,7.32361 -5.05076,5.3033 -1.76776,11.11168 3.28299,5.80838 7.3236,9.84899 5.05076,18.18275 -2.27284,8.33375 -6.06092,20.96066 -4.54569,27.02158 1.51523,6.06091 1.51523,10.35406 3.53554,17.42513 2.0203,7.07107 4.79822,13.38452 7.57614,18.43528 2.77792,5.05076 6.81853,14.64721 10.85914,20.96067 4.04061,6.31345 8.46003,6.69225 9.47018,9.21763 1.01015,2.52539 50.6339,17.29887 57.9575,17.80395 7.32361,0.50507 27.7792,0.50507 32.82996,-1.51523 5.05076,-2.02031 21.71828,-6.31345 21.46574,-10.35406"
         inkscape:connector-curvature="0"
         sodipodi:nodetypes="cssssssssssssc"
         inkscape:path-effect="#path-effect4149-8" />
      <path
         style="fill:none;fill-rule:evenodd;stroke:#23773f;stroke-width:3.15146032;stroke-linecap:round;stroke-linejoin:round;stroke-miterlimit:4;stroke-dasharray:none;stroke-opacity:1"
         d="m 205.69232,71.251544 c 5.40745,-0.491962 10.9197,0.202495 16.03616,2.020305 6.51098,2.313267 12.36572,6.462016 16.66752,11.869293 7.09119,8.913482 9.62014,20.479508 13.13198,31.314728 2.05737,6.34768 4.53439,12.66717 5.01079,19.32291 0.21007,2.93489 0.0296,5.92429 0.73333,8.7813 0.35185,1.42851 0.93067,2.81649 1.82753,3.98272 0.89686,1.16622 2.12685,2.10169 3.54003,2.5108 1.84866,0.53518 3.85013,0.14153 5.64069,-0.56407 1.79056,-0.70559 3.4478,-1.71222 5.21845,-2.46639 4.64131,-1.97688 10.03696,-2.11523 14.77348,-0.37881 -0.29975,-5.01423 -0.67862,-10.02374 -1.13642,-15.02602 -0.64592,-7.05786 -1.46762,-14.18276 -3.91434,-20.83439 -2.80797,-7.6337 -7.68918,-14.39638 -13.51079,-20.076787 -5.47268,-5.339946 -11.80972,-9.79178 -18.68782,-13.131983 -7.54812,-3.665581 -15.70808,-5.981388 -23.99113,-7.323606 -6.34003,-1.027362 -12.77101,-1.492763 -19.1929,-1.38896"
         id="path4739"
         inkscape:original-d="m 205.69232,71.251544 c 7.3236,3.282995 7.95494,1.767767 16.03616,2.020305 8.08122,0.252538 13.38453,7.071068 16.66752,11.869293 3.283,4.798224 7.82868,17.677668 13.13198,31.314728 2.37172,6.09872 3.73328,13.1571 5.01079,19.32291 1.57907,7.62126 3.02971,13.87883 6.10089,15.27482 5.55584,2.52539 7.32361,1.76776 10.85914,-3.03046 3.53554,-4.79823 10.2278,-4.41942 14.77348,-0.37881 -0.12627,-5.42957 1.38896,-6.18718 -1.13642,-15.02602 -2.52538,-8.83883 -2.39911,-16.28871 -3.91434,-20.83439 -1.51523,-4.54569 -6.69226,-15.026024 -13.51079,-20.076787 -6.81853,-5.050763 -10.6066,-11.364216 -18.68782,-13.131983 -8.08122,-1.767767 -18.94036,-6.313453 -23.99113,-7.323606 -5.05076,-1.010153 -19.1929,-1.38896 -19.1929,-1.38896"
         inkscape:connector-curvature="0"
         sodipodi:nodetypes="csssssscsssssc"
         inkscape:path-effect="#path-effect4153-0" />
      <path
         style="fill:none;fill-rule:evenodd;stroke:#23773f;stroke-width:3.15146032;stroke-linecap:round;stroke-linejoin:round;stroke-miterlimit:4;stroke-dasharray:none;stroke-opacity:1"
         d="m 273.75134,161.40766 c -0.17495,-2.44326 -0.0521,-4.90771 0.365,-7.32146 0.21158,-1.22443 0.50106,-2.44331 0.99789,-3.58223 0.49683,-1.13893 1.21027,-2.19989 2.17264,-2.98591 1.1615,-0.94865 2.65516,-1.45969 4.154,-1.50966 1.49884,-0.05 2.99832,0.34872 4.31946,1.05838 2.64227,1.4193 4.49723,4.00361 5.66868,6.76473 2.52565,5.95298 2.18854,12.76033 0.75761,19.06663 -1.34803,5.94095 -3.6517,11.71367 -7.19733,16.66752 -1.42665,1.99327 -3.08597,3.87867 -5.19294,5.13134 -1.05348,0.62633 -2.21222,1.08651 -3.42093,1.28936 -1.2087,0.20286 -2.46811,0.14369 -3.63423,-0.23351 -2.02458,-0.65489 -3.68972,-2.28058 -4.48574,-4.25394 -0.79602,-1.97337 -0.73722,-4.25609 0.0663,-6.2264 0.789,-1.93467 2.24553,-3.54103 3.91434,-4.79823 2.70828,-2.04028 5.99446,-3.24327 8.5863,-5.42956 1.03961,-0.87694 1.95944,-1.9119 2.60598,-3.10847 0.64655,-1.19657 1.01144,-2.56113 0.93207,-3.91889 -0.0794,-1.35776 -0.62205,-2.70311 -1.58941,-3.65916 -0.48368,-0.47803 -1.06825,-0.8557 -1.70801,-1.08627 -0.63976,-0.23057 -1.33432,-0.31259 -2.0084,-0.22277 -0.79982,0.10657 -1.56544,0.45729 -2.16851,0.99336 -0.60308,0.53606 -1.04114,1.25528 -1.24075,2.03709"
         id="path4741"
         inkscape:original-d="m 273.75134,161.40766 c 0.64818,-3.09687 0.66268,-5.41023 0.365,-7.32146 -0.74614,-4.79047 -2.78655,-6.38762 3.17053,-6.56814 8.33376,-0.25254 14.89975,3.53553 14.14214,6.31345 -0.75762,2.77792 0.75761,13.51079 0.75761,19.06663 0,5.55584 -3.91433,13.8896 -7.19733,16.66752 -3.28299,2.77792 -9.72272,5.93465 -12.2481,6.18719 -2.52538,0.25253 -6.43972,-4.9245 -4.41942,-10.48034 2.02031,-5.55583 0.12627,-4.54569 3.91434,-4.79823 3.78807,-0.25253 6.56599,1.13643 8.5863,-5.42956 2.0203,-6.56599 0.50508,-13.51079 -1.76777,-11.99556 -2.27284,1.51522 -3.15672,1.76776 -3.40926,3.03045"
         inkscape:connector-curvature="0"
         sodipodi:nodetypes="cssssssssssc"
         inkscape:path-effect="#path-effect4157-1" />
      <path
         style="fill:none;fill-rule:evenodd;stroke:#23773f;stroke-width:3.15146032;stroke-linecap:round;stroke-linejoin:round;stroke-miterlimit:4;stroke-dasharray:none;stroke-opacity:1"
         d="m 148.9975,133.75474 c 2.14897,-1.81205 4.85733,-2.95115 7.65545,-3.21977 2.79811,-0.26863 5.67372,0.33441 8.12818,1.70453 2.01012,1.12208 3.73651,2.75303 4.9528,4.70759 1.21628,1.95455 1.91775,4.22946 1.992,6.53036 0.12093,3.7477 -1.37598,7.33596 -2.84662,10.78517 -1.82573,4.28203 -3.65491,8.56753 -5.17858,12.96611 -0.7599,2.1937 -1.45152,4.51646 -1.06617,6.80584 0.24659,1.46497 0.94846,2.86059 2.02641,3.88283 1.07795,1.02224 2.53376,1.65423 4.01918,1.67564 1.8035,0.026 3.49038,-0.80528 5.21402,-1.33666 2.3771,-0.73283 4.90662,-0.90344 7.38417,-0.68125 2.45383,0.22006 4.95504,0.81543 7.3449,0.21687 1.15666,-0.28969 2.25135,-0.8648 3.09086,-1.71156 0.83951,-0.84675 1.41246,-1.97106 1.52616,-3.15801 0.11175,-1.16664 -0.2182,-2.34746 -0.78649,-3.37244 -0.56829,-1.02498 -1.36548,-1.90649 -2.22621,-2.70189 -1.14066,-1.05409 -2.40546,-1.97374 -3.75987,-2.73386"
         id="path4743"
         inkscape:original-d="m 148.9975,133.75474 c 11.11168,0.25254 12.75317,-5.05077 15.78363,-1.51524 3.03046,3.53554 6.3407,6.7824 6.9448,11.23795 0.71624,5.28261 -4.10931,5.98695 -2.84662,10.78517 1.26269,4.79823 -2.6532,9.43057 -5.17858,12.96611 -2.52538,3.53553 -2.83394,3.01776 -1.06617,6.80584 1.76777,3.78807 4.53036,7.32623 6.04559,5.55847 1.51523,-1.76777 0.16326,-1.84173 5.21402,-1.33666 2.96404,0.2964 5.46902,-0.91372 7.38417,-0.68125 1.3483,0.16366 5.57118,1.36457 7.3449,0.21687 4.29315,-2.77792 6.63732,1.19136 4.61702,-4.86957 -0.55218,-1.65654 -2.34054,-4.82087 -3.0127,-6.07433 -1.78713,-3.33267 -1.92472,-2.91738 -3.75987,-2.73386"
         inkscape:connector-curvature="0"
         sodipodi:nodetypes="csssssssssssc"
         inkscape:path-effect="#path-effect4161-8" />
      <path
         style="fill:none;fill-rule:evenodd;stroke:#23773f;stroke-width:3.15146032;stroke-linecap:round;stroke-linejoin:round;stroke-miterlimit:4;stroke-dasharray:none;stroke-opacity:1"
         d="m 193.92857,143.6122 c -0.59755,-1.22787 -0.71518,-2.68173 -0.32279,-3.98969 0.39239,-1.30796 1.29089,-2.45699 2.46565,-3.15316 1.37577,-0.81529 3.04393,-0.99348 4.6402,-0.89665 2.76208,0.16755 5.41403,1.09057 8.03837,1.96807 2.294,0.76705 4.59785,1.50572 6.875,2.32144 2.13877,0.76615 4.25328,1.60003 6.33929,2.49999"
         id="path4745"
         inkscape:original-d="m 193.92857,143.6122 c -1.25,-3.39285 0.89286,-6.96427 2.14286,-7.14285 0.56683,-0.081 2.41883,-0.96553 4.6402,-0.89665 2.67734,0.083 5.89126,1.1873 8.03837,1.96807 3.92858,1.42857 4.73214,1.25001 6.875,2.32144 2.14286,1.07143 6.33929,2.49999 6.33929,2.49999"
         inkscape:connector-curvature="0"
         sodipodi:nodetypes="cssssc"
         inkscape:path-effect="#path-effect4165-4" />
      <path
         style="fill:none;fill-rule:evenodd;stroke:#23773f;stroke-width:3.15146032;stroke-linecap:round;stroke-linejoin:round;stroke-miterlimit:4;stroke-dasharray:none;stroke-opacity:1"
         d="m 216.42857,128.96935 c -3.28699,-1.53037 -6.78126,-2.61479 -10.35714,-3.21429 -2.30646,-0.38668 -4.66619,-0.57184 -6.9848,-0.26631 -2.3186,0.30554 -4.60329,1.12358 -6.42972,2.58421 -0.67337,0.5385 -1.29031,1.16631 -2.06149,1.5519 -0.38559,0.1928 -0.80874,0.3214 -1.23979,0.32815 -0.43105,0.007 -0.87044,-0.11446 -1.21082,-0.37902 -0.39287,-0.30537 -0.63094,-0.78777 -0.68064,-1.28287 -0.0497,-0.4951 0.0796,-0.99926 0.32032,-1.43474 0.24074,-0.43547 0.58881,-0.80532 0.98018,-1.11261 0.39136,-0.3073 0.82628,-0.55467 1.26981,-0.78022 4.45163,-2.26383 9.72767,-2.33715 14.64799,-1.48133 3.5712,0.62116 7.06175,1.70443 10.35714,3.21429"
         id="path4747"
         inkscape:original-d="m 216.42857,128.96935 c 0,0 -5.35714,-3.03572 -10.35714,-3.21429 -2.59136,-0.0926 -9.76637,1.46647 -13.41452,2.3179 -3.39093,0.79139 -3.30965,0.85 -4.5121,1.50103 -2.49611,1.35146 0.5887,-4.18223 1.88967,-4.61044 4.47243,-1.47209 10.77468,-1.61966 14.64799,-1.48133 5,0.17857 10.35714,3.21429 10.35714,3.21429"
         inkscape:connector-curvature="0"
         sodipodi:nodetypes="csssssc"
         inkscape:path-effect="#path-effect4169-9" />
      <path
         style="fill:none;fill-rule:evenodd;stroke:#23773f;stroke-width:3.15146032;stroke-linecap:round;stroke-linejoin:round;stroke-miterlimit:4;stroke-dasharray:none;stroke-opacity:1"
         d="m 153.21429,150.21935 c -0.61772,-0.8443 -0.91212,-1.91921 -0.81082,-2.96044 0.1013,-1.04123 0.59737,-2.03924 1.36625,-2.74864 0.82699,-0.76302 1.92867,-1.17553 3.04014,-1.35088 1.11146,-0.17536 2.2445,-0.13041 3.36871,-0.0829 2.56001,0.10819 5.11957,0.22724 7.67857,0.35714"
         id="path4749"
         inkscape:original-d="m 153.21429,150.21935 c -0.19554,-3.61733 -0.87395,-4.86132 0.55543,-5.70908 1.18141,-0.7007 4.22709,-1.27217 6.40885,-1.43378 4.82143,-0.35714 7.67857,0.35714 7.67857,0.35714"
         inkscape:connector-curvature="0"
         sodipodi:nodetypes="cssc"
         inkscape:path-effect="#path-effect4173-1" />
      <path
         style="fill:none;fill-rule:evenodd;stroke:#23773f;stroke-width:3.15146032;stroke-linecap:round;stroke-linejoin:round;stroke-miterlimit:4;stroke-dasharray:none;stroke-opacity:1"
         d="m 166.60714,204.50506 c -0.031,-2.00841 0.3844,-4.02248 1.20742,-5.85478 0.534,-1.18885 1.24958,-2.31507 2.22594,-3.17833 0.97637,-0.86326 2.23158,-1.44864 3.53464,-1.47197 0.99877,-0.0179 1.9709,0.28658 2.93453,0.54979 0.96363,0.26321 1.97145,0.48916 2.95462,0.31243 0.70527,-0.12677 1.3583,-0.45499 1.97173,-0.82537 0.61343,-0.37038 1.19974,-0.78727 1.83582,-1.11725 2.12765,-1.10375 4.66599,-1.15346 7.02203,-0.71279 2.35605,0.44068 4.59823,1.33615 6.88489,2.05471 3.40807,1.07095 6.93812,1.75319 10.49981,2.02927 0.0497,1.24802 -0.33267,2.50917 -1.06697,3.51953 -0.86448,1.18947 -2.16694,1.99576 -3.52797,2.55232 -1.36103,0.55655 -2.80068,0.89025 -4.20582,1.32355 -2.53879,0.78289 -4.96354,1.89066 -7.37527,3.00507 -2.39101,1.10484 -4.79383,2.22534 -7.3431,2.88779 -5.30785,1.37928 -11.13539,0.64025 -15.93092,-2.02031"
         id="path4751"
         inkscape:original-d="m 166.60714,204.50506 c 0.3345,-4.01397 -0.42185,-4.093 1.20742,-5.85478 0.98009,-1.05979 3.46806,-4.66236 5.76058,-4.6503 4.98077,0.0262 4.282,3.36222 5.88915,0.86222 1.60714,-2.5 -0.65673,-2.83547 3.80755,-1.94262 4.46429,0.89286 8.3712,1.34192 13.90692,1.34192 5.53571,0 10.49981,2.02927 10.49981,2.02927 -2.29058,2.67115 -0.28349,1.87249 -1.06697,3.51953 -0.6432,1.35213 -5.88215,3.47333 -7.73379,3.87587 -4.10714,0.89286 -4.33956,1.5765 -7.37527,3.00507 -3.03571,1.42857 -3.41452,2.70922 -7.3431,2.88779 -3.92857,0.17857 -11.64521,-0.94888 -15.93092,-2.02031"
         inkscape:connector-curvature="0"
         sodipodi:nodetypes="cssssscssssc"
         inkscape:path-effect="#path-effect4177-8" />
      <path
         style="fill:none;fill-rule:evenodd;stroke:#23773f;stroke-width:3.15146032;stroke-linecap:round;stroke-linejoin:round;stroke-miterlimit:4;stroke-dasharray:none;stroke-opacity:1"
         d="m 171.74239,202.78062 c 2.50736,-2.57186 5.80602,-4.36148 9.32904,-5.06127 4.58558,-0.91085 9.30846,-0.001 13.92857,0.71428 2.11602,0.32765 4.23836,0.61451 6.36544,0.86036 -2.05697,0.65581 -4.1385,1.23459 -6.23876,1.73472 -2.35116,0.55988 -4.72449,1.02094 -7.09097,1.51206 -3.36104,0.69752 -6.71163,1.45647 -10.01082,2.40437 -1.33768,0.38433 -2.7153,0.80424 -4.09632,0.63135 -1.05389,-0.13194 -2.06017,-0.61894 -2.81753,-1.36358 l 0.63135,-1.43229 z"
         id="path4753"
         inkscape:original-d="m 171.74239,202.78062 c 1.78571,-3.03571 3.9719,-4.8827 9.32904,-5.06127 5.35714,-0.17858 10.89286,0 13.92857,0.71428 3.03571,0.71429 6.96769,-1.52606 6.36544,0.86036 -1.94948,0.52486 -4.11917,1.42903 -6.23876,1.73472 -2.92841,0.42235 -5.64069,0.78692 -7.09097,1.51206 -2.5,1.25 -7.6894,2.04723 -10.01082,2.40437 -2.32143,0.35714 -3.5606,1.70278 -4.09632,0.63135 -0.53571,-1.07143 -2.81753,-1.36358 -2.81753,-1.36358 z"
         inkscape:connector-curvature="0"
         sodipodi:nodetypes="csscsssscc"
         inkscape:path-effect="#path-effect4181-5" />
      <path
         style="fill:none;fill-rule:evenodd;stroke:#23773f;stroke-width:3.15146032;stroke-linecap:round;stroke-linejoin:round;stroke-miterlimit:4;stroke-dasharray:none;stroke-opacity:1"
         d="m 177.5,244.50506 c 11.31683,1.30902 22.9464,-0.1756 33.57143,-4.28571 7.40416,-2.86417 14.31891,-6.98876 20.35714,-12.14286"
         id="path4755"
         inkscape:original-d="m 177.5,244.50506 c 21.07143,3.92857 30.71429,-2.85714 33.57143,-4.28571 2.85714,-1.42858 20.35714,-12.14286 20.35714,-12.14286"
         inkscape:connector-curvature="0"
         inkscape:path-effect="#path-effect4185-4" />
      <path
         style="fill:none;fill-rule:evenodd;stroke:#23773f;stroke-width:3.15146032;stroke-linecap:round;stroke-linejoin:round;stroke-miterlimit:4;stroke-dasharray:none;stroke-opacity:1"
         d="m 279.23867,198.4194 c -1.21535,6.90912 -1.97566,13.89825 -2.27438,20.90709 -0.20381,4.78196 -0.19105,9.59736 0.57251,14.32236 0.76357,4.725 2.3036,9.37686 4.9632,13.35621 2.31715,3.46697 5.41617,6.33533 8.61104,9.01523 3.70461,3.10748 7.58861,6.01578 11.7461,8.48477 3.85202,2.28758 7.92952,4.1915 12.14286,5.71429 5.19609,1.87797 10.59786,3.17613 16.07143,3.92857 11.43492,1.57193 23.28379,0.79483 34.28571,4.28571 7.2376,2.29647 13.7858,6.35075 20,10.71429 4.44547,3.12156 8.76774,6.42466 12.85715,10 1.45911,1.27568 2.8882,2.58569 4.28571,3.92857"
         id="path4757"
         inkscape:original-d="m 279.23867,198.4194 c -5,14.28571 -4.76756,14.97092 -2.27438,20.90709 3.32277,7.91138 0.53571,22.67857 5.53571,27.67857 5,5 -0.31753,4.37237 8.61104,9.01523 8.92857,4.64286 8.17467,7.0562 11.7461,8.48477 3.57143,1.42857 3.57143,3.21429 12.14286,5.71429 8.57143,2.5 6.42857,2.85714 16.07143,3.92857 9.64286,1.07143 22.5,2.5 34.28571,4.28571 11.78572,1.78572 15,7.85714 20,10.71429 5,2.85714 8.92857,6.07143 12.85715,10 3.92857,3.92857 4.28571,3.92857 4.28571,3.92857"
         inkscape:connector-curvature="0"
         sodipodi:nodetypes="csssssssssc"
         inkscape:path-effect="#path-effect4189-9" />
      <path
         style="fill:none;fill-rule:evenodd;stroke:#23773f;stroke-width:3.15146032;stroke-linecap:round;stroke-linejoin:round;stroke-miterlimit:4;stroke-dasharray:none;stroke-opacity:1"
         d="m 291.42857,257.3622 c -9.42944,6.26336 -20.23744,10.43918 -31.42857,12.14286 -13.12488,1.99806 -26.52556,0.61869 -39.64286,-1.42857 -7.63156,-1.19108 -15.27705,-2.62064 -22.5,-5.35714 -5.39871,-2.04536 -10.52994,-4.80949 -16.07143,-6.42858 -1.69488,-0.4952 -3.43311,-0.8825 -5.19756,-0.95011 -1.76445,-0.0676 -3.56328,0.19535 -5.15958,0.95011 -1.41895,0.6709 -2.63381,1.70506 -3.75917,2.79917 -1.12536,1.09411 -2.18221,2.26233 -3.38369,3.27226 -3.06117,2.57312 -6.91752,4.00155 -10.7779,5.04516 -3.86039,1.04362 -7.8202,1.755 -11.57416,3.13323 -5.09986,1.87236 -9.69767,4.93099 -14.79079,6.82161 -7.07989,2.62812 -14.79678,2.89159 -22.14286,4.64286 -3.09214,0.73715 -6.132403,1.74114 -9.285714,2.14286 -4.174469,0.53181 -8.537881,0.0106 -12.5,1.42857 -2.324824,0.83201 -4.386518,2.30147 -6.129086,4.05089 -1.742568,1.74943 -3.182045,3.77713 -4.49579,5.86786 -2.627492,4.18144 -4.830595,8.71331 -8.303696,12.22411 -2.800395,2.83079 -6.30097,4.8643 -9.285714,7.5 -5.639655,4.98014 -9.291057,12.15253 -10,19.64285"
         id="path4759"
         inkscape:original-d="m 291.42857,257.3622 c -8.21428,5.71429 -21.78571,11.07143 -31.42857,12.14286 -9.64286,1.07143 -31.07143,-0.35714 -39.64286,-1.42857 -8.57143,-1.07143 -13.21428,-2.14286 -22.5,-5.35714 -9.28571,-3.21429 -12.5,-6.07143 -16.07143,-6.42858 -3.57142,-0.35714 -9.28571,-0.35714 -10.35714,0 -1.07143,0.35715 -1.78571,4.64286 -7.14286,6.07143 -5.35714,1.42857 -18.06634,6.39268 -22.35206,8.17839 -4.28571,1.78571 1.28064,3.60733 -14.79079,6.82161 -16.07143,3.21429 -16.07143,3.21429 -22.14286,4.64286 -6.071428,1.42857 -0.71429,2.85714 -9.285714,2.14286 -8.571429,-0.71429 -6.428572,-5 -12.5,1.42857 C 77.142857,292.00506 70,304.14792 64.285714,307.71935 c -5.714285,3.57142 -5.357142,1.07142 -9.285714,7.5 -3.928571,6.42857 -5,7.85714 -10,19.64285"
         inkscape:connector-curvature="0"
         sodipodi:nodetypes="csssssssssssssc"
         inkscape:path-effect="#path-effect4193-7" />
      <path
         style="fill:none;fill-rule:evenodd;stroke:#23773f;stroke-width:3.15146032;stroke-linecap:round;stroke-linejoin:round;stroke-miterlimit:4;stroke-dasharray:none;stroke-opacity:1"
         d="m 195.625,148.25506 c 4.19998,1.59569 8.72528,2.32953 13.21429,2.14286 3.56692,-0.14832 7.10916,-0.87494 10.44642,-2.14286"
         id="path4763"
         inkscape:original-d="m 195.625,148.25506 c 6.96429,1.96429 9.55357,2.76786 13.21429,2.14286 3.66071,-0.625 9.01785,-1.25 10.44642,-2.14286"
         inkscape:connector-curvature="0"
         inkscape:path-effect="#path-effect4201-2" />
      <path
         style="fill:none;fill-rule:evenodd;stroke:#23773f;stroke-width:3.15146032;stroke-linecap:round;stroke-linejoin:round;stroke-miterlimit:4;stroke-dasharray:none;stroke-opacity:1"
         d="m 154.375,159.14792 c 3.12486,-0.66001 6.11699,-1.94235 8.75,-3.75 1.56852,-1.07684 3.01019,-2.3383 4.28571,-3.75"
         id="path4765"
         inkscape:original-d="m 154.375,159.14792 c 4.19643,-0.98215 5.53571,-1.96429 8.75,-3.75 3.21429,-1.78572 4.28571,-3.75 4.28571,-3.75"
         inkscape:connector-curvature="0"
         inkscape:path-effect="#path-effect4205-5" />
      <path
         style="fill:none;fill-rule:evenodd;stroke:#23773f;stroke-width:3.15146032;stroke-linecap:round;stroke-linejoin:round;stroke-miterlimit:4;stroke-dasharray:none;stroke-opacity:1"
         d="m 149.31317,136.40638 c 1.62222,-0.70326 3.35434,-1.15233 5.1139,-1.32582 1.07107,-0.10561 2.15333,-0.11008 3.21454,-0.28944 1.06121,-0.17936 2.12439,-0.55278 2.90951,-1.28893 0.69596,-0.65255 1.13348,-1.57364 1.19956,-2.52538 l -1.4521,-0.50507"
         id="path4767"
         inkscape:original-d="m 149.31317,136.40638 c 1.26269,-0.75761 2.71479,-0.82075 5.1139,-1.32582 2.39911,-0.50508 5.17703,-0.37881 6.12405,-1.57837 0.94702,-1.19955 1.19956,-2.52538 1.19956,-2.52538 l -1.4521,-0.50507"
         inkscape:connector-curvature="0"
         inkscape:path-effect="#path-effect4217-1" />
      <path
         style="fill:none;fill-rule:evenodd;stroke:#23773f;stroke-width:3.15146032;stroke-linecap:round;stroke-linejoin:round;stroke-miterlimit:4;stroke-dasharray:none;stroke-opacity:1"
         d="m 163.39286,178.07649 c -0.12119,3.22593 -0.73639,6.43284 -1.81757,9.4746 -0.84635,2.38109 -1.97726,4.66089 -3.361,6.7754"
         id="path4823"
         inkscape:original-d="m 163.39286,178.07649 c -0.61466,1.30615 -0.92501,7.09607 -1.81757,9.4746 -1.18191,3.14959 -2.44535,6.2667 -3.361,6.7754"
         inkscape:connector-curvature="0"
         sodipodi:nodetypes="csc"
         inkscape:path-effect="#path-effect4329-0" />
      <path
         style="fill:none;fill-rule:evenodd;stroke:#23773f;stroke-width:3.15146032;stroke-linecap:round;stroke-linejoin:round;stroke-miterlimit:4;stroke-dasharray:none;stroke-opacity:1"
         d="m 196.42857,172.71935 c 2.29358,4.27418 5.47612,8.06874 9.28571,11.07142 1.62283,1.2791 3.35784,2.41583 5.17858,3.39286"
         id="path4825"
         inkscape:original-d="m 196.42857,172.71935 c 3.75,4.10714 6.42857,8.39285 9.28571,11.07142 2.85715,2.67857 5.17858,3.39286 5.17858,3.39286"
         inkscape:connector-curvature="0"
         sodipodi:nodetypes="csc"
         inkscape:path-effect="#path-effect4333-1" />
      <path
         style="fill:none;fill-rule:evenodd;stroke:#23773f;stroke-width:3.15146032;stroke-linecap:round;stroke-linejoin:round;stroke-miterlimit:4;stroke-dasharray:none;stroke-opacity:1"
         d="m 174.91072,180.75506 c 0.013,1.70558 -0.13901,3.41239 -0.45322,5.08883 -0.13902,0.74172 -0.31003,1.47986 -0.3709,2.23203 -0.0609,0.75217 -0.007,1.52879 0.2897,2.22282 0.30001,0.70272 0.84767,1.29678 1.52374,1.65282 0.67606,0.35604 1.47575,0.47154 2.22493,0.32135"
         id="path4827"
         inkscape:original-d="m 174.91072,180.75506 c -0.1329,1.24038 -0.32548,3.20593 -0.45322,5.08883 -0.12156,1.79193 -0.1844,3.509 -0.0812,4.45485 0.22553,2.06658 3.74867,1.97417 3.74867,1.97417"
         inkscape:connector-curvature="0"
         sodipodi:nodetypes="cssc"
         inkscape:path-effect="#path-effect4337-6" />
      <path
         transform="translate(4.1922021e-8,4.7348965e-6)"
         inkscape:connector-curvature="0"
         style="color:#000000;clip-rule:nonzero;display:inline;overflow:visible;visibility:visible;opacity:1;isolation:auto;mix-blend-mode:normal;color-interpolation:sRGB;color-interpolation-filters:linearRGB;solid-color:#000000;solid-opacity:1;fill:#23773f;fill-opacity:1;fill-rule:nonzero;stroke:none;stroke-width:3.15146032;stroke-linecap:round;stroke-linejoin:round;stroke-miterlimit:4;stroke-dasharray:none;stroke-dashoffset:0;stroke-opacity:1;color-rendering:auto;image-rendering:auto;shape-rendering:auto;text-rendering:auto;enable-background:accumulate"
         d="m 198.83984,136.11133 a 4.1071429,4.2857141 0 0 0 -4.10742,4.28711 4.1071429,4.2857141 0 0 0 4.10742,4.28515 4.1071429,4.2857141 0 0 0 4.10743,-4.28515 4.1071429,4.2857141 0 0 0 -4.10743,-4.28711 z M 156.25,144.14844 a 3.3928571,3.5267856 0 0 0 -3.39258,3.52539 3.3928571,3.5267856 0 0 0 3.39258,3.52734 3.3928571,3.5267856 0 0 0 3.39258,-3.52734 3.3928571,3.5267856 0 0 0 -3.39258,-3.52539 z"
         id="path4829" />
    </g>
  </g>
</svg>
