<?xml version="1.0" encoding="UTF-8" standalone="no"?>
<!-- Created with Inkscape (http://www.inkscape.org/) -->

<svg
   xmlns:dc="http://purl.org/dc/elements/1.1/"
   xmlns:cc="http://creativecommons.org/ns#"
   xmlns:rdf="http://www.w3.org/1999/02/22-rdf-syntax-ns#"
   xmlns:svg="http://www.w3.org/2000/svg"
   xmlns="http://www.w3.org/2000/svg"
   xmlns:sodipodi="http://sodipodi.sourceforge.net/DTD/sodipodi-0.dtd"
   xmlns:inkscape="http://www.inkscape.org/namespaces/inkscape"
   width="300"
   height="70"
   viewBox="0 0 300 70"
   id="svg4149"
   version="1.1"
   inkscape:version="0.91 r13725"
   sodipodi:docname="liber-objet-logo.svg">
  <defs
     id="defs4151" />
  <sodipodi:namedview
     id="base"
     pagecolor="#ffffff"
     bordercolor="#666666"
     borderopacity="1.0"
     inkscape:pageopacity="0.0"
     inkscape:pageshadow="2"
     inkscape:zoom="4.11"
     inkscape:cx="150.03971"
     inkscape:cy="35"
     inkscape:document-units="px"
     inkscape:current-layer="layer1"
     showgrid="false"
     units="px"
     inkscape:window-width="1890"
     inkscape:window-height="1061"
     inkscape:window-x="0"
     inkscape:window-y="0"
     inkscape:window-maximized="1" />
  <metadata
     id="metadata4154">
    <rdf:RDF>
      <cc:Work
         rdf:about="">
        <dc:format>image/svg+xml</dc:format>
        <dc:type
           rdf:resource="http://purl.org/dc/dcmitype/StillImage" />
        <dc:title></dc:title>
      </cc:Work>
    </rdf:RDF>
  </metadata>
  <g
     inkscape:label="Calque 1"
     inkscape:groupmode="layer"
     id="layer1"
     transform="translate(0,-982.36216)">
    <path
       inkscape:connector-curvature="0"
       style="color:#000000;font-style:normal;font-variant:normal;font-weight:normal;font-stretch:normal;font-size:medium;line-height:normal;font-family:Sans;-inkscape-font-specification:Sans;text-indent:0;text-align:start;text-decoration:none;text-decoration-line:none;letter-spacing:normal;word-spacing:normal;text-transform:none;direction:ltr;block-progression:tb;writing-mode:lr-tb;baseline-shift:baseline;text-anchor:start;display:inline;overflow:visible;visibility:visible;fill:#000000;fill-opacity:1;stroke:none;stroke-width:10.62992096;marker:none;enable-background:accumulate"
       d="m 29.923952,998.99443 -3.783933,3.78407 3.783933,3.7841 3.783934,-3.7841 -3.783934,-3.78407 z m 207.170398,0 -3.78394,3.78407 3.78394,3.7841 3.78389,-3.7841 -3.78389,-3.78407 z m -220.326414,2.12617 0,33.4994 3.315817,0 0,-33.4994 -3.315817,0 z m 22.996203,0 0,33.4994 3.315829,0 0,-1.9697 0.234055,0.2329 3.471856,1.7356 5.090726,0 3.462127,-1.7356 3.345087,-3.3451 1.64814,-4.9349 0,-3.4132 -1.64814,-4.9349 -3.345087,-3.3451 -3.462127,-1.7362 -5.090726,0 -3.471856,1.7362 -0.234055,0.2448 0,-12.0342 -3.315829,0 z m 102.273501,0 -20.01194,6.1831 0,21.9525 19.30978,15.4188 20.01188,-6.1832 0.0119,-21.9525 -19.31952,-15.4187 z m 63.21509,0 0,33.4994 3.31583,0 0,-1.9697 0.23412,0.2329 3.47183,1.7356 5.09075,0 3.4621,-1.7356 3.34509,-3.3451 1.64813,-4.9349 0,-3.4132 -1.64813,-4.9349 -3.34509,-3.3451 -3.4621,-1.7362 -5.09075,0 -3.47183,1.7362 -0.23412,0.2448 0,-12.0342 -3.31583,0 z m 68.98853,0 0,10.0544 -4.31059,0 0,3.326 4.31059,0 0,12.9802 1.73591,5.2175 3.84248,1.9213 4.92496,0 0,-3.3159 -1.65792,0 -2.46735,0 -1.92123,-0.9651 -1.14102,-3.4233 0,-12.4147 5.75392,0 0,-3.326 -5.75392,0 0,-10.0544 -3.31583,0 z m -132.89605,3.6568 16.71558,13.3416 0,17.9445 -16.04268,4.954 -16.70584,-13.3511 0,-17.9343 16.03294,-4.9547 z m -113.079163,6.3976 0,23.445 3.315817,0 0,-23.445 -3.315817,0 z m 38.804845,0 0,23.445 3.315816,0 0,-12.8734 1.228764,-3.6957 2.418601,-2.4187 2.272332,-1.1312 5.578372,0 0,-3.326 -6.358567,0 -3.462091,1.7362 -1.677411,1.6674 0,-3.4036 -3.315816,0 z m 25.69758,0 -3.46209,1.7362 -3.345099,3.3451 -1.6384,3.6568 0,4.6913 1.6384,4.9349 3.345099,3.3451 3.46209,1.7356 5.100491,0 3.462107,-1.7356 4.24232,-4.2326 -2.35035,-2.3507 -3.852181,3.8522 -2.30156,1.1508 -3.491397,0 -2.311314,-1.1508 -2.408853,-2.4087 -1.219035,-3.667 0,-0.9556 17.24226,0 0,-4.9247 -1.73594,-3.4724 -1.81395,-1.8137 -3.462107,-1.7362 -5.100491,0 z m 92.199258,0 -3.47184,1.7362 -3.33536,3.3451 -1.64818,4.9349 0,3.4132 1.64818,4.9349 3.33536,3.3451 3.47184,1.7356 5.09075,0 3.47189,-1.7356 3.3353,-3.3451 1.64812,-4.9349 0,-3.4132 -1.64812,-4.9349 -3.3353,-3.3451 -3.47189,-1.7362 -5.09075,0 z m 50.46871,0 0,25.8345 -1.13128,3.3935 -1.91144,0.9561 -2.48688,0 -1.65792,0 0,3.3159 4.92496,0 3.84242,-1.9213 1.73597,-5.2174 0,-26.3613 -3.31583,0 z m 18.51002,0 -3.46203,1.7362 -3.3451,3.3451 -1.63839,3.6568 0,4.6913 1.63839,4.9349 3.3451,3.3451 3.46203,1.7356 5.10055,0 3.46209,-1.7356 4.24233,-4.2326 -2.35035,-2.3507 -3.85221,3.8522 -2.30156,1.1508 -3.49136,0 -2.31129,-1.1508 -2.40888,-2.4087 -1.21901,-3.667 0,-0.9556 17.24222,0 0,-4.9247 -1.73591,-3.4724 -1.81398,-1.8137 -3.46209,-1.7362 -5.10055,0 z m -206.380386,3.326 3.530336,0 2.272332,1.1312 2.418595,2.4187 1.228806,3.6957 0,2.3018 -1.228806,3.6962 -2.418595,2.4188 -2.291801,1.1407 -3.491398,0 -2.311301,-1.1508 -2.194274,-2.2038 0,-10.1034 2.194274,-2.2044 2.291832,-1.1407 z m 45.992358,0 3.530336,0 2.282091,1.1407 1.063001,1.0631 1.13128,2.2725 0,0.8289 -13.292544,0 0.585109,-1.7553 2.408853,-2.4092 2.291844,-1.1407 z m 92.189458,0 3.53042,0 2.29176,1.1407 2.39914,2.4092 1.22875,3.6665 0,2.3602 -1.22875,3.667 -2.39914,2.4087 -2.31129,1.1508 -3.49136,0 -2.31135,-1.1508 -2.39902,-2.4087 -1.22887,-3.667 0,-2.3602 1.22887,-3.6665 2.39902,-2.4092 2.29182,-1.1407 z m 27.30678,0 3.53036,0 2.27229,1.1312 2.41862,2.4187 1.2288,3.6957 0,2.3018 -1.2288,3.6962 -2.41862,2.4188 -2.29182,1.1407 -3.49136,0 -2.31129,-1.1508 -2.19429,-2.2038 0,-10.1034 2.19429,-2.2044 2.29182,-1.1407 z m 41.68175,0 3.53042,0 2.28203,1.1407 1.06301,1.0631 1.13134,2.2725 0,0.8289 -13.29254,0 0.58528,-1.7553 2.40882,-2.4092 2.29182,-1.1407 z"
       id="path3233" />
    <path
       style="fill:none;stroke:#00aa00;stroke-width:5.24066591;stroke-linecap:round;stroke-linejoin:round;stroke-miterlimit:4;stroke-dasharray:none;stroke-opacity:1"
       d="m 122.97018,1007.5266 -6.01893,-9.3697 19.14648,-5.0453 5.72404,8.9142 10.49829,-8.0941 20.72168,14.3921 -13.23769,9.1332"
       id="path4263"
       inkscape:connector-curvature="0"
       sodipodi:nodetypes="ccccccc" />
  </g>
</svg>
