<?xml version="1.0" encoding="UTF-8" standalone="no"?>
<!-- Created with Inkscape (http://www.inkscape.org/) -->

<svg
   xmlns:dc="http://purl.org/dc/elements/1.1/"
   xmlns:cc="http://creativecommons.org/ns#"
   xmlns:rdf="http://www.w3.org/1999/02/22-rdf-syntax-ns#"
   xmlns:svg="http://www.w3.org/2000/svg"
   xmlns="http://www.w3.org/2000/svg"
   xmlns:sodipodi="http://sodipodi.sourceforge.net/DTD/sodipodi-0.dtd"
   xmlns:inkscape="http://www.inkscape.org/namespaces/inkscape"
   width="71.272354mm"
   height="60mm"
   viewBox="0 0 252.53981 212.59843"
   id="svg6331"
   version="1.1"
   inkscape:version="0.91 r"
   sodipodi:docname="Martin-Leveque.svg">
  <defs
     id="defs6333">
    <inkscape:path-effect
       is_visible="true"
       id="path-effect9099-9"
       effect="spiro" />
    <inkscape:path-effect
       is_visible="true"
       id="path-effect9103-9"
       effect="spiro" />
    <inkscape:path-effect
       is_visible="true"
       id="path-effect9107-4"
       effect="spiro" />
    <inkscape:path-effect
       is_visible="true"
       id="path-effect9111-1"
       effect="spiro" />
    <inkscape:path-effect
       is_visible="true"
       id="path-effect9115-6"
       effect="spiro" />
    <inkscape:path-effect
       is_visible="true"
       id="path-effect9119-3"
       effect="spiro" />
    <inkscape:path-effect
       is_visible="true"
       id="path-effect9123-5"
       effect="spiro" />
    <inkscape:path-effect
       is_visible="true"
       id="path-effect9127-0"
       effect="spiro" />
    <inkscape:path-effect
       is_visible="true"
       id="path-effect9131-0"
       effect="spiro" />
    <inkscape:path-effect
       is_visible="true"
       id="path-effect9135-1"
       effect="spiro" />
    <inkscape:path-effect
       is_visible="true"
       id="path-effect9139-3"
       effect="spiro" />
    <inkscape:path-effect
       is_visible="true"
       id="path-effect9143-8"
       effect="spiro" />
    <inkscape:path-effect
       is_visible="true"
       id="path-effect9147-6"
       effect="spiro" />
    <inkscape:path-effect
       is_visible="true"
       id="path-effect9151-4"
       effect="spiro" />
    <inkscape:path-effect
       is_visible="true"
       id="path-effect9155-3"
       effect="spiro" />
    <inkscape:path-effect
       is_visible="true"
       id="path-effect9159-2"
       effect="spiro" />
    <inkscape:path-effect
       is_visible="true"
       id="path-effect9163-5"
       effect="spiro" />
    <inkscape:path-effect
       is_visible="true"
       id="path-effect9167-8"
       effect="spiro" />
    <inkscape:path-effect
       is_visible="true"
       id="path-effect9171-2"
       effect="spiro" />
    <inkscape:path-effect
       is_visible="true"
       id="path-effect9175-0"
       effect="spiro" />
    <inkscape:path-effect
       is_visible="true"
       id="path-effect9179-3"
       effect="spiro" />
    <inkscape:path-effect
       is_visible="true"
       id="path-effect9183-2"
       effect="spiro" />
    <inkscape:path-effect
       is_visible="true"
       id="path-effect9187-9"
       effect="spiro" />
    <inkscape:path-effect
       is_visible="true"
       id="path-effect9195-7"
       effect="spiro" />
    <inkscape:path-effect
       is_visible="true"
       id="path-effect9199-8"
       effect="spiro" />
    <inkscape:path-effect
       is_visible="true"
       id="path-effect9203-1"
       effect="spiro" />
  </defs>
  <sodipodi:namedview
     id="base"
     pagecolor="#ffffff"
     bordercolor="#666666"
     borderopacity="1.0"
     inkscape:pageopacity="0.0"
     inkscape:pageshadow="2"
     inkscape:zoom="2.8"
     inkscape:cx="-16.735529"
     inkscape:cy="67.560635"
     inkscape:document-units="mm"
     inkscape:current-layer="layer1"
     showgrid="false"
     fit-margin-top="5"
     fit-margin-left="5"
     fit-margin-right="5"
     fit-margin-bottom="5" />
  <metadata
     id="metadata6336">
    <rdf:RDF>
      <cc:Work
         rdf:about="">
        <dc:format>image/svg+xml</dc:format>
        <dc:type
           rdf:resource="http://purl.org/dc/dcmitype/StillImage" />
        <dc:title></dc:title>
      </cc:Work>
    </rdf:RDF>
  </metadata>
  <g
     inkscape:label="Calque 1"
     inkscape:groupmode="layer"
     id="layer1"
     transform="translate(-330.63454,-287.78628)">
    <g
       style="display:inline;fill:none;fill-opacity:0.99607843;stroke:#23773f;stroke-width:0.60731399;stroke-opacity:0.99607843"
       id="g8855"
       transform="matrix(1.1682519,0,0,1.1819538,238.80265,-337.26592)">
      <path
         transform="translate(-0.35714266,-0.84816074)"
         style="display:inline;fill:none;fill-opacity:0.99607843;fill-rule:evenodd;stroke:#23773f;stroke-width:1.50768399;stroke-linecap:round;stroke-linejoin:round;stroke-opacity:0.99607843;stroke-miterlimit:4;stroke-dasharray:none"
         d="m 166.99084,597.60413 c -1.17815,0.0697 -2.35668,0.13282 -3.53553,0.18941 -2.55773,0.12279 -5.19697,0.23357 -7.51301,1.32582 -2.34448,1.10566 -4.19521,3.21408 -4.98763,5.68211 0.21207,0.41521 0.63659,0.71458 1.0989,0.77494 0.31638,0.0413 0.6417,-0.0244 0.93099,-0.15901 0.2893,-0.13458 0.54418,-0.33577 0.76526,-0.56583 0.44215,-0.46012 0.7497,-1.0296 1.11625,-1.55195 0.86825,-1.23729 2.09069,-2.22205 3.48214,-2.81249 2.17406,-0.92253 4.61608,-0.8641 6.96429,-1.11608 0.77872,-0.0836 1.55361,-0.20278 2.32143,-0.35714"
         id="path8857"
         inkscape:connector-curvature="0" />
      <path
         transform="translate(-0.22321409,-0.71423216)"
         style="display:inline;fill:none;fill-opacity:0.99607843;fill-rule:evenodd;stroke:#23773f;stroke-width:1.50768399;stroke-linecap:round;stroke-linejoin:round;stroke-opacity:0.99607843;stroke-miterlimit:4;stroke-dasharray:none"
         d="m 181.19611,594.88935 c 2.92767,-0.91828 5.83301,-1.90778 8.71257,-2.96732 0.73661,-0.27104 1.48824,-0.55004 2.27284,-0.57139 0.88088,-0.024 1.75372,0.2868 2.47424,0.79412 0.68622,0.48317 1.23554,1.13109 1.81891,1.73444 0.33718,0.34872 0.69553,0.69531 0.89467,1.13762 0.0996,0.22115 0.15634,0.46457 0.14015,0.70656 -0.0162,0.242 -0.10885,0.48215 -0.27735,0.6566 -0.1254,0.12982 -0.28942,0.22019 -0.46415,0.26548 -0.17472,0.0453 -0.35971,0.0463 -0.53687,0.0118 -0.35431,-0.0691 -0.6694,-0.27663 -0.92686,-0.52967 -0.51493,-0.50608 -0.82853,-1.19616 -1.37569,-1.6672 -0.513,-0.44164 -1.19453,-0.65233 -1.87001,-0.69635 -0.67549,-0.044 -1.35127,0.067 -2.01392,0.20528 -1.98969,0.4151 -3.91914,1.07708 -5.89285,1.5625 -0.69449,0.1708 -1.39435,0.31971 -2.09822,0.44643"
         id="path8859"
         inkscape:connector-curvature="0" />
      <path
         transform="translate(1.9594393e-7,5.3553376e-5)"
         style="display:inline;fill:none;fill-opacity:0.99607843;fill-rule:evenodd;stroke:#23773f;stroke-width:1.50768399;stroke-linecap:round;stroke-linejoin:round;stroke-opacity:0.99607843;stroke-miterlimit:4;stroke-dasharray:none"
         d="m 148.9975,619.38555 c -0.66205,-4.09541 -1.08391,-8.22964 -1.26269,-12.37437 -0.0853,-1.97694 -0.11529,-3.9559 -0.12627,-5.93465 -0.0164,-2.95974 0.007,-5.94865 -0.63134,-8.83883 -0.36674,-1.66115 -0.94781,-3.26817 -1.33877,-4.92379 -0.39097,-1.65561 -0.58768,-3.40077 -0.17646,-5.05147 0.35692,-1.43274 1.16295,-2.73204 2.19586,-3.78715 1.03291,-1.0551 2.28711,-1.87556 3.61251,-2.5263 4.76747,-2.34073 10.26367,-2.477 15.5311,-3.15673 3.78558,-0.48851 7.54802,-1.28433 11.11168,-2.65165 1.84347,-0.70731 3.63526,-1.56763 5.54177,-2.08135 1.90651,-0.51371 3.98424,-0.65985 5.82244,0.0611 1.37254,0.53828 2.53398,1.53315 3.43556,2.69966 0.90159,1.16651 1.55901,2.50304 2.12028,3.86633 1.28741,3.12701 2.09579,6.43004 3.283,9.59645 0.90041,2.40148 2.01542,4.71573 3.03046,7.07106 1.57639,3.65792 2.91256,7.41788 4.04061,11.23795 0.73087,2.47505 1.37636,4.98475 1.68779,7.5466 0.11328,0.93184 0.18213,1.86907 0.20624,2.80746 0.24554,-1.24573 0.35164,-2.51888 0.31568,-3.78807 -0.079,-2.78809 -0.83764,-5.59382 -0.31568,-8.33376 0.39726,-2.08533 1.50638,-3.95501 2.27285,-5.93464 0.97755,-2.5248 1.39789,-5.24754 1.38895,-7.95496 -0.008,-2.44765 -0.3606,-4.8802 -0.50507,-7.3236 -0.22208,-3.75603 0.0192,-7.67619 -1.51523,-11.11168 -1.13211,-2.53471 -3.1309,-4.56086 -5.05076,-6.56599 -1.77603,-1.8549 -3.54048,-3.75987 -5.68211,-5.17703 -2.81686,-1.86397 -6.13464,-2.78696 -9.21764,-4.16688 -2.63228,-1.17818 -5.09762,-2.69246 -7.57615,-4.16688 -3.00373,-1.78684 -6.13525,-3.55559 -9.59645,-4.04061 -3.24536,-0.45478 -6.56737,0.26469 -9.59645,1.51523 -2.97335,1.22753 -5.73849,2.97266 -8.08122,5.17703 -1.69157,1.59166 -3.15415,3.41008 -4.79822,5.05076 -2.19677,2.19224 -4.74076,4.0951 -6.43972,6.69226 -1.45495,2.22416 -2.20285,4.82915 -3.40927,7.19734 -1.11771,2.19405 -2.65629,4.25851 -3.03046,6.69226 -0.25834,1.68033 0.0679,3.39545 0.51375,5.03603 0.44582,1.64058 1.01402,3.25618 1.25402,4.93923 0.25999,1.82324 0.12795,3.67592 0.0759,5.51687 -0.0521,1.84094 -0.0181,3.71845 0.55546,5.46854 0.92012,2.80743 3.11803,4.98961 4.54568,7.57614 0.98707,1.78832 1.59695,3.75453 2.27285,5.68211 0.50702,1.44597 1.05447,2.87777 1.64149,4.29315"
         id="path8861"
         inkscape:connector-curvature="0" />
      <path
         transform="translate(1.9594393e-7,5.3553376e-5)"
         style="display:inline;fill:none;fill-opacity:0.99607843;fill-rule:evenodd;stroke:#23773f;stroke-width:1.50768399;stroke-linecap:round;stroke-linejoin:round;stroke-opacity:0.99607843;stroke-miterlimit:4;stroke-dasharray:none"
         d="m 156.02678,606.46932 c 0.43327,-0.76875 0.99378,-1.46559 1.65179,-2.05357 0.6915,-0.6179 1.48967,-1.1148 2.34534,-1.47229 1.39065,-0.581 2.92004,-0.78923 4.42598,-0.72922 1.50347,0.0599 2.99608,0.38347 4.3894,0.95151 -1.16962,0.89146 -2.48705,1.58851 -3.88205,2.05399 -1.69739,0.56638 -3.50898,0.7881 -5.29286,0.64779"
         id="path8863"
         inkscape:connector-curvature="0" />
      <path
         transform="translate(1.9594393e-7,5.3553376e-5)"
         style="display:inline;fill:none;fill-opacity:0.99607843;fill-rule:evenodd;stroke:#23773f;stroke-width:1.50768399;stroke-linecap:round;stroke-linejoin:round;stroke-opacity:0.99607843;stroke-miterlimit:4;stroke-dasharray:none"
         d="m 194.73214,599.41575 c -0.93815,-0.52031 -1.94752,-0.91201 -2.99107,-1.16071 -1.72441,-0.41097 -3.54719,-0.42634 -5.26786,0 -1.90763,0.47267 -3.67697,1.49042 -5.04464,2.90178 1.41645,0.19496 2.8448,0.30335 4.27445,0.32437 1.83912,0.027 3.68035,-0.0906 5.50107,-0.35159"
         id="path8865"
         inkscape:connector-curvature="0" />
      <path
         transform="translate(0.9375002,-0.44637645)"
         style="display:inline;opacity:1;fill:#23763f;fill-opacity:0.99607843;stroke:none;stroke-width:1;stroke-linecap:round;stroke-linejoin:round;stroke-miterlimit:4;stroke-dasharray:none;stroke-dashoffset:12.75590515;stroke-opacity:0.99607843"
         d="m 163.79465,604.2818 a 2.6785715,2.0089285 0 0 1 -2.67858,2.00893 2.6785715,2.0089285 0 0 1 -2.67857,-2.00893 2.6785715,2.0089285 0 0 1 2.67857,-2.00893 2.6785715,2.0089285 0 0 1 2.67858,2.00893 z"
         id="path8867"
         inkscape:connector-curvature="0" />
      <path
         transform="translate(27.410714,-4.9106664)"
         style="display:inline;opacity:1;fill:#23763f;fill-opacity:0.99607843;stroke:none;stroke-width:1;stroke-linecap:round;stroke-linejoin:round;stroke-miterlimit:4;stroke-dasharray:none;stroke-dashoffset:12.75590515;stroke-opacity:0.99607843"
         d="m 163.79465,604.2818 a 2.6785715,2.0089285 0 0 1 -2.67858,2.00893 2.6785715,2.0089285 0 0 1 -2.67857,-2.00893 2.6785715,2.0089285 0 0 1 2.67857,-2.00893 2.6785715,2.0089285 0 0 1 2.67858,2.00893 z"
         id="path8869"
         inkscape:connector-curvature="0" />
      <path
         transform="translate(1.9594393e-7,5.3553376e-5)"
         style="display:inline;fill:none;fill-opacity:0.99607843;fill-rule:evenodd;stroke:#23773f;stroke-width:1.50768399;stroke-linecap:round;stroke-linejoin:round;stroke-opacity:0.99607843;stroke-miterlimit:4;stroke-dasharray:none"
         d="m 170.84205,613.38777 c -0.78926,0.27683 -1.45969,0.87687 -1.822,1.63072 -0.36232,0.75385 -0.41205,1.65221 -0.13517,2.44145 0.23479,0.66924 0.6943,1.25074 1.26649,1.6698 0.57219,0.41905 1.25324,0.67922 1.95337,0.79245 0.20891,0.0338 0.41988,0.0549 0.63135,0.0631"
         id="path8871"
         inkscape:connector-curvature="0" />
      <path
         transform="translate(1.9594393e-7,5.3553376e-5)"
         style="display:inline;fill:none;fill-opacity:0.99607843;fill-rule:evenodd;stroke:#23773f;stroke-width:1.50768399;stroke-linecap:round;stroke-linejoin:round;stroke-opacity:0.99607843;stroke-miterlimit:4;stroke-dasharray:none"
         d="m 172.2677,618.273 c 0.27869,-0.34177 0.71563,-0.54881 1.15662,-0.54805 0.28044,4.8e-4 0.56027,0.0822 0.79688,0.23278 0.2366,0.15055 0.42918,0.36941 0.54841,0.62325"
         id="path8873"
         inkscape:connector-curvature="0" />
      <path
         transform="translate(0.04771768,-0.04769487)"
         style="display:inline;fill:none;fill-opacity:0.99607843;fill-rule:evenodd;stroke:#23773f;stroke-width:1.50768399;stroke-linecap:round;stroke-linejoin:round;stroke-opacity:0.99607843;stroke-miterlimit:4;stroke-dasharray:none"
         d="m 179.80604,618.01197 c 0.19099,-0.61164 0.69214,-1.11747 1.30197,-1.31416 0.51257,-0.16531 1.09145,-0.11317 1.56623,0.14107"
         id="path8875"
         inkscape:connector-curvature="0" />
      <path
         transform="translate(1.9594393e-7,5.3553376e-5)"
         style="display:inline;fill:none;fill-opacity:0.99607843;fill-rule:evenodd;stroke:#23773f;stroke-width:1.50768399;stroke-linecap:round;stroke-linejoin:round;stroke-opacity:0.99607843;stroke-miterlimit:4;stroke-dasharray:none"
         d="m 166.3595,629.3608 c 2.23984,-1.37561 4.78851,-2.24514 7.40206,-2.52538 1.85933,-0.19936 3.73796,-0.10415 5.60365,-0.23087 1.82461,-0.12393 3.62722,-0.45936 5.43855,-0.71166 1.96264,-0.27337 3.94831,-0.44959 5.92567,-0.32016 1.2795,0.0838 2.55057,0.2956 3.78807,0.63135 -1.43171,1.28634 -2.96984,2.45419 -4.5935,3.48772 -2.78958,1.77568 -5.87373,3.1651 -9.14367,3.65731 -2.78256,0.41884 -5.65449,0.17488 -8.34908,-0.63583 -1.58807,-0.4778 -3.12415,-1.15414 -4.49339,-2.08979 -0.55681,-0.38049 -1.08492,-0.80298 -1.57836,-1.26269 z"
         id="path8877"
         inkscape:connector-curvature="0" />
      <path
         transform="matrix(0.88655477,0,0,0.85855646,20.518523,89.091582)"
         style="display:inline;fill:none;fill-opacity:0.99607843;fill-rule:evenodd;stroke:#23773f;stroke-width:1.72811686;stroke-linecap:round;stroke-linejoin:round;stroke-opacity:0.99607843;stroke-miterlimit:4;stroke-dasharray:none"
         d="m 169.32682,629.92901 c 2.34298,0.47964 4.74484,0.67094 7.1342,0.56821 2.89052,-0.12427 5.75389,-0.67757 8.52317,-1.51522 1.92076,-0.58099 3.80008,-1.29893 5.61897,-2.14658 -3.00018,0.88204 -6.0974,1.4336 -9.21764,1.6415 -3.11968,0.20786 -6.27917,0.0756 -9.34391,0.69448 -0.92174,0.18612 -1.82987,0.43955 -2.71479,0.75761 z"
         id="path8879"
         inkscape:connector-curvature="0" />
      <path
         transform="translate(1.9594393e-7,5.3553376e-5)"
         style="display:inline;fill:none;fill-opacity:0.99607843;fill-rule:evenodd;stroke:#23773f;stroke-width:1.50768399;stroke-linecap:round;stroke-linejoin:round;stroke-opacity:0.99607843;stroke-miterlimit:4;stroke-dasharray:none"
         d="m 209.85919,595.77323 c 0.44291,-0.71378 1.1737,-1.24309 1.99,-1.44133 0.8163,-0.19825 1.70846,-0.0631 2.42942,0.36804 0.65746,0.39316 1.16029,1.01426 1.49247,1.70454 0.33218,0.69028 0.50231,1.44891 0.59097,2.20981 0.22084,1.8954 -0.0503,3.81451 -0.44194,5.6821 -0.30503,1.45449 -0.68342,2.89372 -0.94702,4.35629 -0.25417,1.41024 -0.40163,2.84198 -0.75762,4.23001 -0.29413,1.14683 -0.73093,2.25937 -1.32582,3.283 -0.55416,0.95354 -1.27963,1.85653 -2.27284,2.33597 -0.5154,0.24879 -1.09986,0.37444 -1.66629,0.29262 -0.56643,-0.0818 -1.11024,-0.38438 -1.42731,-0.86083 -0.26806,-0.4028 -0.36166,-0.91758 -0.25253,-1.38896"
         id="path8881"
         inkscape:connector-curvature="0" />
      <path
         transform="translate(1.9594393e-7,5.3553376e-5)"
         style="display:inline;fill:none;fill-opacity:0.99607843;fill-rule:evenodd;stroke:#23773f;stroke-width:1.50768399;stroke-linecap:round;stroke-linejoin:round;stroke-opacity:0.99607843;stroke-miterlimit:4;stroke-dasharray:none"
         d="m 209.48038,602.14982 c 0.0552,-1.79314 0.78832,-3.5573 2.02031,-4.86136 0.32797,-0.34715 0.69657,-0.66704 1.13229,-0.86255 0.43571,-0.19552 0.94742,-0.2561 1.39309,-0.0845 0.27654,0.1065 0.51683,0.29791 0.69887,0.53174 0.18203,0.23383 0.30728,0.50897 0.3842,0.79515 0.15385,0.57235 0.11653,1.17741 0.0533,1.7667 -0.0727,0.67799 -0.17807,1.35247 -0.31567,2.02031"
         id="path8883"
         inkscape:connector-curvature="0" />
      <path
         transform="translate(1.9594393e-7,5.3553376e-5)"
         style="display:inline;fill:none;fill-opacity:0.99607843;fill-rule:evenodd;stroke:#23773f;stroke-width:1.50768399;stroke-linecap:round;stroke-linejoin:round;stroke-opacity:0.99607843;stroke-miterlimit:4;stroke-dasharray:none"
         d="m 209.03844,604.4858 c 0.82875,0.3188 1.48758,1.04865 1.72018,1.90559 0.2326,0.85695 0.0332,1.81975 -0.52062,2.51382 -0.3236,0.40555 -0.75492,0.71837 -1.05705,1.14017 -0.15106,0.2109 -0.26869,0.45074 -0.30627,0.70742 -0.0376,0.25668 0.0107,0.53146 0.16376,0.74093 0.10327,0.14136 0.25073,0.24852 0.41433,0.31084 0.1636,0.0623 0.34273,0.0806 0.51667,0.0607 0.34789,-0.0396 0.66597,-0.22822 0.91679,-0.47252 0.50163,-0.48861 0.75124,-1.17839 1.18267,-1.72997 0.28781,-0.36797 0.65696,-0.67197 1.07329,-0.88388"
         id="path8885"
         inkscape:connector-curvature="0" />
      <path
         transform="translate(1.9594393e-7,5.3553376e-5)"
         style="display:inline;fill:none;fill-opacity:0.99607843;fill-rule:evenodd;stroke:#23773f;stroke-width:1.50768399;stroke-linecap:round;stroke-linejoin:round;stroke-opacity:0.99607843;stroke-miterlimit:4;stroke-dasharray:none"
         d="m 143.66071,610.3979 c 0.0872,-0.56752 -0.0228,-1.1634 -0.30675,-1.66245 -0.28395,-0.49905 -0.74003,-0.89798 -1.27243,-1.11299 -0.5324,-0.21501 -1.13761,-0.24467 -1.68848,-0.0828 -0.55088,0.16191 -1.04379,0.51433 -1.37519,0.98321 -0.32674,0.4623 -0.49362,1.02711 -0.5212,1.59255 -0.0276,0.56543 0.0794,1.13201 0.26305,1.66751 0.36723,1.07101 1.02899,2.01076 1.59743,2.98994 1.26467,2.17847 2.08087,4.58264 3.125,6.875 0.63827,1.4013 1.36923,2.78106 1.69643,4.28571 0.18082,0.83153 0.23442,1.686 0.39873,2.52095 0.16432,0.83495 0.45436,1.67361 1.02984,2.30048 0.37473,0.4082 0.8622,0.71184 1.39381,0.8682 0.53161,0.15636 1.10585,0.16498 1.64191,0.0247"
         id="path8887"
         inkscape:connector-curvature="0" />
      <path
         transform="translate(1.9594393e-7,5.3553376e-5)"
         style="display:inline;fill:none;fill-opacity:0.99607843;fill-rule:evenodd;stroke:#23773f;stroke-width:1.50768399;stroke-linecap:round;stroke-linejoin:round;stroke-opacity:0.99607843;stroke-miterlimit:4;stroke-dasharray:none"
         d="m 140.53571,612.45147 c 0.19403,-0.33554 0.48816,-0.61235 0.83484,-0.78569 0.34668,-0.17334 0.7446,-0.24255 1.12945,-0.19646 0.37385,0.0448 0.73125,0.19633 1.03841,0.41409 0.30717,0.21776 0.56534,0.50029 0.77609,0.81231 0.42148,0.62403 0.65152,1.35476 0.86407,2.07718 0.2309,0.78481 0.44986,1.59791 0.35714,2.41071 -0.10825,0.94897 -0.6335,1.81616 -0.71428,2.76786 -0.062,0.73007 0.15329,1.48032 0.59291,2.06647 0.43962,0.58616 1.09958,1.00288 1.8178,1.14781"
         id="path8889"
         inkscape:connector-curvature="0" />
      <path
         transform="translate(1.9594393e-7,5.3553376e-5)"
         style="display:inline;fill:none;fill-opacity:0.99607843;fill-rule:evenodd;stroke:#23773f;stroke-width:1.50768399;stroke-linecap:round;stroke-linejoin:round;stroke-opacity:0.99607843;stroke-miterlimit:4;stroke-dasharray:none"
         d="m 149.01786,623.07647 c -0.15816,1.84072 -0.15816,3.69499 0,5.53571 0.26305,3.06148 0.96703,6.08968 2.14285,8.92857 1.1161,2.6947 2.68939,5.25268 4.91072,7.14286 2.1029,1.78941 4.75395,2.92557 7.5,3.21429 2.86999,0.40555 5.7086,1.03302 8.48214,1.87494 3.00497,0.91218 5.97574,2.08438 9.10714,2.32143 2.61905,0.19827 5.2642,-0.27376 7.73142,-1.1746 2.46723,-0.90084 4.76478,-2.22265 6.91144,-3.73611 2.63307,-1.8564 5.05659,-4.0098 7.20982,-6.40624 1.39534,-0.71375 2.59007,-1.81476 3.41518,-3.14728 0.88673,-1.43203 1.33858,-3.10129 1.50902,-4.77698 0.17045,-1.67569 0.0702,-3.36686 -0.0805,-5.04445 -0.26358,-2.93582 -0.68101,-5.85781 -1.25,-8.75"
         id="path8891"
         inkscape:connector-curvature="0" />
      <path
         transform="translate(1.9594393e-7,5.3553376e-5)"
         style="display:inline;fill:none;fill-opacity:0.99607843;fill-rule:evenodd;stroke:#23773f;stroke-width:1.50768399;stroke-linecap:round;stroke-linejoin:round;stroke-opacity:0.99607843;stroke-miterlimit:4;stroke-dasharray:none"
         d="m 207.05357,640.30861 c 0.73857,4.2425 1.3935,8.49955 1.96429,12.76786 0.43466,3.25033 0.82091,6.50967 1.42857,9.73214 0.496,2.63032 1.1424,5.27456 0.98214,7.94643 -0.0729,1.2157 -0.31402,2.4212 -0.71428,3.57143"
         id="path8893"
         inkscape:connector-curvature="0" />
      <path
         transform="translate(1.9594393e-7,5.3553376e-5)"
         style="display:inline;fill:none;fill-opacity:0.99607843;fill-rule:evenodd;stroke:#23773f;stroke-width:1.50768399;stroke-linecap:round;stroke-linejoin:round;stroke-opacity:0.99607843;stroke-miterlimit:4;stroke-dasharray:none"
         d="m 211.16071,655.21932 c 3.28801,1.91711 5.73494,5.22377 6.60715,8.92858 0.65369,2.7766 0.41559,5.81698 -0.98215,8.30357 -1.35322,2.40738 -3.68866,4.14523 -6.21668,5.2569 -2.52802,1.11167 -5.26353,1.65489 -7.97974,2.15381 -6.22091,1.14267 -12.51571,2.09755 -18.83929,1.96429 -2.82059,-0.0594 -5.65071,-0.3384 -8.37351,-1.07704 -2.72281,-0.73863 -5.3423,-1.95004 -7.51935,-3.74439 -3.08816,-2.54529 -5.14584,-6.13213 -6.69643,-9.82143 -1.28514,-3.05772 -2.26779,-6.2376 -3.03571,-9.46429 -0.42171,-1.77199 -0.77917,-3.55926 -1.07143,-5.35714"
         id="path8895"
         inkscape:connector-curvature="0" />
      <path
         transform="translate(1.9594393e-7,5.3553376e-5)"
         style="display:inline;fill:none;fill-opacity:0.99607843;fill-rule:evenodd;stroke:#23773f;stroke-width:1.50768399;stroke-linecap:round;stroke-linejoin:round;stroke-opacity:0.99607843;stroke-miterlimit:4;stroke-dasharray:none"
         d="m 154.55334,653.4782 c -4.77354,0.56682 -9.60419,0.65156 -14.39467,0.25253 -2.69334,-0.22435 -5.42037,-0.59986 -8.08122,-0.12627 -2.32341,0.41353 -4.47871,1.4547 -6.69227,2.27285 -3.12475,1.15493 -6.39066,1.87188 -9.59644,2.77792 -2.49781,0.70595 -4.98909,1.53999 -7.19734,2.90419 -3.38735,2.09261 -5.91045,5.30079 -8.33376,8.46002 -2.136169,2.78489 -4.286454,5.64666 -5.42957,8.96511 -0.269572,0.78257 -0.480798,1.58522 -0.631345,2.39911 l 0,0"
         id="path8897"
         inkscape:connector-curvature="0" />
      <path
         transform="translate(1.9594393e-7,5.3553376e-5)"
         style="display:inline;fill:none;fill-opacity:0.99607843;fill-rule:evenodd;stroke:#23773f;stroke-width:1.50768399;stroke-linecap:round;stroke-linejoin:round;stroke-opacity:0.99607843;stroke-miterlimit:4;stroke-dasharray:none"
         d="m 212.51084,655.62477 c 3.44643,0.91362 7.06531,1.17211 10.6066,0.75761 2.69914,-0.31593 5.36367,-1.0188 8.08122,-1.01015 3.37542,0.0108 6.64097,1.11603 9.97526,1.6415 4.0038,0.63098 8.09489,0.42308 12.12183,0.88388 2.01289,0.23034 4.01032,0.62886 5.93465,1.26269 2.11923,0.69802 4.15353,1.68658 5.93464,3.03046 3.6149,2.72752 6.018,6.78189 7.70242,10.98541 1.56109,3.89574 2.6026,8.04002 4.79822,11.61675 0.45851,0.74693 0.96497,1.46442 1.51523,2.14658"
         id="path8899"
         inkscape:connector-curvature="0" />
      <path
         transform="translate(1.9594393e-7,5.3553376e-5)"
         style="display:inline;fill:none;fill-opacity:0.99607843;fill-rule:evenodd;stroke:#23773f;stroke-width:1.50768399;stroke-linecap:round;stroke-linejoin:round;stroke-opacity:0.99607843;stroke-miterlimit:4;stroke-dasharray:none"
         d="m 156.57364,666.73645 c 4.11701,4.07008 7.95881,8.41849 11.49049,13.00571 1.73348,2.25158 3.39607,4.56511 5.31372,6.66206 1.91765,2.09696 4.1152,3.98782 6.68184,5.20723 3.54981,1.68651 7.64907,1.99696 11.53058,1.38104 3.88151,-0.61592 7.57387,-2.11436 11.07158,-3.90642 4.64059,-2.37761 8.99594,-5.28492 13.13199,-8.46002 2.26392,-1.73793 4.52909,-3.63588 5.80837,-6.18719 1.02751,-2.0492 1.34415,-4.44656 0.88389,-6.69226"
         id="path8901"
         inkscape:connector-curvature="0" />
      <path
         transform="translate(1.9594393e-7,5.3553376e-5)"
         style="display:inline;fill:none;fill-opacity:0.99607843;fill-rule:evenodd;stroke:#23773f;stroke-width:1.50768399;stroke-linecap:round;stroke-linejoin:round;stroke-opacity:0.99607843;stroke-miterlimit:4;stroke-dasharray:none"
         d="m 166.23323,619.82749 c -1.49618,1.47639 -2.81359,3.13378 -3.91434,4.92449 -0.94815,1.54246 -1.75111,3.24196 -1.8309,5.05077 -0.0186,0.42163 0.003,0.84501 0.0631,1.26269"
         id="path8903"
         inkscape:connector-curvature="0" />
      <path
         style="fill:none;fill-opacity:0.99607843;fill-rule:evenodd;stroke:#23773f;stroke-width:1.50768399;stroke-linecap:round;stroke-linejoin:round;stroke-opacity:0.99607843;stroke-miterlimit:4;stroke-dasharray:none"
         d="m 164.82143,636.46932 -1.33929,2.85715 0,0 0,0"
         id="path8905"
         inkscape:connector-curvature="0" />
      <path
         style="fill:none;fill-opacity:0.99607843;fill-rule:evenodd;stroke:#23773f;stroke-width:1.50768399;stroke-linecap:round;stroke-linejoin:round;stroke-opacity:0.99607843;stroke-miterlimit:4;stroke-dasharray:none"
         d="m 168.21429,639.50504 -1.875,2.94643"
         id="path8907"
         inkscape:connector-curvature="0" />
      <path
         style="fill:none;fill-opacity:0.99607843;fill-rule:evenodd;stroke:#23773f;stroke-width:1.50768399;stroke-linecap:round;stroke-linejoin:round;stroke-opacity:0.99607843;stroke-miterlimit:4;stroke-dasharray:none"
         d="m 170.53571,642.18361 -1.60714,2.85714"
         id="path8909"
         inkscape:connector-curvature="0" />
      <path
         style="fill:none;fill-opacity:0.99607843;fill-rule:evenodd;stroke:#23773f;stroke-width:1.50768399;stroke-linecap:round;stroke-linejoin:round;stroke-opacity:0.99607843;stroke-miterlimit:4;stroke-dasharray:none"
         d="m 173.30357,645.48718 -1.25,1.69643"
         id="path8911"
         inkscape:connector-curvature="0" />
      <path
         style="fill:none;fill-opacity:0.99607843;fill-rule:evenodd;stroke:#23773f;stroke-width:1.50768399;stroke-linecap:round;stroke-linejoin:round;stroke-opacity:0.99607843;stroke-miterlimit:4;stroke-dasharray:none"
         d="m 164.82143,640.66575 -1.25,3.03572"
         id="path8913"
         inkscape:connector-curvature="0" />
      <path
         style="fill:none;fill-opacity:0.99607843;fill-rule:evenodd;stroke:#23773f;stroke-width:1.50768399;stroke-linecap:round;stroke-linejoin:round;stroke-opacity:0.99607843;stroke-miterlimit:4;stroke-dasharray:none"
         d="m 166.33929,644.05861 -1.16072,2.23214"
         id="path8915"
         inkscape:connector-curvature="0" />
      <path
         style="fill:none;fill-opacity:0.99607843;fill-rule:evenodd;stroke:#23773f;stroke-width:1.50768399;stroke-linecap:round;stroke-linejoin:round;stroke-opacity:0.99607843;stroke-miterlimit:4;stroke-dasharray:none"
         d="m 169.375,646.55861 -0.89286,1.07143"
         id="path8917"
         inkscape:connector-curvature="0" />
      <path
         style="fill:none;fill-opacity:0.99607843;fill-rule:evenodd;stroke:#23773f;stroke-width:1.50768399;stroke-linecap:round;stroke-linejoin:round;stroke-opacity:0.99607843;stroke-miterlimit:4;stroke-dasharray:none"
         d="m 175.80357,647.18361 -1.16071,2.05357"
         id="path8919"
         inkscape:connector-curvature="0" />
      <path
         style="fill:none;fill-opacity:0.99607843;fill-rule:evenodd;stroke:#23773f;stroke-width:1.50768399;stroke-linecap:round;stroke-linejoin:round;stroke-opacity:0.99607843;stroke-miterlimit:4;stroke-dasharray:none"
         d="m 178.92857,648.43361 -1.69643,1.78571"
         id="path8921"
         inkscape:connector-curvature="0" />
      <path
         style="fill:none;fill-opacity:0.99607843;fill-rule:evenodd;stroke:#23773f;stroke-width:1.50768399;stroke-linecap:round;stroke-linejoin:round;stroke-opacity:0.99607843;stroke-miterlimit:4;stroke-dasharray:none"
         d="m 182.58929,648.5229 0.44642,2.85714"
         id="path8923"
         inkscape:connector-curvature="0" />
      <path
         style="fill:none;fill-opacity:0.99607843;fill-rule:evenodd;stroke:#23773f;stroke-width:1.50768399;stroke-linecap:round;stroke-linejoin:round;stroke-opacity:0.99607843;stroke-miterlimit:4;stroke-dasharray:none"
         d="m 180.44643,648.43361 -0.625,2.23214"
         id="path8925"
         inkscape:connector-curvature="0" />
      <path
         style="fill:none;fill-opacity:0.99607843;fill-rule:evenodd;stroke:#23773f;stroke-width:1.50768399;stroke-linecap:round;stroke-linejoin:round;stroke-opacity:0.99607843;stroke-miterlimit:4;stroke-dasharray:none"
         d="m 185.35714,648.25504 0.89286,2.23214"
         id="path8927"
         inkscape:connector-curvature="0" />
      <path
         style="fill:none;fill-opacity:0.99607843;fill-rule:evenodd;stroke:#23773f;stroke-width:1.50768399;stroke-linecap:round;stroke-linejoin:round;stroke-opacity:0.99607843;stroke-miterlimit:4;stroke-dasharray:none"
         d="m 188.21429,647.18361 1.16071,2.23214"
         id="path8929"
         inkscape:connector-curvature="0" />
      <path
         style="fill:none;fill-opacity:0.99607843;fill-rule:evenodd;stroke:#23773f;stroke-width:1.50768399;stroke-linecap:round;stroke-linejoin:round;stroke-opacity:0.99607843;stroke-miterlimit:4;stroke-dasharray:none"
         d="m 189.10714,644.41575 1.51786,2.23215"
         id="path8931"
         inkscape:connector-curvature="0" />
      <path
         style="fill:none;fill-opacity:0.99607843;fill-rule:evenodd;stroke:#23773f;stroke-width:1.50768399;stroke-linecap:round;stroke-linejoin:round;stroke-opacity:0.99607843;stroke-miterlimit:4;stroke-dasharray:none"
         d="m 190.53571,640.3979 1.51786,2.58928"
         id="path8933"
         inkscape:connector-curvature="0" />
      <path
         style="fill:none;fill-opacity:0.99607843;fill-rule:evenodd;stroke:#23773f;stroke-width:1.50768399;stroke-linecap:round;stroke-linejoin:round;stroke-opacity:0.99607843;stroke-miterlimit:4;stroke-dasharray:none"
         d="m 193.83929,638.43361 1.07142,2.5"
         id="path8935"
         inkscape:connector-curvature="0" />
      <path
         style="fill:none;fill-opacity:0.99607843;fill-rule:evenodd;stroke:#23773f;stroke-width:1.50768399;stroke-linecap:round;stroke-linejoin:round;stroke-opacity:0.99607843;stroke-miterlimit:4;stroke-dasharray:none"
         d="m 194.91071,643.07647 0.53572,1.96428"
         id="path8937"
         inkscape:connector-curvature="0" />
      <path
         style="fill:none;fill-opacity:0.99607843;fill-rule:evenodd;stroke:#23773f;stroke-width:1.50768399;stroke-linecap:round;stroke-linejoin:round;stroke-opacity:0.99607843;stroke-miterlimit:4;stroke-dasharray:none"
         d="m 192.41071,644.86218 1.60715,2.5"
         id="path8939"
         inkscape:connector-curvature="0" />
      <path
         style="fill:none;fill-opacity:0.99607843;fill-rule:evenodd;stroke:#23773f;stroke-width:1.50768399;stroke-linecap:round;stroke-linejoin:round;stroke-opacity:0.99607843;stroke-miterlimit:4;stroke-dasharray:none"
         d="m 196.16071,634.95147 1.42858,1.69643"
         id="path8941"
         inkscape:connector-curvature="0" />
      <path
         style="fill:none;fill-opacity:0.99607843;fill-rule:evenodd;stroke:#23773f;stroke-width:1.50768399;stroke-linecap:round;stroke-linejoin:round;stroke-opacity:0.99607843;stroke-miterlimit:4;stroke-dasharray:none"
         d="m 196.60714,638.70147 1.33929,2.67857"
         id="path8943"
         inkscape:connector-curvature="0" />
      <path
         style="fill:none;fill-opacity:0.99607843;fill-rule:evenodd;stroke:#23773f;stroke-width:1.50768399;stroke-linecap:round;stroke-linejoin:round;stroke-opacity:0.99607843;stroke-miterlimit:4;stroke-dasharray:none"
         d="m 199.10714,635.93361 1.33929,2.76786"
         id="path8945"
         inkscape:connector-curvature="0" />
      <path
         style="fill:none;fill-opacity:0.99607843;fill-rule:evenodd;stroke:#23773f;stroke-width:1.50768399;stroke-linecap:round;stroke-linejoin:round;stroke-opacity:0.99607843;stroke-miterlimit:4;stroke-dasharray:none"
         d="m 197.85714,629.95147 1.16072,2.85714"
         id="path8947"
         inkscape:connector-curvature="0" />
      <path
         style="fill:none;fill-opacity:0.99607843;fill-rule:evenodd;stroke:#23773f;stroke-width:1.50768399;stroke-linecap:round;stroke-linejoin:round;stroke-opacity:0.99607843;stroke-miterlimit:4;stroke-dasharray:none"
         d="m 199.55357,640.48718 0.71429,1.16072"
         id="path8949"
         inkscape:connector-curvature="0" />
      <path
         style="fill:none;fill-opacity:0.99607843;fill-rule:evenodd;stroke:#23773f;stroke-width:1.50768399;stroke-linecap:round;stroke-linejoin:round;stroke-opacity:0.99607843;stroke-miterlimit:4;stroke-dasharray:none"
         d="m 164.55357,625.04075 -0.71428,2.32143"
         id="path8951"
         inkscape:connector-curvature="0" />
      <path
         style="fill:none;fill-opacity:0.99607843;fill-rule:evenodd;stroke:#23773f;stroke-width:1.50768399;stroke-linecap:round;stroke-linejoin:round;stroke-opacity:0.99607843;stroke-miterlimit:4;stroke-dasharray:none"
         d="M 167.41071,623.61218 166.25,625.93361"
         id="path8953"
         inkscape:connector-curvature="0" />
      <path
         style="fill:none;fill-opacity:0.99607843;fill-rule:evenodd;stroke:#23773f;stroke-width:1.50768399;stroke-linecap:round;stroke-linejoin:round;stroke-opacity:0.99607843;stroke-miterlimit:4;stroke-dasharray:none"
         d="m 170.08929,622.71932 -0.53572,1.96429"
         id="path8955"
         inkscape:connector-curvature="0" />
      <path
         style="fill:none;fill-opacity:0.99607843;fill-rule:evenodd;stroke:#23773f;stroke-width:1.50768399;stroke-linecap:round;stroke-linejoin:round;stroke-opacity:0.99607843;stroke-miterlimit:4;stroke-dasharray:none"
         d="m 172.67857,622.71932 -0.0893,1.78572"
         id="path8957"
         inkscape:connector-curvature="0" />
      <path
         style="fill:none;fill-opacity:0.99607843;fill-rule:evenodd;stroke:#23773f;stroke-width:1.50768399;stroke-linecap:round;stroke-linejoin:round;stroke-opacity:0.99607843;stroke-miterlimit:4;stroke-dasharray:none"
         d="m 175.35714,622.45147 0,1.69643"
         id="path8959"
         inkscape:connector-curvature="0" />
      <path
         style="fill:none;fill-opacity:0.99607843;fill-rule:evenodd;stroke:#23773f;stroke-width:1.50768399;stroke-linecap:round;stroke-linejoin:round;stroke-opacity:0.99607843;stroke-miterlimit:4;stroke-dasharray:none"
         d="m 178.39286,622.00504 0.35714,1.33928"
         id="path8961"
         inkscape:connector-curvature="0" />
      <path
         style="fill:none;fill-opacity:0.99607843;fill-rule:evenodd;stroke:#23773f;stroke-width:1.50768399;stroke-linecap:round;stroke-linejoin:round;stroke-opacity:0.99607843;stroke-miterlimit:4;stroke-dasharray:none"
         d="m 181.875,621.6479 1.78571,2.14285"
         id="path8963"
         inkscape:connector-curvature="0" />
      <path
         style="fill:none;fill-opacity:0.99607843;fill-rule:evenodd;stroke:#23773f;stroke-width:1.50768399;stroke-linecap:round;stroke-linejoin:round;stroke-opacity:0.99607843;stroke-miterlimit:4;stroke-dasharray:none"
         d="m 185,621.20147 1.16071,1.42857"
         id="path8965"
         inkscape:connector-curvature="0" />
      <path
         style="fill:none;fill-opacity:0.99607843;fill-rule:evenodd;stroke:#23773f;stroke-width:1.50768399;stroke-linecap:round;stroke-linejoin:round;stroke-opacity:0.99607843;stroke-miterlimit:4;stroke-dasharray:none"
         d="m 188.92857,621.46932 1.51786,1.60715"
         id="path8967"
         inkscape:connector-curvature="0" />
      <path
         style="fill:none;fill-opacity:0.99607843;fill-rule:evenodd;stroke:#23773f;stroke-width:1.50768399;stroke-linecap:round;stroke-linejoin:round;stroke-opacity:0.99607843;stroke-miterlimit:4;stroke-dasharray:none"
         d="m 191.25,621.0229 1.69643,1.78571"
         id="path8969"
         inkscape:connector-curvature="0" />
      <path
         style="fill:none;fill-opacity:0.99607843;fill-rule:evenodd;stroke:#23773f;stroke-width:1.50768399;stroke-linecap:round;stroke-linejoin:round;stroke-opacity:0.99607843;stroke-miterlimit:4;stroke-dasharray:none"
         d="m 193.83929,621.38004 2.14285,1.69643"
         id="path8971"
         inkscape:connector-curvature="0" />
      <path
         style="fill:none;fill-opacity:0.99607843;fill-rule:evenodd;stroke:#23773f;stroke-width:1.50768399;stroke-linecap:round;stroke-linejoin:round;stroke-opacity:0.99607843;stroke-miterlimit:4;stroke-dasharray:none"
         d="m 154.375,631.55861 -0.89286,1.78571"
         id="path8973"
         inkscape:connector-curvature="0" />
      <path
         transform="translate(2.6785733,4.3750243)"
         style="display:inline;fill:none;fill-opacity:0.99607843;fill-rule:evenodd;stroke:#23773f;stroke-width:1.50768399;stroke-linecap:round;stroke-linejoin:round;stroke-opacity:0.99607843;stroke-miterlimit:4;stroke-dasharray:none"
         d="m 154.375,631.55861 -0.89286,1.78571"
         id="path8975"
         inkscape:connector-curvature="0" />
      <path
         transform="translate(-0.53571245,5.1785958)"
         style="display:inline;fill:none;fill-opacity:0.99607843;fill-rule:evenodd;stroke:#23773f;stroke-width:1.50768399;stroke-linecap:round;stroke-linejoin:round;stroke-opacity:0.99607843;stroke-miterlimit:4;stroke-dasharray:none"
         d="m 154.375,631.55861 -0.89286,1.78571"
         id="path8977"
         inkscape:connector-curvature="0" />
      <path
         transform="translate(2.4107161,1.4285958)"
         style="display:inline;fill:none;fill-opacity:0.99607843;fill-rule:evenodd;stroke:#23773f;stroke-width:1.50768399;stroke-linecap:round;stroke-linejoin:round;stroke-opacity:0.99607843;stroke-miterlimit:4;stroke-dasharray:none"
         d="m 154.375,631.55861 -0.89286,1.78571"
         id="path8979"
         inkscape:connector-curvature="0" />
      <path
         transform="translate(-2.4999982,-4.1964043)"
         style="display:inline;fill:none;fill-opacity:0.99607843;fill-rule:evenodd;stroke:#23773f;stroke-width:1.50768399;stroke-linecap:round;stroke-linejoin:round;stroke-opacity:0.99607843;stroke-miterlimit:4;stroke-dasharray:none"
         d="m 154.375,631.55861 -0.89286,1.78571"
         id="path8981"
         inkscape:connector-curvature="0" />
      <path
         transform="translate(2.4107161,8.0357386)"
         style="display:inline;fill:none;fill-opacity:0.99607843;fill-rule:evenodd;stroke:#23773f;stroke-width:1.50768399;stroke-linecap:round;stroke-linejoin:round;stroke-opacity:0.99607843;stroke-miterlimit:4;stroke-dasharray:none"
         d="m 154.375,631.55861 -0.89286,1.78571"
         id="path8983"
         inkscape:connector-curvature="0" />
      <path
         transform="translate(5.892859,11.071453)"
         style="display:inline;fill:none;fill-opacity:0.99607843;fill-rule:evenodd;stroke:#23773f;stroke-width:1.50768399;stroke-linecap:round;stroke-linejoin:round;stroke-opacity:0.99607843;stroke-miterlimit:4;stroke-dasharray:none"
         d="m 154.375,631.55861 -0.89286,1.78571"
         id="path8985"
         inkscape:connector-curvature="0" />
      <path
         transform="translate(5.0000005,-0.84819566)"
         style="display:inline;fill:none;fill-opacity:0.99607843;fill-rule:evenodd;stroke:#23773f;stroke-width:1.50768399;stroke-linecap:round;stroke-linejoin:round;stroke-opacity:0.99607843;stroke-miterlimit:4;stroke-dasharray:none"
         d="m 196.16071,634.95147 1.42858,1.69643"
         id="path8987"
         inkscape:connector-curvature="0" />
      <path
         transform="translate(7.5892863,-1.2946242)"
         style="display:inline;fill:none;fill-opacity:0.99607843;fill-rule:evenodd;stroke:#23773f;stroke-width:1.50768399;stroke-linecap:round;stroke-linejoin:round;stroke-opacity:0.99607843;stroke-miterlimit:4;stroke-dasharray:none"
         d="m 196.16071,634.95147 1.42858,1.69643"
         id="path8989"
         inkscape:connector-curvature="0" />
      <path
         transform="translate(6.0714291,-6.8303385)"
         style="display:inline;fill:none;fill-opacity:0.99607843;fill-rule:evenodd;stroke:#23773f;stroke-width:1.50768399;stroke-linecap:round;stroke-linejoin:round;stroke-opacity:0.99607843;stroke-miterlimit:4;stroke-dasharray:none"
         d="m 196.16071,634.95147 1.42858,1.69643"
         id="path8991"
         inkscape:connector-curvature="0" />
      <path
         transform="translate(7.678572,-11.294624)"
         style="display:inline;fill:none;fill-opacity:0.99607843;fill-rule:evenodd;stroke:#23773f;stroke-width:1.50768399;stroke-linecap:round;stroke-linejoin:round;stroke-opacity:0.99607843;stroke-miterlimit:4;stroke-dasharray:none"
         d="m 196.16071,634.95147 1.42858,1.69643"
         id="path8993"
         inkscape:connector-curvature="0" />
      <path
         style="fill:none;fill-opacity:0.99607843;fill-rule:evenodd;stroke:#23773f;stroke-width:1.50768399;stroke-linecap:round;stroke-linejoin:round;stroke-opacity:0.99607843;stroke-miterlimit:4;stroke-dasharray:none"
         d="m 178.29192,548.42233 c 0.85376,1.92028 2.0583,3.68394 3.53634,5.17785 1.47117,1.48697 3.19511,2.69515 4.79742,4.03979 1.59788,1.34092 3.0785,2.82154 4.41942,4.41942"
         id="path8995"
         inkscape:connector-curvature="0" />
      <path
         style="fill:none;fill-opacity:0.99607843;fill-rule:evenodd;stroke:#23773f;stroke-width:1.50768399;stroke-linecap:round;stroke-linejoin:round;stroke-opacity:0.99607843;stroke-miterlimit:4;stroke-dasharray:none"
         d="m 187.50957,553.47309 c 0.90354,1.36973 1.86493,2.70129 2.88077,3.98993 1.04582,1.32669 2.14935,2.60788 3.30641,3.83876"
         id="path8997"
         inkscape:connector-curvature="0" />
      <path
         style="fill:none;fill-opacity:0.99607843;fill-rule:evenodd;stroke:#23773f;stroke-width:1.50768399;stroke-linecap:round;stroke-linejoin:round;stroke-opacity:0.99607843;stroke-miterlimit:4;stroke-dasharray:none"
         d="m 176.39789,550.31637 c 1.84591,2.49954 3.77423,4.93822 5.78079,7.31073 1.16178,1.37366 2.34977,2.72515 3.56312,4.05348"
         id="path8999"
         inkscape:connector-curvature="0" />
      <path
         style="fill:none;fill-opacity:0.99607843;fill-rule:evenodd;stroke:#23773f;stroke-width:1.50768399;stroke-linecap:round;stroke-linejoin:round;stroke-opacity:0.99607843;stroke-miterlimit:4;stroke-dasharray:none"
         d="m 174.25131,552.58921 c 1.28661,2.21499 2.79454,4.30135 4.49404,6.21792 1.86537,2.10363 3.96157,4.00245 6.23884,5.65137"
         id="path9001"
         inkscape:connector-curvature="0" />
      <path
         transform="translate(1.9642857,-0.08928571)"
         style="fill:none;fill-opacity:0.99607843;fill-rule:evenodd;stroke:#23773f;stroke-width:1.50768399;stroke-linecap:round;stroke-linejoin:round;stroke-opacity:0.99607843;stroke-miterlimit:4;stroke-dasharray:none"
         d="m 167.05398,555.4934 c 1.03465,2.1956 2.43307,4.21926 4.12096,5.96345 1.66258,1.71804 3.60532,3.16435 5.72802,4.26434"
         id="path9003"
         inkscape:connector-curvature="0" />
      <path
         style="fill:none;fill-opacity:0.99607843;fill-rule:evenodd;stroke:#23773f;stroke-width:1.50768399;stroke-linecap:round;stroke-linejoin:round;stroke-opacity:0.99607843;stroke-miterlimit:4;stroke-dasharray:none"
         d="m 170.08444,550.1901 c 0.65777,1.30912 1.40505,2.57327 2.23489,3.78068 0.60168,0.87544 1.24672,1.72108 1.93198,2.53277"
         id="path9005"
         inkscape:connector-curvature="0" />
      <path
         transform="matrix(1.5116129,0,0,1.5125929,-1071.9725,29.670096)"
         style="fill:none;fill-opacity:0.99607843;fill-rule:evenodd;stroke:#23773f;stroke-width:0.99707769;stroke-linecap:round;stroke-linejoin:round;stroke-opacity:0.99607843;stroke-miterlimit:4;stroke-dasharray:none"
         d="m 826.84754,374.92942 c -0.77688,1.56408 -0.96243,3.41325 -0.5118,5.1005 0.27058,1.01312 0.75957,1.95934 1.36053,2.81868 0.47772,0.68313 1.03914,1.32561 1.74886,1.76286 0.41733,0.25711 0.87687,0.4378 1.30609,0.67451 0.42923,0.23671 0.84018,0.54369 1.07459,0.97418 0.21713,0.39875 0.26365,0.87772 0.17662,1.32334 -0.087,0.44561 -0.30084,0.85964 -0.5734,1.22276 -0.19705,0.26252 -0.43377,0.50155 -0.72334,0.65611 -0.28958,0.15457 -0.6207,0.2086 -0.94731,0.24129 l -0.20884,0.0209"
         id="path9007"
         inkscape:connector-curvature="0" />
    </g>
  </g>
</svg>
