<?xml version="1.0" encoding="UTF-8" standalone="no"?>
<!-- Created with Inkscape (http://www.inkscape.org/) -->

<svg
   xmlns:dc="http://purl.org/dc/elements/1.1/"
   xmlns:cc="http://creativecommons.org/ns#"
   xmlns:rdf="http://www.w3.org/1999/02/22-rdf-syntax-ns#"
   xmlns:svg="http://www.w3.org/2000/svg"
   xmlns="http://www.w3.org/2000/svg"
   xmlns:sodipodi="http://sodipodi.sourceforge.net/DTD/sodipodi-0.dtd"
   xmlns:inkscape="http://www.inkscape.org/namespaces/inkscape"
   width="49.142178mm"
   height="55mm"
   viewBox="0 0 174.12581 194.88189"
   id="svg6331"
   version="1.1"
   inkscape:version="0.91 r"
   sodipodi:docname="Mathieu-Gabiot.svg">
  <defs
     id="defs6333">
    <inkscape:path-effect
       is_visible="true"
       id="path-effect9099-9"
       effect="spiro" />
    <inkscape:path-effect
       is_visible="true"
       id="path-effect9103-9"
       effect="spiro" />
    <inkscape:path-effect
       is_visible="true"
       id="path-effect9107-4"
       effect="spiro" />
    <inkscape:path-effect
       is_visible="true"
       id="path-effect9111-1"
       effect="spiro" />
    <inkscape:path-effect
       is_visible="true"
       id="path-effect9115-6"
       effect="spiro" />
    <inkscape:path-effect
       is_visible="true"
       id="path-effect9119-3"
       effect="spiro" />
    <inkscape:path-effect
       is_visible="true"
       id="path-effect9123-5"
       effect="spiro" />
    <inkscape:path-effect
       is_visible="true"
       id="path-effect9127-0"
       effect="spiro" />
    <inkscape:path-effect
       is_visible="true"
       id="path-effect9131-0"
       effect="spiro" />
    <inkscape:path-effect
       is_visible="true"
       id="path-effect9135-1"
       effect="spiro" />
    <inkscape:path-effect
       is_visible="true"
       id="path-effect9139-3"
       effect="spiro" />
    <inkscape:path-effect
       is_visible="true"
       id="path-effect9143-8"
       effect="spiro" />
    <inkscape:path-effect
       is_visible="true"
       id="path-effect9147-6"
       effect="spiro" />
    <inkscape:path-effect
       is_visible="true"
       id="path-effect9151-4"
       effect="spiro" />
    <inkscape:path-effect
       is_visible="true"
       id="path-effect9155-3"
       effect="spiro" />
    <inkscape:path-effect
       is_visible="true"
       id="path-effect9159-2"
       effect="spiro" />
    <inkscape:path-effect
       is_visible="true"
       id="path-effect9163-5"
       effect="spiro" />
    <inkscape:path-effect
       is_visible="true"
       id="path-effect9167-8"
       effect="spiro" />
    <inkscape:path-effect
       is_visible="true"
       id="path-effect9171-2"
       effect="spiro" />
    <inkscape:path-effect
       is_visible="true"
       id="path-effect9175-0"
       effect="spiro" />
    <inkscape:path-effect
       is_visible="true"
       id="path-effect9179-3"
       effect="spiro" />
    <inkscape:path-effect
       is_visible="true"
       id="path-effect9183-2"
       effect="spiro" />
    <inkscape:path-effect
       is_visible="true"
       id="path-effect9187-9"
       effect="spiro" />
    <inkscape:path-effect
       is_visible="true"
       id="path-effect9195-7"
       effect="spiro" />
    <inkscape:path-effect
       is_visible="true"
       id="path-effect9199-8"
       effect="spiro" />
    <inkscape:path-effect
       is_visible="true"
       id="path-effect9203-1"
       effect="spiro" />
  </defs>
  <sodipodi:namedview
     id="base"
     pagecolor="#ffffff"
     bordercolor="#666666"
     borderopacity="1.0"
     inkscape:pageopacity="0.0"
     inkscape:pageshadow="2"
     inkscape:zoom="1.979899"
     inkscape:cx="-77.593332"
     inkscape:cy="20.514503"
     inkscape:document-units="mm"
     inkscape:current-layer="layer1"
     showgrid="false"
     fit-margin-top="5"
     fit-margin-left="5"
     fit-margin-right="5"
     fit-margin-bottom="5" />
  <metadata
     id="metadata6336">
    <rdf:RDF>
      <cc:Work
         rdf:about="">
        <dc:format>image/svg+xml</dc:format>
        <dc:type
           rdf:resource="http://purl.org/dc/dcmitype/StillImage" />
        <dc:title></dc:title>
      </cc:Work>
    </rdf:RDF>
  </metadata>
  <g
     inkscape:label="Calque 1"
     inkscape:groupmode="layer"
     id="layer1"
     transform="translate(-338.73476,-325.73385)">
    <g
       transform="matrix(1.7583722,0,0,1.7642746,-748.7939,-254.30329)"
       style="display:inline;fill:none;fill-opacity:0.99607843;stroke:#23773f;stroke-width:0.61228395;stroke-opacity:0.99607843"
       id="g8747">
      <path
         inkscape:connector-curvature="0"
         id="path8751"
         d="m 661.27234,376.62558 a 1.640625,1.4955357 0 0 1 -1.64063,1.49554 1.640625,1.4955357 0 0 1 -1.64062,-1.49554 1.640625,1.4955357 0 0 1 1.64062,-1.49554 1.640625,1.4955357 0 0 1 1.64063,1.49554 z"
         style="display:inline;opacity:1;fill:#23753f;fill-opacity:0.99607843;stroke:none;stroke-width:1;stroke-linecap:round;stroke-linejoin:round;stroke-miterlimit:4;stroke-dasharray:none;stroke-dashoffset:12.75590515;stroke-opacity:0.99607843"
         transform="matrix(0.97962005,-0.20085957,0.20085957,0.97962005,-63.79671,140.89124)" />
      <path
         inkscape:connector-curvature="0"
         id="path8753"
         d="m 661.27234,376.62558 a 1.640625,1.4955357 0 0 1 -1.64063,1.49554 1.640625,1.4955357 0 0 1 -1.64062,-1.49554 1.640625,1.4955357 0 0 1 1.64062,-1.49554 1.640625,1.4955357 0 0 1 1.64063,1.49554 z"
         style="display:inline;opacity:1;fill:#23753f;fill-opacity:0.99607843;stroke:none;stroke-width:1;stroke-linecap:round;stroke-linejoin:round;stroke-miterlimit:4;stroke-dasharray:none;stroke-dashoffset:12.75590515;stroke-opacity:0.99607843"
         transform="matrix(0.97962005,-0.20085957,0.20085957,0.97962005,-46.133578,143.46737)" />
      <path
         inkscape:connector-curvature="0"
         id="path8755"
         d="m 640.84822,364.41575 c -0.19759,-0.18761 -0.45401,-0.31235 -0.72358,-0.35199 -0.26957,-0.0396 -0.55104,0.006 -0.79428,0.12878 -0.23065,0.11643 -0.42477,0.29988 -0.56723,0.51544 -0.14245,0.21555 -0.23434,0.46246 -0.28301,0.7162 -0.0974,0.5075 -0.0239,1.03246 0.0913,1.53621 0.0876,0.3833 0.19081,0.77249 0.15093,1.16365 -0.0199,0.19558 -0.074,0.38735 -0.15683,0.56566 -0.0828,0.17831 -0.19386,0.34178 -0.3066,0.50284 l -0.3125,0.44643"
         style="display:inline;fill:none;fill-opacity:0.99607843;fill-rule:evenodd;stroke:#23773f;stroke-width:1.0058664;stroke-linecap:butt;stroke-linejoin:miter;stroke-opacity:0.99607843;stroke-miterlimit:4;stroke-dasharray:none"
         transform="matrix(0.97962005,-0.20085957,0.20085957,0.97962005,-63.428906,140.90697)" />
      <path
         inkscape:connector-curvature="0"
         id="path8757"
         d="m 642.5,370.35325 c -0.33093,0.57223 -0.67328,1.13786 -1.02678,1.69643 -0.24026,0.37965 -0.4864,0.75734 -0.67962,1.16296 -0.19321,0.40562 -0.33313,0.84333 -0.34717,1.2924 -0.0213,0.68039 0.26244,1.36464 0.75893,1.83035"
         style="display:inline;fill:none;fill-opacity:0.99607843;fill-rule:evenodd;stroke:#23773f;stroke-width:1.0058664;stroke-linecap:butt;stroke-linejoin:miter;stroke-opacity:0.99607843;stroke-miterlimit:4;stroke-dasharray:none"
         transform="matrix(0.97962005,-0.20085957,0.20085957,0.97962005,-63.428906,140.90697)" />
      <path
         sodipodi:nodetypes="cccccscsscsscsssscsscsscc"
         inkscape:connector-curvature="0"
         id="path8759"
         d="m 740.31555,379.22178 c -0.20569,-1.1775 -0.36974,-2.36228 -0.49174,-3.55137 -0.058,-0.56551 -0.10886,-1.1418 -0.3241,-1.66795 -0.10763,-0.26307 -0.25666,-0.51133 -0.45476,-0.71517 -0.1981,-0.20383 -0.44678,-0.36203 -0.72169,-0.43427 -0.32743,-0.086 -0.68187,-0.0465 -0.99396,0.0847 -0.31209,0.1312 -0.58291,0.35051 -0.79869,0.61138 -0.43157,0.52173 -0.63939,1.18955 -0.80513,1.84605 -0.44399,1.75863 -0.65663,3.56602 -0.97647,5.3514 -0.22642,1.26391 -0.50748,2.5228 -0.58954,3.80421 -0.0821,1.28141 0.0453,2.60444 0.60024,3.76236 0.41077,0.85711 1.05118,1.60284 1.83639,2.13841 0.7852,0.53556 1.71322,0.85961 2.66113,0.92922 -1.23317,4.02723 -1.04191,7.65204 -0.94533,11.86273 0.11003,4.79748 1.90059,7.68802 4.65362,11.61851 1.17302,1.67472 2.65692,3.1583 4.44401,4.15178 1.78709,0.99347 3.89095,1.4739 5.91005,1.15152 1.4095,-0.22505 2.7357,-0.82715 5.60464,-2.05683 2.86893,-1.22968 5.56634,-2.9427 7.65529,-5.29914 0.68939,-0.77767 1.30916,-1.6244 1.76535,-2.55817 0.45619,-0.93377 0.74572,-1.95852 0.76004,-2.99767 0.009,-0.67731 -0.10322,-1.36993 -0.43248,-1.96189 -0.16463,-0.29598 -0.3826,-0.56379 -0.64841,-0.77367 -0.26582,-0.20989 -0.58003,-0.36084 -0.91299,-0.42285 -0.53645,-0.0999 -1.1133,0.0425 -1.54166,0.38049"
         style="display:inline;fill:none;fill-opacity:0.99607843;fill-rule:evenodd;stroke:#23773f;stroke-width:0.91325209;stroke-linecap:butt;stroke-linejoin:miter;stroke-opacity:0.99607843;stroke-miterlimit:4;stroke-dasharray:none"
         transform="matrix(1.079193,-0.22127584,0.22118228,1.0787367,-242.40537,127.54808)" />
      <path
         inkscape:connector-curvature="0"
         id="path8761"
         d="m 756.9863,397.2729 c -0.56162,0.23244 -1.00659,0.73017 -1.1749,1.31422 -0.16831,0.58405 -0.0565,1.24225 0.29533,1.73792 0.27235,0.38374 0.66747,0.65986 1.05871,0.92132 0.39123,0.26147 0.79358,0.52226 1.09123,0.88672 0.28164,0.34487 0.45411,0.76395 0.61762,1.1781 0.1635,0.41416 0.32514,0.83594 0.59,1.19386 0.46377,0.62673 1.21707,1.00245 1.98956,1.10792 0.77249,0.10548 1.5628,-0.0396 2.29615,-0.30435 0.55618,-0.20075 1.0937,-0.47441 1.53301,-0.8702 0.43931,-0.39579 0.77589,-0.92213 0.87493,-1.50508 0.12104,-0.71246 -0.11387,-1.43026 -0.21774,-2.14543 -0.23001,-1.58359 0.18528,-3.18484 0.21803,-4.78472 0.0187,-0.91194 -0.0873,-1.82163 -0.11381,-2.73338 -0.0266,-0.91175 0.0301,-1.84339 0.35882,-2.69423 0.43391,-1.12306 1.34946,-2.05061 2.46678,-2.4991"
         style="display:inline;fill:none;fill-opacity:0.99607843;fill-rule:evenodd;stroke:#23773f;stroke-width:0.91325209;stroke-linecap:butt;stroke-linejoin:miter;stroke-opacity:0.99607843;stroke-miterlimit:4;stroke-dasharray:none"
         transform="matrix(1.079193,-0.22127584,0.22118228,1.0787367,-242.40537,127.54808)" />
      <path
         inkscape:connector-curvature="0"
         id="path8763"
         d="m 780.625,384.05861 c 2.01534,-1.51626 3.58427,-3.61862 4.46429,-5.98214 0.93873,-2.52121 1.08899,-5.31364 0.53571,-7.94643 -0.30504,-1.45152 -0.82233,-2.86478 -1.59452,-4.13115 -0.7722,-1.26637 -1.80367,-2.38358 -3.04834,-3.19028 -1.9247,-1.24744 -4.2419,-1.69846 -6.49237,-2.14114 -2.25047,-0.44269 -4.56678,-0.93047 -6.45405,-2.23386 -1.22445,-0.84563 -2.20293,-1.99177 -3.25405,-3.04511 -1.05112,-1.05333 -2.23337,-2.04975 -3.66051,-2.47121 -0.87146,-0.25736 -1.79836,-0.28708 -2.70154,-0.18737 -0.90318,0.0997 -1.78742,0.32582 -2.66183,0.57297 -4.15436,1.17421 -8.29084,2.92172 -11.2935,6.02358 -2.92915,3.02592 -4.58258,7.33334 -4.10715,11.51785 0.10699,0.94166 0.31697,1.87159 0.625,2.76786 l 0,0"
         style="display:inline;fill:none;fill-opacity:0.99607843;fill-rule:evenodd;stroke:#23773f;stroke-width:0.91325209;stroke-linecap:butt;stroke-linejoin:miter;stroke-opacity:0.99607843;stroke-miterlimit:4;stroke-dasharray:none"
         transform="matrix(1.079193,-0.22127584,0.22118228,1.0787367,-242.03739,126.82815)" />
      <path
         inkscape:connector-curvature="0"
         id="path8765"
         d="m 754.10714,364.68361 c 0.56519,0.2835 1.0232,0.77482 1.2664,1.3585 0.2432,0.58367 0.26956,1.25484 0.0729,1.85579 -0.26864,0.82085 -0.91533,1.45964 -1.59244,1.99581 -0.67711,0.53617 -1.41417,1.01149 -1.97899,1.6649 -0.53762,0.62195 -0.89401,1.37664 -1.23355,2.12534 -0.33955,0.74871 -0.67389,1.51032 -1.17716,2.16037 -0.97338,1.25728 -2.47601,1.97521 -3.66072,3.03572 -1.47486,1.32024 -2.42048,3.14737 -2.99616,5.04126 -0.79852,2.62699 -0.93546,5.42082 -0.70836,8.15709 0.26387,3.17931 1.01354,6.31785 2.215,9.27321"
         style="display:inline;fill:none;fill-opacity:0.99607843;fill-rule:evenodd;stroke:#23773f;stroke-width:0.91325209;stroke-linecap:butt;stroke-linejoin:miter;stroke-opacity:0.99607843;stroke-miterlimit:4;stroke-dasharray:none"
         transform="matrix(1.079193,-0.22127584,0.22118228,1.0787367,-242.40537,127.54808)" />
      <path
         inkscape:connector-curvature="0"
         id="path8767"
         d="m 749.97513,383.9253 c 1.61049,0.61311 3.26934,1.09915 4.95606,1.4521 1.35113,0.28273 2.74277,0.48761 3.97748,1.10485 0.53242,0.26616 1.02998,0.60668 1.58914,0.81079 0.27958,0.10205 0.57443,0.16898 0.87205,0.16922 0.29763,2.4e-4 0.59861,-0.0685 0.85337,-0.2224 0.27967,-0.16892 0.49709,-0.44094 0.59249,-0.75343 0.0954,-0.31249 0.0659,-0.6627 -0.0874,-0.9512 -0.12752,-0.23989 -0.33493,-0.43205 -0.57144,-0.56574 -0.23652,-0.13369 -0.50149,-0.21139 -0.76965,-0.255 -0.53631,-0.0872 -1.08548,-0.0415 -1.62623,-0.0947 -0.908,-0.0894 -1.76872,-0.45596 -2.55695,-0.91545 -0.82394,-0.4803 -1.58943,-1.06769 -2.46225,-1.45209 -0.62343,-0.27456 -1.30719,-0.43267 -1.98638,-0.38021 -0.67919,0.0525 -1.31867,0.32809 -1.92796,0.63274 l -0.31567,0.15784"
         style="display:inline;fill:none;fill-opacity:0.99607843;fill-rule:evenodd;stroke:#23773f;stroke-width:0.91325209;stroke-linecap:butt;stroke-linejoin:miter;stroke-opacity:0.99607843;stroke-miterlimit:4;stroke-dasharray:none"
         transform="matrix(1.079193,-0.22127584,0.22118228,1.0787367,-242.1008,126.51891)" />
      <path
         inkscape:connector-curvature="0"
         id="path8769"
         d="m 768.94706,389.73368 c 1.17747,0.0203 2.34246,0.47718 3.21986,1.26269 0.38996,0.34912 0.72429,0.75967 1.13683,1.08179 0.20627,0.16107 0.4325,0.29957 0.67911,0.38715 0.24662,0.0876 0.51476,0.12278 0.77258,0.0779 0.30727,-0.0535 0.59217,-0.22249 0.79052,-0.4632 0.19835,-0.24071 0.30947,-0.55076 0.31433,-0.86263 0.006,-0.37678 -0.14104,-0.74769 -0.37506,-1.04303 -0.23403,-0.29535 -0.551,-0.51833 -0.89372,-0.67498 -0.68544,-0.31329 -1.45592,-0.36569 -2.20362,-0.46013 -0.44552,-0.0563 -0.89008,-0.12576 -1.33858,-0.14827 -0.4485,-0.0225 -0.89781,0.009 -1.34464,0.0536 l -0.31567,0.0316"
         style="display:inline;fill:none;fill-opacity:0.99607843;fill-rule:evenodd;stroke:#23773f;stroke-width:0.91325209;stroke-linecap:butt;stroke-linejoin:miter;stroke-opacity:0.99607843;stroke-miterlimit:4;stroke-dasharray:none"
         transform="matrix(1.079193,-0.22127584,0.22118228,1.0787367,-242.03739,126.82815)" />
      <path
         inkscape:connector-curvature="0"
         id="path8771"
         d="m 751.67976,386.57695 c 1.42432,-0.2025 2.8832,-0.15959 4.29315,0.12627 0.56518,0.11459 1.12631,0.26932 1.64365,0.52411 0.51734,0.25478 0.99144,0.61447 1.32368,1.08582 0.35979,0.51044 0.54089,1.1443 0.50507,1.76777"
         style="display:inline;fill:none;fill-opacity:0.99607843;fill-rule:evenodd;stroke:#23773f;stroke-width:0.91325209;stroke-linecap:butt;stroke-linejoin:miter;stroke-opacity:0.99607843;stroke-miterlimit:4;stroke-dasharray:none"
         transform="matrix(1.079193,-0.22127584,0.22118228,1.0787367,-242.73352,126.26195)" />
      <path
         inkscape:connector-curvature="0"
         id="path8773"
         d="m 767.43183,391.46988 c 0.99774,-0.39576 2.13057,-0.44108 3.15673,-0.12627 0.45261,0.13885 0.88782,0.34783 1.25308,0.64904 0.36526,0.3012 0.65834,0.69817 0.79879,1.15029 0.0602,0.19397 0.0923,0.39668 0.0947,0.59978"
         style="display:inline;fill:none;fill-opacity:0.99607843;fill-rule:evenodd;stroke:#23773f;stroke-width:0.91325209;stroke-linecap:butt;stroke-linejoin:miter;stroke-opacity:0.99607843;stroke-miterlimit:4;stroke-dasharray:none"
         transform="matrix(1.079193,-0.22127584,0.22118228,1.0787367,-242.09925,126.84083)" />
      <path
         inkscape:connector-curvature="0"
         id="path8775"
         d="m 754.64709,397.59393 c -1.88534,-0.0636 -3.78573,0.40042 -5.42957,1.32582 -1.48074,0.83358 -2.75083,2.03798 -3.66181,3.4724"
         style="display:inline;fill:none;fill-opacity:0.99607843;fill-rule:evenodd;stroke:#23773f;stroke-width:0.91325209;stroke-linecap:butt;stroke-linejoin:miter;stroke-opacity:0.99607843;stroke-miterlimit:4;stroke-dasharray:none"
         transform="matrix(1.079193,-0.22127584,0.22118228,1.0787367,-242.40537,127.54808)" />
      <path
         inkscape:connector-curvature="0"
         id="path8777"
         d="m 751.67976,404.60186 c 1.30312,0.95415 2.72841,1.74126 4.23002,2.33598 1.38221,0.54743 2.82534,0.9312 4.28463,1.21518 0.68445,0.1332 1.37313,0.24469 2.06465,0.33426 -0.64299,0.4531 -1.36729,0.79044 -2.12788,0.99105 -1.13493,0.29935 -2.34714,0.2904 -3.48258,-0.007 -1.23351,-0.32309 -2.37668,-0.98709 -3.2642,-1.90264 -0.80219,-0.82752 -1.39387,-1.85749 -1.70464,-2.96732 l 0,4.9e-4 z"
         style="display:inline;fill:none;fill-opacity:0.99607843;fill-rule:evenodd;stroke:#23773f;stroke-width:0.91325209;stroke-linecap:butt;stroke-linejoin:miter;stroke-opacity:0.99607843;stroke-miterlimit:4;stroke-dasharray:none"
         transform="matrix(1.079193,-0.22127584,0.22118228,1.0787367,-242.40537,127.54808)" />
      <path
         inkscape:connector-curvature="0"
         id="path8779"
         d="m 669.375,408.96932 c 0.36487,2.96015 -0.20452,6.02855 -1.60714,8.66072 -0.87137,1.63522 -2.06849,3.11274 -3.57143,4.19643 -1.52753,1.10142 -3.3346,1.77254 -5.18115,2.14233 -1.84655,0.3698 -3.73921,0.44861 -5.62242,0.44695 -2.32196,-0.002 -4.68131,-0.13178 -6.875,-0.89285 -1.877,-0.65119 -3.57612,-1.74828 -5.08929,-3.03572 -2.0495,-1.74376 -3.81348,-3.8993 -4.73214,-6.42857 -0.45132,-1.24259 -0.69115,-2.5497 -0.98214,-3.83929 -0.24951,-1.10578 -0.53837,-2.20591 -0.67691,-3.331 -0.13853,-1.12508 -0.12177,-2.28795 0.23048,-3.36542 0.17322,-0.52987 0.42654,-1.03728 0.52063,-1.58675 0.047,-0.27473 0.0528,-0.5594 -0.0128,-0.8303 -0.0656,-0.2709 -0.20593,-0.5277 -0.41853,-0.70795 -0.14797,-0.12545 -0.32735,-0.21129 -0.51497,-0.26059 -0.18762,-0.0493 -0.38348,-0.0629 -0.57723,-0.0532 -0.3875,0.0194 -0.76364,0.13 -1.13994,0.22448 -2.52532,0.63403 -5.17185,0.55705 -7.76786,0.35714 -0.35732,-0.0275 -0.71447,-0.0573 -1.07142,-0.0893"
         style="display:inline;fill:none;fill-opacity:0.99607843;fill-rule:evenodd;stroke:#23773f;stroke-width:1.0058664;stroke-linecap:butt;stroke-linejoin:miter;stroke-opacity:0.99607843;stroke-miterlimit:4;stroke-dasharray:none"
         transform="matrix(0.97962005,-0.20085957,0.20085957,0.97962005,-63.428906,140.90697)" />
      <path
         inkscape:connector-curvature="0"
         id="path8781"
         d="m 671.69643,410.21932 c 1.38807,1.36165 3.18102,2.30531 5.08929,2.67858 1.73079,0.33856 3.51949,0.21512 5.26785,0.44642 1.84788,0.24447 3.65135,0.89564 5.17857,1.96429 1.48753,1.04088 2.67823,2.44355 3.83929,3.83929 1.16054,1.39511 2.31094,2.80164 3.57143,4.10714 1.39437,1.44416 2.92063,2.76094 4.55357,3.92857"
         style="display:inline;fill:none;fill-opacity:0.99607843;fill-rule:evenodd;stroke:#23773f;stroke-width:1.0058664;stroke-linecap:butt;stroke-linejoin:miter;stroke-opacity:0.99607843;stroke-miterlimit:4;stroke-dasharray:none"
         transform="matrix(0.97962005,-0.20085957,0.20085957,0.97962005,-63.428906,140.90697)" />
      <path
         inkscape:connector-curvature="0"
         id="path8783"
         d="m 663.75,353.25504 c 0.55522,2.69638 1.47296,5.31788 2.72076,7.7718 1.23058,2.42005 2.78192,4.67676 4.60067,6.69248"
         style="fill:none;fill-opacity:0.99607843;fill-rule:evenodd;stroke:#23773f;stroke-width:1.0058664;stroke-linecap:butt;stroke-linejoin:miter;stroke-opacity:0.99607843;stroke-miterlimit:4;stroke-dasharray:none" />
      <path
         inkscape:connector-curvature="0"
         id="path8785"
         d="m 655.26786,351.20147 c 2.20895,1.11554 3.99763,3.04071 4.948,5.32559 0.64068,1.5403 0.90586,3.23524 0.76628,4.89762"
         style="fill:none;fill-opacity:0.99607843;fill-rule:evenodd;stroke:#23773f;stroke-width:1.0058664;stroke-linecap:butt;stroke-linejoin:miter;stroke-opacity:0.99607843;stroke-miterlimit:4;stroke-dasharray:none" />
      <path
         inkscape:connector-curvature="0"
         id="path8787"
         d="m 663.75,353.25504 c 0.15565,3.011 1.00283,5.98418 2.45762,8.625 1.22976,2.23235 2.89056,4.22622 4.86381,5.83928"
         style="fill:none;fill-opacity:0.99607843;fill-rule:evenodd;stroke:#23773f;stroke-width:1.0058664;stroke-linecap:butt;stroke-linejoin:miter;stroke-opacity:0.99607843;stroke-miterlimit:4;stroke-dasharray:none"
         transform="matrix(0.95558514,-0.2947152,0.2947152,0.95558514,-70.474504,215.2841)" />
      <path
         transform="matrix(0.99609581,-0.0882788,0.0882788,0.99609581,-30.818707,60.082144)"
         style="fill:none;fill-opacity:0.99607843;fill-rule:evenodd;stroke:#23773f;stroke-width:1.00586639;stroke-linecap:butt;stroke-linejoin:miter;stroke-opacity:0.99607843;stroke-miterlimit:4;stroke-dasharray:none"
         d="m 655.43117,391.97495 c -0.6799,0.4269 -1.30188,0.94592 -1.84359,1.53842 -0.68074,0.74457 -1.23408,1.60533 -1.62881,2.53376"
         id="path8789"
         inkscape:connector-curvature="0" />
      <path
         transform="matrix(0.99609581,-0.0882788,0.0882788,0.99609581,-32.434055,59.243816)"
         style="fill:none;fill-opacity:0.99607843;fill-rule:evenodd;stroke:#23773f;stroke-width:1.00586639;stroke-linecap:butt;stroke-linejoin:miter;stroke-opacity:0.99607843;stroke-miterlimit:4;stroke-dasharray:none"
         d="m 659.34551,393.49018 c -0.60802,0.15063 -1.18617,0.42082 -1.69177,0.79061 -0.57882,0.42335 -1.06156,0.97726 -1.40182,1.60851"
         id="path8791"
         inkscape:connector-curvature="0" />
      <path
         transform="matrix(0.99609581,-0.0882788,0.0882788,0.99609581,-32.828812,59.029778)"
         style="fill:none;fill-opacity:0.99607843;fill-rule:evenodd;stroke:#23773f;stroke-width:1.00586639;stroke-linecap:butt;stroke-linejoin:miter;stroke-opacity:0.99607843;stroke-miterlimit:4;stroke-dasharray:none"
         d="m 661.46052,394.4372 c -0.52595,0.20704 -1.00765,0.52568 -1.40396,0.9287 -0.39329,0.39995 -0.70211,0.88259 -0.90046,1.40728"
         id="path8793"
         inkscape:connector-curvature="0" />
      <path
         transform="matrix(0.99609581,-0.0882788,0.0882788,0.99609581,-31.093401,60.016853)"
         style="fill:none;fill-opacity:0.99607843;fill-rule:evenodd;stroke:#23773f;stroke-width:1.00586639;stroke-linecap:butt;stroke-linejoin:miter;stroke-opacity:0.99607843;stroke-miterlimit:4;stroke-dasharray:none"
         d="m 650.84822,397.71932 c 0.80785,-0.69371 1.80715,-1.16213 2.85714,-1.33928 0.7953,-0.13418 1.61085,-0.10358 2.41071,-1e-5 2.40119,0.31091 4.66595,1.26439 7.00893,1.87501 1.37892,0.35937 2.78606,0.60004 4.19643,0.80357 0.95687,0.13809 1.91845,0.25971 2.85714,0.49107 1.2206,0.30084 2.38726,0.78333 3.57143,1.20536 0.48763,0.17379 0.97884,0.33751 1.47322,0.49103"
         id="path8795"
         inkscape:connector-curvature="0" />
      <path
         style="fill:none;fill-opacity:0.99607843;fill-rule:evenodd;stroke:#23773f;stroke-width:1.0058664;stroke-linecap:butt;stroke-linejoin:miter;stroke-opacity:0.99607843;stroke-miterlimit:4;stroke-dasharray:none"
         d="m 637.41072,408.5229 c 0.2848,3.42053 1.26265,6.78189 2.85714,9.82142 1.51553,2.88902 3.62122,5.51714 6.33928,7.32143 4.10862,2.72736 9.26751,3.37263 14.19643,3.21429 2.56632,-0.0824 5.14534,-0.36594 7.59318,-1.14109 2.44784,-0.77514 4.76928,-2.06437 6.51397,-3.9482 2.36307,-2.55153 3.52987,-6.07612 3.57142,-9.55357 0.0165,-1.38033 -0.13375,-2.76258 -0.44642,-4.10714"
         id="path8797"
         inkscape:connector-curvature="0" />
    </g>
  </g>
</svg>
