<?xml version="1.0" encoding="UTF-8" standalone="no"?>
<!-- Created with Inkscape (http://www.inkscape.org/) -->

<svg
   xmlns:dc="http://purl.org/dc/elements/1.1/"
   xmlns:cc="http://creativecommons.org/ns#"
   xmlns:rdf="http://www.w3.org/1999/02/22-rdf-syntax-ns#"
   xmlns:svg="http://www.w3.org/2000/svg"
   xmlns="http://www.w3.org/2000/svg"
   xmlns:xlink="http://www.w3.org/1999/xlink"
   xmlns:sodipodi="http://sodipodi.sourceforge.net/DTD/sodipodi-0.dtd"
   xmlns:inkscape="http://www.inkscape.org/namespaces/inkscape"
   width="210mm"
   height="297mm"
   viewBox="0 0 744.09448819 1052.3622047"
   id="svg2"
   version="1.1"
   inkscape:version="0.91 r"
   sodipodi:docname="OpenGuide-portrait.svg">
  <defs
     id="defs4">
    <inkscape:path-effect
       effect="spiro"
       id="path-effect4317"
       is_visible="true" />
    <inkscape:path-effect
       effect="spiro"
       id="path-effect4313"
       is_visible="true" />
    <inkscape:path-effect
       effect="spiro"
       id="path-effect4309"
       is_visible="true" />
    <inkscape:path-effect
       effect="spiro"
       id="path-effect4305"
       is_visible="true" />
    <inkscape:path-effect
       effect="spiro"
       id="path-effect4301"
       is_visible="true" />
    <inkscape:path-effect
       effect="spiro"
       id="path-effect4212"
       is_visible="true" />
    <inkscape:path-effect
       effect="spiro"
       id="path-effect4208"
       is_visible="true" />
    <inkscape:path-effect
       effect="spiro"
       id="path-effect4204"
       is_visible="true" />
    <inkscape:path-effect
       effect="spiro"
       id="path-effect4200"
       is_visible="true" />
    <inkscape:path-effect
       effect="spiro"
       id="path-effect4196"
       is_visible="true" />
    <inkscape:path-effect
       effect="spiro"
       id="path-effect4192"
       is_visible="true" />
    <inkscape:path-effect
       effect="spiro"
       id="path-effect4188"
       is_visible="true" />
    <inkscape:path-effect
       effect="spiro"
       id="path-effect4182"
       is_visible="true" />
    <inkscape:path-effect
       effect="spiro"
       id="path-effect4176"
       is_visible="true" />
    <inkscape:path-effect
       effect="spiro"
       id="path-effect4172"
       is_visible="true" />
    <inkscape:path-effect
       effect="spiro"
       id="path-effect4168"
       is_visible="true" />
    <inkscape:path-effect
       effect="spiro"
       id="path-effect4212-2"
       is_visible="true" />
    <inkscape:path-effect
       effect="spiro"
       id="path-effect4208-9"
       is_visible="true" />
    <inkscape:path-effect
       effect="spiro"
       id="path-effect4204-8"
       is_visible="true" />
    <inkscape:path-effect
       effect="spiro"
       id="path-effect4200-2"
       is_visible="true" />
    <inkscape:path-effect
       effect="spiro"
       id="path-effect4196-1"
       is_visible="true" />
    <inkscape:path-effect
       effect="spiro"
       id="path-effect4192-9"
       is_visible="true" />
    <inkscape:path-effect
       effect="spiro"
       id="path-effect4188-1"
       is_visible="true" />
    <inkscape:path-effect
       effect="spiro"
       id="path-effect4182-6"
       is_visible="true" />
    <inkscape:path-effect
       effect="spiro"
       id="path-effect4176-4"
       is_visible="true" />
    <inkscape:path-effect
       effect="spiro"
       id="path-effect4172-2"
       is_visible="true" />
    <inkscape:path-effect
       effect="spiro"
       id="path-effect4168-8"
       is_visible="true" />
    <clipPath
       clipPathUnits="userSpaceOnUse"
       id="clipPath4352">
      <rect
         style="opacity:1;fill:#000000;fill-opacity:1;stroke:none;stroke-width:5.19999981;stroke-linecap:round;stroke-linejoin:round;stroke-miterlimit:4;stroke-dasharray:none;stroke-dashoffset:12.75590515;stroke-opacity:1"
         id="rect4354"
         width="116.16754"
         height="128.79445"
         x="52.527931"
         y="109.88988"
         transform="translate(-4.4110947,-7.1837904)" />
    </clipPath>
  </defs>
  <sodipodi:namedview
     id="base"
     pagecolor="#ffffff"
     bordercolor="#666666"
     borderopacity="1.0"
     inkscape:pageopacity="0.0"
     inkscape:pageshadow="2"
     inkscape:zoom="1.979899"
     inkscape:cx="198.62359"
     inkscape:cy="788.51283"
     inkscape:document-units="px"
     inkscape:current-layer="layer1"
     showgrid="false" />
  <metadata
     id="metadata7">
    <rdf:RDF>
      <cc:Work
         rdf:about="">
        <dc:format>image/svg+xml</dc:format>
        <dc:type
           rdf:resource="http://purl.org/dc/dcmitype/StillImage" />
        <dc:title></dc:title>
      </cc:Work>
    </rdf:RDF>
  </metadata>
  <g
     inkscape:label="picts"
     inkscape:groupmode="layer"
     id="layer1"
     style="display:none"
     sodipodi:insensitive="true">
    <image
       sodipodi:absref="/home/mathieu/Dropbox/libre-objet/Medialab-Prado/images/enzo-Mari.jpg"
       id="image4144"
       xlink:href="file:///home/mathieu/Dropbox/libre-objet/Medialab-Prado/images/enzo-Mari.jpg"
       preserveAspectRatio="none"
       height="450"
       width="299.70001"
       transform="translate(4.4110947,7.1837904)"
       clip-path="url(#clipPath4352)" />
  </g>
  <g
     inkscape:groupmode="layer"
     id="layer2"
     inkscape:label="drawings"
     sodipodi:insensitive="true">
    <g
       id="g4322"
       transform="translate(82.832509,-103.03556)">
      <path
         sodipodi:nodetypes="csssssssssssssssssssssssssssssc"
         inkscape:connector-curvature="0"
         inkscape:original-d="m 14.015867,232.11834 c -1.262691,4.54568 -3.914342,6.9448 -2.525382,8.58629 1.38896,1.6415 5.050763,2.77792 4.166879,6.69226 -0.883883,3.91434 -1.136421,5.68211 0.12627,7.95496 1.26269,2.27284 0.757614,5.17703 5.808377,5.55583 5.050762,0.37881 5.808377,1.01016 8.586296,-0.75761 2.77792,-1.76777 3.906682,-0.53571 5.674448,-1.16706 1.767767,-0.63134 2.280504,-0.72698 4.300809,0.40945 2.020305,1.13642 1.81744,1.76776 1.81744,0 0,-1.76777 1.987265,4.14652 2.997418,6.92444 1.010152,2.77792 0.235904,2.672 0.235904,4.81858 0,2.14657 -1.641497,3.03046 -3.030457,4.16688 -1.38896,1.13642 -1.136422,3.03046 -5.050763,3.28299 -3.914341,0.25254 -7.576144,-2.52538 -9.975256,-2.0203 -2.399113,0.50507 -3.788072,0.12627 -6.060916,-2.27284 -2.272843,-2.39912 -5.177031,-2.27285 -6.439722,-5.93465 -1.262691,-3.6618 -2.272843,-4.92449 -2.399112,-8.08122 -0.126269,-3.15673 -2.2728436,-4.67196 -2.6516508,-6.9448 -0.1602608,-0.96156 -2.7397642,-3.69483 -4.0674348,-4.22611 -1.8105348,-0.72452 -2.5956674,0.90913 -3.7612474,0.69058 -1.00087689,-0.18767 -0.3671807,-1.0192 -0.4554118,-2.92981 -0.089867,-1.94602 -0.88142833,-4.99732 0.3291427,-8.0556 2.3991157,-6.06092 0.8838835,-6.31346 4.9244937,-9.59645 4.0406104,-3.283 10.3540634,-6.9448 14.0158664,-6.9448 3.661803,0 12.500638,0.88388 14.142136,2.52538 0.892182,0.89218 2.866098,2.30658 4.644498,3.73635 1.493624,1.20082 2.849335,2.41248 3.310453,3.33472 1.010148,2.0203 -1.010147,4.29315 -2.525381,2.0203 -0.630124,-0.94518 -2.963533,-2.13058 -5.774272,-3.22925 -3.948109,-1.54326 -8.838014,-2.91543 -11.272052,-3.21047 -4.16688,-0.50508 -9.091373,4.67196 -9.091373,4.67196 z"
         inkscape:path-effect="#path-effect4168-8"
         id="path4166"
         d="m 14.015867,232.11834 c -1.349372,0.89668 -2.368369,2.27919 -2.825516,3.83349 -0.457148,1.5543 -0.348907,3.26835 0.300134,4.7528 0.529151,1.21024 1.387634,2.2405 2.20052,3.28161 0.812885,1.0411 1.605631,2.14 1.966359,3.41065 0.364049,1.28235 0.261791,2.64561 0.133122,3.97241 -0.12867,1.3268 -0.279628,2.67773 -0.0069,3.98255 0.289117,1.38298 1.055398,2.64964 2.094556,3.60691 1.039158,0.95728 2.342057,1.61055 3.713821,1.94892 2.8239,0.69656 5.799275,0.0743 8.586296,-0.75761 1.858808,-0.55486 3.735069,-1.21004 5.674448,-1.16706 1.44128,0.0319 2.859779,0.45117 4.300809,0.40945 0.607214,-0.0176 1.221265,-0.11659 1.81744,0 0.667785,0.13059 1.266284,0.53061 1.703462,1.05202 0.437179,0.5214 0.721293,1.15841 0.894839,1.81634 0.347091,1.31586 0.265439,2.70179 0.399117,4.05608 0.07948,0.80519 0.235509,1.60113 0.32333,2.40545 0.08782,0.80432 0.105993,1.62748 -0.08743,2.41313 -0.208454,0.84672 -0.656501,1.61978 -1.20103,2.30086 -0.54453,0.68108 -1.185755,1.27775 -1.829427,1.86602 -1.496893,1.36806 -3.095015,2.74696 -5.050763,3.28299 -1.666922,0.45687 -3.453123,0.25347 -5.116491,-0.21617 -1.663368,-0.46964 -3.240846,-1.1961 -4.858765,-1.80413 -2.020832,-0.75945 -4.115009,-1.33798 -6.060916,-2.27284 -2.677483,-1.28633 -5.072495,-3.29756 -6.439722,-5.93465 -1.296467,-2.50061 -1.601185,-5.37989 -2.399112,-8.08122 -0.702226,-2.37734 -1.789128,-4.62081 -2.6516508,-6.9448 -0.3691523,-0.99465 -0.7074509,-2.02372 -1.3486277,-2.869 -0.3205884,-0.42263 -0.7166546,-0.79398 -1.1839233,-1.0451 -0.4672688,-0.25111 -1.0084575,-0.37739 -1.5348838,-0.31201 -0.6578908,0.0817 -1.240392,0.44676 -1.8546142,0.69622 -0.3071112,0.12472 -0.6295014,0.22215 -0.9606008,0.23787 -0.3310994,0.0157 -0.6731773,-0.0553 -0.9460324,-0.24351 -0.216051,-0.14903 -0.3807574,-0.3661 -0.4867802,-0.6062 -0.1060228,-0.2401 -0.1552843,-0.5027 -0.1662171,-0.76494 -0.021866,-0.52447 0.1057868,-1.04183 0.1975855,-1.55867 0.4705761,-2.64942 0.00491,-5.38432 0.3291427,-8.0556 0.4411704,-3.6347 2.3517591,-6.99132 4.9244937,-9.59645 3.7236484,-3.77054 8.7925314,-6.05077 14.0158664,-6.9448 2.426299,-0.41529 4.91679,-0.54695 7.351225,-0.18237 2.434435,0.36457 4.814992,1.23971 6.790911,2.70775 1.59736,1.18678 2.918875,2.74527 4.644498,3.73635 0.72121,0.41421 1.506594,0.72504 2.166896,1.23073 0.330151,0.25284 0.627238,0.55516 0.838224,0.91351 0.210987,0.35835 0.332613,0.77553 0.305333,1.19048 -0.01941,0.2953 -0.113798,0.58431 -0.2644,0.83906 -0.150602,0.25476 -0.356677,0.47543 -0.595049,0.65082 -0.476744,0.35077 -1.074251,0.51491 -1.665932,0.53042 -1.128634,0.0296 -2.215134,-0.45599 -3.145647,-1.09539 -0.930513,-0.6394 -1.742259,-1.43454 -2.628625,-2.13386 -3.148227,-2.48387 -7.291482,-3.69626 -11.272052,-3.21047 -3.453474,0.42146 -6.738171,2.10943 -9.091373,4.67196 z"
         style="fill:none;fill-rule:evenodd;stroke:#000000;stroke-width:1px;stroke-linecap:round;stroke-linejoin:round;stroke-opacity:1"
         transform="translate(-5.2027144e-5,-1.9736528e-6)" />
      <path
         inkscape:connector-curvature="0"
         inkscape:original-d="m 25.803571,267.54077 c 1.339286,-2.41071 3.839286,-1.78571 5.625001,-2.5 1.785714,-0.71428 2.053571,0.44643 3.482142,-0.17857 1.428572,-0.625 2.767858,-0.71428 4.732143,-0.625 1.964286,0.0893 3.125,2.41072 3.125,2.41072 l 0,0.0893 0,0"
         inkscape:path-effect="#path-effect4172-2"
         id="path4170"
         d="m 25.803571,267.54077 c 1.545619,-1.40233 3.548373,-2.29244 5.625001,-2.5 1.15701,-0.11564 2.329482,-0.0255 3.482142,-0.17857 0.79308,-0.1053 1.566022,-0.32432 2.34955,-0.48602 0.783528,-0.1617 1.592719,-0.26611 2.382593,-0.13898 1.354048,0.21794 2.570492,1.15634 3.125,2.41072 l 0,0.0893 0,0"
         style="fill:none;fill-rule:evenodd;stroke:#000000;stroke-width:1px;stroke-linecap:round;stroke-linejoin:round;stroke-opacity:1"
         transform="translate(-5.2027144e-5,-1.9736528e-6)" />
      <path
         sodipodi:nodetypes="sssssssccs"
         inkscape:connector-curvature="0"
         inkscape:original-d="m 21.875,245.75506 c 0.803571,-1.33929 1.785714,-3.125 2.857143,-3.48214 1.071428,-0.35715 2.589286,-0.0893 3.571429,-0.0893 0.982142,0 2.142857,-1.51786 2.767857,0.17857 0.357816,0.97121 -0.0051,1.35117 -0.474715,1.70337 -0.350681,0.26298 -0.662123,0.6685 -1.311,0.43949 -1.517857,-0.53571 -1.696428,-0.89286 -1.696428,0.35714 0,1.25 0.535714,-0.625 -2.812501,0.63616 -3.348214,1.26117 -3.928571,3.64956 -3.928571,3.64956 1.026786,-1.60714 0.223215,-2.05356 1.026786,-3.39285 z"
         inkscape:path-effect="#path-effect4176-4"
         id="path4174"
         d="m 21.875,245.75506 c 0.269395,-0.73181 0.571426,-1.46089 1.027309,-2.09358 0.455882,-0.63269 1.081844,-1.16802 1.829834,-1.38856 0.573734,-0.16916 1.184856,-0.14629 1.781407,-0.10255 0.59655,0.0437 1.199206,0.10664 1.790022,0.0132 0.486396,-0.0769 0.954048,-0.25842 1.444341,-0.30431 0.245147,-0.0229 0.496331,-0.0109 0.730803,0.0643 0.234473,0.0751 0.451772,0.21673 0.592713,0.41862 0.0941,0.13479 0.152328,0.29371 0.172246,0.45688 0.01992,0.16317 0.0019,0.33036 -0.04787,0.48703 -0.09953,0.31334 -0.324484,0.57869 -0.599091,0.75946 -0.387466,0.25507 -0.856712,0.34562 -1.311,0.43949 -0.565925,0.11694 -1.12911,0.24716 -1.696428,0.35714 -0.944723,0.18315 -1.906548,0.31167 -2.812501,0.63616 -1.72953,0.61947 -3.183594,1.97027 -3.928571,3.64956 0.275306,-1.14979 0.618358,-2.28335 1.026786,-3.39285 z"
         style="fill:none;fill-rule:evenodd;stroke:#000000;stroke-width:1px;stroke-linecap:round;stroke-linejoin:round;stroke-opacity:1"
         transform="translate(-5.2027144e-5,-1.9736528e-6)" />
      <ellipse
         transform="matrix(1.1808878,0,0,1,-5.0323644,-0.17857197)"
         ry="1.1160715"
         rx="0.9598214"
         cy="247.22827"
         cx="25.379465"
         id="path4178"
         style="opacity:1;fill:#000000;fill-opacity:1;stroke:none;stroke-width:5.19999981;stroke-linecap:round;stroke-linejoin:round;stroke-miterlimit:4;stroke-dasharray:none;stroke-dashoffset:12.75590515;stroke-opacity:1" />
      <path
         sodipodi:nodetypes="cscsssscc"
         inkscape:connector-curvature="0"
         inkscape:original-d="m 36.807433,244.77681 c 1.957171,-0.31568 2.272844,-1.26269 3.156727,0.44194 0.883884,1.70463 1.673065,3.283 2.493814,3.53554 0.820749,0.25253 0.662913,0.91545 0.410375,-0.72605 -0.107562,-0.69916 -0.318205,-1.47849 -0.597781,-2.19652 -0.37682,-0.96778 -0.878865,-1.82421 -1.422525,-2.2229 -0.947018,-0.69448 -1.073286,-1.57836 -2.399112,-1.19955 -1.325825,0.3788 -2.272843,1.57836 -2.272843,1.57836 0,0 0.315673,0.85231 0.631345,0.78918 z"
         inkscape:path-effect="#path-effect4182-6"
         id="path4180"
         d="m 36.807433,244.77681 c 0.237109,0.13089 0.509776,0.18615 0.780239,0.20035 0.270463,0.0142 0.541226,-0.0109 0.811284,-0.0314 0.270058,-0.0205 0.542245,-0.0364 0.811144,-0.004 0.268899,0.0323 0.536631,0.1156 0.75406,0.27708 0.167016,0.12404 0.299632,0.29087 0.398193,0.47408 0.09856,0.18321 0.16406,0.38277 0.210368,0.58559 0.09262,0.40564 0.109759,0.82498 0.190111,1.23323 0.08035,0.40824 0.235311,0.82088 0.545582,1.09811 0.155135,0.13861 0.347308,0.23883 0.552963,0.27024 0.205655,0.0314 0.424358,-0.009 0.596597,-0.12571 0.11832,-0.0802 0.212156,-0.19358 0.279077,-0.31986 0.06692,-0.12627 0.107717,-0.26524 0.131298,-0.40619 0.06378,-0.38125 0.0028,-0.77505 -0.118252,-1.14217 -0.121013,-0.36712 -0.300415,-0.7118 -0.479529,-1.05435 -0.408839,-0.78189 -0.826949,-1.57191 -1.422525,-2.2229 -0.310749,-0.33966 -0.669411,-0.63914 -1.076034,-0.85499 -0.406623,-0.21585 -0.862717,-0.3462 -1.323078,-0.34456 -0.490411,0.002 -0.979216,0.15578 -1.382029,0.43551 -0.402812,0.27973 -0.717881,0.68394 -0.890814,1.14285 0.09654,0.3319 0.328737,0.62214 0.631345,0.78918 z"
         style="fill:none;fill-rule:evenodd;stroke:#000000;stroke-width:1px;stroke-linecap:round;stroke-linejoin:round;stroke-opacity:1"
         transform="translate(-5.2027144e-5,-1.9736528e-6)" />
      <ellipse
         style="opacity:1;fill:#000000;fill-opacity:1;stroke:none;stroke-width:5.19999981;stroke-linecap:round;stroke-linejoin:round;stroke-miterlimit:4;stroke-dasharray:none;stroke-dashoffset:12.75590515;stroke-opacity:1"
         id="ellipse4184"
         cx="25.379465"
         cy="247.22827"
         rx="0.9598214"
         ry="1.1160715"
         transform="matrix(1.1808878,0,0,1,8.1943205,-0.49424197)" />
      <path
         inkscape:connector-curvature="0"
         inkscape:original-d="m 33.808543,240.8309 c 0.220971,1.38896 0.789182,2.24128 0.220971,2.71479 -0.568211,0.47351 0.06313,0.41037 0.69448,1.13642 0.631345,0.72605 1.167989,2.68322 1.60993,3.50396 0.441942,0.82075 0.568211,2.02031 1.38896,2.74636 0.820749,0.72604 1.704633,3.12516 1.704633,3.72493 0,0.59978 -0.03157,3.34613 -1.925604,3.31457 -1.894036,-0.0316 -2.083439,-0.97859 -3.125159,-0.97859 -1.04172,0 -2.714785,0.41038 -2.304411,0.85232 0.410375,0.44194 1.073287,0.34724 1.073287,0.34724"
         inkscape:path-effect="#path-effect4188-1"
         id="path4186"
         d="m 33.808543,240.8309 c -0.268401,0.88986 -0.187804,1.88005 0.220971,2.71479 0.195363,0.39894 0.460008,0.75913 0.69448,1.13642 0.679277,1.09302 1.101206,2.32188 1.60993,3.50396 0.405798,0.94292 0.869406,1.86102 1.38896,2.74636 0.696102,1.18619 1.511462,2.36321 1.704633,3.72493 0.09915,0.69894 0.02048,1.43566 -0.308043,2.06049 -0.164261,0.31242 -0.38967,0.59388 -0.666184,0.81326 -0.276513,0.21937 -0.60447,0.37569 -0.951377,0.44082 -0.547293,0.10274 -1.11517,-0.0232 -1.631209,-0.23247 -0.516038,-0.20926 -0.994517,-0.49984 -1.49395,-0.74612 -0.237719,-0.11722 -0.481842,-0.225 -0.738892,-0.28963 -0.257049,-0.0646 -0.528855,-0.0849 -0.787433,-0.0267 -0.258578,0.0582 -0.503105,0.19953 -0.658322,0.41437 -0.07761,0.10743 -0.13209,0.23202 -0.154222,0.36269 -0.02213,0.13066 -0.01149,0.26725 0.03446,0.39156 0.07498,0.20286 0.246587,0.36755 0.452363,0.43412 0.205777,0.0666 0.441323,0.0336 0.620924,-0.0869"
         style="fill:none;fill-rule:evenodd;stroke:#000000;stroke-width:1px;stroke-linecap:round;stroke-linejoin:round;stroke-opacity:1"
         transform="translate(-5.2027144e-5,-1.9736528e-6)" />
      <path
         inkscape:connector-curvature="0"
         inkscape:original-d="m 29.294424,246.95495 c 0.473509,1.42053 0.0947,2.30441 -0.536644,3.3777 -0.631345,1.07329 -1.041719,1.29426 -1.95717,1.76777 -0.915451,0.4735 -0.852316,0.66291 -0.852316,0.66291"
         inkscape:path-effect="#path-effect4192-9"
         id="path4190"
         d="m 29.294424,246.95495 c 0.353553,1.12737 0.14891,2.41542 -0.536644,3.3777 -0.512301,0.71909 -1.251828,1.2367 -1.95717,1.76777 -0.287544,0.2165 -0.571696,0.43751 -0.852316,0.66291"
         style="fill:none;fill-rule:evenodd;stroke:#000000;stroke-width:1px;stroke-linecap:round;stroke-linejoin:round;stroke-opacity:1"
         transform="translate(-5.2027144e-5,-1.9736528e-6)" />
      <path
         inkscape:connector-curvature="0"
         inkscape:original-d="m 30.336144,251.75318 c -1.609931,1.35739 -2.809487,2.24127 -4.04061,2.80948 -1.231124,0.56821 -2.020306,1.19956 -2.651651,1.70464 -0.631345,0.50507 -0.883883,0.97858 -0.883883,0.97858"
         inkscape:path-effect="#path-effect4196-1"
         id="path4194"
         d="m 30.336144,251.75318 c -1.262676,1.05044 -2.616241,1.99159 -4.04061,2.80948 -0.913091,0.52431 -1.864933,1.00485 -2.651651,1.70464 -0.329079,0.29272 -0.626051,0.62151 -0.883883,0.97858"
         style="fill:none;fill-rule:evenodd;stroke:#000000;stroke-width:1px;stroke-linecap:round;stroke-linejoin:round;stroke-opacity:1"
         transform="translate(-5.2027144e-5,-1.9736528e-6)" />
      <path
         sodipodi:nodetypes="cssc"
         inkscape:connector-curvature="0"
         inkscape:original-d="m 39.398908,251.39313 c 0.126244,0.54173 0.28171,1.20509 0.447087,1.52492 0.621364,1.20168 1.343536,1.16317 2.134075,0.38885 l 0.682718,-0.66872"
         inkscape:path-effect="#path-effect4200-2"
         id="path4198"
         d="m 39.398908,251.39313 c 0.06225,0.52855 0.214087,1.04643 0.447087,1.52492 0.09838,0.20203 0.213246,0.39899 0.37001,0.55998 0.156763,0.16099 0.357335,0.28278 0.577519,0.32763 0.220183,0.0449 0.453792,0.01 0.656192,-0.088 0.202399,-0.0976 0.369827,-0.25353 0.530354,-0.41077 l 0.682718,-0.66872"
         style="fill:none;fill-rule:evenodd;stroke:#000000;stroke-width:1px;stroke-linecap:round;stroke-linejoin:round;stroke-opacity:1"
         transform="translate(-5.2027144e-5,-1.9736528e-6)" />
      <path
         inkscape:connector-curvature="0"
         inkscape:original-d="M 6.1160714,251.24613 C 4.0625,250.97827 3.7946429,251.02292 4.0625,252.94256 c 0.2678572,1.91964 0.3571429,1.69643 0.9821429,3.30357 0.625,1.60714 0,1.78572 1.4285714,3.125 1.4285714,1.33929 1.4285714,1.33929 1.4285714,1.33929"
         inkscape:path-effect="#path-effect4204-8"
         id="path4202"
         d="m 6.1160714,251.24613 c -0.4863987,-0.0231 -0.979349,0.14106 -1.3547668,0.45119 -0.3754177,0.31012 -0.6296873,0.76322 -0.6988046,1.24524 -0.082524,0.57552 0.091292,1.15734 0.3181483,1.69266 0.2268562,0.53532 0.509779,1.05033 0.6639946,1.61091 0.1559407,0.56685 0.1914995,1.16569 0.3986869,1.71588 0.1035936,0.27509 0.2466175,0.53536 0.4248041,0.76915 0.1781866,0.23379 0.3906302,0.43892 0.6050804,0.63997 l 1.4285714,1.33929"
         style="fill:none;fill-rule:evenodd;stroke:#000000;stroke-width:1px;stroke-linecap:round;stroke-linejoin:round;stroke-opacity:1"
         transform="translate(-5.2027144e-5,-1.9736528e-6)" />
      <path
         inkscape:connector-curvature="0"
         inkscape:original-d="m 8.3928572,254.8622 c -1.1160715,1.51786 -1.8303572,0.53572 -1.1607143,1.74107 0.6696428,1.20536 -0.5357143,1.96429 0.9375,2.32143 1.4732143,0.35715 2.5446431,-0.0446 2.5446431,-0.0446"
         inkscape:path-effect="#path-effect4208-9"
         id="path4206"
         d="m 8.3928572,254.8622 c -0.6093221,0.38133 -1.0430742,1.03195 -1.1607143,1.74107 -0.072042,0.43426 -0.028551,0.88836 0.1333811,1.29769 0.1619323,0.40933 0.442911,0.77215 0.8041189,1.02374 0.3718717,0.25902 0.8264176,0.39736 1.2795377,0.38942 0.4531202,-0.008 0.9025394,-0.16213 1.2651054,-0.43402"
         style="fill:none;fill-rule:evenodd;stroke:#000000;stroke-width:1px;stroke-linecap:round;stroke-linejoin:round;stroke-opacity:1"
         transform="translate(-5.2027144e-5,-1.9736528e-6)" />
      <path
         inkscape:connector-curvature="0"
         inkscape:original-d="m 2.3660714,250.53185 c -0.5803571,0.625 -0.7142857,2.41071 -0.1785714,3.52678 0.5357143,1.11607 1.7857143,1.875 2.0982143,3.21429 0.3125,1.33928 2.5446429,4.55357 2.7232143,5.66964 0.1785714,1.11607 0.8928571,2.14286 2.0089286,2.27679 1.1160718,0.13392 3.7053568,0.98214 3.7053568,0.98214 l 0.08929,0 0.04464,0.0446"
         inkscape:path-effect="#path-effect4212-2"
         id="path4210"
         d="m 2.3660714,250.53185 c -0.538426,1.08447 -0.6047045,2.39347 -0.1785714,3.52678 0.4517653,1.20148 1.3942877,2.14092 2.0982143,3.21429 1.1512288,1.75544 1.6571286,3.86123 2.7232143,5.66964 0.5178949,0.87851 1.1753505,1.6893 2.0089286,2.27679 1.0666818,0.75177 2.4063498,1.10687 3.7053568,0.98214 l 0.08929,0 0.04464,0.0446"
         style="fill:none;fill-rule:evenodd;stroke:#000000;stroke-width:1px;stroke-linecap:round;stroke-linejoin:round;stroke-opacity:1"
         transform="translate(-5.2027144e-5,-1.9736528e-6)" />
      <path
         inkscape:connector-curvature="0"
         inkscape:original-d="m 30.872787,254.8152 c -0.568211,2.20971 -1.736199,3.94591 -2.209708,4.38785 -0.473509,0.44194 -0.631346,0.66291 -0.631346,0.66291"
         inkscape:path-effect="#path-effect4301"
         id="path4299"
         d="m 30.872787,254.8152 c -0.357686,1.61548 -1.124735,3.13863 -2.209708,4.38785 -0.200165,0.23047 -0.410909,0.45175 -0.631346,0.66291"
         style="fill:none;fill-rule:evenodd;stroke:#000000;stroke-width:1px;stroke-linecap:round;stroke-linejoin:round;stroke-opacity:1" />
      <path
         sodipodi:nodetypes="cssssc"
         inkscape:connector-curvature="0"
         inkscape:original-d="m 21.0238,240.26269 c 1.698658,-0.43239 4.576362,-2.96712 6.183513,-2.80472 1.678188,0.16958 3.456958,0.84209 4.359954,1.10009 1.767764,0.50508 2.08344,1.13642 4.545687,0.56821 2.462246,-0.56822 3.409264,-0.88388 4.230013,-0.25254 l 0.820749,0.63135"
         inkscape:path-effect="#path-effect4305"
         id="path4303"
         d="m 21.0238,240.26269 c 1.475499,-1.82519 3.838322,-2.89692 6.183513,-2.80472 1.504626,0.0592 2.952947,0.56368 4.359954,1.10009 0.731776,0.27898 1.464762,0.56954 2.233785,0.71763 0.769023,0.14809 1.586636,0.14607 2.311902,-0.14942 0.35823,-0.14595 0.684916,-0.35801 1.023632,-0.54483 0.338717,-0.18682 0.696746,-0.34865 1.077916,-0.41453 0.38117,-0.0659 0.779406,-0.0301 1.141841,0.10504 0.362436,0.13517 0.680021,0.36593 0.986624,0.60178 l 0.820749,0.63135"
         style="fill:none;fill-rule:evenodd;stroke:#000000;stroke-width:1px;stroke-linecap:round;stroke-linejoin:round;stroke-opacity:1" />
      <path
         inkscape:connector-curvature="0"
         inkscape:original-d="m -10.267857,282.3622 c 6.9642856,-4.64285 7.3214284,-3.57143 10.71428557,-7.14285 3.39285713,-3.57143 4.73214283,-5.71429 6.07142863,-6.60715 1.3392857,-0.89285 2.9464285,-0.89285 2.9464285,-0.89285"
         inkscape:path-effect="#path-effect4309"
         id="path4307"
         d="m -10.267857,282.3622 c 4.1776049,-1.23844 7.9643393,-3.76292 10.71428557,-7.14285 0.95152133,-1.1695 1.77953193,-2.43494 2.72347913,-3.61057 0.9439473,-1.17562 2.0238848,-2.27548 3.3479495,-2.99658 0.9075665,-0.49427 1.9171585,-0.8002 2.9464285,-0.89285"
         style="fill:none;fill-rule:evenodd;stroke:#000000;stroke-width:1px;stroke-linecap:round;stroke-linejoin:round;stroke-opacity:1" />
      <path
         inkscape:connector-curvature="0"
         inkscape:original-d="m 9.1071429,269.05863 c 3.7500001,2.67857 1.6071431,4.01786 9.0178571,7.5 7.410714,3.48214 9.910714,5.26786 13.392857,5.26786 3.482143,0 4.910715,-1.875 5,0.98214 0.08929,2.85714 -0.08928,4.10714 -3.482143,4.375 -3.392857,0.26786 -14.375,-1.07143 -17.053571,-2.58928 -2.678572,-1.51786 -5.535714,-3.92858 -8.3928573,-3.48215 -2.8571428,0.44643 -2.9464285,0.53572 -2.9464285,0.53572"
         inkscape:path-effect="#path-effect4313"
         id="path4311"
         d="m 9.1071429,269.05863 c 2.8759841,2.65098 5.8871391,5.15531 9.0178571,7.5 1.9668,1.473 3.996039,2.89187 6.234644,3.90512 2.238604,1.01325 4.713318,1.60875 7.158213,1.36274 0.900184,-0.0906 1.796551,-0.29394 2.699498,-0.23719 0.451474,0.0284 0.902864,0.12364 1.309383,0.32207 0.406518,0.19844 0.766817,0.50442 0.991119,0.89726 0.26891,0.47096 0.32804,1.04767 0.206026,1.57609 -0.122013,0.52843 -0.41663,1.00869 -0.799168,1.39312 -0.765076,0.76885 -1.836736,1.14271 -2.889001,1.40579 -5.70872,1.42726 -11.88399,0.22177 -17.053571,-2.58928 -1.345152,-0.73145 -2.633319,-1.56782 -4.006618,-2.24494 -1.373299,-0.67713 -2.8556063,-1.19703 -4.3862393,-1.23721 -1.005001,-0.0264 -2.0150349,0.15726 -2.9464285,0.53572"
         style="fill:none;fill-rule:evenodd;stroke:#000000;stroke-width:1px;stroke-linecap:round;stroke-linejoin:round;stroke-opacity:1" />
      <path
         inkscape:connector-curvature="0"
         inkscape:original-d="m 39.196429,280.21935 c 2.142857,0.625 3.660714,2.41071 5.982143,2.5 2.321428,0.0893 5.178571,-0.17858 7.589285,1.51785 2.410715,1.69643 4.910715,4.64286 6.428572,6.42857 1.517857,1.78572 1.696428,0.71429 3.571428,2.67858 1.875,1.96428 1.785715,2.14285 1.785715,2.14285"
         inkscape:path-effect="#path-effect4317"
         id="path4315"
         d="m 39.196429,280.21935 c 1.783173,1.25066 3.839317,2.10994 5.982143,2.5 1.276568,0.23237 2.576916,0.29969 3.863686,0.46656 1.28677,0.16688 2.58068,0.44073 3.725599,1.05129 1.344301,0.71689 2.409674,1.85707 3.382964,3.02915 0.97329,1.17209 1.89027,2.40631 3.045608,3.39942 1.129147,0.97059 2.460103,1.68763 3.571428,2.67858 0.696504,0.62106 1.30043,1.34577 1.785715,2.14285"
         style="fill:none;fill-rule:evenodd;stroke:#000000;stroke-width:1px;stroke-linecap:round;stroke-linejoin:round;stroke-opacity:1" />
    </g>
    <flowRoot
       xml:space="preserve"
       id="flowRoot4342"
       style="font-style:normal;font-variant:normal;font-weight:bold;font-stretch:normal;font-size:13.75px;line-height:125%;font-family:Quicksand;-inkscape-font-specification:'Quicksand Bold';text-align:start;writing-mode:lr-tb;text-anchor:start;opacity:1;fill:#000000;fill-opacity:1;stroke:none;stroke-width:5.19999981;stroke-linecap:round;stroke-linejoin:round;stroke-miterlimit:4;stroke-dasharray:none;stroke-dashoffset:12.75590515;stroke-opacity:1"
       transform="translate(99.975366,31.96444)"><flowRegion
         id="flowRegion4344"><rect
           id="rect4346"
           width="152.14285"
           height="71.428574"
           x="-23.571428"
           y="158.07649" /></flowRegion><flowPara
         id="flowPara4348">Enzo Mari</flowPara></flowRoot>  </g>
</svg>
