<?xml version="1.0" encoding="UTF-8" standalone="no"?>
<!-- Created with Inkscape (http://www.inkscape.org/) -->

<svg
   xmlns:dc="http://purl.org/dc/elements/1.1/"
   xmlns:cc="http://creativecommons.org/ns#"
   xmlns:rdf="http://www.w3.org/1999/02/22-rdf-syntax-ns#"
   xmlns:svg="http://www.w3.org/2000/svg"
   xmlns="http://www.w3.org/2000/svg"
   xmlns:sodipodi="http://sodipodi.sourceforge.net/DTD/sodipodi-0.dtd"
   xmlns:inkscape="http://www.inkscape.org/namespaces/inkscape"
   width="47.780441mm"
   height="60.217915mm"
   viewBox="0 0 169.30077 213.37056"
   id="svg6331"
   version="1.1"
   inkscape:version="0.91 r"
   sodipodi:docname="portrait.svg">
  <defs
     id="defs6333" />
  <sodipodi:namedview
     id="base"
     pagecolor="#ffffff"
     bordercolor="#666666"
     borderopacity="1.0"
     inkscape:pageopacity="0.0"
     inkscape:pageshadow="2"
     inkscape:zoom="2.8"
     inkscape:cx="27.237643"
     inkscape:cy="93.194815"
     inkscape:document-units="mm"
     inkscape:current-layer="layer1"
     showgrid="false"
     fit-margin-top="5"
     fit-margin-left="5"
     fit-margin-right="5"
     fit-margin-bottom="5" />
  <metadata
     id="metadata6336">
    <rdf:RDF>
      <cc:Work
         rdf:about="">
        <dc:format>image/svg+xml</dc:format>
        <dc:type
           rdf:resource="http://purl.org/dc/dcmitype/StillImage" />
        <dc:title></dc:title>
      </cc:Work>
    </rdf:RDF>
  </metadata>
  <g
     inkscape:label="Calque 1"
     inkscape:groupmode="layer"
     id="layer1"
     transform="translate(-309.60336,-341.40259)">
    <g
       id="g7290">
      <path
         transform="matrix(1.3363088,0,0,1.336885,-138.98476,225.71828)"
         inkscape:connector-curvature="0"
         id="path8429"
         d="m 357.97281,134.63862 c -2.52951,-5.09947 -2.38324,-11.43762 0.37881,-16.41498 2.37302,-4.27631 6.50883,-7.43853 11.11167,-9.09138 3.54109,-1.27158 7.35371,-1.69935 11.11168,-1.51522 4.73336,0.23192 9.37066,1.41358 13.8896,2.84105 2.28441,0.72161 4.56823,1.51662 6.6193,2.75451 2.05106,1.23789 3.87416,2.95896 4.87118,5.13731 0.96207,2.102 1.10102,4.49651 0.88431,6.79804 -0.21671,2.30152 -0.77021,4.55657 -1.13684,6.83902 -0.20033,1.24718 -0.34227,2.54294 0.001,3.7585 0.17176,0.60778 0.4671,1.18649 0.89844,1.64784 0.43135,0.46135 1.00319,0.8003 1.62568,0.90711 0.81745,0.14027 1.67579,-0.13141 2.3311,-0.6398 0.65531,-0.5084 1.11865,-1.23578 1.40554,-2.01398 0.57379,-1.5564 0.46772,-3.26595 0.55651,-4.92237 0.17902,-3.33986 1.17912,-6.64365 0.88388,-9.97525 -0.35537,-4.01009 -2.57131,-7.64969 -5.3033,-10.6066 -1.00243,-1.08496 -2.08822,-2.10576 -3.32993,-2.90584 -1.24172,-0.80008 -2.6493,-1.37498 -4.11994,-1.51359 -1.46345,-0.13794 -2.93732,0.15615 -4.40514,0.0774 -2.07751,-0.11146 -4.04143,-0.96169 -5.8874,-1.92129 -1.84597,-0.95961 -3.64223,-2.04818 -5.61737,-2.70184 -2.58941,-0.85695 -5.40906,-0.9256 -8.08122,-0.3788 -3.17418,0.64953 -6.11013,2.13 -8.9651,3.6618 -3.30064,1.77092 -6.58426,3.65446 -9.34391,6.18718 -2.74056,2.5152 -4.91396,5.64489 -6.31346,9.09138 -1.5582,2.91403 -1.79434,6.50339 -0.63134,9.59644 0.63587,1.69113 1.65446,3.2091 2.71479,4.67196 0.49405,0.68161 0.99922,1.35516 1.51523,2.0203"
         style="fill:none;fill-opacity:0.99607843;fill-rule:evenodd;stroke:#23783f;stroke-width:1.32549584;stroke-linecap:round;stroke-linejoin:round;stroke-miterlimit:4;stroke-dasharray:none;stroke-opacity:0.99607843" />
      <path
         transform="matrix(1.3363088,0,0,1.336885,-138.98476,225.71828)"
         inkscape:connector-curvature="0"
         id="path8431"
         d="m 358.21429,135.75506 c 1.36068,-1.02725 3.0301,-1.58618 4.71658,-1.83612 1.68649,-0.24995 3.40173,-0.20622 5.10485,-0.12817 1.01519,0.0465 2.03462,0.10566 3.02862,0.31716 0.994,0.2115 1.96838,0.58246 2.77495,1.2007 0.85844,0.658 1.50076,1.58332 1.86082,2.60325 0.36007,1.01992 0.44218,2.13063 0.28203,3.20032 -0.35927,2.39971 -1.8695,4.45062 -3.39285,6.33929 -0.95081,1.17883 -1.93327,2.34554 -3.10267,3.30791 -1.16941,0.96237 -2.54514,1.7181 -4.04019,1.95995 -1.43571,0.23225 -2.93031,-0.0232 -4.25652,-0.62013 -1.32622,-0.59696 -2.48877,-1.52494 -3.4523,-2.61435 -1.58128,-1.78787 -2.65187,-4.06977 -2.78225,-6.45303 -0.0756,-1.38139 0.16515,-2.78219 0.72239,-4.04846 0.55725,-1.26627 1.4324,-2.39475 2.53654,-3.22832 z"
         style="fill:none;fill-opacity:0.99607843;fill-rule:evenodd;stroke:#23783f;stroke-width:1.32549584;stroke-linecap:round;stroke-linejoin:round;stroke-miterlimit:4;stroke-dasharray:none;stroke-opacity:0.99607843" />
      <path
         inkscape:connector-curvature="0"
         id="path8433"
         d="m 358.21429,135.75506 c 1.36068,-1.02725 3.0301,-1.58618 4.71658,-1.83612 1.68649,-0.24995 3.40173,-0.20622 5.10485,-0.12817 1.01519,0.0465 2.03462,0.10566 3.02862,0.31716 0.994,0.2115 1.96838,0.58246 2.77495,1.2007 0.85844,0.658 1.50076,1.58332 1.86082,2.60325 0.36007,1.01992 0.44218,2.13063 0.28203,3.20032 -0.35927,2.39971 -1.8695,4.45062 -3.39285,6.33929 -0.95081,1.17883 -1.93327,2.34554 -3.10267,3.30791 -1.16941,0.96237 -2.54514,1.7181 -4.04019,1.95995 -1.43571,0.23225 -2.93031,-0.0232 -4.25652,-0.62013 -1.32622,-0.59696 -2.48877,-1.52494 -3.4523,-2.61435 -1.58128,-1.78787 -2.65187,-4.06977 -2.78225,-6.45303 -0.0756,-1.38139 0.16515,-2.78219 0.72239,-4.04846 0.55725,-1.26627 1.4324,-2.39475 2.53654,-3.22832 z"
         style="fill:none;fill-opacity:0.99607843;fill-rule:evenodd;stroke:#23783f;stroke-width:1.32549572;stroke-linecap:round;stroke-linejoin:round;stroke-miterlimit:4;stroke-dasharray:none;stroke-opacity:0.99607843"
         transform="matrix(-1.3335244,0.0862576,0.08622042,1.3340994,859.49474,192.78362)" />
      <path
         transform="matrix(1.3363088,0,0,1.336885,-138.98476,225.71828)"
         inkscape:connector-curvature="0"
         id="path8435"
         d="m 361.5625,144.19256 c 1.31991,-1.55659 3.04359,-2.76782 4.95536,-3.48214 0.68876,-0.25735 1.40835,-0.44553 2.1424,-0.48769 0.73406,-0.0422 1.46697,0.0756 2.18796,0.21983 l 0.66964,0.13393"
         style="fill:none;fill-opacity:0.99607843;fill-rule:evenodd;stroke:#23783f;stroke-width:1.32549584;stroke-linecap:round;stroke-linejoin:round;stroke-miterlimit:4;stroke-dasharray:none;stroke-opacity:0.99607843" />
      <path
         transform="matrix(1.3363088,0,0,1.336885,-138.98476,225.71828)"
         inkscape:connector-curvature="0"
         id="path8437"
         d="m 386.82529,139.37371 c 0.878,-0.53609 1.87505,-0.87596 2.89768,-0.98776 1.0383,-0.11351 2.09563,0.007 3.1001,0.29328 1.4829,0.42268 2.86046,1.20986 3.97748,2.27284"
         style="fill:none;fill-opacity:0.99607843;fill-rule:evenodd;stroke:#23783f;stroke-width:1.32549584;stroke-linecap:round;stroke-linejoin:round;stroke-miterlimit:4;stroke-dasharray:none;stroke-opacity:0.99607843" />
      <path
         inkscape:connector-curvature="0"
         id="path8439"
         d="m 369.90524,142.34103 a 1.8940361,1.4520943 0 0 1 -1.89404,1.4521 1.8940361,1.4520943 0 0 1 -1.89404,-1.4521 1.8940361,1.4520943 0 0 1 1.89404,-1.45209 1.8940361,1.4520943 0 0 1 1.89404,1.45209 z"
         style="opacity:1;fill:#23773f;fill-opacity:1;stroke:none;stroke-width:5.19999981;stroke-linecap:round;stroke-linejoin:round;stroke-miterlimit:4;stroke-dasharray:none;stroke-dashoffset:12.75590515;stroke-opacity:0.99607843"
         transform="matrix(1.4780457,0,0,1.5834903,-191.414,190.25813)" />
      <path
         inkscape:connector-curvature="0"
         id="path8441"
         d="m 369.90524,142.34103 a 1.8940361,1.4520943 0 0 1 -1.89404,1.4521 1.8940361,1.4520943 0 0 1 -1.89404,-1.4521 1.8940361,1.4520943 0 0 1 1.89404,-1.45209 1.8940361,1.4520943 0 0 1 1.89404,1.45209 z"
         style="opacity:1;fill:#23773f;fill-opacity:1;stroke:none;stroke-width:5.19999981;stroke-linecap:round;stroke-linejoin:round;stroke-miterlimit:4;stroke-dasharray:none;stroke-dashoffset:12.75590515;stroke-opacity:0.99607843"
         transform="matrix(1.4780457,0,0,1.5834903,-160.21358,187.21433)" />
      <path
         transform="matrix(1.3363088,0,0,1.336885,-138.98476,225.71828)"
         inkscape:connector-curvature="0"
         id="path8443"
         d="m 371.86241,133.81787 13.13198,-0.69448"
         style="fill:none;fill-opacity:0.99607843;fill-rule:evenodd;stroke:#23783f;stroke-width:1.32549584;stroke-linecap:round;stroke-linejoin:round;stroke-miterlimit:4;stroke-dasharray:none;stroke-opacity:0.99607843" />
      <path
         transform="matrix(1.3363088,0,0,1.336885,-138.98476,225.71828)"
         inkscape:connector-curvature="0"
         id="path8445"
         d="m 375.1454,136.84832 c 0.28904,-0.60257 0.75162,-1.12066 1.31772,-1.47586 0.5661,-0.3552 1.23384,-0.54632 1.90214,-0.54444 1.13463,0.003 2.25249,0.58643 2.90419,1.51523"
         style="fill:none;fill-opacity:0.99607843;fill-rule:evenodd;stroke:#23783f;stroke-width:1.32549584;stroke-linecap:round;stroke-linejoin:round;stroke-miterlimit:4;stroke-dasharray:none;stroke-opacity:0.99607843" />
      <path
         transform="matrix(1.3363088,0,0,1.336885,-138.98476,225.71828)"
         inkscape:connector-curvature="0"
         id="path8447"
         d="m 408.75,144.50506 c -0.51207,-0.61235 -0.84604,-1.37192 -0.95112,-2.16322 -0.10508,-0.7913 0.0191,-1.61169 0.35359,-2.33647 0.33451,-0.72477 0.87827,-1.35151 1.5486,-1.78493 0.67033,-0.43341 1.46501,-0.67206 2.26322,-0.67967 0.74948,-0.007 1.49635,0.18734 2.16164,0.53253 0.66529,0.34519 1.24965,0.83869 1.72539,1.41786 0.95147,1.15836 1.45507,2.63457 1.64868,4.12104 0.3127,2.40074 -0.14026,4.84435 -0.87597,7.15088 -0.73571,2.30653 -1.75084,4.51279 -2.60617,6.77769 -0.57863,1.5322 -1.08396,3.09085 -1.60714,4.64286 -0.29645,0.87941 -0.6109,1.77893 -1.20829,2.48913 -0.29869,0.35509 -0.66723,0.65694 -1.09212,0.84343 -0.4249,0.18648 -0.90797,0.25302 -1.36031,0.14958 -0.4931,-0.11277 -0.93604,-0.43031 -1.20114,-0.8611 -0.26511,-0.4308 -0.34898,-0.96931 -0.22743,-1.46032"
         style="fill:none;fill-opacity:0.99607843;fill-rule:evenodd;stroke:#23783f;stroke-width:1.32549584;stroke-linecap:round;stroke-linejoin:round;stroke-miterlimit:4;stroke-dasharray:none;stroke-opacity:0.99607843" />
      <path
         transform="matrix(1.3363088,0,0,1.336885,-138.98476,225.71828)"
         inkscape:connector-curvature="0"
         id="path8449"
         d="m 409.82143,155.30863 c -0.10543,-1.69923 -0.0154,-3.41051 0.26786,-5.08928 0.21659,-1.28382 0.54556,-2.54831 0.71428,-3.83929 0.11666,-0.89262 0.15707,-1.79947 0.38217,-2.67108 0.11256,-0.4358 0.27179,-0.86179 0.50151,-1.24886 0.22972,-0.38707 0.53173,-0.73491 0.90204,-0.99077 0.31161,-0.21531 0.67268,-0.36419 1.04929,-0.40448 0.37661,-0.0403 0.76844,0.0316 1.09356,0.2259 0.43562,0.26035 0.73104,0.74169 0.76596,1.24798 0.0349,0.50628 -0.19163,1.02362 -0.58738,1.34131"
         style="fill:none;fill-opacity:0.99607843;fill-rule:evenodd;stroke:#23783f;stroke-width:1.32549584;stroke-linecap:round;stroke-linejoin:round;stroke-miterlimit:4;stroke-dasharray:none;stroke-opacity:0.99607843" />
      <path
         transform="matrix(1.3363088,0,0,1.336885,-138.98476,225.71828)"
         inkscape:connector-curvature="0"
         id="path8451"
         d="m 351.25,140.21935 c -0.92121,1.44228 -1.47874,3.11487 -1.60714,4.82142 -0.16905,2.24676 0.39483,4.48821 1.16071,6.60715 0.89059,2.46397 2.06459,4.84381 2.58929,7.41071 0.23433,1.14636 0.33602,2.31746 0.59065,3.45948 0.25463,1.14203 0.67923,2.27883 1.46292,3.14766 0.83445,0.9251 2.05811,1.48732 3.30357,1.51786"
         style="fill:none;fill-opacity:0.99607843;fill-rule:evenodd;stroke:#23783f;stroke-width:1.32549584;stroke-linecap:round;stroke-linejoin:round;stroke-miterlimit:4;stroke-dasharray:none;stroke-opacity:0.99607843" />
      <path
         transform="matrix(1.3363088,0,0,1.336885,-138.98476,225.71828)"
         inkscape:connector-curvature="0"
         id="path8453"
         d="m 359.82143,164.8622 c 1.57748,1.13306 3.4334,1.87544 5.35714,2.14286 3.85786,0.53629 7.71582,-0.81414 11.60715,-0.98214 1.84521,-0.0797 3.69015,0.1075 5.53571,0.17857 2.8102,0.10822 5.63902,-0.0546 8.39285,-0.625 2.5426,-0.52664 5.01307,-1.40034 7.32144,-2.58929 -0.82512,-0.96137 -1.87206,-1.73118 -3.03572,-2.23214 -2.18629,-0.9412 -4.69507,-0.91917 -6.875,-1.875 -0.84155,-0.36899 -1.61422,-0.87564 -2.41984,-1.31761 -0.80563,-0.44197 -1.66559,-0.82549 -2.58016,-0.91453 -0.84575,-0.0823 -1.7152,0.0976 -2.45876,0.50897 -0.74356,0.41133 -1.35802,1.05224 -1.73767,1.81246 -0.39753,-0.5836 -0.95544,-1.05676 -1.59612,-1.35366 -0.64068,-0.2969 -1.36234,-0.41672 -2.06459,-0.34277 -0.66114,0.0696 -1.29434,0.30583 -1.89362,0.5936 -0.59928,0.28776 -1.17179,0.62835 -1.7671,0.92425 -2.21965,1.10328 -4.70784,1.56333 -6.96428,2.58929 -1.81661,0.82598 -3.46619,2.01734 -4.82143,3.48214 z"
         style="fill:none;fill-opacity:0.99607843;fill-rule:evenodd;stroke:#23783f;stroke-width:1.32549584;stroke-linecap:round;stroke-linejoin:round;stroke-miterlimit:4;stroke-dasharray:none;stroke-opacity:0.99607843" />
      <path
         transform="matrix(1.3363088,0,0,1.336885,-138.98476,225.71828)"
         inkscape:connector-curvature="0"
         id="path8455"
         d="m 372.5,167.80863 c 2.21704,0.67806 4.56592,0.9221 6.875,0.71429 1.60748,-0.14467 3.19017,-0.50543 4.73214,-0.98215 0.99883,-0.3088 1.98254,-0.66651 2.94643,-1.07142"
         style="fill:none;fill-opacity:0.99607843;fill-rule:evenodd;stroke:#23783f;stroke-width:1.32549584;stroke-linecap:round;stroke-linejoin:round;stroke-miterlimit:4;stroke-dasharray:none;stroke-opacity:0.99607843" />
      <path
         transform="matrix(1.3363088,0,0,1.336885,-138.98476,225.71828)"
         inkscape:connector-curvature="0"
         id="path8457"
         d="m 372.92979,155.04077 c 0.19865,-0.37491 0.57979,-0.64748 0.99878,-0.71428 0.28107,-0.0448 0.57197,-7.7e-4 0.83862,0.0988 0.26665,0.0995 0.51056,0.25293 0.73513,0.42779 0.44914,0.34972 0.82594,0.78647 1.2834,1.12523 0.45869,0.33967 0.99919,0.57611 1.56589,0.64408 0.56671,0.068 1.15888,-0.0381 1.64839,-0.33158 0.41631,-0.24961 0.74526,-0.62245 1.02645,-1.01812 0.28119,-0.39568 0.52134,-0.81933 0.80391,-1.21402 0.18315,-0.25582 0.3897,-0.5028 0.65669,-0.66924 0.26698,-0.16645 0.59766,-0.24191 0.90334,-0.16746 0.15285,0.0372 0.29683,0.11018 0.41733,0.21131 0.1205,0.10113 0.21698,0.22982 0.28499,0.37167 0.136,0.2837 0.14836,0.60874 0.14836,0.92336 l 0,0.98215"
         style="fill:none;fill-opacity:0.99607843;fill-rule:evenodd;stroke:#23783f;stroke-width:1.32549584;stroke-linecap:round;stroke-linejoin:round;stroke-miterlimit:4;stroke-dasharray:none;stroke-opacity:0.99607843" />
      <path
         transform="matrix(1.3363088,0,0,1.336885,-138.98476,225.71828)"
         inkscape:connector-curvature="0"
         id="path8459"
         d="m 366.78572,158.65684 c 0.6786,-1.85427 1.66316,-3.59618 2.90178,-5.13392 0.66104,-0.82067 1.39391,-1.58346 2.1875,-2.27679"
         style="fill:none;fill-opacity:0.99607843;fill-rule:evenodd;stroke:#23783f;stroke-width:1.32549584;stroke-linecap:round;stroke-linejoin:round;stroke-miterlimit:4;stroke-dasharray:none;stroke-opacity:0.99607843" />
      <path
         transform="matrix(1.3363088,0,0,1.336885,-138.98476,225.71828)"
         inkscape:connector-curvature="0"
         id="path8461"
         d="m 383.79464,149.50506 c 1.45823,0.94 2.39503,2.64013 2.41072,4.375 0.005,0.59464 -0.10018,1.21296 -0.44643,1.69643 -0.12309,0.17186 -0.27457,0.32334 -0.44643,0.44643"
         style="fill:none;fill-opacity:0.99607843;fill-rule:evenodd;stroke:#23783f;stroke-width:1.32549584;stroke-linecap:round;stroke-linejoin:round;stroke-miterlimit:4;stroke-dasharray:none;stroke-opacity:0.99607843" />
      <path
         transform="matrix(1.3363088,0,0,1.336885,-138.98476,225.71828)"
         inkscape:connector-curvature="0"
         id="path8463"
         d="m 374.64033,152.37942 c -0.37703,-1.22301 -0.39919,-2.55318 -0.0631,-3.78807 0.28728,-1.05555 0.83391,-2.03949 1.57836,-2.84106"
         style="fill:none;fill-opacity:0.99607843;fill-rule:evenodd;stroke:#23783f;stroke-width:1.32549584;stroke-linecap:round;stroke-linejoin:round;stroke-miterlimit:4;stroke-dasharray:none;stroke-opacity:0.99607843" />
      <path
         transform="matrix(1.3363088,0,0,1.336885,-138.98476,225.71828)"
         inkscape:connector-curvature="0"
         id="path8465"
         d="m 359.59056,168.26031 c 0.55598,3.81295 2.15662,7.4683 4.58158,10.46285 1.15553,1.42695 2.49274,2.70429 3.95286,3.81761 2.34299,1.7865 5.01447,3.15371 7.85714,3.92858 2.63635,0.71863 5.39513,0.92447 8.125,0.80357 3.23411,-0.14323 6.49303,-0.75762 9.375,-2.23215 2.63302,-1.34715 4.86589,-3.36521 6.875,-5.53571 1.55955,-1.68483 3.00884,-3.48161 4.19643,-5.44642 1.27399,-2.10777 2.23977,-4.40149 2.85715,-6.78572"
         style="fill:none;fill-opacity:0.99607843;fill-rule:evenodd;stroke:#23783f;stroke-width:1.32549584;stroke-linecap:round;stroke-linejoin:round;stroke-miterlimit:4;stroke-dasharray:none;stroke-opacity:0.99607843" />
      <path
         transform="matrix(1.3363088,0,0,1.336885,-138.98476,225.71828)"
         inkscape:connector-curvature="0"
         id="path8467"
         d="m 373.57143,188.43363 c 2.36588,1.11597 4.59126,2.52939 6.60714,4.19643 0.62761,0.519 1.23761,1.0644 1.92305,1.50421 0.68543,0.43981 1.46013,0.77386 2.27338,0.81722 0.7575,0.0404 1.515,-0.17533 2.18232,-0.53607 0.66731,-0.36074 1.25008,-0.86192 1.77364,-1.41086 1.04711,-1.09787 1.87764,-2.39863 3.00833,-3.41021 1.84521,-1.65083 4.32829,-2.39501 6.33928,-3.83929 1.88393,-1.35302 3.31535,-3.3252 4.01786,-5.53571"
         style="fill:none;fill-opacity:0.99607843;fill-rule:evenodd;stroke:#23783f;stroke-width:1.32549584;stroke-linecap:round;stroke-linejoin:round;stroke-miterlimit:4;stroke-dasharray:none;stroke-opacity:0.99607843" />
      <path
         transform="matrix(1.3363088,0,0,1.336885,-138.98476,225.71828)"
         inkscape:connector-curvature="0"
         id="path8469"
         d="m 372.65159,150.39068 c -0.71758,0.79131 -1.20522,1.78876 -1.38896,2.84106 -0.0785,0.44965 -0.10245,0.91169 -0.0335,1.36291 0.0689,0.45121 0.23331,0.89191 0.50704,1.25717 0.3568,0.47609 0.89811,0.8101 1.48366,0.91545"
         style="fill:none;fill-opacity:0.99607843;fill-rule:evenodd;stroke:#23783f;stroke-width:1.32549584;stroke-linecap:round;stroke-linejoin:round;stroke-miterlimit:4;stroke-dasharray:none;stroke-opacity:0.99607843" />
      <path
         transform="matrix(1.3363088,0,0,1.336885,-138.98476,225.71828)"
         inkscape:connector-curvature="0"
         id="path8471"
         d="m 402.41072,140.66577 5.98214,-1.25"
         style="fill:none;fill-opacity:0.99607843;fill-rule:evenodd;stroke:#23783f;stroke-width:1.32549584;stroke-linecap:round;stroke-linejoin:round;stroke-miterlimit:4;stroke-dasharray:none;stroke-opacity:0.99607843" />
      <path
         transform="matrix(1.3363088,0,0,1.336885,-138.98476,225.71828)"
         style="display:inline;fill:none;fill-opacity:0.99607843;fill-rule:evenodd;stroke:#23783f;stroke-width:1.32549584;stroke-linecap:butt;stroke-linejoin:miter;stroke-miterlimit:4;stroke-dasharray:none;stroke-opacity:0.99607843"
         d="m 352.23214,193.25506 c 2.5136,-0.69709 4.90884,-1.81891 7.05358,-3.30357 1.33763,-0.92595 2.60295,-2.0216 3.40889,-3.43478 0.36367,-0.63769 0.62943,-1.3325 1.05258,-1.93237 0.21157,-0.29994 0.46324,-0.57523 0.76524,-0.78385 0.302,-0.20862 0.6567,-0.34851 1.02329,-0.36686 0.43509,-0.0218 0.87003,0.13011 1.22228,0.38642 0.35225,0.25632 0.6249,0.61233 0.81883,1.00242 0.38786,0.78018 0.4642,1.67251 0.54817,2.53973 0.34142,3.52595 0.91744,7.03586 1.875,10.44643 0.64658,2.30294 1.46573,4.55637 2.05357,6.875 0.72246,2.8496 1.09438,5.79256 2.05357,8.57143 0.7192,2.08359 1.75827,4.04346 2.51949,6.11206 0.76121,2.06861 1.24184,4.32107 0.78409,6.47723 -0.24003,1.13064 -0.7329,2.21013 -0.82384,3.36238 -0.0455,0.57613 0.0146,1.16967 0.2501,1.69744 0.23548,0.52777 0.65866,0.9845 1.19874,1.19018 0.29316,0.11164 0.61349,0.14754 0.92542,0.11427 0.31193,-0.0333 0.61532,-0.13486 0.88983,-0.28669 0.54902,-0.30366 0.9737,-0.80205 1.26407,-1.3582 0.58074,-1.11232 0.64142,-2.41049 0.84925,-3.64796 0.79212,-4.71638 3.77654,-8.71137 6.16071,-12.85714 1.69902,-2.95439 3.12074,-6.05784 4.64286,-9.10714 1.08224,-2.16809 2.21606,-4.31032 3.39286,-6.42857 1.51366,-2.72459 3.09976,-5.41203 4.46428,-8.21429 1.45177,-2.98143 2.65366,-6.09423 4.375,-8.92857 0.55672,-0.91669 1.16805,-1.8048 1.62089,-2.77701 0.45283,-0.97222 0.74372,-2.05156 0.61125,-3.11585 -0.11225,-0.90184 -0.52263,-1.75845 -0.5363,-2.66715 -0.007,-0.45435 0.0934,-0.92187 0.35727,-1.29181 0.13194,-0.18496 0.30366,-0.34284 0.50426,-0.44953 0.20059,-0.10669 0.43028,-0.16104 0.65692,-0.14508 0.26646,0.0188 0.52153,0.13414 0.72764,0.30406 0.2061,0.16993 0.36507,0.39238 0.48177,0.63267 0.23339,0.48057 0.29937,1.02197 0.38642,1.54908 0.19329,1.17044 0.50731,2.32494 0.99345,3.40705 0.62043,1.38103 1.52499,2.63997 2.67244,3.62766 1.14746,0.98768 2.53966,1.69912 4.02399,1.99734 1.71749,0.34506 3.49441,0.13667 5.22545,-0.13235 1.73103,-0.26902 3.47238,-0.59881 5.22098,-0.49265 3.0902,0.1876 5.91336,1.70626 8.75,2.94643 3.93576,1.72071 8.08461,2.95334 12.32143,3.66071"
         id="path8473"
         inkscape:connector-curvature="0" />
    </g>
  </g>
</svg>
