<?xml version="1.0" encoding="UTF-8" standalone="no"?>
<!-- Created with Inkscape (http://www.inkscape.org/) -->

<svg
   xmlns:dc="http://purl.org/dc/elements/1.1/"
   xmlns:cc="http://creativecommons.org/ns#"
   xmlns:rdf="http://www.w3.org/1999/02/22-rdf-syntax-ns#"
   xmlns:svg="http://www.w3.org/2000/svg"
   xmlns="http://www.w3.org/2000/svg"
   xmlns:sodipodi="http://sodipodi.sourceforge.net/DTD/sodipodi-0.dtd"
   xmlns:inkscape="http://www.inkscape.org/namespaces/inkscape"
   width="118.30241mm"
   height="37.783047mm"
   viewBox="0 0 419.18171 133.87693"
   id="svg6331"
   version="1.1"
   inkscape:version="0.91 r"
   sodipodi:docname="readymake-Chess.svg">
  <defs
     id="defs6333">
    <inkscape:path-effect
       effect="spiro"
       id="path-effect4149"
       is_visible="true" />
    <inkscape:path-effect
       effect="spiro"
       id="path-effect4153"
       is_visible="true" />
    <inkscape:path-effect
       effect="spiro"
       id="path-effect4157"
       is_visible="true" />
    <inkscape:path-effect
       effect="spiro"
       id="path-effect4161"
       is_visible="true" />
    <inkscape:path-effect
       effect="spiro"
       id="path-effect4165"
       is_visible="true" />
    <inkscape:path-effect
       effect="spiro"
       id="path-effect4169"
       is_visible="true" />
    <inkscape:path-effect
       effect="spiro"
       id="path-effect4173"
       is_visible="true" />
    <inkscape:path-effect
       effect="spiro"
       id="path-effect4177"
       is_visible="true" />
    <inkscape:path-effect
       effect="spiro"
       id="path-effect4181"
       is_visible="true" />
    <inkscape:path-effect
       effect="spiro"
       id="path-effect4185"
       is_visible="true" />
    <inkscape:path-effect
       effect="spiro"
       id="path-effect4189"
       is_visible="true" />
    <inkscape:path-effect
       effect="spiro"
       id="path-effect4193"
       is_visible="true" />
    <inkscape:path-effect
       effect="spiro"
       id="path-effect4197"
       is_visible="true" />
    <inkscape:path-effect
       effect="spiro"
       id="path-effect4201"
       is_visible="true" />
    <inkscape:path-effect
       effect="spiro"
       id="path-effect4205"
       is_visible="true" />
    <inkscape:path-effect
       effect="spiro"
       id="path-effect4217"
       is_visible="true" />
    <inkscape:path-effect
       effect="spiro"
       id="path-effect4221"
       is_visible="true" />
    <inkscape:path-effect
       effect="spiro"
       id="path-effect4225"
       is_visible="true" />
    <inkscape:path-effect
       effect="spiro"
       id="path-effect4229"
       is_visible="true" />
    <inkscape:path-effect
       effect="spiro"
       id="path-effect4233"
       is_visible="true" />
    <inkscape:path-effect
       effect="spiro"
       id="path-effect4237"
       is_visible="true" />
    <inkscape:path-effect
       effect="spiro"
       id="path-effect4241"
       is_visible="true" />
    <inkscape:path-effect
       effect="spiro"
       id="path-effect4245"
       is_visible="true" />
    <inkscape:path-effect
       effect="spiro"
       id="path-effect4249"
       is_visible="true" />
    <inkscape:path-effect
       effect="spiro"
       id="path-effect4253"
       is_visible="true" />
    <inkscape:path-effect
       effect="spiro"
       id="path-effect4257"
       is_visible="true" />
    <inkscape:path-effect
       effect="spiro"
       id="path-effect4261"
       is_visible="true" />
    <inkscape:path-effect
       effect="spiro"
       id="path-effect4265"
       is_visible="true" />
    <inkscape:path-effect
       effect="spiro"
       id="path-effect4269"
       is_visible="true" />
    <inkscape:path-effect
       effect="spiro"
       id="path-effect4273"
       is_visible="true" />
    <inkscape:path-effect
       effect="spiro"
       id="path-effect4277"
       is_visible="true" />
    <inkscape:path-effect
       effect="spiro"
       id="path-effect4281"
       is_visible="true" />
    <inkscape:path-effect
       effect="spiro"
       id="path-effect4285"
       is_visible="true" />
    <inkscape:path-effect
       effect="spiro"
       id="path-effect4289"
       is_visible="true" />
    <inkscape:path-effect
       effect="spiro"
       id="path-effect4293"
       is_visible="true" />
    <inkscape:path-effect
       effect="spiro"
       id="path-effect4297"
       is_visible="true" />
    <inkscape:path-effect
       effect="spiro"
       id="path-effect4301"
       is_visible="true" />
    <inkscape:path-effect
       effect="spiro"
       id="path-effect4305"
       is_visible="true" />
    <inkscape:path-effect
       effect="spiro"
       id="path-effect4309"
       is_visible="true" />
    <inkscape:path-effect
       effect="spiro"
       id="path-effect4313"
       is_visible="true" />
    <inkscape:path-effect
       effect="spiro"
       id="path-effect4317"
       is_visible="true" />
    <inkscape:path-effect
       effect="spiro"
       id="path-effect4321"
       is_visible="true" />
    <inkscape:path-effect
       effect="spiro"
       id="path-effect4325"
       is_visible="true" />
    <inkscape:path-effect
       effect="spiro"
       id="path-effect4329"
       is_visible="true" />
    <inkscape:path-effect
       effect="spiro"
       id="path-effect4333"
       is_visible="true" />
    <inkscape:path-effect
       effect="spiro"
       id="path-effect4337"
       is_visible="true" />
    <clipPath
       clipPathUnits="userSpaceOnUse"
       id="clipPath4370">
      <rect
         style="color:#000000;clip-rule:nonzero;display:inline;overflow:visible;visibility:visible;opacity:1;isolation:auto;mix-blend-mode:normal;color-interpolation:sRGB;color-interpolation-filters:linearRGB;solid-color:#000000;solid-opacity:1;fill:none;fill-opacity:1;fill-rule:nonzero;stroke:#ff0000;stroke-width:0.793989;stroke-linecap:round;stroke-linejoin:round;stroke-miterlimit:4;stroke-dasharray:none;stroke-dashoffset:0;stroke-opacity:1;color-rendering:auto;image-rendering:auto;shape-rendering:auto;text-rendering:auto;enable-background:accumulate"
         id="rect4372"
         width="295.71429"
         height="362.85715"
         x="33.57143"
         y="22.058485"
         transform="matrix(2.1427919,0,0,2.3235318,-140.83773,2.5344403)" />
    </clipPath>
    <inkscape:path-effect
       effect="spiro"
       id="path-effect9099-9"
       is_visible="true" />
    <inkscape:path-effect
       effect="spiro"
       id="path-effect9103-9"
       is_visible="true" />
    <inkscape:path-effect
       effect="spiro"
       id="path-effect9107-4"
       is_visible="true" />
    <inkscape:path-effect
       effect="spiro"
       id="path-effect9111-1"
       is_visible="true" />
    <inkscape:path-effect
       effect="spiro"
       id="path-effect9115-6"
       is_visible="true" />
    <inkscape:path-effect
       effect="spiro"
       id="path-effect9119-3"
       is_visible="true" />
    <inkscape:path-effect
       effect="spiro"
       id="path-effect9123-5"
       is_visible="true" />
    <inkscape:path-effect
       effect="spiro"
       id="path-effect9127-0"
       is_visible="true" />
    <inkscape:path-effect
       effect="spiro"
       id="path-effect9131-0"
       is_visible="true" />
    <inkscape:path-effect
       effect="spiro"
       id="path-effect9135-1"
       is_visible="true" />
    <inkscape:path-effect
       effect="spiro"
       id="path-effect9139-3"
       is_visible="true" />
    <inkscape:path-effect
       effect="spiro"
       id="path-effect9143-8"
       is_visible="true" />
    <inkscape:path-effect
       effect="spiro"
       id="path-effect9147-6"
       is_visible="true" />
    <inkscape:path-effect
       effect="spiro"
       id="path-effect9151-4"
       is_visible="true" />
    <inkscape:path-effect
       effect="spiro"
       id="path-effect9155-3"
       is_visible="true" />
    <inkscape:path-effect
       effect="spiro"
       id="path-effect9159-2"
       is_visible="true" />
    <inkscape:path-effect
       effect="spiro"
       id="path-effect9163-5"
       is_visible="true" />
    <inkscape:path-effect
       effect="spiro"
       id="path-effect9167-8"
       is_visible="true" />
    <inkscape:path-effect
       effect="spiro"
       id="path-effect9171-2"
       is_visible="true" />
    <inkscape:path-effect
       effect="spiro"
       id="path-effect9175-0"
       is_visible="true" />
    <inkscape:path-effect
       effect="spiro"
       id="path-effect9179-3"
       is_visible="true" />
    <inkscape:path-effect
       effect="spiro"
       id="path-effect9183-2"
       is_visible="true" />
    <inkscape:path-effect
       effect="spiro"
       id="path-effect9187-9"
       is_visible="true" />
    <inkscape:path-effect
       effect="spiro"
       id="path-effect9195-7"
       is_visible="true" />
    <inkscape:path-effect
       effect="spiro"
       id="path-effect9199-8"
       is_visible="true" />
    <inkscape:path-effect
       effect="spiro"
       id="path-effect9203-1"
       is_visible="true" />
    <inkscape:path-effect
       effect="spiro"
       id="path-effect5621"
       is_visible="true" />
    <inkscape:path-effect
       is_visible="true"
       id="path-effect5637"
       effect="spiro" />
    <inkscape:path-effect
       effect="spiro"
       id="path-effect7793"
       is_visible="true" />
    <inkscape:path-effect
       effect="spiro"
       id="path-effect7797"
       is_visible="true" />
    <inkscape:path-effect
       effect="spiro"
       id="path-effect7801"
       is_visible="true" />
    <inkscape:path-effect
       effect="spiro"
       id="path-effect7805"
       is_visible="true" />
    <inkscape:path-effect
       effect="spiro"
       id="path-effect7809"
       is_visible="true" />
    <inkscape:path-effect
       effect="spiro"
       id="path-effect7813"
       is_visible="true" />
    <inkscape:path-effect
       effect="spiro"
       id="path-effect7817"
       is_visible="true" />
    <inkscape:path-effect
       effect="spiro"
       id="path-effect7821"
       is_visible="true" />
    <inkscape:path-effect
       effect="spiro"
       id="path-effect7825"
       is_visible="true" />
    <inkscape:path-effect
       effect="spiro"
       id="path-effect7829"
       is_visible="true" />
    <inkscape:path-effect
       effect="spiro"
       id="path-effect7833"
       is_visible="true" />
    <inkscape:path-effect
       effect="spiro"
       id="path-effect7837"
       is_visible="true" />
    <inkscape:path-effect
       effect="spiro"
       id="path-effect7841"
       is_visible="true" />
    <inkscape:path-effect
       effect="spiro"
       id="path-effect7845"
       is_visible="true" />
    <inkscape:path-effect
       effect="spiro"
       id="path-effect7849"
       is_visible="true" />
    <inkscape:path-effect
       effect="spiro"
       id="path-effect7853"
       is_visible="true" />
    <inkscape:path-effect
       effect="spiro"
       id="path-effect7857"
       is_visible="true" />
    <inkscape:path-effect
       effect="spiro"
       id="path-effect7861"
       is_visible="true" />
    <inkscape:path-effect
       effect="spiro"
       id="path-effect7865"
       is_visible="true" />
    <inkscape:path-effect
       effect="spiro"
       id="path-effect7869"
       is_visible="true" />
    <inkscape:path-effect
       effect="spiro"
       id="path-effect7873"
       is_visible="true" />
    <inkscape:path-effect
       effect="spiro"
       id="path-effect7877"
       is_visible="true" />
    <inkscape:path-effect
       effect="spiro"
       id="path-effect7881"
       is_visible="true" />
    <inkscape:path-effect
       effect="spiro"
       id="path-effect7885"
       is_visible="true" />
    <inkscape:path-effect
       effect="spiro"
       id="path-effect7889"
       is_visible="true" />
    <inkscape:path-effect
       effect="spiro"
       id="path-effect7893"
       is_visible="true" />
    <inkscape:path-effect
       effect="spiro"
       id="path-effect7897"
       is_visible="true" />
    <inkscape:path-effect
       effect="spiro"
       id="path-effect7901"
       is_visible="true" />
    <inkscape:path-effect
       effect="spiro"
       id="path-effect7905"
       is_visible="true" />
    <inkscape:path-effect
       effect="spiro"
       id="path-effect7909"
       is_visible="true" />
    <inkscape:path-effect
       effect="spiro"
       id="path-effect7913"
       is_visible="true" />
    <inkscape:path-effect
       effect="spiro"
       id="path-effect7917"
       is_visible="true" />
    <inkscape:path-effect
       effect="spiro"
       id="path-effect7921"
       is_visible="true" />
    <inkscape:path-effect
       effect="spiro"
       id="path-effect7925"
       is_visible="true" />
    <inkscape:path-effect
       effect="spiro"
       id="path-effect7929"
       is_visible="true" />
    <inkscape:path-effect
       effect="spiro"
       id="path-effect7933"
       is_visible="true" />
    <inkscape:path-effect
       effect="spiro"
       id="path-effect7937"
       is_visible="true" />
    <inkscape:path-effect
       effect="spiro"
       id="path-effect7945"
       is_visible="true" />
    <inkscape:path-effect
       effect="spiro"
       id="path-effect7949"
       is_visible="true" />
    <inkscape:path-effect
       effect="spiro"
       id="path-effect7953"
       is_visible="true" />
    <inkscape:path-effect
       effect="spiro"
       id="path-effect7957"
       is_visible="true" />
    <inkscape:path-effect
       effect="spiro"
       id="path-effect7961"
       is_visible="true" />
    <inkscape:path-effect
       effect="spiro"
       id="path-effect7965"
       is_visible="true" />
    <inkscape:path-effect
       effect="spiro"
       id="path-effect7969"
       is_visible="true" />
    <inkscape:path-effect
       effect="spiro"
       id="path-effect7973"
       is_visible="true" />
    <inkscape:path-effect
       effect="spiro"
       id="path-effect7977"
       is_visible="true" />
    <inkscape:path-effect
       effect="spiro"
       id="path-effect7981"
       is_visible="true" />
    <inkscape:path-effect
       effect="spiro"
       id="path-effect7985"
       is_visible="true" />
    <inkscape:path-effect
       effect="spiro"
       id="path-effect7989"
       is_visible="true" />
    <inkscape:path-effect
       effect="spiro"
       id="path-effect7993"
       is_visible="true" />
    <inkscape:path-effect
       effect="spiro"
       id="path-effect7997"
       is_visible="true" />
    <inkscape:path-effect
       effect="spiro"
       id="path-effect8001"
       is_visible="true" />
    <inkscape:path-effect
       effect="spiro"
       id="path-effect8005"
       is_visible="true" />
    <inkscape:path-effect
       effect="spiro"
       id="path-effect8009"
       is_visible="true" />
    <inkscape:path-effect
       effect="spiro"
       id="path-effect8013"
       is_visible="true" />
    <inkscape:path-effect
       effect="spiro"
       id="path-effect8017"
       is_visible="true" />
    <inkscape:path-effect
       effect="spiro"
       id="path-effect8021"
       is_visible="true" />
    <inkscape:path-effect
       effect="spiro"
       id="path-effect8029"
       is_visible="true" />
    <inkscape:path-effect
       effect="spiro"
       id="path-effect8033"
       is_visible="true" />
    <inkscape:path-effect
       effect="spiro"
       id="path-effect8052"
       is_visible="true" />
    <inkscape:path-effect
       effect="spiro"
       id="path-effect8056"
       is_visible="true" />
    <inkscape:path-effect
       effect="spiro"
       id="path-effect8060"
       is_visible="true" />
    <inkscape:path-effect
       effect="spiro"
       id="path-effect8064"
       is_visible="true" />
    <inkscape:path-effect
       effect="spiro"
       id="path-effect8076"
       is_visible="true" />
    <inkscape:path-effect
       effect="spiro"
       id="path-effect8080"
       is_visible="true" />
    <inkscape:path-effect
       effect="spiro"
       id="path-effect8084"
       is_visible="true" />
    <inkscape:path-effect
       effect="spiro"
       id="path-effect7500"
       is_visible="true" />
    <inkscape:path-effect
       effect="spiro"
       id="path-effect7504"
       is_visible="true" />
    <inkscape:path-effect
       effect="spiro"
       id="path-effect7508"
       is_visible="true" />
    <inkscape:path-effect
       effect="spiro"
       id="path-effect7512"
       is_visible="true" />
    <inkscape:path-effect
       effect="spiro"
       id="path-effect7516"
       is_visible="true" />
    <inkscape:path-effect
       effect="spiro"
       id="path-effect7520"
       is_visible="true" />
    <inkscape:path-effect
       effect="spiro"
       id="path-effect7528"
       is_visible="true" />
    <inkscape:path-effect
       effect="spiro"
       id="path-effect7532"
       is_visible="true" />
    <inkscape:path-effect
       effect="spiro"
       id="path-effect7536"
       is_visible="true" />
    <inkscape:path-effect
       effect="spiro"
       id="path-effect7540"
       is_visible="true" />
    <inkscape:path-effect
       effect="spiro"
       id="path-effect7544"
       is_visible="true" />
    <inkscape:path-effect
       effect="spiro"
       id="path-effect7548"
       is_visible="true" />
    <inkscape:path-effect
       effect="spiro"
       id="path-effect7552"
       is_visible="true" />
    <inkscape:path-effect
       effect="spiro"
       id="path-effect7556"
       is_visible="true" />
    <inkscape:path-effect
       effect="spiro"
       id="path-effect7560"
       is_visible="true" />
    <inkscape:path-effect
       effect="spiro"
       id="path-effect7564"
       is_visible="true" />
    <inkscape:path-effect
       effect="spiro"
       id="path-effect7568"
       is_visible="true" />
    <inkscape:path-effect
       effect="spiro"
       id="path-effect7572"
       is_visible="true" />
    <inkscape:path-effect
       effect="spiro"
       id="path-effect7576"
       is_visible="true" />
    <inkscape:path-effect
       effect="spiro"
       id="path-effect7580"
       is_visible="true" />
    <inkscape:path-effect
       effect="spiro"
       id="path-effect7584"
       is_visible="true" />
    <inkscape:path-effect
       effect="spiro"
       id="path-effect7588"
       is_visible="true" />
    <inkscape:path-effect
       effect="spiro"
       id="path-effect7592"
       is_visible="true" />
    <inkscape:path-effect
       effect="spiro"
       id="path-effect7596"
       is_visible="true" />
    <inkscape:path-effect
       effect="spiro"
       id="path-effect7600"
       is_visible="true" />
    <inkscape:path-effect
       effect="spiro"
       id="path-effect7604"
       is_visible="true" />
    <inkscape:path-effect
       effect="spiro"
       id="path-effect7608"
       is_visible="true" />
    <inkscape:path-effect
       effect="spiro"
       id="path-effect7612"
       is_visible="true" />
    <inkscape:path-effect
       effect="spiro"
       id="path-effect7616"
       is_visible="true" />
    <inkscape:path-effect
       effect="spiro"
       id="path-effect7632"
       is_visible="true" />
    <inkscape:path-effect
       effect="spiro"
       id="path-effect7636"
       is_visible="true" />
    <inkscape:path-effect
       effect="spiro"
       id="path-effect7655-4"
       is_visible="true" />
    <inkscape:path-effect
       effect="spiro"
       id="path-effect7659-5"
       is_visible="true" />
    <inkscape:path-effect
       effect="spiro"
       id="path-effect7699"
       is_visible="true" />
    <inkscape:path-effect
       is_visible="true"
       id="path-effect7711"
       effect="spiro" />
    <clipPath
       clipPathUnits="userSpaceOnUse"
       id="clipPath4920">
      <rect
         style="color:#000000;clip-rule:nonzero;display:inline;overflow:visible;visibility:visible;opacity:1;isolation:auto;mix-blend-mode:normal;color-interpolation:sRGB;color-interpolation-filters:linearRGB;solid-color:#000000;solid-opacity:1;fill:#23763f;fill-opacity:1;fill-rule:nonzero;stroke:#23763f;stroke-width:1.4155457;stroke-linecap:round;stroke-linejoin:round;stroke-miterlimit:4;stroke-dasharray:none;stroke-dashoffset:0;stroke-opacity:1;color-rendering:auto;image-rendering:auto;shape-rendering:auto;text-rendering:auto;enable-background:accumulate"
         id="rect4922"
         width="197.14285"
         height="271.42856"
         x="13.571428"
         y="-6.4923029"
         transform="matrix(1.2517794,0,0,1.2513592,-733.23565,790.97533)" />
    </clipPath>
    <inkscape:path-effect
       effect="spiro"
       id="path-effect9196-8"
       is_visible="true" />
    <inkscape:path-effect
       effect="spiro"
       id="path-effect9200-8"
       is_visible="true" />
    <inkscape:path-effect
       effect="spiro"
       id="path-effect9204-9"
       is_visible="true" />
    <inkscape:path-effect
       effect="spiro"
       id="path-effect9208-4"
       is_visible="true" />
    <inkscape:path-effect
       effect="spiro"
       id="path-effect9212-0"
       is_visible="true" />
    <inkscape:path-effect
       effect="spiro"
       id="path-effect9216-7"
       is_visible="true" />
    <inkscape:path-effect
       effect="spiro"
       id="path-effect9220-4"
       is_visible="true" />
    <inkscape:path-effect
       effect="spiro"
       id="path-effect9224-3"
       is_visible="true" />
    <inkscape:path-effect
       effect="spiro"
       id="path-effect9228-4"
       is_visible="true" />
    <inkscape:path-effect
       effect="spiro"
       id="path-effect9232-7"
       is_visible="true" />
    <inkscape:path-effect
       effect="spiro"
       id="path-effect9236-9"
       is_visible="true" />
    <inkscape:path-effect
       effect="spiro"
       id="path-effect9240-7"
       is_visible="true" />
    <inkscape:path-effect
       effect="spiro"
       id="path-effect9244-0"
       is_visible="true" />
    <inkscape:path-effect
       effect="spiro"
       id="path-effect9248-3"
       is_visible="true" />
    <inkscape:path-effect
       effect="spiro"
       id="path-effect9252-4"
       is_visible="true" />
    <inkscape:path-effect
       effect="spiro"
       id="path-effect9256-7"
       is_visible="true" />
    <inkscape:path-effect
       effect="spiro"
       id="path-effect9260-8"
       is_visible="true" />
    <inkscape:path-effect
       effect="spiro"
       id="path-effect9264-4"
       is_visible="true" />
    <inkscape:path-effect
       effect="spiro"
       id="path-effect9272-4"
       is_visible="true" />
    <inkscape:path-effect
       effect="spiro"
       id="path-effect9276-2"
       is_visible="true" />
    <inkscape:path-effect
       effect="spiro"
       id="path-effect9280-3"
       is_visible="true" />
    <inkscape:path-effect
       effect="spiro"
       id="path-effect9284-5"
       is_visible="true" />
    <inkscape:path-effect
       effect="spiro"
       id="path-effect9288-2"
       is_visible="true" />
    <inkscape:path-effect
       effect="spiro"
       id="path-effect9292-4"
       is_visible="true" />
    <inkscape:path-effect
       effect="spiro"
       id="path-effect9296-6"
       is_visible="true" />
    <inkscape:path-effect
       effect="spiro"
       id="path-effect9300-8"
       is_visible="true" />
    <inkscape:path-effect
       effect="spiro"
       id="path-effect9304-2"
       is_visible="true" />
    <inkscape:path-effect
       effect="spiro"
       id="path-effect9308-8"
       is_visible="true" />
    <inkscape:path-effect
       effect="spiro"
       id="path-effect9312-1"
       is_visible="true" />
    <inkscape:path-effect
       effect="spiro"
       id="path-effect9316-8"
       is_visible="true" />
    <inkscape:path-effect
       effect="spiro"
       id="path-effect9320-0"
       is_visible="true" />
    <inkscape:path-effect
       effect="spiro"
       id="path-effect9324-2"
       is_visible="true" />
    <inkscape:path-effect
       effect="spiro"
       id="path-effect9328-8"
       is_visible="true" />
    <inkscape:path-effect
       effect="spiro"
       id="path-effect9332-2"
       is_visible="true" />
    <inkscape:path-effect
       effect="spiro"
       id="path-effect9336-9"
       is_visible="true" />
    <inkscape:path-effect
       effect="spiro"
       id="path-effect9340-7"
       is_visible="true" />
    <inkscape:path-effect
       effect="spiro"
       id="path-effect9344-1"
       is_visible="true" />
    <inkscape:path-effect
       effect="spiro"
       id="path-effect9099-9-6"
       is_visible="true" />
    <inkscape:path-effect
       effect="spiro"
       id="path-effect9103-9-6"
       is_visible="true" />
    <inkscape:path-effect
       effect="spiro"
       id="path-effect9107-4-6"
       is_visible="true" />
    <inkscape:path-effect
       effect="spiro"
       id="path-effect9111-1-6"
       is_visible="true" />
    <inkscape:path-effect
       effect="spiro"
       id="path-effect9115-6-3"
       is_visible="true" />
    <inkscape:path-effect
       effect="spiro"
       id="path-effect9119-3-6"
       is_visible="true" />
    <inkscape:path-effect
       effect="spiro"
       id="path-effect9123-5-7"
       is_visible="true" />
    <inkscape:path-effect
       effect="spiro"
       id="path-effect9127-0-1"
       is_visible="true" />
    <inkscape:path-effect
       effect="spiro"
       id="path-effect9131-0-8"
       is_visible="true" />
    <inkscape:path-effect
       effect="spiro"
       id="path-effect9135-1-6"
       is_visible="true" />
    <inkscape:path-effect
       effect="spiro"
       id="path-effect9139-3-7"
       is_visible="true" />
    <inkscape:path-effect
       effect="spiro"
       id="path-effect9143-8-4"
       is_visible="true" />
    <inkscape:path-effect
       effect="spiro"
       id="path-effect9147-6-1"
       is_visible="true" />
    <inkscape:path-effect
       effect="spiro"
       id="path-effect9151-4-0"
       is_visible="true" />
    <inkscape:path-effect
       effect="spiro"
       id="path-effect9155-3-9"
       is_visible="true" />
    <inkscape:path-effect
       effect="spiro"
       id="path-effect9159-2-5"
       is_visible="true" />
    <inkscape:path-effect
       effect="spiro"
       id="path-effect9163-5-9"
       is_visible="true" />
    <inkscape:path-effect
       effect="spiro"
       id="path-effect9167-8-7"
       is_visible="true" />
    <inkscape:path-effect
       effect="spiro"
       id="path-effect9171-2-6"
       is_visible="true" />
    <inkscape:path-effect
       effect="spiro"
       id="path-effect9175-0-8"
       is_visible="true" />
    <inkscape:path-effect
       effect="spiro"
       id="path-effect9179-3-5"
       is_visible="true" />
    <inkscape:path-effect
       effect="spiro"
       id="path-effect9183-2-5"
       is_visible="true" />
    <inkscape:path-effect
       effect="spiro"
       id="path-effect9187-9-9"
       is_visible="true" />
    <inkscape:path-effect
       effect="spiro"
       id="path-effect9195-7-2"
       is_visible="true" />
    <inkscape:path-effect
       effect="spiro"
       id="path-effect9199-8-8"
       is_visible="true" />
    <inkscape:path-effect
       effect="spiro"
       id="path-effect9203-1-0"
       is_visible="true" />
    <inkscape:path-effect
       effect="spiro"
       id="path-effect5621-4"
       is_visible="true" />
    <inkscape:path-effect
       is_visible="true"
       id="path-effect5637-2"
       effect="spiro" />
  </defs>
  <sodipodi:namedview
     id="base"
     pagecolor="#ffffff"
     bordercolor="#666666"
     borderopacity="1.0"
     inkscape:pageopacity="0.0"
     inkscape:pageshadow="2"
     inkscape:zoom="1.4"
     inkscape:cx="150.23711"
     inkscape:cy="16.465182"
     inkscape:document-units="mm"
     inkscape:current-layer="layer1"
     showgrid="false"
     fit-margin-top="5"
     fit-margin-left="5"
     fit-margin-right="5"
     fit-margin-bottom="5" />
  <metadata
     id="metadata6336">
    <rdf:RDF>
      <cc:Work
         rdf:about="">
        <dc:format>image/svg+xml</dc:format>
        <dc:type
           rdf:resource="http://purl.org/dc/dcmitype/StillImage" />
        <dc:title></dc:title>
      </cc:Work>
    </rdf:RDF>
  </metadata>
  <g
     inkscape:label="Calque 1"
     inkscape:groupmode="layer"
     id="layer1"
     transform="translate(-167.95993,-402.45378)">
    <g
       transform="matrix(0.68251469,0,0,0.67958428,2759.3399,1339.1759)"
       id="g10315"
       style="stroke:#23773f;stroke-opacity:0.99607843">
      <path
         inkscape:connector-curvature="0"
         id="path10242"
         d="m -3763.2143,-1212.1021 2.1429,-53.2143 c 0,0 2.8571,-1.6071 -0.7143,-1.7857 -3.5715,-0.1786 -7.5,-0.3571 -7.5,-0.3571 l -0.2679,-29.4643 2.8572,-1.9643 1.3392,-1.5179 5.1786,-1.6071 0.4464,-1.1607 8.9286,0.1786 0.8036,4.375 1.7857,-0.4465 0.7143,-3.9285 16.6964,0.625 0.9822,3.6607 1.5178,-0.5357 0.5357,-3.2143 9.4643,0.4464 1.5179,28.125 c 0,0 -7.0536,4.7321 -8.0357,5.5357 -0.9822,0.8036 -0.8929,2.6786 -0.8929,2.6786 0,0 5.4464,50 5.8036,51.3393 0.3571,1.3393 -4.2857,4.5535 -8.8393,5.0893 -4.5536,0.5357 -18.0357,0.7142 -24.0179,0.089 -5.9821,-0.625 -10.4464,-2.9464 -10.4464,-2.9464 z"
         style="fill:none;fill-rule:evenodd;stroke:#23773f;stroke-width:2.60136414;stroke-linecap:round;stroke-linejoin:round;stroke-miterlimit:4;stroke-dasharray:none;stroke-opacity:0.99607843" />
      <path
         inkscape:connector-curvature="0"
         id="path10244"
         d="m -3765.6593,-1297.3789 c 2.0834,0 5.1139,0.1894 5.1139,0.1894 l 0.5051,5.2402 c 0,0 3.0304,0.3788 3.1567,0.1262 0.1263,-0.2525 0.5682,-5.1138 0.5682,-5.1138 0,0 14.2053,0.2525 14.2684,0.505 0.063,0.2526 0.8839,5.4927 0.8839,5.4927 l 3.1567,0 c 0,0 0.3788,-5.3664 1.3259,-5.4927 0.947,-0.1262 8.018,0.5051 8.018,0.5051 l 2.0835,-1.0733 c 0,0 -0.3157,6.1241 0.3788,5.8084 0.6945,-0.3157 1.4521,-0.1894 1.5152,-0.6314 0.063,-0.4419 -0.3788,-6.0609 0.063,-6.3134 0.4419,-0.2525 3.0935,-1.389 3.0935,-1.389 l 0.5683,5.4927 c 0,0 1.5783,0 1.3889,-0.4419 -0.1894,-0.4419 -0.3157,-5.6821 -0.3157,-5.6821 l 0.5683,-0.3157"
         style="fill:none;fill-rule:evenodd;stroke:#23773f;stroke-width:2.60136414;stroke-linecap:round;stroke-linejoin:round;stroke-miterlimit:4;stroke-dasharray:none;stroke-opacity:0.99607843" />
      <path
         inkscape:connector-curvature="0"
         id="path10246"
         d="m -3728.6607,-1293.7985 0.8035,26.4286 c 0,0 -10.8928,0.1785 -13.6607,-0.2679 -2.7678,-0.4464 -8.8393,-1.1607 -12.7678,-1.0714 -3.9286,0.089 -6.9643,0.5357 -6.9643,0.5357"
         style="fill:none;fill-rule:evenodd;stroke:#23773f;stroke-width:2.60136414;stroke-linecap:round;stroke-linejoin:round;stroke-miterlimit:4;stroke-dasharray:none;stroke-opacity:0.99607843" />
      <path
         sodipodi:nodetypes="czzzzzzzzzzzzzzzzzzzzzzzzzzzzzzzzzzzzzzzzc"
         inkscape:connector-curvature="0"
         id="path10248"
         d="m -3667.2322,-1218.5307 c 0.7143,-3.2142 1.5178,-2.5892 3.125,-4.9107 1.6072,-2.3215 10.8036,-13.3035 13.4822,-24.1964 2.6786,-10.8929 5.4464,-15.9821 4.6428,-27.5893 -0.8036,-11.6072 -1.0544,-21.602 -2.9464,-24.4643 -1.892,-2.8623 -7.6785,-0.2232 -9.6428,-3.2589 -1.9643,-3.0357 -1.4287,-4.8661 0.1785,-6.1161 1.6072,-1.25 -0.3688,-4.6829 1.7857,-5.5357 2.1545,-0.8528 2.21,-2.0804 2.1875,-3.9286 -0.023,-1.8482 2.3094,-1.6459 2.634,-2.7678 0.3246,-1.122 -1.7857,-2.4107 -0.625,-3.125 1.1607,-0.7143 2.4107,0.1786 2.5893,-1.25 0.1786,-1.4286 -1.6072,-15.7142 -4.5536,-19.1964 -2.9464,-3.4822 -0.625,-5.0001 1.25,-4.8215 1.875,0.1786 0.5357,1.6965 2.5893,2.2322 2.0536,0.5357 4.6428,1.0713 4.6428,2.0535 0,0.9821 -0.089,2.2323 0.625,1.7858 0.7142,-0.4465 0.8036,-1.6964 1.6072,-2.0536 0.8036,-0.3572 0.5357,-0.1786 2.5893,-0.8036 2.0536,-0.625 4.6344,0.6397 5.8928,-0.3571 1.2584,-0.9968 -1.2501,-3.2143 1.0714,-3.5715 2.3215,-0.3572 3.9286,-0.9821 4.7322,-0.2678 0.8036,0.7143 0.6249,4.6428 2.1428,4.1964 1.5179,-0.4464 0.7143,-0.8036 2.2322,-0.1786 1.5179,0.625 0.9821,1.9643 2.4107,1.9643 1.4286,0 0.9821,-2.9463 4.2857,-3.3035 3.3036,-0.3572 4.6429,0.4464 4.4643,1.0714 -0.1786,0.625 -7.6785,14.6428 -7.8571,18.4821 -0.1786,3.8393 2.1034,3.5438 2.3214,4.8215 0.218,1.2777 -0.8929,1.9642 -0.2679,2.4107 0.625,0.4465 2.5893,1.1607 1.9643,3.125 -0.625,1.9643 -0.4464,1.9642 1.5179,3.4821 1.9643,1.5179 2.5893,2.5 1.875,3.9286 -0.7143,1.4286 1.1607,1.6964 1.7857,4.375 0.625,2.6786 -0.5357,3.4375 -3.9286,5.0446 -3.3928,1.6071 -4.9655,-0.099 -6.3776,2.7806 -1.412,2.8791 -3.9795,13.8712 -3.9795,24.5855 0,10.7143 0.982,22.1429 5.8035,32.5893 4.8215,10.4464 9.9108,15.8036 12.2322,18.125 2.3214,2.3214 4.1964,6.5178 -2.6786,8.6607 -6.875,2.1429 -20.5356,4.0179 -29.6428,3.6607 -9.1072,-0.3572 -20.625,-2.5 -25,-4.9107"
         style="fill:none;fill-rule:evenodd;stroke:#23773f;stroke-width:2.60136414;stroke-linecap:round;stroke-linejoin:round;stroke-miterlimit:4;stroke-dasharray:none;stroke-opacity:0.99607843" />
      <path
         sodipodi:nodetypes="czc"
         inkscape:connector-curvature="0"
         id="path10250"
         d="m -3649.0498,-1320.2967 c 9.4702,1.3258 17.4251,0.6945 21.4657,0.3788 4.0406,-0.3157 5.9347,-0.5051 5.9347,-0.5051"
         style="fill:none;fill-rule:evenodd;stroke:#23773f;stroke-width:2.60136414;stroke-linecap:round;stroke-linejoin:round;stroke-miterlimit:4;stroke-dasharray:none;stroke-opacity:0.99607843" />
      <path
         sodipodi:nodetypes="czc"
         inkscape:connector-curvature="0"
         id="path10252"
         d="m -3650.5019,-1315.3722 c 8.6494,1.8309 9.8928,2.2265 14.7103,2.1466 4.8176,-0.08 13.8545,-1.1303 14.7104,-1.5153"
         style="fill:none;fill-rule:evenodd;stroke:#23773f;stroke-width:2.60136414;stroke-linecap:round;stroke-linejoin:round;stroke-miterlimit:4;stroke-dasharray:none;stroke-opacity:0.99607843" />
      <path
         inkscape:connector-curvature="0"
         id="path10254"
         d="m -3653.5324,-1309.3745 c 13.0058,1.4521 17.6777,1.7678 21.087,1.4521 3.4092,-0.3156 11.3011,-0.947 12.4375,-1.2626 1.1364,-0.3157 3.0304,-0.6945 3.0304,-0.6945"
         style="fill:none;fill-rule:evenodd;stroke:#23773f;stroke-width:2.60136414;stroke-linecap:round;stroke-linejoin:round;stroke-miterlimit:4;stroke-dasharray:none;stroke-opacity:0.99607843" />
      <path
         sodipodi:nodetypes="czc"
         inkscape:connector-curvature="0"
         id="path10256"
         d="m -3648.2922,-1325.095 c 3.3461,0.6945 8.3852,1.4379 12.3744,1.389 3.9892,-0.049 12.3477,-0.6297 12.3112,-0.6313"
         style="fill:none;fill-rule:evenodd;stroke:#23773f;stroke-width:2.60136414;stroke-linecap:round;stroke-linejoin:round;stroke-miterlimit:4;stroke-dasharray:none;stroke-opacity:0.99607843" />
      <path
         sodipodi:nodetypes="cccsccsccccccccccscccccscccccscssscscc"
         inkscape:connector-curvature="0"
         id="path10258"
         d="m -3562.5555,-1220.1654 c -0.6945,-2.0834 -0.5682,-3.283 1.0102,-4.1668 1.5783,-0.8839 9.6595,-12.6901 12.2481,-19.5086 2.5885,-6.8185 7.4498,-15.973 7.1342,-26.5165 -0.3157,-10.5435 -2.778,-24.2437 -2.778,-24.2437 0,0 -7.7655,-0.3788 -9.5964,-2.841 -1.8309,-2.4623 -2.6517,-4.2932 -1.2627,-5.7453 1.389,-1.4521 6.3766,-3.2198 7.3236,-3.1567 0.947,0.063 1.389,-0.1894 1.389,-0.1894 l -0.063,-0.8207 c 0,0 -4.6719,0.3156 -6.0609,-1.1365 -1.3889,-1.4521 -1.4521,-4.8613 -0.2525,-5.4927 1.1995,-0.6313 6.3134,-2.0203 6.3134,-2.0203 l -0.6313,-1.5783 c 0,0 -4.2932,-0.2526 -3.8512,-1.9572 0.4419,-1.7046 2.2728,-3.7881 2.7148,-4.1038 0.4419,-0.3156 -3.5356,-15.1522 -3.4724,-17.4251 0.063,-2.2728 2.2097,-6.2503 8.6494,-7.0079 6.4397,-0.7576 15.2154,-1.1364 20.2662,0.2525 5.0507,1.389 7.2605,4.2932 7.1973,8.7757 -0.063,4.4826 -2.841,14.7735 -2.9042,15.4048 -0.063,0.6314 3.4724,2.0835 3.0305,3.3462 -0.442,1.2627 -1.8941,3.3461 -2.9042,3.4724 -1.0102,0.1262 -2.5885,1.3889 -1.4521,1.894 1.1364,0.5051 4.23,-0.8839 5.4296,0.5682 1.1995,1.4521 1.5783,5.8084 0.3788,6.566 -1.1996,0.7576 -4.9245,-0.4419 -5.619,0.7576 -0.6945,1.1996 -1.3258,1.5784 1.7046,1.8941 3.0305,0.3156 7.1974,0.6313 7.7656,2.0203 0.5682,1.3889 2.0834,4.4194 -0.5051,5.9346 -2.5885,1.5152 -9.6596,2.6517 -10.6697,3.1567 -1.0102,0.5051 -1.7678,5.9978 -2.5254,11.0486 -0.7576,5.0507 0.4419,19.9505 2.0203,26.5796 1.5784,6.6291 7.4499,19.2561 11.6168,24.0543 4.1668,4.7982 7.1973,8.1443 7.2604,10.1015 0.063,1.9572 -0.2525,6.1241 -10.8591,7.5762 -10.6066,1.452 -20.7081,1.1364 -26.9585,0.3156 -6.2503,-0.8207 -15.5311,-2.2728 -16.92,-2.9042"
         style="fill:none;fill-rule:evenodd;stroke:#23773f;stroke-width:2.60136414;stroke-linecap:round;stroke-linejoin:round;stroke-miterlimit:4;stroke-dasharray:none;stroke-opacity:0.99607843" />
      <path
         sodipodi:nodetypes="ccssccccscccccccsccscssc"
         inkscape:connector-curvature="0"
         id="path10260"
         d="m -3454.6429,-1223.2628 c -0.2678,-1.6964 1.9643,-3.4821 2.8572,-4.2857 0.8928,-0.8036 9.5535,-11.25 10.8035,-15.8036 1.25,-4.5536 5.2679,-12.7678 4.6429,-21.0714 -0.625,-8.3036 -1.5179,-13.5714 -1.5179,-13.5714 0,0 -3.5714,-0.625 -4.5535,-1.5179 -0.9822,-0.8929 -2.2322,-4.375 -1.6072,-5 1.5052,-1.1819 2.9026,-2.5388 4.8215,-2.7679 0,0 -5.1786,-10.5357 -4.5536,-14.9107 0.625,-4.375 3.0357,-14.1964 9.1071,-15.8928 6.0715,-1.6965 12.5,-0.8929 12.5,-0.8929 l -8.6607,25.7143 2.6786,1.4286 10,-25.625 c 0,0 7.4107,4.9107 7.7678,9.8214 0.3572,4.9107 -4.2857,20.2679 -5.1785,20.8929 -0.8929,0.625 0.9193,0.832 2.8571,2.1428 0.6977,0.472 1.9643,3.3929 0.8036,4.8214 -1.1607,1.4286 -6.7857,3.0358 -6.7857,3.0358 0,0 -4.375,12.9464 -0.8036,25.8928 3.5714,12.9464 4.1071,17.8572 8.9286,22.3214 4.8214,4.4643 6.5178,7.2322 4.6428,9.1965 -1.875,1.9643 -14.0178,4.0178 -23.5714,3.4821 -9.5536,-0.5357 -21.5179,-3.8393 -23.6607,-4.9107"
         style="fill:none;fill-rule:evenodd;stroke:#23773f;stroke-width:2.60136414;stroke-linecap:round;stroke-linejoin:round;stroke-miterlimit:4;stroke-dasharray:none;stroke-opacity:0.99607843" />
      <path
         sodipodi:nodetypes="ccc"
         inkscape:connector-curvature="0"
         id="path10262"
         d="m -3437.8572,-1284.8699 c 5.7917,0.7646 10.275,2.0625 13.5786,1.7053 3.3035,-0.3571 8.475,-0.01 8.475,-0.01"
         style="fill:none;fill-rule:evenodd;stroke:#23773f;stroke-width:2.60136414;stroke-linecap:round;stroke-linejoin:round;stroke-miterlimit:4;stroke-dasharray:none;stroke-opacity:0.99607843" />
      <path
         inkscape:connector-curvature="0"
         id="path10264"
         d="m -3435.2679,-1277.2807 c 8.3929,0.625 8.6607,1.0715 11.1607,0.8036 2.5,-0.2678 3.3036,-0.7143 3.3036,-0.7143"
         style="fill:none;fill-rule:evenodd;stroke:#23773f;stroke-width:2.60136414;stroke-linecap:round;stroke-linejoin:round;stroke-miterlimit:4;stroke-dasharray:none;stroke-opacity:0.99607843" />
      <path
         inkscape:connector-curvature="0"
         id="path10266"
         d="m -3543.75,-1307.4592 c 5.8036,0.7143 14.9107,1.0714 17.5893,0.8035 2.6785,-0.2678 3.4821,-0.5357 3.4821,-0.5357"
         style="fill:none;fill-rule:evenodd;stroke:#23773f;stroke-width:2.60136414;stroke-linecap:round;stroke-linejoin:round;stroke-miterlimit:4;stroke-dasharray:none;stroke-opacity:0.99607843" />
      <path
         inkscape:connector-curvature="0"
         id="path10268"
         d="m -3542.9464,-1293.5307 c 7.5,0.089 10.8928,0.1786 14.2857,0.089 3.3928,-0.089 5.625,-0.3571 5.625,-0.3571"
         style="fill:none;fill-rule:evenodd;stroke:#23773f;stroke-width:2.60136414;stroke-linecap:round;stroke-linejoin:round;stroke-miterlimit:4;stroke-dasharray:none;stroke-opacity:0.99607843" />
      <path
         transform="translate(-0.12626907,0.50507627)"
         inkscape:connector-curvature="0"
         id="path10270"
         d="m -3545.1786,-1305.0485 c 2.3214,0.625 11.6072,1.6964 13.5714,1.6964 1.9643,0 8.5715,-0.1786 9.1072,-0.4464"
         style="fill:none;fill-rule:evenodd;stroke:#23773f;stroke-width:2.60136414;stroke-linecap:round;stroke-linejoin:round;stroke-miterlimit:4;stroke-dasharray:none;stroke-opacity:0.99607843" />
      <path
         inkscape:connector-curvature="0"
         id="path10272"
         d="m -3544.1072,-1314.7807 c 2.9465,0.4465 3.9286,1.7858 8.8393,1.0715 4.9107,-0.7143 10.0893,-0.7143 11.1607,-0.7143 1.0715,0 1.6072,-0.1786 1.6072,-0.1786"
         style="fill:none;fill-rule:evenodd;stroke:#23773f;stroke-width:2.60136414;stroke-linecap:round;stroke-linejoin:round;stroke-miterlimit:4;stroke-dasharray:none;stroke-opacity:0.99607843" />
      <path
         inkscape:connector-curvature="0"
         id="path10274"
         d="m -3545.8929,-1322.8164 c 6.1607,0.5357 16.5179,1.6965 18.6607,1.3393 2.1429,-0.3571 5.625,-0.7143 5.625,-0.7143"
         style="fill:none;fill-rule:evenodd;stroke:#23773f;stroke-width:2.60136414;stroke-linecap:round;stroke-linejoin:round;stroke-miterlimit:4;stroke-dasharray:none;stroke-opacity:0.99607843" />
      <path
         inkscape:connector-curvature="0"
         id="path10276"
         d="m -3348.3036,-1222.8164 c 0.625,-1.3393 6.6964,-1.0714 6.6964,-1.0714 l -0.089,-6.0714 -7.1429,-0.9822 -0.3571,-7.0535 1.6964,-0.625 -0.625,-5.7143 -1.1607,-1.6072 -0.1786,-6.1607 0.8929,-0.1786 0.9821,-5.7142 -1.6071,-0.8036 -0.3572,-7.2322 1.7857,-0.8928 0.3572,-5 -2.2322,-2.0536 1.0715,-6.5178 1.6964,-0.4465 2.3214,-6.5178 -1.5178,-1.6072 3.6607,-7.2321 2.4107,0.9821 4.4643,-4.375 -1.6965,-2.7678 4.2858,-3.6607 3.125,0.1785 0.7142,2.6786 5,-0.8036 -0.1785,-2.9464 4.9107,-0.7143 2.6786,-0.2678 0.7142,4.8214 11.6072,-0.625 c 0,0 1.9643,-3.125 2.7678,-2.5893 0.8036,0.5357 2.7679,2.6786 2.1429,4.5536 -0.625,1.875 -1.6071,2.2321 -1.6964,3.3035 -0.089,1.0715 2.3214,2.6786 1.7857,6.1608 -0.5357,3.4821 -0.089,3.4821 0.089,5.8928 0.1785,2.4107 1.0714,2.7679 0.7143,5.0893 -0.3572,2.3214 -0.8929,3.2143 -1.3393,4.8214 -0.4465,1.6072 -0.5357,6.7857 -1.3393,9.0179 -0.8036,2.2321 -3.6607,5.4464 -4.6429,6.9643 -0.9821,1.5178 -2.6785,4.5535 -2.6785,4.5535 0,0 2.9464,-0.089 -0.089,2.5893 -3.0357,2.6786 -5.3572,1.3393 -5.3572,1.3393 l -2.4107,2.5893 c 0,0 12.2322,9.5536 12.8572,10.8929 0.625,1.3392 5.4464,5.2678 5.3571,6.9642 -0.089,1.6965 -0.625,2.5893 -0.625,2.5893 l -6.6071,-0.089 -0.4465,5 7.6786,1.4286 c 0,0 1.25,0.1786 0.4464,1.4286 -0.8035,1.25 -5.0893,1.6071 -8.3035,1.0714 -3.2143,-0.5357 -18.5715,-0.089 -21.7858,-0.1786 -3.2142,-0.089 -7.9464,0.089 -11.7857,-0.3571 -3.8393,-0.4464 -7.2321,-1.0714 -7.2321,-1.0714"
         style="fill:none;fill-rule:evenodd;stroke:#23773f;stroke-width:2.60136414;stroke-linecap:round;stroke-linejoin:round;stroke-miterlimit:4;stroke-dasharray:none;stroke-opacity:0.99607843" />
      <path
         inkscape:connector-curvature="0"
         id="path10278"
         d="m -3323.907,-1256.2152 c -4.5456,-6.566 -6.4397,-13.0057 -6.6922,-16.1624 -0.2526,-3.1567 0.1263,-6.6923 1.894,-8.2075 1.7678,-1.5152 3.1567,-3.4093 6.0609,-2.1466 2.9042,1.2627 5.1771,4.0406 4.2932,6.566 -0.8839,2.5254 1.7678,7.1974 -3.0305,4.672 -4.7982,-2.5254 -5.6821,-3.6618 -4.7982,-4.5457 0.8839,-0.8839 1.1364,-2.7779 2.5254,-0.7576 1.3889,2.0203 3.0304,2.3991 1.2627,2.5254"
         style="fill:none;fill-rule:evenodd;stroke:#23773f;stroke-width:2.60136414;stroke-linecap:round;stroke-linejoin:round;stroke-miterlimit:4;stroke-dasharray:none;stroke-opacity:0.99607843" />
      <path
         inkscape:connector-curvature="0"
         id="path10280"
         d="m -3343.7312,-1264.1701 c 0.6313,-4.7982 2.1466,-15.6574 3.1567,-18.0565 1.0102,-2.3991 3.5356,-7.1973 5.8084,-9.0914 2.2728,-1.894 3.5355,-3.1567 6.566,-4.5457 3.0305,-1.3889 10.7329,-0.7576 12.3744,-1.1364 1.6415,-0.3788 4.6719,-0.3788 6.3134,-1.5152 1.6415,-1.1364 4.4194,-3.5355 5.0508,-3.9144"
         style="fill:none;fill-rule:evenodd;stroke:#23773f;stroke-width:2.60136414;stroke-linecap:round;stroke-linejoin:round;stroke-miterlimit:4;stroke-dasharray:none;stroke-opacity:0.99607843" />
      <path
         inkscape:connector-curvature="0"
         id="path10282"
         d="m -3316.8359,-1294.0959 c 1.2627,0.1263 5.9347,3.7881 6.8185,5.0508 0.8839,1.2627 2.5254,1.7677 3.5356,1.6415 1.0101,-0.1263 1.894,-0.2526 3.5355,-0.6314 1.6415,-0.3788 2.0203,-0.6313 2.0203,-0.6313"
         style="fill:none;fill-rule:evenodd;stroke:#23773f;stroke-width:2.60136414;stroke-linecap:round;stroke-linejoin:round;stroke-miterlimit:4;stroke-dasharray:none;stroke-opacity:0.99607843" />
      <path
         inkscape:connector-curvature="0"
         id="path10284"
         d="m -3325.2959,-1291.318 c 5.4296,-0.1262 7.9549,0.8839 9.3439,1.7678 1.389,0.8839 4.1669,2.5254 5.177,4.7982 1.0102,2.2729 2.2729,5.6821 1.8941,8.46 -0.3788,2.778 -2.2729,6.4398 -3.9144,7.955 -1.6415,1.5152 -0.1262,1.894 -3.4092,2.6516 -3.283,0.7577 -3.6618,1.8941 -5.9347,1.389 -2.2728,-0.5051 -3.6618,-1.0101 -3.6618,-1.0101"
         style="fill:none;fill-rule:evenodd;stroke:#23773f;stroke-width:2.60136414;stroke-linecap:round;stroke-linejoin:round;stroke-miterlimit:4;stroke-dasharray:none;stroke-opacity:0.99607843" />
      <path
         inkscape:connector-curvature="0"
         id="path10286"
         d="m -3324.1964,-1260.0039 c 0.4017,-1.5178 1.741,-3.3482 3.3928,-3.2143 1.6518,0.134 3.3036,0.3125 3.75,1.8304 0.4464,1.5179 0.9375,4.1071 -0.3125,5.0446 -1.25,0.9375 -1.2946,1.3393 -2.9018,1.6072"
         style="fill:none;fill-rule:evenodd;stroke:#23773f;stroke-width:2.60136414;stroke-linecap:round;stroke-linejoin:round;stroke-miterlimit:4;stroke-dasharray:none;stroke-opacity:0.99607843" />
      <path
         inkscape:connector-curvature="0"
         id="path10288"
         d="m -3322.4107,-1259.2003 c 0.1339,-0.625 1.9643,-0.9375 2.366,-0.5804 0.4018,0.3572 1.384,1.0715 0.759,1.875 -0.625,0.8036 -0.5357,1.4286 -1.25,1.3393 -0.7143,-0.089 -1.5179,-0.2678 -1.8304,-0.9375"
         style="fill:none;fill-rule:evenodd;stroke:#23773f;stroke-width:2.60136414;stroke-linecap:round;stroke-linejoin:round;stroke-miterlimit:4;stroke-dasharray:none;stroke-opacity:0.99607843" />
      <path
         inkscape:connector-curvature="0"
         id="path10290"
         d="m -3301.5179,-1274.1557 c -2.6785,-1.3392 -3.3928,-0.8928 -4.0178,-2.9464 -0.625,-2.0536 -0.8036,-3.0357 0.2678,-3.9286 1.0715,-0.8928 2.0536,-0.8928 3.3036,-1.4285 1.25,-0.5357 1.875,-0.9822 1.875,-0.9822"
         style="fill:none;fill-rule:evenodd;stroke:#23773f;stroke-width:2.60136414;stroke-linecap:round;stroke-linejoin:round;stroke-miterlimit:4;stroke-dasharray:none;stroke-opacity:0.99607843" />
      <path
         sodipodi:nodetypes="ccsssccccccsccc"
         inkscape:connector-curvature="0"
         id="path10292"
         d="m -3243.3473,-1219.4709 c -8.9651,-1.0101 -13.2582,-1.0101 -13.637,-1.7677 -0.3789,-0.7577 1.6414,-3.7881 2.7779,-5.1771 1.1364,-1.3889 11.2379,-15.1523 12.5006,-18.309 1.2627,-3.1567 4.1669,-15.026 4.1669,-16.7938 0,-1.7677 1.0101,-17.4251 1.0101,-17.4251 l -6.566,-0.5051 c 0,0 1.7678,-14.1421 10.2278,-13.5108 8.4601,0.6314 13.0058,7.1974 12.3744,13.3846 l -6.4397,0.1262 c 0,0 -1.0102,17.804 1.7678,26.5165 2.7779,8.7126 2.3991,13.7634 8.5863,22.2234 6.1871,8.46 7.5761,11.4905 6.1871,11.743 -1.3889,0.2525 -21.8445,0.5051 -24.6224,0.2525 l -2.778,-0.2525"
         style="fill:none;fill-rule:evenodd;stroke:#23773f;stroke-width:2.60136414;stroke-linecap:round;stroke-linejoin:round;stroke-miterlimit:4;stroke-dasharray:none;stroke-opacity:0.99607843" />
      <path
         inkscape:connector-curvature="0"
         id="path10294"
         d="m -3235.2679,-1278.9771 c 3.5715,0.2679 6.2947,0.089 6.2947,0.089"
         style="fill:none;fill-rule:evenodd;stroke:#23773f;stroke-width:2.60136414;stroke-linecap:round;stroke-linejoin:round;stroke-miterlimit:4;stroke-dasharray:none;stroke-opacity:0.99607843" />
      <path
         inkscape:connector-curvature="0"
         id="path10296"
         d="m -3645.8929,-1299.6914 c 8.2143,1.6072 17.4107,0.8929 18.3036,0.8929"
         style="fill:none;fill-rule:evenodd;stroke:#23773f;stroke-width:2.60136414;stroke-linecap:round;stroke-linejoin:round;stroke-miterlimit:4;stroke-dasharray:none;stroke-opacity:0.99607843" />
    </g>
  </g>
</svg>
