<?xml version="1.0" encoding="UTF-8" standalone="no"?>
<!-- Created with Inkscape (http://www.inkscape.org/) -->

<svg
   xmlns:dc="http://purl.org/dc/elements/1.1/"
   xmlns:cc="http://creativecommons.org/ns#"
   xmlns:rdf="http://www.w3.org/1999/02/22-rdf-syntax-ns#"
   xmlns:svg="http://www.w3.org/2000/svg"
   xmlns="http://www.w3.org/2000/svg"
   xmlns:sodipodi="http://sodipodi.sourceforge.net/DTD/sodipodi-0.dtd"
   xmlns:inkscape="http://www.inkscape.org/namespaces/inkscape"
   width="58.162548mm"
   height="67.676315mm"
   viewBox="0 0 206.08775 239.79795"
   id="svg6331"
   version="1.1"
   inkscape:version="0.91 r"
   sodipodi:docname="sea-chair.svg">
  <defs
     id="defs6333">
    <inkscape:path-effect
       effect="spiro"
       id="path-effect4149"
       is_visible="true" />
    <inkscape:path-effect
       effect="spiro"
       id="path-effect4153"
       is_visible="true" />
    <inkscape:path-effect
       effect="spiro"
       id="path-effect4157"
       is_visible="true" />
    <inkscape:path-effect
       effect="spiro"
       id="path-effect4161"
       is_visible="true" />
    <inkscape:path-effect
       effect="spiro"
       id="path-effect4165"
       is_visible="true" />
    <inkscape:path-effect
       effect="spiro"
       id="path-effect4169"
       is_visible="true" />
    <inkscape:path-effect
       effect="spiro"
       id="path-effect4173"
       is_visible="true" />
    <inkscape:path-effect
       effect="spiro"
       id="path-effect4177"
       is_visible="true" />
    <inkscape:path-effect
       effect="spiro"
       id="path-effect4181"
       is_visible="true" />
    <inkscape:path-effect
       effect="spiro"
       id="path-effect4185"
       is_visible="true" />
    <inkscape:path-effect
       effect="spiro"
       id="path-effect4189"
       is_visible="true" />
    <inkscape:path-effect
       effect="spiro"
       id="path-effect4193"
       is_visible="true" />
    <inkscape:path-effect
       effect="spiro"
       id="path-effect4197"
       is_visible="true" />
    <inkscape:path-effect
       effect="spiro"
       id="path-effect4201"
       is_visible="true" />
    <inkscape:path-effect
       effect="spiro"
       id="path-effect4205"
       is_visible="true" />
    <inkscape:path-effect
       effect="spiro"
       id="path-effect4217"
       is_visible="true" />
    <inkscape:path-effect
       effect="spiro"
       id="path-effect4221"
       is_visible="true" />
    <inkscape:path-effect
       effect="spiro"
       id="path-effect4225"
       is_visible="true" />
    <inkscape:path-effect
       effect="spiro"
       id="path-effect4229"
       is_visible="true" />
    <inkscape:path-effect
       effect="spiro"
       id="path-effect4233"
       is_visible="true" />
    <inkscape:path-effect
       effect="spiro"
       id="path-effect4237"
       is_visible="true" />
    <inkscape:path-effect
       effect="spiro"
       id="path-effect4241"
       is_visible="true" />
    <inkscape:path-effect
       effect="spiro"
       id="path-effect4245"
       is_visible="true" />
    <inkscape:path-effect
       effect="spiro"
       id="path-effect4249"
       is_visible="true" />
    <inkscape:path-effect
       effect="spiro"
       id="path-effect4253"
       is_visible="true" />
    <inkscape:path-effect
       effect="spiro"
       id="path-effect4257"
       is_visible="true" />
    <inkscape:path-effect
       effect="spiro"
       id="path-effect4261"
       is_visible="true" />
    <inkscape:path-effect
       effect="spiro"
       id="path-effect4265"
       is_visible="true" />
    <inkscape:path-effect
       effect="spiro"
       id="path-effect4269"
       is_visible="true" />
    <inkscape:path-effect
       effect="spiro"
       id="path-effect4273"
       is_visible="true" />
    <inkscape:path-effect
       effect="spiro"
       id="path-effect4277"
       is_visible="true" />
    <inkscape:path-effect
       effect="spiro"
       id="path-effect4281"
       is_visible="true" />
    <inkscape:path-effect
       effect="spiro"
       id="path-effect4285"
       is_visible="true" />
    <inkscape:path-effect
       effect="spiro"
       id="path-effect4289"
       is_visible="true" />
    <inkscape:path-effect
       effect="spiro"
       id="path-effect4293"
       is_visible="true" />
    <inkscape:path-effect
       effect="spiro"
       id="path-effect4297"
       is_visible="true" />
    <inkscape:path-effect
       effect="spiro"
       id="path-effect4301"
       is_visible="true" />
    <inkscape:path-effect
       effect="spiro"
       id="path-effect4305"
       is_visible="true" />
    <inkscape:path-effect
       effect="spiro"
       id="path-effect4309"
       is_visible="true" />
    <inkscape:path-effect
       effect="spiro"
       id="path-effect4313"
       is_visible="true" />
    <inkscape:path-effect
       effect="spiro"
       id="path-effect4317"
       is_visible="true" />
    <inkscape:path-effect
       effect="spiro"
       id="path-effect4321"
       is_visible="true" />
    <inkscape:path-effect
       effect="spiro"
       id="path-effect4325"
       is_visible="true" />
    <inkscape:path-effect
       effect="spiro"
       id="path-effect4329"
       is_visible="true" />
    <inkscape:path-effect
       effect="spiro"
       id="path-effect4333"
       is_visible="true" />
    <inkscape:path-effect
       effect="spiro"
       id="path-effect4337"
       is_visible="true" />
    <clipPath
       clipPathUnits="userSpaceOnUse"
       id="clipPath4370">
      <rect
         style="color:#000000;clip-rule:nonzero;display:inline;overflow:visible;visibility:visible;opacity:1;isolation:auto;mix-blend-mode:normal;color-interpolation:sRGB;color-interpolation-filters:linearRGB;solid-color:#000000;solid-opacity:1;fill:none;fill-opacity:1;fill-rule:nonzero;stroke:#ff0000;stroke-width:0.793989;stroke-linecap:round;stroke-linejoin:round;stroke-miterlimit:4;stroke-dasharray:none;stroke-dashoffset:0;stroke-opacity:1;color-rendering:auto;image-rendering:auto;shape-rendering:auto;text-rendering:auto;enable-background:accumulate"
         id="rect4372"
         width="295.71429"
         height="362.85715"
         x="33.57143"
         y="22.058485"
         transform="matrix(2.1427919,0,0,2.3235318,-140.83773,2.5344403)" />
    </clipPath>
    <inkscape:path-effect
       effect="spiro"
       id="path-effect9099-9"
       is_visible="true" />
    <inkscape:path-effect
       effect="spiro"
       id="path-effect9103-9"
       is_visible="true" />
    <inkscape:path-effect
       effect="spiro"
       id="path-effect9107-4"
       is_visible="true" />
    <inkscape:path-effect
       effect="spiro"
       id="path-effect9111-1"
       is_visible="true" />
    <inkscape:path-effect
       effect="spiro"
       id="path-effect9115-6"
       is_visible="true" />
    <inkscape:path-effect
       effect="spiro"
       id="path-effect9119-3"
       is_visible="true" />
    <inkscape:path-effect
       effect="spiro"
       id="path-effect9123-5"
       is_visible="true" />
    <inkscape:path-effect
       effect="spiro"
       id="path-effect9127-0"
       is_visible="true" />
    <inkscape:path-effect
       effect="spiro"
       id="path-effect9131-0"
       is_visible="true" />
    <inkscape:path-effect
       effect="spiro"
       id="path-effect9135-1"
       is_visible="true" />
    <inkscape:path-effect
       effect="spiro"
       id="path-effect9139-3"
       is_visible="true" />
    <inkscape:path-effect
       effect="spiro"
       id="path-effect9143-8"
       is_visible="true" />
    <inkscape:path-effect
       effect="spiro"
       id="path-effect9147-6"
       is_visible="true" />
    <inkscape:path-effect
       effect="spiro"
       id="path-effect9151-4"
       is_visible="true" />
    <inkscape:path-effect
       effect="spiro"
       id="path-effect9155-3"
       is_visible="true" />
    <inkscape:path-effect
       effect="spiro"
       id="path-effect9159-2"
       is_visible="true" />
    <inkscape:path-effect
       effect="spiro"
       id="path-effect9163-5"
       is_visible="true" />
    <inkscape:path-effect
       effect="spiro"
       id="path-effect9167-8"
       is_visible="true" />
    <inkscape:path-effect
       effect="spiro"
       id="path-effect9171-2"
       is_visible="true" />
    <inkscape:path-effect
       effect="spiro"
       id="path-effect9175-0"
       is_visible="true" />
    <inkscape:path-effect
       effect="spiro"
       id="path-effect9179-3"
       is_visible="true" />
    <inkscape:path-effect
       effect="spiro"
       id="path-effect9183-2"
       is_visible="true" />
    <inkscape:path-effect
       effect="spiro"
       id="path-effect9187-9"
       is_visible="true" />
    <inkscape:path-effect
       effect="spiro"
       id="path-effect9195-7"
       is_visible="true" />
    <inkscape:path-effect
       effect="spiro"
       id="path-effect9199-8"
       is_visible="true" />
    <inkscape:path-effect
       effect="spiro"
       id="path-effect9203-1"
       is_visible="true" />
    <inkscape:path-effect
       effect="spiro"
       id="path-effect5621"
       is_visible="true" />
    <inkscape:path-effect
       is_visible="true"
       id="path-effect5637"
       effect="spiro" />
    <inkscape:path-effect
       effect="spiro"
       id="path-effect7793"
       is_visible="true" />
    <inkscape:path-effect
       effect="spiro"
       id="path-effect7797"
       is_visible="true" />
    <inkscape:path-effect
       effect="spiro"
       id="path-effect7801"
       is_visible="true" />
    <inkscape:path-effect
       effect="spiro"
       id="path-effect7805"
       is_visible="true" />
    <inkscape:path-effect
       effect="spiro"
       id="path-effect7809"
       is_visible="true" />
    <inkscape:path-effect
       effect="spiro"
       id="path-effect7813"
       is_visible="true" />
    <inkscape:path-effect
       effect="spiro"
       id="path-effect7817"
       is_visible="true" />
    <inkscape:path-effect
       effect="spiro"
       id="path-effect7821"
       is_visible="true" />
    <inkscape:path-effect
       effect="spiro"
       id="path-effect7825"
       is_visible="true" />
    <inkscape:path-effect
       effect="spiro"
       id="path-effect7829"
       is_visible="true" />
    <inkscape:path-effect
       effect="spiro"
       id="path-effect7833"
       is_visible="true" />
    <inkscape:path-effect
       effect="spiro"
       id="path-effect7837"
       is_visible="true" />
    <inkscape:path-effect
       effect="spiro"
       id="path-effect7841"
       is_visible="true" />
    <inkscape:path-effect
       effect="spiro"
       id="path-effect7845"
       is_visible="true" />
    <inkscape:path-effect
       effect="spiro"
       id="path-effect7849"
       is_visible="true" />
    <inkscape:path-effect
       effect="spiro"
       id="path-effect7853"
       is_visible="true" />
    <inkscape:path-effect
       effect="spiro"
       id="path-effect7857"
       is_visible="true" />
    <inkscape:path-effect
       effect="spiro"
       id="path-effect7861"
       is_visible="true" />
    <inkscape:path-effect
       effect="spiro"
       id="path-effect7865"
       is_visible="true" />
    <inkscape:path-effect
       effect="spiro"
       id="path-effect7869"
       is_visible="true" />
    <inkscape:path-effect
       effect="spiro"
       id="path-effect7873"
       is_visible="true" />
    <inkscape:path-effect
       effect="spiro"
       id="path-effect7877"
       is_visible="true" />
    <inkscape:path-effect
       effect="spiro"
       id="path-effect7881"
       is_visible="true" />
    <inkscape:path-effect
       effect="spiro"
       id="path-effect7885"
       is_visible="true" />
    <inkscape:path-effect
       effect="spiro"
       id="path-effect7889"
       is_visible="true" />
    <inkscape:path-effect
       effect="spiro"
       id="path-effect7893"
       is_visible="true" />
    <inkscape:path-effect
       effect="spiro"
       id="path-effect7897"
       is_visible="true" />
    <inkscape:path-effect
       effect="spiro"
       id="path-effect7901"
       is_visible="true" />
    <inkscape:path-effect
       effect="spiro"
       id="path-effect7905"
       is_visible="true" />
    <inkscape:path-effect
       effect="spiro"
       id="path-effect7909"
       is_visible="true" />
    <inkscape:path-effect
       effect="spiro"
       id="path-effect7913"
       is_visible="true" />
    <inkscape:path-effect
       effect="spiro"
       id="path-effect7917"
       is_visible="true" />
    <inkscape:path-effect
       effect="spiro"
       id="path-effect7921"
       is_visible="true" />
    <inkscape:path-effect
       effect="spiro"
       id="path-effect7925"
       is_visible="true" />
    <inkscape:path-effect
       effect="spiro"
       id="path-effect7929"
       is_visible="true" />
    <inkscape:path-effect
       effect="spiro"
       id="path-effect7933"
       is_visible="true" />
    <inkscape:path-effect
       effect="spiro"
       id="path-effect7937"
       is_visible="true" />
    <inkscape:path-effect
       effect="spiro"
       id="path-effect7945"
       is_visible="true" />
    <inkscape:path-effect
       effect="spiro"
       id="path-effect7949"
       is_visible="true" />
    <inkscape:path-effect
       effect="spiro"
       id="path-effect7953"
       is_visible="true" />
    <inkscape:path-effect
       effect="spiro"
       id="path-effect7957"
       is_visible="true" />
    <inkscape:path-effect
       effect="spiro"
       id="path-effect7961"
       is_visible="true" />
    <inkscape:path-effect
       effect="spiro"
       id="path-effect7965"
       is_visible="true" />
    <inkscape:path-effect
       effect="spiro"
       id="path-effect7969"
       is_visible="true" />
    <inkscape:path-effect
       effect="spiro"
       id="path-effect7973"
       is_visible="true" />
    <inkscape:path-effect
       effect="spiro"
       id="path-effect7977"
       is_visible="true" />
    <inkscape:path-effect
       effect="spiro"
       id="path-effect7981"
       is_visible="true" />
    <inkscape:path-effect
       effect="spiro"
       id="path-effect7985"
       is_visible="true" />
    <inkscape:path-effect
       effect="spiro"
       id="path-effect7989"
       is_visible="true" />
    <inkscape:path-effect
       effect="spiro"
       id="path-effect7993"
       is_visible="true" />
    <inkscape:path-effect
       effect="spiro"
       id="path-effect7997"
       is_visible="true" />
    <inkscape:path-effect
       effect="spiro"
       id="path-effect8001"
       is_visible="true" />
    <inkscape:path-effect
       effect="spiro"
       id="path-effect8005"
       is_visible="true" />
    <inkscape:path-effect
       effect="spiro"
       id="path-effect8009"
       is_visible="true" />
    <inkscape:path-effect
       effect="spiro"
       id="path-effect8013"
       is_visible="true" />
    <inkscape:path-effect
       effect="spiro"
       id="path-effect8017"
       is_visible="true" />
    <inkscape:path-effect
       effect="spiro"
       id="path-effect8021"
       is_visible="true" />
    <inkscape:path-effect
       effect="spiro"
       id="path-effect8029"
       is_visible="true" />
    <inkscape:path-effect
       effect="spiro"
       id="path-effect8033"
       is_visible="true" />
    <inkscape:path-effect
       effect="spiro"
       id="path-effect8052"
       is_visible="true" />
    <inkscape:path-effect
       effect="spiro"
       id="path-effect8056"
       is_visible="true" />
    <inkscape:path-effect
       effect="spiro"
       id="path-effect8060"
       is_visible="true" />
    <inkscape:path-effect
       effect="spiro"
       id="path-effect8064"
       is_visible="true" />
    <inkscape:path-effect
       effect="spiro"
       id="path-effect8076"
       is_visible="true" />
    <inkscape:path-effect
       effect="spiro"
       id="path-effect8080"
       is_visible="true" />
    <inkscape:path-effect
       effect="spiro"
       id="path-effect8084"
       is_visible="true" />
    <inkscape:path-effect
       effect="spiro"
       id="path-effect7500"
       is_visible="true" />
    <inkscape:path-effect
       effect="spiro"
       id="path-effect7504"
       is_visible="true" />
    <inkscape:path-effect
       effect="spiro"
       id="path-effect7508"
       is_visible="true" />
    <inkscape:path-effect
       effect="spiro"
       id="path-effect7512"
       is_visible="true" />
    <inkscape:path-effect
       effect="spiro"
       id="path-effect7516"
       is_visible="true" />
    <inkscape:path-effect
       effect="spiro"
       id="path-effect7520"
       is_visible="true" />
    <inkscape:path-effect
       effect="spiro"
       id="path-effect7528"
       is_visible="true" />
    <inkscape:path-effect
       effect="spiro"
       id="path-effect7532"
       is_visible="true" />
    <inkscape:path-effect
       effect="spiro"
       id="path-effect7536"
       is_visible="true" />
    <inkscape:path-effect
       effect="spiro"
       id="path-effect7540"
       is_visible="true" />
    <inkscape:path-effect
       effect="spiro"
       id="path-effect7544"
       is_visible="true" />
    <inkscape:path-effect
       effect="spiro"
       id="path-effect7548"
       is_visible="true" />
    <inkscape:path-effect
       effect="spiro"
       id="path-effect7552"
       is_visible="true" />
    <inkscape:path-effect
       effect="spiro"
       id="path-effect7556"
       is_visible="true" />
    <inkscape:path-effect
       effect="spiro"
       id="path-effect7560"
       is_visible="true" />
    <inkscape:path-effect
       effect="spiro"
       id="path-effect7564"
       is_visible="true" />
    <inkscape:path-effect
       effect="spiro"
       id="path-effect7568"
       is_visible="true" />
    <inkscape:path-effect
       effect="spiro"
       id="path-effect7572"
       is_visible="true" />
    <inkscape:path-effect
       effect="spiro"
       id="path-effect7576"
       is_visible="true" />
    <inkscape:path-effect
       effect="spiro"
       id="path-effect7580"
       is_visible="true" />
    <inkscape:path-effect
       effect="spiro"
       id="path-effect7584"
       is_visible="true" />
    <inkscape:path-effect
       effect="spiro"
       id="path-effect7588"
       is_visible="true" />
    <inkscape:path-effect
       effect="spiro"
       id="path-effect7592"
       is_visible="true" />
    <inkscape:path-effect
       effect="spiro"
       id="path-effect7596"
       is_visible="true" />
    <inkscape:path-effect
       effect="spiro"
       id="path-effect7600"
       is_visible="true" />
    <inkscape:path-effect
       effect="spiro"
       id="path-effect7604"
       is_visible="true" />
    <inkscape:path-effect
       effect="spiro"
       id="path-effect7608"
       is_visible="true" />
    <inkscape:path-effect
       effect="spiro"
       id="path-effect7612"
       is_visible="true" />
    <inkscape:path-effect
       effect="spiro"
       id="path-effect7616"
       is_visible="true" />
    <inkscape:path-effect
       effect="spiro"
       id="path-effect7632"
       is_visible="true" />
    <inkscape:path-effect
       effect="spiro"
       id="path-effect7636"
       is_visible="true" />
    <inkscape:path-effect
       effect="spiro"
       id="path-effect7655-4"
       is_visible="true" />
    <inkscape:path-effect
       effect="spiro"
       id="path-effect7659-5"
       is_visible="true" />
    <inkscape:path-effect
       effect="spiro"
       id="path-effect7699"
       is_visible="true" />
    <inkscape:path-effect
       is_visible="true"
       id="path-effect7711"
       effect="spiro" />
    <clipPath
       clipPathUnits="userSpaceOnUse"
       id="clipPath4920">
      <rect
         style="color:#000000;clip-rule:nonzero;display:inline;overflow:visible;visibility:visible;opacity:1;isolation:auto;mix-blend-mode:normal;color-interpolation:sRGB;color-interpolation-filters:linearRGB;solid-color:#000000;solid-opacity:1;fill:#23763f;fill-opacity:1;fill-rule:nonzero;stroke:#23763f;stroke-width:1.4155457;stroke-linecap:round;stroke-linejoin:round;stroke-miterlimit:4;stroke-dasharray:none;stroke-dashoffset:0;stroke-opacity:1;color-rendering:auto;image-rendering:auto;shape-rendering:auto;text-rendering:auto;enable-background:accumulate"
         id="rect4922"
         width="197.14285"
         height="271.42856"
         x="13.571428"
         y="-6.4923029"
         transform="matrix(1.2517794,0,0,1.2513592,-733.23565,790.97533)" />
    </clipPath>
    <inkscape:path-effect
       effect="spiro"
       id="path-effect9196-8"
       is_visible="true" />
    <inkscape:path-effect
       effect="spiro"
       id="path-effect9200-8"
       is_visible="true" />
    <inkscape:path-effect
       effect="spiro"
       id="path-effect9204-9"
       is_visible="true" />
    <inkscape:path-effect
       effect="spiro"
       id="path-effect9208-4"
       is_visible="true" />
    <inkscape:path-effect
       effect="spiro"
       id="path-effect9212-0"
       is_visible="true" />
    <inkscape:path-effect
       effect="spiro"
       id="path-effect9216-7"
       is_visible="true" />
    <inkscape:path-effect
       effect="spiro"
       id="path-effect9220-4"
       is_visible="true" />
    <inkscape:path-effect
       effect="spiro"
       id="path-effect9224-3"
       is_visible="true" />
    <inkscape:path-effect
       effect="spiro"
       id="path-effect9228-4"
       is_visible="true" />
    <inkscape:path-effect
       effect="spiro"
       id="path-effect9232-7"
       is_visible="true" />
    <inkscape:path-effect
       effect="spiro"
       id="path-effect9236-9"
       is_visible="true" />
    <inkscape:path-effect
       effect="spiro"
       id="path-effect9240-7"
       is_visible="true" />
    <inkscape:path-effect
       effect="spiro"
       id="path-effect9244-0"
       is_visible="true" />
    <inkscape:path-effect
       effect="spiro"
       id="path-effect9248-3"
       is_visible="true" />
    <inkscape:path-effect
       effect="spiro"
       id="path-effect9252-4"
       is_visible="true" />
    <inkscape:path-effect
       effect="spiro"
       id="path-effect9256-7"
       is_visible="true" />
    <inkscape:path-effect
       effect="spiro"
       id="path-effect9260-8"
       is_visible="true" />
    <inkscape:path-effect
       effect="spiro"
       id="path-effect9264-4"
       is_visible="true" />
    <inkscape:path-effect
       effect="spiro"
       id="path-effect9272-4"
       is_visible="true" />
    <inkscape:path-effect
       effect="spiro"
       id="path-effect9276-2"
       is_visible="true" />
    <inkscape:path-effect
       effect="spiro"
       id="path-effect9280-3"
       is_visible="true" />
    <inkscape:path-effect
       effect="spiro"
       id="path-effect9284-5"
       is_visible="true" />
    <inkscape:path-effect
       effect="spiro"
       id="path-effect9288-2"
       is_visible="true" />
    <inkscape:path-effect
       effect="spiro"
       id="path-effect9292-4"
       is_visible="true" />
    <inkscape:path-effect
       effect="spiro"
       id="path-effect9296-6"
       is_visible="true" />
    <inkscape:path-effect
       effect="spiro"
       id="path-effect9300-8"
       is_visible="true" />
    <inkscape:path-effect
       effect="spiro"
       id="path-effect9304-2"
       is_visible="true" />
    <inkscape:path-effect
       effect="spiro"
       id="path-effect9308-8"
       is_visible="true" />
    <inkscape:path-effect
       effect="spiro"
       id="path-effect9312-1"
       is_visible="true" />
    <inkscape:path-effect
       effect="spiro"
       id="path-effect9316-8"
       is_visible="true" />
    <inkscape:path-effect
       effect="spiro"
       id="path-effect9320-0"
       is_visible="true" />
    <inkscape:path-effect
       effect="spiro"
       id="path-effect9324-2"
       is_visible="true" />
    <inkscape:path-effect
       effect="spiro"
       id="path-effect9328-8"
       is_visible="true" />
    <inkscape:path-effect
       effect="spiro"
       id="path-effect9332-2"
       is_visible="true" />
    <inkscape:path-effect
       effect="spiro"
       id="path-effect9336-9"
       is_visible="true" />
    <inkscape:path-effect
       effect="spiro"
       id="path-effect9340-7"
       is_visible="true" />
    <inkscape:path-effect
       effect="spiro"
       id="path-effect9344-1"
       is_visible="true" />
  </defs>
  <sodipodi:namedview
     id="base"
     pagecolor="#ffffff"
     bordercolor="#666666"
     borderopacity="1.0"
     inkscape:pageopacity="0.0"
     inkscape:pageshadow="2"
     inkscape:zoom="1.4"
     inkscape:cx="409.00496"
     inkscape:cy="15.554761"
     inkscape:document-units="mm"
     inkscape:current-layer="layer1"
     showgrid="false"
     fit-margin-top="5"
     fit-margin-left="5"
     fit-margin-right="5"
     fit-margin-bottom="5" />
  <metadata
     id="metadata6336">
    <rdf:RDF>
      <cc:Work
         rdf:about="">
        <dc:format>image/svg+xml</dc:format>
        <dc:type
           rdf:resource="http://purl.org/dc/dcmitype/StillImage" />
        <dc:title></dc:title>
      </cc:Work>
    </rdf:RDF>
  </metadata>
  <g
     inkscape:label="Calque 1"
     inkscape:groupmode="layer"
     id="layer1"
     transform="translate(-221.05053,-350.64679)">
    <g
       transform="matrix(0.34953478,0,0,0.34999149,1118.7635,156.65425)"
       id="g8947">
      <path
         sodipodi:nodetypes="aaaaaaaaaaaaaaaaaaaaaaaaaaaaaaaaaaaaaaaaaaaaaaaaaaaaaaaaaaaaaaaaaaaaaaaaaaaaaaaaaaaaaaaaaaaaaaaaaaaaaaaaaaaaaaaaaaaaaaaaaaaaaaaaaaaaaaaaaaaaaaaaaaaaaaaa"
         inkscape:connector-curvature="0"
         id="path8515"
         d="m -2350.625,625.32022 c 2.5439,2.24574 6.8361,-0.33963 10.1015,-1.26269 2.9364,-0.83005 5.5336,-2.57563 8.3338,-3.78808 1.4202,-0.61493 2.9183,-1.05727 4.2932,-1.76776 3.3611,-1.73688 6.1997,-4.39471 9.5964,-6.06092 1.7692,-0.86784 3.5885,-1.90703 5.5558,-2.0203 1.8142,-0.10446 3.5248,0.88958 5.3033,1.26269 0.9211,0.19325 1.8399,0.58082 2.778,0.50507 2.76,-0.22285 5.353,-1.53753 7.8286,-2.77792 0.8141,-0.4079 1.3963,-1.26884 2.2729,-1.51523 2.0276,-0.5699 4.431,-0.69214 6.3134,0.25254 2.0328,1.02015 2.2274,4.35181 4.2932,5.3033 2.83,1.30347 6.289,-0.86517 9.3439,-0.25253 1.8102,0.36301 3.2498,2.67885 5.0508,2.27284 2.1555,-0.48593 2.084,-5.09544 4.2931,-5.05076 2.4581,0.0497 3.3532,3.65839 4.5457,5.80837 0.4779,0.86163 0.3492,2.04728 1.0102,2.77792 1.6924,1.87059 4.296,3.30182 6.8185,3.283 1.694,-0.0126 2.8559,-2.15276 4.5457,-2.27285 3.1863,-0.22644 6.0718,1.98814 9.0913,3.03046 1.1829,0.40834 2.4781,0.59348 3.5356,1.26269 1.5089,0.9549 2.1326,3.11848 3.788,3.78808 4.6829,1.89418 10.101,-0.29461 15.1523,-0.25254 2.5267,0.021 5.0524,0.12996 7.5762,0.25254 3.9598,0.19233 8.0419,-0.27573 11.8693,0.75761 2.1807,0.58875 3.8738,2.46584 6.0609,3.03046 3.9157,1.01089 8.0921,0.16344 12.1218,0.50507 3.298,0.2796 6.5483,1.01593 9.849,1.26269 3.8624,0.28876 7.7531,-0.018 11.6168,0.25254 4.9892,0.34938 10.1908,0.0824 14.8997,1.76777 2.3525,0.84196 3.8929,3.42133 6.3135,4.04061 5.9673,1.52663 12.2762,-1.33642 18.4352,-1.26269 4.5648,0.0547 9.1073,0.69595 13.6371,1.26269 4.8201,0.60305 9.609,1.43946 14.3947,2.27284 3.5457,0.61746 7.0759,1.32197 10.6066,2.02031 3.2877,0.65027 6.8692,0.48655 9.849,2.0203 1.4299,0.73601 2.1632,2.44435 3.5355,3.283 2.5222,1.54142 5.5105,2.15506 8.3338,3.03046 2.5741,0.79814 5.2675,1.18142 7.8286,2.0203 3.0156,0.98774 6.2383,1.71717 8.8389,3.53554 2.687,1.87878 4.4707,4.80184 6.566,7.3236 0.8823,1.06191 2.4923,1.90275 2.5254,3.283 0.057,2.35786 -2.6595,3.89658 -4.0407,5.80837 -1.2324,1.70585 -2.4992,3.38711 -3.788,5.05077 -1.3204,1.70442 -2.0974,4.11679 -4.0406,5.05076 -1.745,0.83871 -4.2697,-1.17522 -5.8084,0 -1.5255,1.16518 -0.023,4.34878 -1.5152,5.55584 -2.36,1.90853 -6.1018,-0.0188 -9.0914,0.50507 -0.8657,0.1517 -1.7203,0.40521 -2.5254,0.75762 -1.9706,0.86254 -4.1421,1.66166 -5.5558,3.283 -1.8597,2.13284 -0.9267,6.26172 -3.283,7.82868 -3.1543,2.09765 -7.6911,-0.92608 -11.3643,0 -2.4103,0.60769 -4.4757,2.19015 -6.5659,3.53553 -2.2227,1.43065 -3.9039,3.71164 -6.3135,4.79823 -0.7826,0.35289 -1.7134,0.22647 -2.5254,0.50507 -2.8487,0.9774 -5.0935,3.66131 -8.0812,4.04061 -2.3913,0.30359 -4.6665,-1.68426 -7.0711,-1.51523 -2.6832,0.18861 -5.1686,1.57848 -7.5761,2.77792 -2.7797,1.38483 -4.9588,3.86426 -7.8287,5.05077 -2.2277,0.92098 -4.6929,1.12142 -7.0711,1.51522 -4.2647,0.70618 -8.582,1.04761 -12.8794,1.51523 -2.5231,0.27455 -5.0387,0.70427 -7.5761,0.75762 -4.3836,0.0922 -8.7492,-0.6313 -13.132,-0.75762 -1.5988,-0.0461 -3.2057,-0.14801 -4.7983,0 -4.0934,0.38044 -8.1361,3.28031 -12.1218,2.27285 -2.205,-0.55738 -3.0624,-3.90405 -5.3033,-4.29315 -1.7574,-0.30516 -3.2923,1.46892 -5.0508,1.76777 -3.7345,0.63466 -7.5777,-0.1081 -11.3642,0 -2.9499,0.0842 -5.9094,0.14823 -8.8388,0.50507 -4.0808,0.49709 -8.06,1.63878 -12.1218,2.27284 -2.6822,0.4187 -5.3701,1.14916 -8.0813,1.01016 -1.1216,-0.0575 -2.1607,-0.71286 -3.2829,-0.75762 -4.5917,-0.18314 -9.0419,1.98693 -13.6371,2.02031 -2.5477,0.0185 -5.0573,-0.62797 -7.5762,-1.01015 -3.9679,-0.60202 -7.8651,-1.74906 -11.8692,-2.02031 -5.042,-0.34156 -10.571,2.63813 -15.1523,0.50508 -1.3587,-0.63262 -1.3887,-2.97315 -2.778,-3.53554 -1.7325,-0.70133 -3.6874,0.70709 -5.5558,0.75762 -4.137,0.11189 -8.3531,-1.98817 -12.3744,-1.01016 -1.5433,0.37534 -2.4531,2.47405 -4.0406,2.52539 -3.7267,0.12053 -6.1564,-4.7856 -9.849,-5.3033 -2.7307,-0.38285 -5.3563,1.34522 -8.0812,1.76776 -4.5112,0.69955 -9.6062,-0.8805 -13.637,1.26269 -1.0564,0.56169 -1.0831,2.65234 -2.2729,2.77792 -2.1441,0.2263 -2.9087,-3.79467 -5.0507,-4.04061 -2.1322,-0.24482 -3.7826,2.06938 -5.8084,2.77792 -2.1202,0.74156 -4.3474,1.86601 -6.566,1.51523 -1.2727,-0.20122 -2.0446,-1.7711 -3.3146,-1.98874 -1.1431,-0.1959 -2.2502,0.65436 -3.4092,0.69448 -1.761,0.061 -4.0726,-2.01406 -5.2402,-0.69448 -0.4233,0.47834 1.0096,1.49603 0.4811,1.85476 -2.9601,2.00934 -5.1741,-5.53761 -8.6607,-6.33929 -2.5943,-0.59651 -5.2054,1.66102 -7.8572,1.42858 -1.7073,-0.14964 -3.137,-1.46976 -4.8214,-1.78572 -1.8138,-0.34023 -3.7173,0.22539 -5.5357,-0.0893 -1.9197,-0.33221 -3.6013,-1.64315 -5.5357,-1.875 -2.0172,-0.24178 -4.0457,0.69154 -6.0714,0.53571 -2.1088,-0.16223 -4.0562,-1.3087 -6.1608,-1.51786 -2.0454,-0.20328 -4.106,0.32656 -6.1607,0.26786 -3.2592,-0.0931 -6.4722,-0.91993 -9.7321,-0.98214 -1.4311,-0.0273 -2.8769,0.52115 -4.2857,0.26785 -2.5965,-0.46685 -4.8897,-2.00096 -7.2322,-3.21428 -1.5999,-0.82866 -2.9349,-2.19404 -4.6428,-2.76786 -2.2993,-0.77249 -4.9926,0.12798 -7.2322,-0.80357 -1.4463,-0.60158 -2.2716,-2.22254 -3.6607,-2.94643 -1.5118,-0.78783 -3.294,-0.88775 -4.9107,-1.42857 -1.7508,-0.58569 -5.5114,-0.14833 -5.1786,-1.96429 0.1288,-0.7026 1.9788,0.69519 2.1429,0 0.688,-2.91462 -5.191,-3.08172 -8.0357,-4.01785 -0.66,-0.21719 -1.3642,-0.27037 -2.0536,-0.35715 -1.5106,-0.19017 -3.2518,0.43248 -4.5536,-0.35714 -1.2003,-0.72807 -1.2895,-2.53109 -2.2321,-3.57143 -0.8834,-0.97493 -1.8734,-2.00542 -3.125,-2.41071 -1.8413,-0.59624 -3.9015,0.53639 -5.8036,0.17857 -1.7167,-0.32295 -3.2286,-1.33641 -4.8214,-2.05357 -1.2018,-0.54108 -2.5809,-0.827 -3.5714,-1.69643 -1.2781,-1.12187 -1.9347,-2.80322 -2.7679,-4.28571 -1.0044,-1.78698 -2.2206,-3.53763 -2.6786,-5.53572 -0.2992,-1.30543 0.3719,-2.73124 0,-4.01786 -0.6351,-2.19727 -3.6545,-3.51636 -3.6607,-5.80357 -0.01,-2.41969 3.9502,-3.74355 3.8393,-6.16071 -0.05,-1.08222 -1.6189,-1.56248 -1.9643,-2.58929 -0.465,-1.38222 -0.3999,-2.97256 0,-4.375 0.2785,-0.97691 0.9558,-1.80975 1.6072,-2.58928 1.0539,-1.26128 2.2522,-2.45644 3.6607,-3.30357 1.1941,-0.71815 2.65,-0.87441 3.9285,-1.42858 2.1738,-0.94226 4.0518,-2.59757 6.3393,-3.21428 2.5042,-0.67511 5.1825,-0.24109 7.7679,-0.44643 2.0576,-0.16342 4.2703,0.20376 6.1607,-0.625 1.6026,-0.7026 2.3223,-2.78792 3.9286,-3.48214 0.6035,-0.26083 1.3597,0.0796 1.9643,-0.17857 1.1252,-0.48051 1.6323,-1.95506 2.7678,-2.41072 2.9587,-1.1873 6.4156,0.11608 9.5536,-0.44643 1.3527,-0.24247 2.5893,-0.9422 3.9286,-1.25 2.2274,-0.5119 4.5352,-0.58375 6.7857,-0.98214 1.8565,-0.32865 3.6678,-0.90494 5.5357,-1.16071 1.8025,-0.24682 3.6473,-0.0866 5.4464,-0.35715 1.7847,-0.26832 3.5777,-0.61726 5.2679,-1.25 1.2592,-0.4714 2.3006,-1.43573 3.5714,-1.875 2.1738,-0.7514 4.4993,-1.00043 6.7857,-1.25 2.5164,-0.27467 5.0582,-0.30474 7.5893,-0.26785 3.6977,0.0539 7.3947,1.11231 11.0714,0.71428 2.2476,-0.24333 4.341,-1.26507 6.5179,-1.875 1.307,-0.36621 2.5778,-0.93822 3.9286,-1.07143 1.2767,-0.1259 2.5564,0.28192 3.8392,0.26786 2.9288,-0.0321 5.8211,-0.82377 8.75,-0.80357 3.1125,0.0215 6.1739,1.04387 9.2858,0.98214 2.6764,-0.0531 5.2893,-0.83544 7.9464,-1.16071 2.7014,-0.3307 5.4338,-0.39824 8.125,-0.80357 1.922,-0.28948 3.7709,-1.12874 5.7143,-1.16072 1.6297,-0.0268 3.7693,-0.42975 4.8214,0.81516 z"
         style="display:inline;fill:none;fill-rule:evenodd;stroke:#23763f;stroke-width:5.0652957;stroke-linecap:round;stroke-linejoin:round;stroke-miterlimit:4;stroke-dasharray:none;stroke-opacity:1"
         transform="translate(2.0249943e-5,6.3648736e-7)" />
      <path
         inkscape:connector-curvature="0"
         id="path8517"
         d="m -2506.6071,654.14792 c 1.6071,2.85714 7.5,1.60714 8.2142,6.07143 0.7143,4.46428 2.1429,8.92857 8.75,9.82143 6.6072,0.89285 21.9643,5.17857 28.2143,6.42857 6.25,1.25 12.6786,2.67857 24.6429,4.10714 11.9643,1.42857 21.9643,-0.35714 30.7143,1.25 8.75,1.60714 22.1428,4.28571 30.7143,5.71429 8.5714,1.42857 15.5357,6.78571 29.1071,6.07142 13.5714,-0.71428 35,-2.14285 41.9643,-1.07142 6.9643,1.07142 9.2857,2.14285 14.4643,1.60714 5.1785,-0.53572 16.6071,2.85714 22.6785,2.85714 6.0715,0 13.5715,0.89286 22.5,0.71429 8.9286,-0.17857 18.5715,-1.78572 28.9286,-1.25 10.3572,0.53571 8.0357,1.60714 21.25,-0.35715 13.2143,-1.96428 36.7857,-0.35714 42.8572,-1.60714 6.0714,-1.25 4.8214,-0.71428 15.7142,-1.07143 10.8929,-0.35714 16.7858,2.14286 23.9286,-0.17857 7.1429,-2.32143 1.9643,-2.5 13.9286,-3.75 11.9643,-1.25 17.3214,-0.53571 23.5714,-1.78571 6.25,-1.25 8.5714,-1.96429 11.9643,-2.67857 3.3929,-0.71429 13.5714,-4.82143 12.8571,-4.82143 -0.7142,0 -10.5357,-3.75 -4.6428,-3.03572 5.8928,0.71429 10.5357,0.89286 11.4286,-0.71428 0.8928,-1.60715 3.2142,-2.32143 0.8928,-3.39286 -2.3214,-1.07143 -9.2857,-1.60714 -6.4286,-3.21429 2.8572,-1.60714 6.9643,-1.60714 7.1429,-2.32142 0.1786,-0.71429 -5.1786,-0.71429 -3.0357,-2.32143 2.1428,-1.60715 4.8214,-2.32143 4.8214,-2.32143 l 2.1429,-0.53572"
         style="display:inline;fill:none;fill-rule:evenodd;stroke:#23763f;stroke-width:5.0652957;stroke-linecap:round;stroke-linejoin:round;stroke-miterlimit:4;stroke-dasharray:none;stroke-opacity:1"
         transform="translate(2.0249943e-5,6.3648736e-7)" />
      <path
         inkscape:connector-curvature="0"
         id="path8519"
         d="m -2490.1523,1183.682 c 5.8084,0.1263 13.0057,1.6415 15.5311,0.7577 2.5254,-0.8839 9.7227,0.8838 12.7532,1.1364 3.0304,0.2525 7.3236,1.5152 6.6922,-0.2526 -0.6313,-1.7677 0.7576,-2.5253 0.7576,-5.3033 0,-2.7779 0.1263,-8.46 1.1365,-10.354 1.0101,-1.8941 3.5355,-4.672 2.7779,-7.7024 -0.7576,-3.0305 1.1364,-10.4804 1.1364,-11.6168 0,-1.1364 2.7779,-7.0711 2.7779,-9.0914 0,-2.0203 -0.505,-4.7982 0.2526,-6.4397 0.7576,-1.6415 3.4092,-4.0406 3.1567,-9.4702 -0.2525,-5.4295 -1.2627,-3.0304 0.1263,-7.3236 1.3889,-4.2931 1.7677,-5.8084 2.6516,-8.8388 0.8839,-3.0305 1.389,-4.1669 1.1364,-7.7024 -0.2525,-3.5356 4.1669,-12.8795 4.4195,-15.9099 0.2525,-3.0305 0.7576,-3.9144 1.1364,-7.4499 0.3788,-3.5355 3.788,-11.743 3.9143,-14.8998 0.1263,-3.1567 2.3991,-7.1973 2.1466,-9.9752 -0.2525,-2.7779 -0.3788,-3.5355 0.3788,-6.9448 0.7576,-3.4093 3.283,-8.8388 3.0305,-10.7329 -0.2526,-1.894 0.8838,-4.7982 1.1364,-7.1973 0.2525,-2.3991 1.3889,-6.3135 2.1466,-8.3338 0.7576,-2.0203 0.7576,-4.7982 1.5152,-7.071 0.7576,-2.2729 1.0101,-5.6822 0.7576,-7.955 -0.2525,-2.2728 3.0305,-10.10152 3.4093,-11.99556 0.3788,-1.89403 0.8838,-5.93464 1.0101,-7.70241 0.1263,-1.76777 1.1364,-1.26269 0.6314,-4.41942 -0.5051,-3.15672 -0.6314,-2.0203 0.505,-4.54568 1.1365,-2.52539 2.778,-4.29315 2.6517,-6.06092 -0.1263,-1.76777 -0.5051,-4.79822 -0.2526,-6.31345 0.2526,-1.51523 1.6415,-4.79823 1.7678,-5.42957 0.1263,-0.63135 3.6618,-2.27285 2.9042,-5.80838 -0.7576,-3.53553 -0.7576,-8.08122 0.1263,-10.22779 0.8839,-2.14658 1.7677,-2.65166 2.0203,-6.31346 0.2525,-3.6618 0.3788,-6.06091 0.6313,-8.20749 0.2526,-2.14657 0.8839,-2.0203 1.6415,-5.93464 0.7576,-3.91434 1.7678,-6.69226 1.6415,-7.82869 -0.1263,-1.13642 0.5051,-1.76776 0,-4.79822 -0.5051,-3.03046 1.2627,-2.77792 1.389,-4.67196 0.1262,-1.89403 0.2525,-2.14657 1.6415,-5.42957 1.3889,-3.28299 2.0203,-4.92449 2.0203,-7.82868 0,-2.90419 -0.7576,-6.18718 0.7576,-9.59645 1.5152,-3.40926 4.0406,-12.75317 4.2931,-15.9099 0.2526,-3.15673 -0.2525,-3.91434 0.8839,-7.32361 1.1364,-3.40926 1.7678,-3.53553 1.6415,-6.69226 -0.1262,-3.15672 -0.2525,-5.42957 0.6314,-7.95495 0.8839,-2.52538 1.1364,-4.54568 1.894,-6.81853 0.7576,-2.27284 3.4093,-14.89975 3.7881,-17.5514 0.3788,-2.65165 0.8839,-5.93464 1.1364,-7.95495 0.2525,-2.0203 0.8839,-4.79822 1.0102,-8.08122 0.1262,-3.283 0.1262,-3.40926 0.7576,-7.07107 0.6313,-3.6618 1.5152,-8.33376 2.2728,-9.97525 0.7576,-1.6415 1.7678,-5.17704 1.894,-6.43973 0.1263,-1.26269 -0.3788,-5.80837 0.5051,-6.31345 0.8839,-0.50508 0.5051,-0.75761 -0.2525,-2.27284 -0.7576,-1.51523 -2.5254,-0.12627 -2.0203,-3.91434 0.5051,-3.78808 1.1364,-7.44988 1.5152,-9.34392 0.3788,-1.89403 1.7678,-5.6821 1.894,-6.18718 0.1263,-0.50508 1.7678,-2.27284 1.7678,-4.04061 0,-1.76777 -0.2525,-3.91434 -0.3788,-5.55584 -0.1263,-1.6415 1.5152,-4.04061 1.0102,-5.3033 -0.5051,-1.26269 -0.2526,-3.6618 -0.3789,-4.79822 -0.1262,-1.13643 1.5153,-6.18719 1.5153,-6.18719 l -0.2526,-0.37881"
         style="display:inline;fill:none;fill-rule:evenodd;stroke:#23763f;stroke-width:5.0652957;stroke-linecap:round;stroke-linejoin:round;stroke-miterlimit:4;stroke-dasharray:none;stroke-opacity:1"
         transform="translate(2.0249943e-5,6.3648736e-7)" />
      <path
         inkscape:connector-curvature="0"
         id="path8521"
         d="m -2491.7938,1182.0405 c -0.1263,-1.894 0.5051,-2.0203 -0.1263,-3.283 -0.6313,-1.2626 -1.5152,-2.0203 -0.7576,-4.6719 0.7576,-2.6517 1.2627,-4.9245 1.5153,-7.1974 0.2525,-2.2728 1.0101,-5.8083 1.0101,-8.7125 0,-2.9042 0.2525,-8.3338 0.5051,-9.7227 0.2525,-1.389 -1.389,-3.0305 0.7576,-4.672 2.1466,-1.6415 4.0406,-1.894 3.1567,-3.0304 -0.8839,-1.1365 -2.1466,-2.2729 -2.0203,-3.9144 0.1263,-1.6415 0.5051,-0.3788 1.7678,-3.283 1.2627,-2.9042 2.5254,-7.3236 2.3991,-10.1015 -0.1263,-2.7779 0.1263,-7.4499 0.2525,-8.9651 0.1263,-1.5152 0.3788,-2.2729 0.7576,-3.9144 0.3789,-1.6415 -0.8838,-6.5659 0.6314,-8.46 1.5152,-1.894 4.6719,0.5051 1.6415,-1.894 -3.0305,-2.3991 -4.2932,-1.5152 -4.0406,-4.9245 0.2525,-3.4093 3.4092,-3.6618 2.9042,-6.3135 -0.5051,-2.6516 -1.8941,-2.1465 -1.6415,-4.9245 0.2525,-2.7779 1.3889,-4.0406 1.894,-6.8185 0.5051,-2.7779 -1.7678,-3.283 0.6314,-4.5457 2.3991,-1.2627 2.1465,-2.5254 2.0203,-4.0406 -0.1263,-1.5152 0.8838,-2.3991 0.1262,-5.0507 -0.7576,-2.6517 -4.0406,-0.8839 -2.5254,-5.4296 1.5153,-4.5457 0.2526,-6.9448 1.389,-8.46 1.1364,-1.5153 2.5254,-3.6618 2.2728,-4.4195 -0.2525,-0.7576 -1.6415,-1.7677 0,-3.283 1.6415,-1.5152 1.7678,-3.5355 2.0204,-4.4194 0.2525,-0.8839 0.2525,-3.4092 0,-6.1872 -0.2526,-2.7779 1.2626,-6.3134 1.894,-9.0913 0.6313,-2.778 0.8839,-5.1771 -0.1263,-7.3236 -1.0101,-2.1466 -1.2627,-1.389 -0.3788,-5.0508 0.8839,-3.6618 -0.5051,-6.0609 0.5051,-8.0812 1.0101,-2.02033 1.0101,-3.91436 0.8839,-5.68213 -0.1263,-1.76777 -0.1263,-4.41942 0.8839,-5.68211 1.0101,-1.26269 0.7576,-4.16688 1.0101,-7.57614 0.2525,-3.40927 -0.1263,-4.54569 0.5051,-6.81853 0.6313,-2.27285 0.5051,-4.41942 0.8839,-7.44988 0.3788,-3.03046 0,-5.3033 -0.6314,-7.3236 -0.6313,-2.02031 -0.3788,-1.6415 0.3788,-5.05077 0.7576,-3.40926 -0.7576,-6.56599 1.8941,-7.82868 2.6516,-1.26269 3.6618,-4.04061 3.788,-5.05076 0.1263,-1.01015 0.8839,-5.17703 0.2526,-7.07107 -0.6314,-1.89404 -0.7576,-2.0203 -1.5153,-4.92449 -0.7576,-2.90419 0.5051,-3.91434 0.7577,-7.70242 0.2525,-3.78807 0.6313,-6.81853 0.6313,-8.9651 0,-2.14657 0.2525,-4.16688 -0.1263,-5.55584 -0.3788,-1.38896 1.0102,-3.53553 1.0102,-6.06091 0,-2.52539 -0.5051,-6.06092 0.5051,-8.20749 1.0101,-2.14658 1.5152,-1.89404 1.3889,-4.79823 -0.1262,-2.90419 -0.3788,-4.41942 -0.3788,-4.41942 0,0 0.5051,-3.53553 0.3788,-6.81853 -0.1262,-3.28299 -0.505,-8.83883 0.1263,-11.99556 0.6313,-3.15672 2.7779,-4.67195 3.283,-7.95495 0.5051,-3.28299 0.1263,-2.52538 0.1263,-5.05076 0,-2.52538 0.6313,-4.29315 0,-7.82868 -0.6314,-3.53554 -0.3788,-5.42957 -0.5051,-8.33376 -0.1263,-2.90419 0.1263,-12.75318 1.2627,-16.66752 1.1364,-3.91434 2.5254,-5.17703 2.6516,-8.20749 0.1263,-3.03046 0.2526,-8.58629 0.1263,-11.49048 -0.1263,-2.90419 -0.1263,-4.04061 -0.6314,-7.82869 -0.505,-3.78807 6.061,-23.48604 6.4398,-25.88515 0.3788,-2.39912 0.6313,-4.79823 0.7576,-6.06092 0.1263,-1.26269 2.0203,-1.6415 1.894,-3.53553 -0.1262,-1.89404 -0.8839,-3.53554 -0.3788,-4.79823 0.5051,-1.26269 1.6415,-6.18718 1.5152,-8.33376 -0.1262,-2.14657 0.1263,-3.91434 0.6314,-5.6821 0.5051,-1.76777 1.5152,-3.03046 1.5152,-4.79823 0,-1.76777 0.1263,-0.63134 0.1263,-5.55584 0,-4.92449 -0.3788,-6.31345 0,-7.44987 0.3788,-1.13643 0.8839,-3.40927 0.8839,-3.40927"
         style="display:inline;fill:none;fill-rule:evenodd;stroke:#23763f;stroke-width:5.0652957;stroke-linecap:round;stroke-linejoin:round;stroke-miterlimit:4;stroke-dasharray:none;stroke-opacity:1"
         transform="translate(2.0249943e-5,6.3648736e-7)" />
      <path
         inkscape:connector-curvature="0"
         id="path8523"
         d="m -2304.9156,726.71428 c 0.1263,2.52538 0.1263,6.56599 0.6314,8.9651 0.505,2.39911 0.2525,7.32361 0.1262,9.21764 -0.1262,1.89404 -1.0101,2.52538 -1.1364,5.93465 -0.1263,3.40926 -0.3788,3.91434 0,6.31345 0.3788,2.39912 1.2627,-0.25254 1.2627,5.80838 0,6.06092 -0.2525,5.80838 0.3788,12.12183 0.6314,6.31345 0.5051,23.35978 0,26.39024 -0.5051,3.03045 0.6314,8.20749 0.5051,12.87944 -0.1263,4.67196 1.389,20.70813 1.894,24.36993 0.5051,3.6618 2.0203,12.87945 1.7678,15.5311 -0.2525,2.65165 0.8839,26.39023 1.0101,28.91561 0.1263,2.52538 1.0102,9.72272 0.6314,15.78364 -0.3788,6.06091 -0.3788,12.2481 -0.2525,14.89975 0.1262,2.65165 2.7779,28.66308 3.283,31.8198 0.505,3.15673 -0.5051,13.13199 0,18.18275 0.505,5.05076 1.5152,13.8896 1.3889,18.18274 -0.1263,4.29315 2.7779,19.44547 2.2729,23.23347 -0.5051,3.7881 -2.1466,11.4905 -1.8941,14.2684 0.2526,2.778 0.8839,7.3237 0.6314,13.8896 -0.2526,6.566 1.2627,11.6168 1.2627,15.5311 0,3.9144 1.894,14.8998 1.894,14.8998 0,0 13.7633,0.5051 16.92,0.3788 3.1568,-0.1263 10.9855,-0.8839 10.9855,-0.8839 0,0 1.5152,-8.46 1.3889,-10.8591 -0.1263,-2.3991 0.5051,-9.4702 0.2526,-11.8693 -0.2526,-2.3991 1.6415,-10.4804 1.894,-12.2481 0.2525,-1.7678 1.7678,-19.0666 1.7678,-21.087 0,-2.0203 2.2728,-11.49044 2.3991,-15.27851 0.1262,-3.78807 0.505,-14.89975 0.6313,-21.2132 0.1263,-6.31346 2.5254,-20.96067 2.6517,-24.62247 0.1262,-3.6618 -0.6314,-6.9448 0,-11.49049 0.6313,-4.54568 1.0101,-8.20749 1.1364,-11.86929 0.1263,-3.6618 1.1364,-11.49048 1.1364,-11.49048 0,0 0.5051,-7.07107 0.5051,-10.35407 0,-3.28299 0.1263,-4.92449 0.6313,-9.84899 0.5051,-4.92449 2.7779,-11.23794 3.1568,-15.02601 0.3788,-3.78808 0.8838,-4.79823 0.505,-9.59645 -0.3788,-4.79823 -0.7576,-13.76333 0.2526,-18.68783 1.0101,-4.92449 1.5152,-12.50063 1.7677,-17.04632 0.2526,-4.54569 0.3788,-8.5863 0.6314,-13.13198 0.2525,-4.54569 0.7576,-7.32361 0.6313,-10.2278 -0.1262,-2.90419 2.1466,-10.6066 1.5153,-14.77348 -0.6314,-4.16688 -2.2729,-11.49048 -2.3992,-15.65736 -0.1262,-4.16688 -0.1262,-10.10153 -0.1262,-11.61676 0,-1.51523 0.3788,-5.17703 1.0101,-7.07107 0.6314,-1.89403 1.1364,-4.16687 1.2627,-6.56599 0.1263,-2.39911 -0.5051,-11.99556 -0.5051,-14.01586 0,-2.02031 -0.505,-5.3033 -0.2525,-6.69226 0.2525,-1.38896 0.2525,-2.14658 0.2525,-2.14658"
         style="display:inline;fill:none;fill-rule:evenodd;stroke:#23763f;stroke-width:5.0652957;stroke-linecap:round;stroke-linejoin:round;stroke-miterlimit:4;stroke-dasharray:none;stroke-opacity:1"
         transform="translate(2.0249943e-5,6.3648736e-7)" />
      <path
         inkscape:connector-curvature="0"
         id="path8525"
         d="m -2192.2836,725.19905 c 1.7678,2.39911 3.6618,4.16688 4.0406,6.43972 0.3789,2.27284 2.2729,2.90419 2.5254,5.55584 0.2526,2.65165 0.1263,9.47018 -0.1262,10.48033 -0.2526,1.01016 -0.5051,1.6415 0.505,4.29315 1.0102,2.65165 1.7678,5.05076 2.9042,8.71257 1.1364,3.6618 0.7576,3.91434 0.6314,7.19733 -0.1263,3.283 -1.5153,7.19734 0.505,8.96511 2.0203,1.76776 3.4093,6.43972 3.0305,9.21764 -0.3788,2.77792 2.2728,5.42957 2.7779,7.57614 0.5051,2.14658 -0.8839,3.283 -0.6313,5.80838 0.2525,2.52538 1.3889,3.53553 1.5152,6.06092 0.1263,2.52538 -0.5051,2.90418 0.8839,6.06091 1.3889,3.15673 1.5152,4.16688 1.7678,6.31345 0.2525,2.14658 5.6821,16.92006 5.5558,19.57171 -0.1263,2.65165 0.6313,7.57614 1.2627,11.49049 0.6313,3.91434 2.6516,7.3236 3.4092,11.86929 0.7577,4.54568 0.8839,4.67195 1.5153,8.46003 0.6313,3.78807 4.6719,22.34962 5.0507,24.36993 0.3788,2.0203 1.5153,5.17703 1.7678,8.08122 0.2525,2.90418 2.0203,4.67195 3.4093,9.47018 1.3889,4.79822 2.2728,10.10152 3.283,12.87944 1.0101,2.77792 3.9143,14.64721 4.4194,16.66752 0.5051,2.0203 1.2627,5.55584 1.7678,7.57614 0.505,2.02031 0.8838,7.70242 1.3889,10.10153 0.5051,2.39911 1.1364,5.17703 2.1466,10.10152 1.0101,4.9245 1.894,6.31346 2.7779,8.83884 0.8839,2.52538 2.9042,14.2684 2.9042,15.15229 0,0.88388 -1.2627,2.27284 0.6313,6.43972 1.8941,4.16691 4.4195,7.70241 5.1771,11.49051 0.7576,3.788 1.2627,5.177 2.5254,9.7227 1.2626,4.5457 1.0101,3.9143 2.1465,8.8388 1.1364,4.9245 2.9042,25.8852 5.0508,29.1682 2.1466,3.283 3.5355,8.9651 4.4194,11.2379 0.8839,2.2729 2.1466,3.9144 3.0305,7.4499 0.8838,3.5355 1.2627,4.1669 1.5152,8.0812 0.2525,3.9144 2.1466,9.849 2.0203,11.6168 -0.1263,1.7677 -0.7576,2.3991 0.3788,5.9346 1.1364,3.5356 4.0406,7.0711 4.672,11.743 0.6313,4.672 0.7576,7.8287 1.6415,10.4804 0.8838,2.6516 5.9346,13.8896 5.9346,16.2887 0,2.3991 0.3788,5.6821 0.5051,7.0711 0.1263,1.3889 1.0101,3.4092 1.6415,5.5558 0.6313,2.1466 0.6313,3.7881 1.5152,7.4499 0.8839,3.6618 1.894,5.5558 3.1567,8.7125 1.2627,3.1568 0.8839,4.672 2.0203,7.4499 1.1365,2.7779 5.6821,5.9347 6.6923,5.6821 1.0102,-0.2525 2.0203,-1.2627 5.9346,-1.5152 3.9144,-0.2525 2.0204,-0.8839 6.566,-0.6314 4.5457,0.2526 7.5762,1.1365 10.9854,0.2526 3.4093,-0.8839 4.7983,0.2525 5.4296,-1.0102 0.6314,-1.2627 -0.5051,-6.1872 -1.1364,-7.8286 -0.6313,-1.6415 -0.6313,-8.8389 -0.6313,-10.4804 0,-1.6415 -1.2627,-17.5514 -2.3992,-19.5717 -1.1364,-2.0203 -3.1567,-4.9245 -2.7779,-7.7024 0.3788,-2.7779 1.389,-0.5051 0.1263,-4.7982 -1.2627,-4.2932 -2.1466,-17.6777 -2.1466,-20.0768 0,-2.3991 -0.1263,-7.5762 -1.1364,-9.5965 -1.0102,-2.0203 -2.1466,-3.283 -2.2729,-6.1871 -0.1262,-2.9042 -0.505,-4.2932 -0.2525,-7.7025 0.2525,-3.4092 -1.3889,-17.1725 -2.6516,-18.4352 -1.2627,-1.2627 -1.2627,0.8838 -2.3992,-4.672 -1.1364,-5.5558 -0.2525,-13.2582 -0.6313,-14.5209 -0.3788,-1.2627 -1.1364,-5.5559 -1.5152,-8.8389 -0.3788,-3.283 -0.3788,-5.4295 -0.5051,-9.2176 -0.1263,-3.7881 -0.6313,-8.46 -1.389,-11.238 -0.7576,-2.7779 -0.8838,-5.6821 -1.2627,-8.9651 -0.3788,-3.283 -2.2728,-11.61672 -2.2728,-11.61672 0,0 -0.2525,-2.65165 -0.5051,-5.17703 -0.2525,-2.52538 0.6314,-0.25254 -1.894,-6.81853 -2.5254,-6.56599 -1.894,-7.70241 -1.894,-9.59645 0,-1.89404 -0.6314,-2.14657 0,-4.92449 0.6313,-2.77792 1.894,-3.91434 1.2626,-5.93465 -0.6313,-2.0203 -3.1567,-10.35406 -3.1567,-10.35406 0,0 0.7576,-8.83884 0.3788,-11.11168 -0.3788,-2.27284 -0.8839,-5.3033 -1.5152,-8.9651 -0.6313,-3.66181 -1.389,-4.67196 -1.1364,-8.46003 0.2525,-3.78807 -0.6314,-5.93465 -1.8941,-10.73287 -1.2626,-4.79823 -3.5355,-19.95052 -3.5355,-19.95052 0,0 1.6415,-1.01015 0.8839,-2.90418 -0.7576,-1.89404 -0.3788,-0.50508 -1.1364,-3.78808 -0.7576,-3.28299 -0.1263,-3.53553 -0.6314,-5.6821 -0.5051,-2.14658 -1.2627,-1.38896 -1.6415,-3.66181 -0.3788,-2.27284 -0.6313,-2.90419 -0.3788,-5.17703 0.2526,-2.27284 1.0102,-1.38896 0.3788,-4.79822 -0.6313,-3.40927 -2.1465,-15.15229 -2.1465,-17.04633 0,-1.89403 1.0101,-2.77792 0.1262,-6.06091 -0.8839,-3.283 -2.0203,-6.56599 -2.3991,-8.83884 -0.3788,-2.27284 0.1263,-1.51523 -0.3788,-5.3033 -0.5051,-3.78807 -0.7576,-3.78807 -1.0102,-5.80838 -0.2525,-2.0203 -1.7677,-3.78807 -2.6516,-5.6821 -0.8839,-1.89404 -1.1364,-2.39912 -1.389,-4.04061 -0.2525,-1.6415 1.2627,-2.77792 1.1365,-6.9448 -0.1263,-4.16688 -0.5051,-5.68211 -0.7577,-6.81853 -0.2525,-1.13642 0.2526,-9.47018 0,-10.10153 -0.2525,-0.63134 -0.2525,-3.28299 -1.0101,-6.69226 -0.7576,-3.40926 0.8839,-4.92449 0.6313,-6.18718 -0.2525,-1.26269 -2.7779,-5.55584 -2.6516,-7.82869 0.1263,-2.27284 0.2525,-3.15672 -0.1263,-6.56599 -0.3788,-3.40926 -2.6516,-17.29886 -3.283,-21.2132 -0.6313,-3.91434 1.0102,-4.29315 -1.2627,-7.44988 -2.2728,-3.15672 -3.6618,-8.71256 -4.0406,-9.72271 -0.3788,-1.01016 1.0102,-2.14658 0.5051,-4.54569 -0.5051,-2.39911 -1.389,-7.44988 -1.389,-7.44988"
         style="display:inline;fill:none;fill-rule:evenodd;stroke:#23763f;stroke-width:5.0652957;stroke-linecap:round;stroke-linejoin:round;stroke-miterlimit:4;stroke-dasharray:none;stroke-opacity:1"
         transform="translate(2.0249943e-5,6.3648736e-7)" />
      <path
         inkscape:connector-curvature="0"
         id="path8527"
         d="m -2477.6517,1129.7651 c 6.8186,-1.3889 8.3338,-0.505 9.849,-3.283 1.5153,-2.7779 0.2526,-4.7982 3.4093,-5.177 3.1567,-0.3788 1.0101,0.5051 4.9245,-0.8839 3.9143,-1.3889 7.0711,-3.0304 7.7024,-3.4092 0.6313,-0.3788 -2.9042,-1.1365 -4.2931,-0.8839 -1.389,0.2525 -6.8186,2.7779 -7.5762,0 -0.7576,-2.7779 0.8839,-2.3991 -0.6313,-4.0406 -1.5153,-1.6415 -1.7678,-4.2932 -4.7983,-4.2932 -3.0304,0 -7.7024,-0.5051 -7.7024,-0.5051 0,0 -0.1262,3.283 0.6314,4.1669 0.7576,0.8839 4.1668,2.5254 3.5355,3.0305 -0.6313,0.5051 -0.3788,-0.8839 -1.7678,0.8839 -1.3889,1.7677 -3.283,1.7677 -3.788,2.2728 -0.5051,0.5051 4.4194,0.5051 3.4092,1.389 -1.0101,0.8839 -4.1669,-0.6314 -1.6415,1.1364 2.5254,1.7678 3.7881,1.7678 1.2627,3.0305 -2.5254,1.2626 -3.9143,2.2728 -4.7982,2.9041 -0.8839,0.6314 -1.7678,1.6415 -2.2728,2.778 -0.5051,1.1364 -0.5051,1.1364 -0.5051,1.1364"
         style="display:inline;fill:none;fill-rule:evenodd;stroke:#23763f;stroke-width:5.0652957;stroke-linecap:round;stroke-linejoin:round;stroke-miterlimit:4;stroke-dasharray:none;stroke-opacity:1"
         transform="translate(2.0249943e-5,6.3648736e-7)" />
      <path
         inkscape:connector-curvature="0"
         id="path8529"
         d="m -2480.9347,1149.0843 c 3.5356,-1.2627 3.6618,-0.7576 5.1771,-3.7881 1.5152,-3.0304 1.1364,-5.177 3.283,-4.0406 2.1465,1.1365 3.0304,1.6415 5.177,2.1466 2.1466,0.5051 2.6517,-1.1364 3.1567,1.7678 0.5051,2.9042 0.8839,2.0203 1.1365,3.0304 0.2525,1.0102 1.894,-0.1262 0.1262,2.9042 -1.7677,3.0305 -0.8839,3.5356 -3.0304,4.5457 -2.1466,1.0102 -4.0406,2.1466 -4.7983,2.0203 -0.7576,-0.1263 -6.1871,-3.0304 -6.1871,-3.0304 0,0 -2.0204,1.2626 -2.9042,1.3889 -0.8839,0.1263 -1.7678,-2.2728 -1.7678,-2.2728 0,0 5.177,0.2525 5.5558,-1.2627 0.3788,-1.5153 0.7577,-3.283 0.7577,-3.283"
         style="display:inline;fill:none;fill-rule:evenodd;stroke:#23763f;stroke-width:5.0652957;stroke-linecap:round;stroke-linejoin:round;stroke-miterlimit:4;stroke-dasharray:none;stroke-opacity:1"
         transform="translate(2.0249943e-5,6.3648736e-7)" />
      <path
         inkscape:connector-curvature="0"
         id="path8531"
         d="m -2472.8571,1085.9336 c 4.4642,-2.3214 4.8214,-3.5714 8.9285,-3.0357 4.1072,0.5357 3.75,1.25 5.7143,1.0714 1.9643,-0.1785 1.6072,2.1429 0.8929,4.4643 -0.7143,2.3215 0,3.75 -0.8929,7.1429 -0.8928,3.3928 -9.6428,1.6071 -1.0714,4.4643 8.5714,2.8571 9.4643,2.6785 11.9643,0.5357 2.5,-2.1429 3.9285,-0.5357 4.4643,-3.5714 0.5357,-3.0358 -5.8929,-6.7858 -0.5358,-7.3215 5.3572,-0.5357 3.75,-0.3571 2.6786,-1.9643 -1.0714,-1.6071 -3.9286,-1.7857 -2.6786,-3.5714 1.25,-1.7857 4.2858,-1.0714 3.75,-3.9286 -0.5357,-2.8571 -1.0714,-3.0357 -0.5357,-3.75"
         style="display:inline;fill:none;fill-rule:evenodd;stroke:#23763f;stroke-width:5.0652957;stroke-linecap:round;stroke-linejoin:round;stroke-miterlimit:4;stroke-dasharray:none;stroke-opacity:1"
         transform="translate(2.0249943e-5,6.3648736e-7)" />
      <path
         inkscape:connector-curvature="0"
         id="path8533"
         d="m -2471.0714,1076.2908 c 6.7857,-2.1429 1.6071,-7.1429 1.6071,-7.1429 0,0 -3.0357,-4.1071 -1.4286,-4.4643 1.6072,-0.3571 6.0715,-3.5714 6.0715,-3.5714 0,0 0.1785,-1.6071 1.9643,-2.3214 1.7857,-0.7143 5.3571,-0.8929 6.9642,0.1785 1.6072,1.0715 5.5358,2.3215 3.75,3.75 -1.7857,1.4286 -3.75,-0.8928 -5.8928,0 -2.1429,0.8929 -6.7857,2.1429 -2.8572,3.2143 3.9286,1.0715 5.5358,1.4286 5,2.6786 -0.5357,1.25 -3.3928,0.3571 -1.4285,3.9286 1.9643,3.5714 2.1428,3.75 3.2143,3.75 1.0714,0 -1.0715,6.6071 3.0357,3.0357 4.1071,-3.5714 5.5357,-6.9643 5.7143,-4.8214 0.1785,2.1428 0.5357,2.8571 0.5357,2.8571"
         style="display:inline;fill:none;fill-rule:evenodd;stroke:#23763f;stroke-width:5.0652957;stroke-linecap:round;stroke-linejoin:round;stroke-miterlimit:4;stroke-dasharray:none;stroke-opacity:1"
         transform="translate(2.0249943e-5,6.3648736e-7)" />
      <path
         inkscape:connector-curvature="0"
         id="path8535"
         d="m -2455.3571,1042.5408 c 3.5714,-1.6072 7.5,1.6071 7.6785,-0.7143 0.1786,-2.3214 1.7857,-1.25 -1.0714,-4.1072 -2.8571,-2.8571 0.1786,-1.25 -0.7143,-5 -0.8928,-3.75 0.7143,-3.75 -1.9643,-7.5 -2.6785,-3.75 -0.3571,-4.2857 -2.8571,-3.75 -2.5,0.5358 -4.4643,0.3572 -5,3.0358 -0.5357,2.6785 1.25,4.1071 0.1786,5.3571 -1.0715,1.25 -3.0358,1.0714 -2.1429,3.3929 0.8929,2.3214 1.6071,3.5714 2.1429,4.8214 0.5357,1.25 3.0357,1.0714 3.0357,1.0714"
         style="display:inline;fill:none;fill-rule:evenodd;stroke:#23763f;stroke-width:5.0652957;stroke-linecap:round;stroke-linejoin:round;stroke-miterlimit:4;stroke-dasharray:none;stroke-opacity:1"
         transform="translate(2.0249943e-5,6.3648736e-7)" />
      <path
         inkscape:connector-curvature="0"
         id="path8537"
         d="m -2471.4286,1046.1122 c 4.2857,1.25 5.1786,1.7857 3.9286,4.8214 -1.25,3.0357 2.8571,5.1786 4.2857,4.6429 1.4286,-0.5357 6.4286,-3.0357 2.6786,-0.7143 -3.75,2.3214 -6.0714,5.5357 -6.0714,5.5357"
         style="display:inline;fill:none;fill-rule:evenodd;stroke:#23763f;stroke-width:5.0652957;stroke-linecap:round;stroke-linejoin:round;stroke-miterlimit:4;stroke-dasharray:none;stroke-opacity:1"
         transform="translate(2.0249943e-5,6.3648736e-7)" />
      <path
         inkscape:connector-curvature="0"
         id="path8539"
         d="m -2457.5,975.93363 c 4.4643,-1.78571 10,0 10,0 0,0 -0.5357,-1.42857 1.4286,-3.75 1.9643,-2.32143 0.7143,-0.53571 2.8571,-2.14285 2.1429,-1.60715 2.8572,2.32142 3.5714,1.60714 0.7143,-0.71429 1.6072,-1.60714 2.6786,-4.10714 1.0714,-2.5 1.6072,-1.78572 3.5714,-0.71429 1.9643,1.07143 3.3929,-3.39286 4.6429,0.53571 1.25,3.92858 4.2857,3.57143 4.1071,6.78572 -0.1785,3.21428 2.3215,4.46428 2.8572,2.32143 0.5357,-2.14286 2.6786,0.17857 2.1428,-3.57143 -0.5357,-3.75 4.4643,-1.60714 -0.5357,-5 -5,-3.39286 -4.6428,-0.35714 -6.6071,-4.64286 -1.9643,-4.28571 -0.5357,-3.75 -3.3929,-3.75 -2.8571,0 -3.5714,-3.03571 -6.0714,-2.32143 -2.5,0.71429 -2.6786,4.46429 -2.8571,6.07143 -0.1786,1.60714 0.7142,-2.5 -2.6786,-0.35714 -3.3929,2.14286 0.1786,1.25 -2.3214,3.03571 -2.5,1.78572 -5.8929,-1.42857 -5.8929,-1.42857 0,0 -0.3571,-0.71428 -1.0714,2.14286 -0.7143,2.85714 4.1071,2.5 -0.8929,2.85714 -5,0.35714 -5,0.17857 -5,0.17857"
         style="display:inline;fill:none;fill-rule:evenodd;stroke:#23763f;stroke-width:5.0652957;stroke-linecap:round;stroke-linejoin:round;stroke-miterlimit:4;stroke-dasharray:none;stroke-opacity:1"
         transform="translate(2.0249943e-5,6.3648736e-7)" />
      <path
         inkscape:connector-curvature="0"
         id="path8541"
         d="m -2432.5,993.07649 c 2.5,-1.78571 6.0714,-1.25 6.0714,-5 0,-3.75 2.6786,-6.96429 2.6786,-3.57143 0,3.39286 -0.5357,4.46429 1.0714,6.78572 1.6072,2.32142 1.4286,3.57142 1.4286,3.57142 0,0 2.5,5.1786 -1.6071,1.25 -4.1072,-3.92857 -3.5715,-5.71428 -4.6429,-4.64285 -1.0714,1.07143 -1.9643,2.32143 -1.9643,2.32143"
         style="display:inline;fill:none;fill-rule:evenodd;stroke:#23763f;stroke-width:5.0652957;stroke-linecap:round;stroke-linejoin:round;stroke-miterlimit:4;stroke-dasharray:none;stroke-opacity:1"
         transform="translate(2.0249943e-5,6.3648736e-7)" />
      <path
         inkscape:connector-curvature="0"
         id="path8543"
         d="m -2412.8571,884.32649 c 2.3214,2.85714 -0.7143,5 2.3214,6.96429 3.0357,1.96428 2.1428,2.32142 3.0357,-0.71429 0.8929,-3.03571 0.3571,-2.67857 1.9643,-3.75 1.6071,-1.07143 4.6428,-2.14286 2.5,-3.39286 -2.1429,-1.25 -9.1072,-3.92857 -4.4643,-2.67857 4.6429,1.25 8.0357,0 7.3214,-0.71428 -0.7143,-0.71429 -1.9643,-1.78572 -3.2143,-3.57143 -1.25,-1.78572 -1.0714,-1.60715 -1.4285,-2.5 -0.3572,-0.89286 -4.6429,-7.5 -4.6429,-7.5 0,0 -5.5357,1.07143 -4.2857,3.57143 1.25,2.5 1.4286,3.75 2.6786,5 1.25,1.25 3.3928,-2.67858 1.4285,1.42857 -1.9642,4.10714 -1.0714,5.17857 -0.7142,6.25 0.3571,1.07143 2.1428,2.32143 2.1428,2.32143"
         style="display:inline;fill:none;fill-rule:evenodd;stroke:#23763f;stroke-width:5.0652957;stroke-linecap:round;stroke-linejoin:round;stroke-miterlimit:4;stroke-dasharray:none;stroke-opacity:1"
         transform="translate(2.0249943e-5,6.3648736e-7)" />
      <path
         inkscape:connector-curvature="0"
         id="path8545"
         d="m -2394.6429,846.46935 c -3.0357,-3.03572 -3.9285,-5 -3.9285,-5.89286 0,-0.89286 -3.5715,-4.10714 -2.5,-4.10714 1.0714,0 2.1428,3.21428 2.6785,-0.89286 0.5358,-4.10714 -1.25,-5.71429 0.1786,-5.17857 1.4286,0.53571 0.7143,1.78571 1.7857,3.21428 1.0715,1.42858 -0.7143,-0.71428 1.6072,1.25 2.3214,1.96429 5,2.85715 4.4643,3.75 -0.5358,0.89286 -3.2143,-0.17857 -3.2143,-0.17857 0,0 -0.7143,2.32143 0,3.75 0.7143,1.42857 2.3214,2.5 1.7857,3.75 -0.5357,1.25 -0.5357,1.25 -0.5357,1.25"
         style="display:inline;fill:none;fill-rule:evenodd;stroke:#23763f;stroke-width:5.0652957;stroke-linecap:round;stroke-linejoin:round;stroke-miterlimit:4;stroke-dasharray:none;stroke-opacity:1"
         transform="translate(2.0249943e-5,6.3648736e-7)" />
      <path
         inkscape:connector-curvature="0"
         id="path8547"
         d="m -2390.1786,809.50506 c -1.0714,-0.17857 -0.3571,-3.21428 -1.4285,-5.53571 -1.0715,-2.32143 -1.7858,-2.67857 -2.1429,-4.46429 -0.3571,-1.78571 1.25,-1.96428 1.6071,-5.17857 0.3572,-3.21429 -4.1071,-6.25 0.5358,-5.17857 4.6428,1.07143 6.0714,2.85714 6.6071,4.28571 0.5357,1.42857 0.7143,0.17857 1.0714,2.85715 0.3572,2.67857 -0.3571,2.14285 0,5.17857 0.3572,3.03571 1.4286,3.21428 0.3572,5.71428 -1.0715,2.5 -2.1429,7.14286 -2.8572,7.67857 -0.7143,0.53572 -3.0357,-0.35714 -3.0357,-0.35714"
         style="display:inline;fill:none;fill-rule:evenodd;stroke:#23763f;stroke-width:5.0652957;stroke-linecap:round;stroke-linejoin:round;stroke-miterlimit:4;stroke-dasharray:none;stroke-opacity:1"
         transform="translate(2.0249943e-5,6.3648736e-7)" />
      <path
         inkscape:connector-curvature="0"
         id="path8549"
         d="m -2300.5357,788.07649 c 3.0357,0.89286 1.25,1.96429 0.5357,3.75 -0.7143,1.78571 0.3571,4.28571 4.2857,4.28571 3.9286,0 2.8572,-0.53571 5.8929,-0.53571 3.0357,0 5,0.89286 4.2857,2.5 -0.7143,1.60714 -3.75,-1.78571 -5.7143,0.17857 -1.9643,1.96429 -7.3214,0.35714 -7.3214,0.35714 l -0.8929,-0.53571"
         style="display:inline;fill:none;fill-rule:evenodd;stroke:#23763f;stroke-width:5.0652957;stroke-linecap:round;stroke-linejoin:round;stroke-miterlimit:4;stroke-dasharray:none;stroke-opacity:1"
         transform="translate(2.0249943e-5,6.3648736e-7)" />
      <path
         inkscape:connector-curvature="0"
         id="path8551"
         d="m -2244.8214,832.18363 c -1.9643,-3.03571 -5.5357,-5 -6.25,-5.89285 -0.7143,-0.89286 -2.3215,2.5 0.8928,4.64285 3.2143,2.14286 0.3572,-2.32143 2.6786,3.21429 2.3214,5.53571 3.0357,5.89286 3.0357,5.89286"
         style="display:inline;fill:none;fill-rule:evenodd;stroke:#23763f;stroke-width:5.0652957;stroke-linecap:round;stroke-linejoin:round;stroke-miterlimit:4;stroke-dasharray:none;stroke-opacity:1"
         transform="translate(2.0249943e-5,6.3648736e-7)" />
      <path
         inkscape:connector-curvature="0"
         id="path8553"
         d="m -2244.8214,843.07649 c -0.5357,1.42857 -3.75,3.39286 -4.1072,4.10714 -0.3571,0.71429 -0.1785,3.03572 1.7857,3.75 1.9643,0.71429 2.8572,-0.17857 2.8572,1.07143"
         style="display:inline;fill:none;fill-rule:evenodd;stroke:#23763f;stroke-width:5.0652957;stroke-linecap:round;stroke-linejoin:round;stroke-miterlimit:4;stroke-dasharray:none;stroke-opacity:1"
         transform="translate(2.0249943e-5,6.3648736e-7)" />
      <path
         inkscape:connector-curvature="0"
         id="path8555"
         d="m -2246.25,864.32649 c -0.5357,-1.78571 -2.5,-0.53571 -2.1429,0.53571 0.3572,1.07143 -2.1428,2.14286 -3.3928,0.35715 -1.25,-1.78572 -0.8929,-3.21429 -2.5,-4.10715 -1.6072,-0.89285 -1.6072,-3.57142 -1.9643,-0.35714 -0.3571,3.21429 1.9643,5.53572 2.3214,6.25 0.3572,0.71429 0.7143,-1.78571 -1.0714,1.25 -1.7857,3.03572 -3.0357,4.10714 -1.9643,6.96429 1.0714,2.85714 -5.5357,8.21428 1.6072,3.92857 7.1428,-4.28572 6.4285,-5.53572 7.5,-4.28572 1.0714,1.25 1.25,1.60715 1.25,1.60715"
         style="display:inline;fill:none;fill-rule:evenodd;stroke:#23763f;stroke-width:5.0652957;stroke-linecap:round;stroke-linejoin:round;stroke-miterlimit:4;stroke-dasharray:none;stroke-opacity:1"
         transform="translate(2.0249943e-5,6.3648736e-7)" />
      <path
         inkscape:connector-curvature="0"
         id="path8557"
         d="m -2248.75,897.18363 c -2.1429,1.07143 -3.5714,-1.42857 -2.6786,1.60715 0.8929,3.03571 1.25,5.89285 1.25,5.89285"
         style="display:inline;fill:none;fill-rule:evenodd;stroke:#23763f;stroke-width:5.0652957;stroke-linecap:round;stroke-linejoin:round;stroke-miterlimit:4;stroke-dasharray:none;stroke-opacity:1"
         transform="translate(2.0249943e-5,6.3648736e-7)" />
      <path
         inkscape:connector-curvature="0"
         id="path8559"
         d="m -2281.4286,931.46935 c 0.8929,3.39285 1.6072,3.57143 3.75,4.46428 2.1429,0.89286 1.6072,1.42857 3.75,3.03572 2.1429,1.60714 3.5715,0.35714 3.3929,-1.96429 -0.1786,-2.32143 1.6071,-3.03571 -3.0357,-5.71428 -4.6429,-2.67858 -5,-2.67858 -4.4643,-5 0.5357,-2.32143 -4.4643,-3.92858 -2.3214,-6.07143 2.1428,-2.14286 5,1.42857 4.8214,-0.53572 -0.1786,-1.96428 -1.9643,-5 -2.3214,-7.14285 -0.3572,-2.14286 0,-5.53572 -2.5,-1.07143 -2.5,4.46428 -0.3572,10.71428 -3.2143,6.07143 -2.8572,-4.64286 -3.9286,-4.46429 -3.9286,-4.46429 l -3.5714,1.07143 c 0,0 -2.1429,0.71428 1.0714,2.14286 3.2143,1.42857 5,0.17857 4.4643,2.85714 -0.5357,2.67857 -5.5357,1.78571 -0.8929,4.46428 4.6429,2.67858 4.6429,2.85715 4.6429,2.85715"
         style="display:inline;fill:none;fill-rule:evenodd;stroke:#23763f;stroke-width:5.0652957;stroke-linecap:round;stroke-linejoin:round;stroke-miterlimit:4;stroke-dasharray:none;stroke-opacity:1"
         transform="translate(2.0249943e-5,6.3648736e-7)" />
      <path
         inkscape:connector-curvature="0"
         id="path8561"
         d="m -2123.9286,902.54078 c 0,0 2.5,1.42857 3.3929,-1.60715 0.8928,-3.03571 2.8571,-2.85714 1.25,-7.32143 -1.6072,-4.46428 -0.3572,-1.42857 -0.5357,-6.25 -0.1786,-4.82142 -2.5,-5.17857 -0.3572,-7.32142 2.1429,-2.14286 0.7143,-6.25 0.7143,-6.25 0,0 -3.3928,1.42857 -4.1071,3.39285 -0.7143,1.96429 0,5.53572 -0.8929,7.5 -0.8928,1.96429 0.3572,2.5 -2.1428,2.85715 -2.5,0.35714 -3.3929,-3.03572 -4.4643,1.25 -1.0715,4.28571 -0.1786,4.82142 -3.5715,7.32142 -3.3928,2.5 -6.6071,3.39286 -2.8571,4.64286 3.75,1.25 5,0.35714 6.6071,-0.17857 1.6072,-0.53571 1.0715,-0.53571 1.7858,-0.53571"
         style="display:inline;fill:none;fill-rule:evenodd;stroke:#23763f;stroke-width:5.0652957;stroke-linecap:round;stroke-linejoin:round;stroke-miterlimit:4;stroke-dasharray:none;stroke-opacity:1"
         transform="translate(2.0249943e-5,6.3648736e-7)" />
      <path
         inkscape:connector-curvature="0"
         id="path8563"
         d="m -2143.9286,847.89792 c 1.7857,-3.57143 3.5715,-2.5 3.5715,-4.64286 0,-2.14286 2.8571,-3.21428 2.8571,-3.21428 0,0 0,0.17857 -1.25,-3.92858 -1.25,-4.10714 -1.6071,-2.32142 -1.6071,-4.82142 0,-2.5 -0.3572,-4.28572 -0.3572,-4.28572 0,0 -0.1786,-2.67857 -2.5,1.07143 -2.3214,3.75 -5.1786,3.39286 -5.8928,4.28571 -0.7143,0.89286 -4.6429,-1.25 -1.25,2.32143 3.3928,3.57143 5.7142,5.35715 5.7142,6.78572 0,1.42857 -1.0714,2.85714 -0.1785,2.32143"
         style="display:inline;fill:none;fill-rule:evenodd;stroke:#23763f;stroke-width:5.0652957;stroke-linecap:round;stroke-linejoin:round;stroke-miterlimit:4;stroke-dasharray:none;stroke-opacity:1"
         transform="translate(2.0249943e-5,6.3648736e-7)" />
      <path
         inkscape:connector-curvature="0"
         id="path8565"
         d="m -2123.2143,838.6122 c 3.9286,-0.17857 6.6072,0.35715 6.6072,0.35715 0,0 1.6071,1.07143 2.8571,-0.53572 1.25,-1.60714 1.4286,-1.96428 1.4286,-1.96428 0,0 -0.7143,-2.14286 0.8928,-3.21429 1.6072,-1.07143 1.4286,-4.64286 -0.3571,-5.53571 -1.7857,-0.89286 -2.5,1.42857 -6.25,-1.42857 -3.75,-2.85715 -7.3214,-0.89286 -6.25,1.78571 1.0714,2.67857 5,3.39286 2.3214,5 -2.6786,1.60714 -3.3928,1.07143 -3.5714,1.96429 -0.1786,0.89285 -3.2143,2.14285 -2.6786,3.03571 0.5357,0.89286 0.8929,1.78571 0.8929,1.78571"
         style="display:inline;fill:none;fill-rule:evenodd;stroke:#23763f;stroke-width:5.0652957;stroke-linecap:round;stroke-linejoin:round;stroke-miterlimit:4;stroke-dasharray:none;stroke-opacity:1"
         transform="translate(2.0249943e-5,6.3648736e-7)" />
      <path
         inkscape:connector-curvature="0"
         id="path8567"
         d="m -2125.7143,980.21935 c 2.5,-2.14286 1.7857,-8.21429 6.4286,-6.07143 4.6428,2.14286 1.4286,6.78571 7.1428,8.21428 5.7143,1.42858 6.0715,0.71429 7.5,1.42858 1.4286,0.71428 1.4286,-6.07143 3.2143,-7.5 1.7857,-1.42858 3.9286,-7.14286 5,-4.28572 1.0715,2.85714 3.2143,5.71429 1.4286,6.42857 -1.7857,0.71429 -2.1429,6.78572 -2.1429,9.64286 0,2.85714 -0.3571,-0.35714 2.1429,2.5 2.5,2.85714 8.5714,5 11.0714,2.85714 2.5,-2.14285 8.2143,-6.42857 7.5,-4.28571 -0.7143,2.14286 2.5,6.42857 0,8.21428 -2.5,1.78572 -1.4285,2.14286 -3.5714,5.3571 -2.1429,3.2143 0,4.6429 -3.9286,2.1429 -3.9285,-2.5 -5.3571,-3.2143 -6.0714,0.7143 -0.7143,3.9286 1.0714,3.9286 -0.7143,7.5 -1.7857,3.5714 0,-0.7143 -2.1428,3.9286 -2.1429,4.6428 -3.2143,14.6428 -3.2143,14.6428 0,0 -11.0715,-8.2143 -8.9286,-12.5 2.1429,-4.2857 3.9286,-0.7143 4.2857,-5.3571 0.3572,-4.6429 -1.7857,-10.3572 -1.7857,-10.3572 0,0 3.2143,-3.2143 0.3571,-3.5714 -2.8571,-0.35714 -3.2142,2.8571 -3.9285,0.7143 -0.7143,-2.14287 -3.9286,-7.85715 -5.7143,-4.64287 -1.7857,3.21429 -1.4286,4.64287 -2.8572,1.42857 -1.4285,-3.21428 1.4286,-4.28571 -3.5714,-3.57142 -5,0.71428 -3.9286,-5.35715 -3.9286,-5.35715 l 1.0715,-7.85714"
         style="display:inline;fill:none;fill-rule:evenodd;stroke:#23763f;stroke-width:5.0652957;stroke-linecap:round;stroke-linejoin:round;stroke-miterlimit:4;stroke-dasharray:none;stroke-opacity:1"
         transform="translate(2.0249943e-5,6.3648736e-7)" />
      <path
         inkscape:connector-curvature="0"
         id="path8569"
         d="m -2102.6786,1075.9336 c 5.3572,-1.6071 5.7143,0.3572 7.5,-2.6785 1.7857,-3.0358 3.0357,-1.0715 3.9286,-0.5358 0.8929,0.5358 2.1429,-0.3571 1.7857,2.1429 -0.3571,2.5 -1.9643,3.3929 0.7143,2.3214 2.6786,-1.0714 2.3214,-3.3928 4.4643,-1.7857 2.1428,1.6072 3.0357,1.9643 5.5357,1.6072 2.5,-0.3572 4.2857,1.6071 4.2857,1.6071 0,0 2.3214,1.7857 0.7143,2.5 -1.6071,0.7143 -7.5,-2.3214 -8.0357,-1.4286 -0.5357,0.8929 -1.25,2.5 -2.1429,3.0357 -0.8928,0.5358 -2.5,-0.3571 -3.5714,-0.8928 -1.0714,-0.5357 -0.7143,1.25 -3.3929,-0.1786 -2.6785,-1.4286 -5.5357,-4.1071 -6.4285,-2.8571 -0.8929,1.25 -3.9286,3.0357 -3.2143,5.5357 0.7143,2.5 -2.1429,6.4286 -3.0357,1.9643 -0.8929,-4.4643 -2.6786,-3.2143 -0.5357,-5.1786"
         style="display:inline;fill:none;fill-rule:evenodd;stroke:#23763f;stroke-width:5.0652957;stroke-linecap:round;stroke-linejoin:round;stroke-miterlimit:4;stroke-dasharray:none;stroke-opacity:1"
         transform="translate(2.0249943e-5,6.3648736e-7)" />
      <path
         inkscape:connector-curvature="0"
         id="path8571"
         d="m -2057.6786,1138.6122 c -5,-1.0714 -3.2143,-2.6786 -7.1428,-2.6786 -3.9286,0 -6.6072,3.2143 -3.9286,3.5715 2.6786,0.3571 4.1071,-1.0715 4.1071,1.4285 0,2.5 2.1429,5.1786 -1.6071,3.0357 -3.75,-2.1428 -2.3214,-1.7857 -5.7143,-3.2142 -3.3928,-1.4286 -2.1428,-6.6072 -4.1071,-1.4286 -1.9643,5.1786 -8.5715,4.8214 -1.6072,5.7143 6.9643,0.8928 9.4643,-0.1786 6.9643,2.1428 -2.5,2.3215 -4.2857,0.8929 -3.0357,3.5715 1.25,2.6785 -2.6786,1.7857 1.4286,3.9285 4.1071,2.1429 3.3928,0.1786 3.9285,-2.1428 0.5358,-2.3215 -0.1785,-5.5357 1.4286,-2.6786 1.6072,2.8571 0.5357,4.1071 4.2857,4.1071 3.75,0 1.9643,-0.5357 4.1072,-1.6071 2.1428,-1.0714 2.5,-5 2.5,-5"
         style="display:inline;fill:none;fill-rule:evenodd;stroke:#23763f;stroke-width:5.0652957;stroke-linecap:round;stroke-linejoin:round;stroke-miterlimit:4;stroke-dasharray:none;stroke-opacity:1"
         transform="translate(2.0249943e-5,6.3648736e-7)" />
      <path
         inkscape:connector-curvature="0"
         id="path8573"
         d="m -2265,666.1122 c 10.7143,3.03572 8.3929,5.35715 13.3929,3.92858 5,-1.42858 8.3928,0.35714 10.1785,-0.35715 1.7857,-0.71428 -2.5,-1.96428 4.8215,-2.32143 7.3214,-0.35714 4.1071,-0.53571 9.8214,0.89286 5.7143,1.42857 5.5357,2.85714 10.8928,2.32143 5.3572,-0.53571 4.8215,2.14286 11.6072,-0.35714 6.7857,-2.5 4.6428,-2.67857 12.8571,-2.67857 8.2143,0 12.1429,1.07142 16.25,-0.53572 4.1072,-1.60714 4.1072,-3.57143 8.3929,-3.21428 4.2857,0.35714 6.6071,2.32142 6.9643,0.53571 0.3571,-1.78571 4.1071,-3.92857 -0.8929,-3.75 -5,0.17857 -13.9286,0.71429 -14.6428,-0.17857 -0.7143,-0.89286 1.7857,-3.21429 -3.5715,-2.85714 -5.3571,0.35714 -5.3571,0.71428 -8.5714,1.42857 -3.2143,0.71428 -3.0357,-0.53572 -11.6071,0.17857 -8.5715,0.71428 -7.5,0 -13.2143,0.53571 -5.7143,0.53572 -3.0357,2.32143 -9.6429,0.53572 -6.6071,-1.78572 -8.75,-2.85715 -8.75,-2.85715 0,0 0.1786,0.53572 -2.5,2.5 -2.6786,1.96429 -14.1071,1.96429 -14.1071,1.96429 0,0 -5.1786,3.39286 -8.75,1.25 -3.5715,-2.14286 -3.0357,-3.21429 -5.5357,-1.96429 -2.5,1.25 -2.5,1.25 -2.5,1.25"
         style="display:inline;fill:none;fill-rule:evenodd;stroke:#23763f;stroke-width:5.0652957;stroke-linecap:round;stroke-linejoin:round;stroke-miterlimit:4;stroke-dasharray:none;stroke-opacity:1"
         transform="translate(2.0249943e-5,6.3648736e-7)" />
      <path
         inkscape:connector-curvature="0"
         id="path8575"
         d="m -2392.6786,649.14792 c 18.0357,1.25 16.0715,3.03571 24.4643,2.32143 8.3929,-0.71429 9.1072,0 13.5714,-0.71429 4.4643,-0.71428 4.1072,-1.60714 -1.0714,-2.14286 -5.1786,-0.53571 -5.7143,2.5 -10.3571,0.53572 -4.6429,-1.96429 -2.5,-2.5 -9.4643,-3.21429 -6.9643,-0.71428 -12.1429,-2.14285 -13.3929,-2.14285 -1.25,0 -2.3214,0.17857 -2.3214,0.17857"
         style="display:inline;fill:none;fill-rule:evenodd;stroke:#23763f;stroke-width:5.0652957;stroke-linecap:round;stroke-linejoin:round;stroke-miterlimit:4;stroke-dasharray:none;stroke-opacity:1"
         transform="translate(2.0249943e-5,6.3648736e-7)" />
      <path
         inkscape:connector-curvature="0"
         id="path8577"
         d="m -2378.9286,666.1122 c 13.0357,0.53572 13.9286,-0.89285 17.6786,1.42858 3.75,2.32142 1.6071,0.89285 11.7857,2.14285 10.1786,1.25 11.0714,1.78572 11.0714,1.78572 0,0 -6.4285,4.82143 -9.8214,1.96428 -3.3928,-2.85714 -8.75,-3.03571 -12.3214,-2.67857 -3.5714,0.35714 -3.2143,0.89286 -8.75,0.71429 -5.5357,-0.17857 -20,-1.96429 -12.8572,-2.67857 7.1429,-0.71429 8.0358,-0.71429 8.75,-0.53572"
         style="display:inline;fill:none;fill-rule:evenodd;stroke:#23763f;stroke-width:5.0652957;stroke-linecap:round;stroke-linejoin:round;stroke-miterlimit:4;stroke-dasharray:none;stroke-opacity:1"
         transform="translate(2.0249943e-5,6.3648736e-7)" />
      <path
         inkscape:connector-curvature="0"
         id="path8579"
         d="m -2463.5714,662.71935 c 15.8928,1.25 7.6785,0 20.8928,1.07143 13.2143,1.07142 8.0357,1.78571 16.0715,1.25 8.0357,-0.53572 7.5,1.07142 12.3214,0 4.8214,-1.07143 14.6428,-2.67858 8.75,-2.67858 -5.8929,0 -10.8929,0 -13.5714,-0.17857"
         style="display:inline;fill:none;fill-rule:evenodd;stroke:#23763f;stroke-width:5.0652957;stroke-linecap:round;stroke-linejoin:round;stroke-miterlimit:4;stroke-dasharray:none;stroke-opacity:1"
         transform="translate(2.0249943e-5,6.3648736e-7)" />
      <path
         style="color:#000000;clip-rule:nonzero;display:inline;overflow:visible;visibility:visible;opacity:1;isolation:auto;mix-blend-mode:normal;color-interpolation:sRGB;color-interpolation-filters:linearRGB;solid-color:#000000;solid-opacity:1;fill:#23763f;fill-opacity:1;fill-rule:nonzero;stroke:none;stroke-width:2.20000005;stroke-linecap:round;stroke-linejoin:round;stroke-miterlimit:4;stroke-dasharray:none;stroke-dashoffset:0;stroke-opacity:1;color-rendering:auto;image-rendering:auto;shape-rendering:auto;text-rendering:auto;enable-background:accumulate"
         d="m 375.75586,136.49219 a 0.70219048,0.34374169 0 0 0 -0.70117,0.34375 0.70219048,0.34374169 0 0 0 0.70117,0.34375 0.70219048,0.34374169 0 0 0 0.70312,-0.34375 0.70219048,0.34374169 0 0 0 -0.70312,-0.34375 z m 23.74805,0.53125 a 0.45252274,0.14062159 0 0 0 -0.41993,0.14062 0.45252274,0.14062159 0 0 0 0.45313,0.14063 0.45252274,0.14062159 0 0 0 0.45312,-0.14063 0.45252274,0.14062159 0 0 0 -0.45312,-0.14062 0.45252274,0.14062159 0 0 0 -0.0332,0 z m 27.69336,0.4375 a 0.73339899,0.14062159 0 0 0 -0.68165,0.14062 0.73339899,0.14062159 0 0 0 0.73438,0.14063 0.73339899,0.14062159 0 0 0 0.73242,-0.14063 0.73339899,0.14062159 0 0 0 -0.73242,-0.14062 0.73339899,0.14062159 0 0 0 -0.0527,0 z m 0.72851,0.40625 a 0.81142011,0.20312008 0 0 0 -0.7539,0.20312 0.81142011,0.20312008 0 0 0 0.81054,0.20313 0.81142011,0.20312008 0 0 0 0.8125,-0.20313 0.81142011,0.20312008 0 0 0 -0.8125,-0.20312 0.81142011,0.20312008 0 0 0 -0.0566,0 z m 48.71094,0.125 a 1.1547133,0.32811706 0 0 0 -1.1543,0.32812 1.1547133,0.32811706 0 0 0 1.1543,0.32813 1.1547133,0.32811706 0 0 0 1.15625,-0.32813 1.1547133,0.32811706 0 0 0 -1.15625,-0.32812 z m -46.17188,0.0312 a 0.98306671,0.42186481 0 0 0 -0.98437,0.42187 0.98306671,0.42186481 0 0 0 0.13867,0.21485 0.87383705,0.23436933 0 0 0 -0.26172,-0.0117 0.87383705,0.23436933 0 0 0 -0.875,0.23437 0.87383705,0.23436933 0 0 0 0.875,0.23438 0.87383705,0.23436933 0 0 0 0.87305,-0.23438 0.87383705,0.23436933 0 0 0 -0.008,-0.0273 0.98306671,0.42186481 0 0 0 0.24218,0.0117 0.98306671,0.42186481 0 0 0 0.98243,-0.42188 0.98306671,0.42186481 0 0 0 -0.98243,-0.42187 z m -14.39062,0.0625 a 1.1547133,0.15624622 0 0 0 -1.07422,0.1563 1.1547133,0.15624622 0 0 0 1.15625,0.15625 1.1547133,0.15624622 0 0 0 1.1543,-0.15625 1.1547133,0.15624622 0 0 0 -1.1543,-0.15625 1.1547133,0.15624622 0 0 0 -0.082,0 z m 2.06055,0.25 a 0.65537779,0.06249849 0 0 0 -0.54297,0.0625 0.65537779,0.06249849 0 0 0 0.65429,0.0625 0.65537779,0.06249849 0 0 0 0.65625,-0.0625 0.65537779,0.06249849 0 0 0 -0.65625,-0.0625 0.65537779,0.06249849 0 0 0 -0.0469,0 0.65537779,0.06249849 0 0 0 -0.0645,0 z m 8.85156,0.0625 a 0.40571005,0.14062159 0 0 0 -0.37695,0.14062 0.40571005,0.14062159 0 0 0 0.40624,0.14063 0.40571005,0.14062159 0 0 0 0.40626,-0.14063 0.40571005,0.14062159 0 0 0 -0.40626,-0.14062 0.40571005,0.14062159 0 0 0 -0.0293,0 z m -28.88281,0.0312 a 0.42131431,0.15624622 0 0 0 -0.39258,0.15625 0.42131431,0.15624622 0 0 0 0.42187,0.15625 0.42131431,0.15624622 0 0 0 0.42188,-0.15625 0.42131431,0.15624622 0 0 0 -0.42188,-0.15625 0.42131431,0.15624622 0 0 0 -0.0293,0 z m 19.22851,0.40625 a 0.43691853,0.01562462 0 0 0 -0.23828,0.0137 0.43691853,0.01562462 0 0 1 -0.002,0.002 0.43691853,0.01562462 0 0 0 0.002,0.002 0.43691853,0.01562462 0 0 0 0.43555,0.0137 0.43691853,0.01562462 0 0 0 0.43359,-0.0137 0.43691853,0.01562462 0 0 1 0.002,-0.002 0.43691853,0.01562462 0 0 0 -0.002,-0.002 0.43691853,0.01562462 0 0 0 -0.43359,-0.0137 0.43691853,0.01562462 0 0 0 -0.11719,0 0.43691853,0.01562462 0 0 0 -0.041,0 0.43691853,0.01562462 0 0 0 -0.0391,0 z m 65.46875,0.0625 a 0.6085651,0.35936631 0 0 0 -0.60742,0.35937 0.6085651,0.35936631 0 0 0 0.60742,0.35938 0.6085651,0.35936631 0 0 0 0.60938,-0.35938 0.6085651,0.35936631 0 0 0 -0.60938,-0.35937 z m -3.82226,0.125 a 0.81142011,0.28124319 0 0 0 -0.8125,0.28125 0.81142011,0.28124319 0 0 0 0.8125,0.28125 0.81142011,0.28124319 0 0 0 0.76757,-0.18946 0.81142011,0.20312008 0 0 0 0.44922,0.0332 0.81142011,0.20312008 0 0 0 0.81055,-0.20313 0.81142011,0.20312008 0 0 0 -0.81055,-0.20312 0.81142011,0.20312008 0 0 0 -0.64843,0.082 0.81142011,0.28124319 0 0 0 -0.56836,-0.082 z m -70.23438,0.34375 a 0.54614816,0.26561858 0 0 0 -0.54687,0.26562 0.54614816,0.26561858 0 0 0 0.54687,0.26563 0.54614816,0.26561858 0 0 0 0.54492,-0.26563 0.54614816,0.26561858 0 0 0 -0.54492,-0.26562 z m 22.94141,0.375 a 0.59296085,0.18749546 0 0 0 -0.55078,0.1875 1.2483386,0.40624016 0 0 0 -0.0312,0 1.2483386,0.40624016 0 0 0 -1.24805,0.40625 1.2483386,0.40624016 0 0 0 1.24805,0.40625 1.2483386,0.40624016 0 0 0 1.25,-0.40625 1.2483386,0.40624016 0 0 0 -0.27735,-0.25391 0.59296085,0.18749546 0 0 0 0.2461,-0.15234 0.59296085,0.18749546 0 0 0 -0.59375,-0.1875 0.59296085,0.18749546 0 0 0 -0.043,0 z m -16.51953,1.71875 a 0.49933547,0.04687386 0 0 0 -0.41602,0.0469 0.49933547,0.04687386 0 0 0 0.5,0.0469 0.49933547,0.04687386 0 0 0 0.5,-0.0469 0.49933547,0.04687386 0 0 0 -0.5,-0.0469 0.49933547,0.04687386 0 0 0 -0.0352,0 0.49933547,0.04687386 0 0 0 -0.0488,0 z m -49.61914,3.09375 a 1.1547133,0.28124319 0 0 0 -1.07227,0.28125 1.1547133,0.28124319 0 0 0 1.1543,0.28125 1.1547133,0.28124319 0 0 0 1.15429,-0.28125 1.1547133,0.28124319 0 0 0 -1.15429,-0.28125 1.1547133,0.28124319 0 0 0 -0.082,0 z m 42.35351,1.0625 a 0.95185826,0.34374169 0 0 0 -0.82617,0.17383 0.71779473,0.32811706 0 0 0 -0.46875,-0.0801 0.71779473,0.32811706 0 0 0 -0.7168,0.32812 0.71779473,0.32811706 0 0 0 0.7168,0.32813 0.71779473,0.32811706 0 0 0 0.62109,-0.16407 0.95185826,0.34374169 0 0 0 0.67383,0.10157 0.95185826,0.34374169 0 0 0 0.95117,-0.34375 0.95185826,0.34374169 0 0 0 -0.95117,-0.34375 z m 14.96484,0.125 a 1.1859217,0.42186481 0 0 0 -1.18554,0.42187 1.1859217,0.42186481 0 0 0 1.18554,0.42188 1.1859217,0.42186481 0 0 0 0.32227,-0.0156 0.71779473,0.26561858 0 0 0 0.58203,0.10938 0.71779473,0.26561858 0 0 0 0.71875,-0.26563 0.71779473,0.26561858 0 0 0 -0.4375,-0.24414 1.1859217,0.42186481 0 0 0 0,-0.006 1.1859217,0.42186481 0 0 0 -1.18555,-0.42187 z m 32.3711,2.3125 a 0.98306671,0.18749546 0 0 0 -0.91211,0.1875 0.98306671,0.18749546 0 0 0 0.98242,0.1875 0.98306671,0.18749546 0 0 0 0.98242,-0.1875 0.98306671,0.18749546 0 0 0 -0.98242,-0.1875 0.98306671,0.18749546 0 0 0 -0.0703,0 z m 2.46094,0.25 a 0.84262862,0.21874471 0 0 0 -0.58204,0.0762 0.74900317,0.04687386 0 0 0 -0.54492,-0.0137 0.74900317,0.04687386 0 0 0 -0.74804,0.0469 0.74900317,0.04687386 0 0 0 0.74804,0.0469 0.74900317,0.04687386 0 0 0 0.38867,-0.008 0.84262862,0.21874471 0 0 0 -0.0449,0.0703 0.84262862,0.21874471 0 0 0 0.8418,0.21875 0.84262862,0.21874471 0 0 0 0.84375,-0.21875 0.84262862,0.21874471 0 0 0 -0.84375,-0.21875 0.84262862,0.21874471 0 0 0 -0.0586,0 z m -23.69336,3.25 a 0.70219048,0.21874471 0 0 0 -0.65235,0.21875 0.70219048,0.21874471 0 0 0 0.0195,0.0508 1.4511937,0.35936631 0 0 0 -0.47265,-0.0195 1.4511937,0.35936631 0 0 0 -1.44727,0.34375 1.8881123,0.29686781 0 0 0 -0.83008,-0.0312 1.8881123,0.29686781 0 0 0 -1.88867,0.29687 1.8881123,0.29686781 0 0 0 1.88867,0.29688 1.8881123,0.29686781 0 0 0 1.80079,-0.20899 1.4511937,0.35936631 0 0 0 0.47656,0.0215 1.4511937,0.35936631 0 0 0 0.97461,-0.0937 0.90504548,0.34374169 0 0 0 0.75781,0.15625 0.90504548,0.34374169 0 0 0 0.9043,-0.34375 0.90504548,0.34374169 0 0 0 -0.9043,-0.34375 0.70219048,0.21874471 0 0 1 0.002,-0.002 0.70219048,0.21874471 0 0 0 0.12305,-0.12304 0.70219048,0.21874471 0 0 0 -0.70313,-0.21875 0.70219048,0.21874471 0 0 0 -0.0488,0 z m 28.41797,1.71875 a 0.21845928,0.37499091 0 0 0 -0.20313,0.375 0.21845928,0.37499091 0 0 0 0.0117,0.12109 0.3276889,0.17968316 0 0 0 -0.12109,-0.0117 0.3276889,0.17968316 0 0 0 -0.32813,0.17969 0.3276889,0.17968316 0 0 0 0.20117,0.16602 0.39010584,0.14062159 0 0 0 -0.20117,0.12304 0.39010584,0.14062159 0 0 0 0.0664,0.0781 0.58515876,0.17968316 0 0 0 -0.043,0 0.58515876,0.17968316 0 0 0 -0.58399,0.17969 0.58515876,0.17968316 0 0 0 0.58399,0.17968 0.58515876,0.17968316 0 0 0 0.0234,0 0.21845926,0.15624622 0 0 0 0.1875,0.0781 0.21845926,0.15624622 0 0 0 0.0625,-0.006 0.2340635,0.43748941 0 0 0 -0.0156,0.14648 0.2340635,0.43748941 0 0 0 0.23438,0.4375 0.2340635,0.43748941 0 0 0 0.23437,-0.4375 0.2340635,0.43748941 0 0 0 -0.14063,-0.40039 0.58515876,0.17968316 0 0 0 -0.15039,-0.11719 0.39010584,0.14062159 0 0 0 0.17579,-0.0293 0.4291164,0.20312008 0 0 1 0.002,0 0.4291164,0.20312008 0 0 0 0.27734,0.0469 0.4291164,0.20312008 0 0 0 0.42969,-0.20312 0.4291164,0.20312008 0 0 0 -0.42969,-0.20313 0.4291164,0.20312008 0 0 0 -0.17187,0.0176 0.21845928,0.37499091 0 0 0 0.13281,-0.3457 0.21845928,0.37499091 0 0 0 -0.21875,-0.375 0.21845928,0.37499091 0 0 0 -0.0156,0 z m 21.83789,0.16015 a 0.63996383,0.29830345 0 0 0 -0.59571,0.29883 0.63996383,0.29830345 0 0 0 0.64063,0.29688 0.63996383,0.29830345 0 0 0 0.63867,-0.29688 0.63996383,0.29830345 0 0 0 -0.63867,-0.29883 0.63996383,0.29830345 0 0 0 -0.0449,0 z m -15.56641,0.23047 a 0.68658626,0.20312008 0 0 0 -0.60156,0.13867 0.71779473,0.22655701 0 0 0 -0.49024,-0.0605 0.71779473,0.22655701 0 0 0 -0.47851,0.0586 0.67098201,0.21874471 0 0 0 -0.50391,-0.0742 0.67098201,0.21874471 0 0 0 -0.66992,0.21875 0.67098201,0.21874471 0 0 0 0.66992,0.21875 0.67098201,0.21874471 0 0 0 0.43164,-0.0508 0.71779473,0.22655701 0 0 0 0.49024,0.0801 0.63197145,0.20312008 0 0 0 0.58398,0.12695 0.63197145,0.20312008 0 0 0 0.63281,-0.20312 0.63197145,0.20312008 0 0 0 -0.0176,-0.0469 0.68658626,0.20312008 0 0 1 0.002,0 0.68658626,0.20312008 0 0 0 0.68554,-0.20312 0.68658626,0.20312008 0 0 0 -0.68554,-0.20313 0.68658626,0.20312008 0 0 0 -0.0488,0 z m 5.79102,0.1875 a 1.0298794,0.40624016 0 0 0 -1.0293,0.40625 1.0298794,0.40624016 0 0 0 1.0293,0.40625 1.0298794,0.40624016 0 0 0 1.02929,-0.40625 1.0298794,0.40624016 0 0 0 -1.02929,-0.40625 z m -12.08204,0.16602 a 0.21845928,0.37499091 0 0 0 0.0215,0.004 0.4291164,0.20312008 0 0 0 -0.0566,0.0274 0.3276889,0.17968316 0 0 0 0.0351,-0.0312 z m 7.82227,0.006 a 0.43691853,0.21874471 0 0 0 -0.40625,0.21875 0.43691853,0.21874471 0 0 0 0.4375,0.21875 0.43691853,0.21874471 0 0 0 0.43555,-0.21875 0.43691853,0.21874471 0 0 0 -0.43555,-0.21875 0.43691853,0.21874471 0 0 0 -0.0312,0 z m -7.89453,0.0469 a 0.4291164,0.20312008 0 0 0 -0.0254,0.0234 0.39010584,0.14062159 0 0 0 -0.0274,-0.002 0.3276889,0.17968316 0 0 0 0.0527,-0.0215 z m 2.9375,0.89063 a 0.81142011,0.13280929 0 0 0 -0.75391,0.13281 0.81142011,0.13280929 0 0 0 0.81055,0.13281 0.81142011,0.13280929 0 0 0 0.81055,-0.13281 0.81142011,0.13280929 0 0 0 -0.81055,-0.13281 0.81142011,0.13280929 0 0 0 -0.0566,0 z m 4.01562,0.14062 a 0.51493969,0.25780626 0 0 0 -0.47851,0.25782 0.51493969,0.25780626 0 0 0 0.51367,0.25781 0.51493969,0.25780626 0 0 0 0.51562,-0.25781 0.51493969,0.25780626 0 0 0 -0.51562,-0.25782 0.51493969,0.25780626 0 0 0 -0.0352,0 z m 1.98633,0.0625 a 0.43691853,0.19530778 0 0 0 -0.40625,0.19532 0.43691853,0.19530778 0 0 0 0.11719,0.13281 0.54614816,0.02343693 0 0 0 -0.51953,0.0215 0.54614816,0.02343693 0 0 1 -0.002,0.002 0.54614816,0.02343693 0 0 0 0.002,0.002 0.54614816,0.02343693 0 0 0 0.54297,0.0215 0.54614816,0.02343693 0 0 0 0.12695,0 0.43691853,0.19530778 0 0 0 0.16992,0.0156 0.43691853,0.19530778 0 0 0 0.37695,-0.0957 0.44472066,0.17968316 0 0 0 0.41016,0.11133 0.44472066,0.17968316 0 0 0 0.44531,-0.17969 0.44472066,0.17968316 0 0 0 -0.44531,-0.17968 0.44472066,0.17968316 0 0 0 -0.375,0.084 0.43691853,0.19530778 0 0 0 -0.41211,-0.13086 0.43691853,0.19530778 0 0 0 -0.0312,0 z m -3.93555,0.15625 a 0.70999261,0.07812311 0 0 0 -0.58984,0.0781 0.70999261,0.07812311 0 0 0 0.71094,0.0781 0.70999261,0.07812311 0 0 0 0.70898,-0.0781 0.70999261,0.07812311 0 0 0 -0.70898,-0.0781 0.70999261,0.07812311 0 0 0 -0.0508,0 0.70999261,0.07812311 0 0 0 -0.0703,0 z"
         transform="matrix(2.8609453,0,0,2.857212,-3483.2762,247.28458)"
         id="path8581"
         inkscape:connector-curvature="0" />
    </g>
  </g>
</svg>
