<?xml version="1.0" encoding="UTF-8" standalone="no"?>
<!-- Created with Inkscape (http://www.inkscape.org/) -->

<svg
   xmlns:dc="http://purl.org/dc/elements/1.1/"
   xmlns:cc="http://creativecommons.org/ns#"
   xmlns:rdf="http://www.w3.org/1999/02/22-rdf-syntax-ns#"
   xmlns:svg="http://www.w3.org/2000/svg"
   xmlns="http://www.w3.org/2000/svg"
   xmlns:sodipodi="http://sodipodi.sourceforge.net/DTD/sodipodi-0.dtd"
   xmlns:inkscape="http://www.inkscape.org/namespaces/inkscape"
   width="55.281738mm"
   height="68.556282mm"
   viewBox="0 0 195.88017 242.91595"
   id="svg6331"
   version="1.1"
   inkscape:version="0.91 r"
   sodipodi:docname="Thomas-Chippendale.svg">
  <defs
     id="defs6333">
    <inkscape:path-effect
       effect="spiro"
       id="path-effect4254"
       is_visible="true" />
    <inkscape:path-effect
       effect="spiro"
       id="path-effect4250"
       is_visible="true" />
    <inkscape:path-effect
       effect="spiro"
       id="path-effect4237"
       is_visible="true" />
    <inkscape:path-effect
       effect="spiro"
       id="path-effect4233"
       is_visible="true" />
    <inkscape:path-effect
       effect="spiro"
       id="path-effect4229"
       is_visible="true" />
    <inkscape:path-effect
       effect="spiro"
       id="path-effect4225"
       is_visible="true" />
    <inkscape:path-effect
       effect="spiro"
       id="path-effect4221"
       is_visible="true" />
    <inkscape:path-effect
       effect="spiro"
       id="path-effect4217"
       is_visible="true" />
    <inkscape:path-effect
       effect="spiro"
       id="path-effect4213"
       is_visible="true" />
    <inkscape:path-effect
       effect="spiro"
       id="path-effect4209"
       is_visible="true" />
    <inkscape:path-effect
       effect="spiro"
       id="path-effect4205"
       is_visible="true" />
    <inkscape:path-effect
       effect="spiro"
       id="path-effect4201"
       is_visible="true" />
    <inkscape:path-effect
       effect="spiro"
       id="path-effect4197"
       is_visible="true" />
    <inkscape:path-effect
       effect="spiro"
       id="path-effect4189"
       is_visible="true" />
    <inkscape:path-effect
       effect="spiro"
       id="path-effect4185"
       is_visible="true" />
    <inkscape:path-effect
       effect="spiro"
       id="path-effect4181"
       is_visible="true" />
    <inkscape:path-effect
       effect="spiro"
       id="path-effect4177"
       is_visible="true" />
    <inkscape:path-effect
       effect="spiro"
       id="path-effect4173"
       is_visible="true" />
    <inkscape:path-effect
       effect="spiro"
       id="path-effect4169"
       is_visible="true" />
    <inkscape:path-effect
       effect="spiro"
       id="path-effect4165"
       is_visible="true" />
  </defs>
  <sodipodi:namedview
     id="base"
     pagecolor="#ffffff"
     bordercolor="#666666"
     borderopacity="1.0"
     inkscape:pageopacity="0.0"
     inkscape:pageshadow="2"
     inkscape:zoom="1.979899"
     inkscape:cx="-31.418583"
     inkscape:cy="87.213551"
     inkscape:document-units="mm"
     inkscape:current-layer="g4325"
     showgrid="false"
     fit-margin-top="5"
     fit-margin-left="5"
     fit-margin-right="5"
     fit-margin-bottom="5"
     showguides="false" />
  <metadata
     id="metadata6336">
    <rdf:RDF>
      <cc:Work
         rdf:about="">
        <dc:format>image/svg+xml</dc:format>
        <dc:type
           rdf:resource="http://purl.org/dc/dcmitype/StillImage" />
        <dc:title></dc:title>
      </cc:Work>
    </rdf:RDF>
  </metadata>
  <g
     inkscape:label="Calque 1"
     inkscape:groupmode="layer"
     id="layer1"
     transform="translate(-284.08524,-329.66508)">
    <g
       id="g4303"
       transform="translate(303.84882,6.4942018)">
      <g
         id="g4325">
        <path
           style="fill:none;fill-rule:evenodd;stroke:#23773f;stroke-width:2.65237319;stroke-linecap:round;stroke-linejoin:round;stroke-miterlimit:4;stroke-dasharray:none;stroke-opacity:0.99607843"
           d="m -111.36932,49.20625 c 2.15183,7.358192 3.09421,15.068582 2.77792,22.728433 -0.22278,5.395168 -1.06425,10.762945 -1.01015,16.16244 0.0308,3.074651 0.35214,6.15017 0.16501,9.219276 -0.15496,2.541561 -0.65703,5.048461 -1.2058,7.534901 -0.84137,3.81219 -1.79547,7.5987 -2.79464,11.3726 -1.34103,5.06513 -2.76475,10.11269 -4.49833,15.05724 -0.97371,2.77725 -2.05412,5.5395 -3.61432,8.03489 -1.56021,2.49539 -3.63433,4.72903 -6.23467,6.10725 -2.30315,1.2207 -4.92952,1.72637 -7.53354,1.84334 -2.60403,0.11698 -5.20838,-0.13868 -7.80569,-0.35919 -5.78021,-0.49073 -11.61231,-0.81447 -17.23819,-2.22907 -5.37342,-1.35112 -10.49536,-3.69567 -15.02973,-6.87981"
           id="path4163"
           inkscape:path-effect="#path-effect4165"
           inkscape:original-d="m -111.36932,49.20625 c 2.27284,17.425132 5.05076,18.182746 2.77792,22.728433 -2.27284,4.545686 -1.51522,12.879443 -1.01015,16.16244 0.33326,2.166203 0.55726,5.04384 0.16501,9.219276 -0.20222,2.152659 -0.17492,5.043591 -1.2058,7.534901 -1.18196,2.85639 -1.75137,7.79442 -2.79464,11.3726 -1.63161,5.59607 -3.11195,11.36023 -4.49833,15.05724 -2.27284,6.06092 1.26269,11.8693 -9.84899,14.14214 -5.1677,1.05703 -10.28078,1.4586 -15.33923,1.48415 -5.81833,0.0294 -11.56439,-1.68871 -17.23819,-2.22907 -10.6066,-1.01015 -10.23151,-3.84935 -15.02973,-6.87981"
           inkscape:connector-curvature="0"
           transform="matrix(0.80140106,0,0,0.80167975,223.63707,343.18104)"
           sodipodi:nodetypes="csssssssssc" />
        <path
           sodipodi:nodetypes="csssssssssssssssssssssssssssssssszsc"
           style="fill:none;fill-rule:evenodd;stroke:#23773f;stroke-width:2.65237319;stroke-linecap:round;stroke-linejoin:round;stroke-miterlimit:4;stroke-dasharray:none;stroke-opacity:0.99607843"
           d="m -161.59685,-0.34724398 c 10.42383,-2.40262132 21.41702,-2.29592772 31.79225,0.30855754 2.57064,0.64530417 5.11702,1.44672934 7.47824,2.65056964 2.36122,1.2038402 4.54049,2.8266253 6.15882,4.9255745 1.50027,1.9458267 2.4779,4.2388373 3.33308,6.5422523 0.85518,2.303414 1.60837,4.655067 2.72783,6.842269 1.37678,2.689938 3.27754,5.07287 4.84867,7.654115 1.57114,2.581244 2.83763,5.488533 2.72748,8.508326 -0.0698,1.913492 -0.6972,3.783293 -1.65444,5.44161 -0.95724,1.658318 -2.23684,3.114116 -3.64886,4.407377 -2.92188,2.676132 -6.4846,4.703629 -10.35407,5.555839 -3.60454,0.793863 -7.39532,0.553487 -10.9589,-0.407689 -3.56358,-0.961175 -6.91071,-2.626057 -10.00176,-4.643074 -2.27388,-1.483784 -4.41865,-3.159863 -6.7102,-4.616209 -2.29155,-1.456346 -4.76504,-2.7028 -7.43194,-3.212473 -2.64031,-0.504592 -5.38749,-0.265594 -7.98513,0.425881 -2.59765,0.691475 -5.05864,1.824631 -7.4197,3.109653 -5.08916,2.769808 -9.77736,6.272282 -13.88959,10.354064 -2.72304,2.702885 -5.21444,5.688502 -6.96897,9.100569 -1.75453,3.412066 -2.74507,7.283639 -2.37494,11.102482 0.50316,5.191358 3.40526,9.789146 5.3033,14.647212 0.63664,1.629495 1.16698,3.308642 1.99264,4.851 0.82565,1.542358 1.99071,2.968587 3.5632,3.735296 1.10145,0.537042 2.35223,0.728104 3.42751,1.3158 0.53764,0.293848 1.03067,0.693092 1.35129,1.215211 0.1603,0.261059 0.27571,0.550941 0.32651,0.853051 0.0508,0.30211 0.0361,0.61645 -0.0546,0.90909 -0.13111,0.42339 -0.41364,0.7848 -0.73207,1.09311 -0.31844,0.3083 -0.67653,0.57267 -1.00497,0.87028 -0.32844,0.29762 -0.63233,0.63678 -0.80469,1.04512 -0.0862,0.20417 -0.138,0.42408 -0.13938,0.64569 -0.001,0.22161 0.0487,0.44488 0.15573,0.63894 0.17475,0.31686 0.49174,0.53835 0.8337,0.65668 0.34196,0.11833 0.70935,0.14248 1.07118,0.13866 0.36183,-0.004 0.72351,-0.0345 1.08514,-0.0216 0.36162,0.0129 0.72831,0.0718 1.05059,0.2364 0.45784,0.23377 0.79642,0.67569 0.93734,1.17007 0.14092,0.49437 0.0908,1.03472 -0.10545,1.50986 -0.19623,0.47514 -0.5332,0.88598 -0.93885,1.20175 -0.40564,0.31578 -0.8784,0.5391 -1.37019,0.6888 -0.98357,0.29939 -2.02842,0.30733 -3.05638,0.3264 -1.02795,0.0191 -2.07624,0.0555 -3.04262,0.40642 -0.80464,0.2922 -1.52644,0.79801 -2.10063,1.43294 -0.57419,0.63493 -1.00232,1.3967 -1.27794,2.20717 -0.55125,1.62094 -0.48733,3.40502 -0.068,5.065 0.83858,3.31995 2.99957,6.12641 4.45677,9.2251 2.57534,5.4764 2.88837,11.6932 3.78807,17.67767 0.80763,5.3721 2.12317,10.74161 1.76776,16.16244 -0.37149,5.66614 -2.60389,11.15269 -6.06091,15.65736 -4.57933,5.9671 -11.23768,10.19007 -18.43528,12.37437 -5.88792,1.78684 -12.07818,2.25935 -18.18275,3.03046 -5.37056,0.67839 -10.81443,1.59544 -16.16244,0.75761 -3.19039,-0.49982 -6.24662,-1.61148 -9.34391,-2.52538 -2.46354,-0.7269 -4.96532,-1.33177 -7.38739,-2.18673 -2.42207,-0.85496 -4.78323,-1.97529 -6.75475,-3.62165 -2.17955,-1.82007 -3.82076,-4.24409 -4.8695,-6.88288 -1.04875,-2.63879 -1.51807,-5.48821 -1.55281,-8.32755 -0.0695,-5.67869 1.56324,-11.2327 3.39185,-16.60937 3.3867,-9.95792 7.50109,-19.67574 10.35407,-29.7995 3.90691,-13.8636 5.391,-28.276283 8.08122,-42.426409 2.53691,-13.343757 6.1599,-26.49542 11.11168,-39.143412 4.47043,-11.418518 10.24116,-22.707264 19.44543,-30.809652 10.31738,-9.0822461 24.39796,-13.40596039 38.13326,-12.8794453 2.83674,0.10874064 5.713,0.42411624 8.33376,1.5152288 4.02845,1.6771824 7.13889,5.0733019 9.34391,8.8388345 3.64154,6.218705 5.09356,13.69117 4.04586,20.821068"
           id="path4167"
           inkscape:path-effect="#path-effect4169"
           inkscape:original-d="m -161.59685,-0.34724398 c 9.09137,-0.5050763 25.73133,-0.95413312 31.79225,0.30855754 6.06091,1.26269064 10.6066,2.52538134 13.63706,7.57614414 3.03045,5.0507623 -0.25254,4.5456863 6.06091,13.3845213 6.31346,8.838835 7.32361,11.364216 7.57615,16.162441 0.25253,4.798224 0.75761,6.565991 -5.3033,9.848987 -6.06092,3.282996 0.75761,9.848987 -10.35407,5.555839 -11.11168,-4.293148 -16.92005,-3.535534 -20.96066,-5.050763 -4.04061,-1.515228 -10.35407,-8.08122 -14.14214,-7.828682 -3.78807,0.252538 -9.09137,-0.757614 -15.40483,3.535534 -6.31345,4.293148 -9.34391,6.060915 -13.88959,10.354064 -4.54569,4.293148 -9.84899,15.152288 -9.34391,20.203051 0.50507,5.050762 2.77792,9.596449 5.3033,14.647212 2.52538,5.050762 2.77792,7.323606 5.55584,8.586296 2.77792,1.262691 9.34391,2.020305 5.05076,4.293152 -4.29315,2.27284 -3.78807,3.78807 -2.52538,4.29314 1.26269,0.50508 6.31345,-0.75761 4.04061,1.01016 -2.27285,1.76776 -5.3033,0.25254 -7.57615,5.3033 -2.27284,5.05076 0.75762,13.8896 1.01016,17.93021 0.25253,4.04061 2.77792,12.12183 3.78807,17.67767 1.01015,5.55583 3.03046,8.33375 1.76776,16.16244 -1.26269,7.82868 4.04061,7.82868 -6.06091,15.65736 -10.10153,7.82868 -11.86929,9.59645 -18.43528,12.37437 -6.566,2.77792 -13.13199,3.78807 -18.18275,3.03046 -5.05076,-0.75762 -13.13198,0.50507 -16.16244,0.75761 -3.03046,0.25254 -0.50508,1.76777 -9.34391,-2.52538 -8.83884,-4.29315 -12.37437,-5.05076 -14.14214,-5.80838 -1.76777,-0.75761 -5.80838,-25.75889 -3.03046,-31.8198 2.77792,-6.06092 8.5863,-18.43529 10.35407,-29.7995 1.76776,-11.36422 5.05076,-33.840113 8.08122,-42.426409 3.03046,-8.586297 6.31345,-32.072344 11.11168,-39.143412 4.79822,-7.071067 13.88959,-28.789347 19.44543,-30.809652 5.55584,-2.020305 33.33504,-13.13198344 38.13326,-12.8794453 4.79823,0.25253813 5.16184,-0.0909761 8.33376,1.5152288 3.17192,1.6062049 8.83883,4.2931484 9.34391,8.8388345 0.50508,4.545687 4.04586,20.821068 4.04586,20.821068"
           inkscape:connector-curvature="0"
           transform="matrix(0.80140106,0,0,0.80167975,223.63707,343.18104)" />
        <path
           style="fill:none;fill-rule:evenodd;stroke:#23773f;stroke-width:2.65237319;stroke-linecap:round;stroke-linejoin:round;stroke-miterlimit:4;stroke-dasharray:none;stroke-opacity:0.99607843"
           d="m -159.55357,62.241282 c 5.79323,-2.655354 12.70403,-2.755029 18.57143,-0.267858 2.42111,1.026302 4.71845,2.483484 7.32142,2.857143 0.51119,0.07338 1.03813,0.102719 1.53934,-0.02171 0.25061,-0.06222 0.49279,-0.163069 0.70603,-0.308683 0.21324,-0.145613 0.39704,-0.33677 0.52249,-0.562464 0.13161,-0.236784 0.19695,-0.508482 0.19809,-0.779384 0.001,-0.270901 -0.061,-0.540749 -0.17073,-0.788443 -0.21942,-0.495387 -0.62308,-0.893041 -1.08286,-1.179679 -0.91955,-0.573276 -2.03316,-0.721757 -3.05164,-1.09178 -1.40409,-0.510118 -2.61256,-1.435882 -3.92857,-2.142857 -2.02135,-1.085894 -4.27774,-1.646007 -6.51786,-2.142857 -2.34727,-0.520616 -4.76568,-0.9852 -7.14286,-0.625 -3.25574,0.493324 -6.06656,2.466499 -8.75,4.375 -1.93131,1.373576 -3.86584,2.742629 -5.80357,4.107143 l -0.71428,0.357143"
           id="path4171"
           inkscape:path-effect="#path-effect4173"
           inkscape:original-d="m -159.55357,62.241282 c 0,-0.357143 14.28571,-2.500001 18.57143,-0.267858 4.28571,2.232143 5.44642,2.321429 7.32142,2.857143 1.875,0.535715 2.5,0.535715 2.76786,-0.892857 0.26786,-1.428571 -2.32143,-3.392857 -4.10714,-3.839286 -1.78572,-0.446428 -0.625,-1.25 -3.92857,-2.142857 -3.30357,-0.892857 -3.83929,-1.875 -6.51786,-2.142857 -2.67857,-0.267857 -3.30357,-1.071429 -7.14286,-0.625 -3.83928,0.446429 -7.85714,3.125 -8.75,4.375 -0.89285,1.25 -5.80357,4.107143 -5.80357,4.107143 l -0.71428,0.357143"
           inkscape:connector-curvature="0"
           transform="matrix(0.80140106,0,0,0.80167975,223.63707,343.18104)" />
        <path
           style="fill:none;fill-rule:evenodd;stroke:#23773f;stroke-width:2.65237319;stroke-linecap:round;stroke-linejoin:round;stroke-miterlimit:4;stroke-dasharray:none;stroke-opacity:0.99607843"
           d="m -161.96429,75.455567 c 1.28454,-2.234716 3.32884,-4.023475 5.71429,-5 1.60586,-0.657383 3.35506,-0.951366 5.08928,-0.892857 1.76923,0.05969 3.53631,0.489582 5.08929,1.339286 1.4344,0.784819 2.65856,1.907552 3.75,3.125 0.0927,0.103369 0.18512,0.209159 0.24867,0.332585 0.0636,0.123425 0.0956,0.2658 0.0728,0.402751 -0.0227,0.136951 -0.10127,0.262541 -0.21082,0.347808 -0.10956,0.08527 -0.24504,0.128717 -0.37853,0.166856 l -1.875,0.535714"
           id="path4175"
           inkscape:path-effect="#path-effect4177"
           inkscape:original-d="m -161.96429,75.455567 c 3.30357,-2.678571 2.05357,-4.107143 5.71429,-5 3.66071,-0.892857 1.60714,-1.25 5.08928,-0.892857 3.48215,0.357143 2.41072,0 5.08929,1.339286 2.67857,1.339286 3.75,2.5 3.75,3.125 0,0.625 1.60714,0.714286 -0.26786,1.25 -1.875,0.535714 -1.875,0.535714 -1.875,0.535714"
           inkscape:connector-curvature="0"
           transform="matrix(0.80140106,0,0,0.80167975,223.63707,343.18104)" />
        <path
           style="fill:none;fill-rule:evenodd;stroke:#23773f;stroke-width:2.65237319;stroke-linecap:round;stroke-linejoin:round;stroke-miterlimit:4;stroke-dasharray:none;stroke-opacity:0.99607843"
           d="m -161.875,71.705567 c 2.46521,-2.88685 5.98227,-4.855113 9.73214,-5.446428 2.14193,-0.33776 4.36946,-0.233292 6.42857,0.446428 1.48679,0.490796 2.86882,1.274041 4.10715,2.232143 0.95078,0.735624 1.82076,1.575606 2.58928,2.5"
           id="path4179"
           inkscape:path-effect="#path-effect4181"
           inkscape:original-d="m -161.875,71.705567 c 3.83928,-3.482143 4.73214,-5.625 9.73214,-5.446428 5,0.178571 3.92857,-0.267857 6.42857,0.446428 2.5,0.714286 3.125,1.071429 4.10715,2.232143 0.98214,1.160714 2.58928,2.5 2.58928,2.5"
           inkscape:connector-curvature="0"
           transform="matrix(0.80140106,0,0,0.80167975,223.63707,343.18104)" />
        <path
           style="fill:none;fill-rule:evenodd;stroke:#23773f;stroke-width:2.65237319;stroke-linecap:round;stroke-linejoin:round;stroke-miterlimit:4;stroke-dasharray:none;stroke-opacity:0.99607843"
           d="m -117.14286,62.776996 c 1.37108,1.065356 3.24631,1.449899 4.92603,1.010153 0.36888,-0.09657 0.73005,-0.231387 1.05603,-0.429206 0.32599,-0.197819 0.61648,-0.460707 0.81897,-0.783811 0.23205,-0.370269 0.34209,-0.813178 0.3252,-1.249826 -0.0169,-0.436648 -0.15875,-0.86585 -0.3928,-1.234856 -0.47071,-0.742121 -1.2948,-1.214439 -2.15524,-1.393196 -0.86044,-0.178757 -1.75701,-0.08889 -2.61389,0.106213 -1.4801,0.336993 -2.91289,1.006345 -3.97702,2.088879 -1.19082,1.211412 -1.83973,2.838851 -2.74742,4.2747 -1.06269,1.681043 -2.51251,3.1505 -3.18628,5.021664 -0.50931,1.414434 -0.53337,2.96507 -0.32338,4.453668 0.21,1.488597 0.64505,2.934456 1.03767,4.385618 1.29083,4.77106 2.13663,9.662519 3.64843,14.36823 0.59886,1.864056 1.31113,3.769805 1.12875,5.719185 -0.082,0.876051 -0.34504,1.729039 -0.71133,2.529049 -0.59992,1.31028 -1.50054,2.50829 -2.70444,3.30036 -0.97504,0.6415 -2.13643,1.00104 -3.30357,1.00328 -0.67137,0.001 -1.34943,-0.11604 -1.95682,-0.40207 -0.6074,-0.28603 -1.14107,-0.74769 -1.45816,-1.33946 -0.22228,-0.41483 -0.33327,-0.87821 -0.47915,-1.32566 -0.14587,-0.44746 -0.33801,-0.89734 -0.68157,-1.21899 -0.35367,-0.33111 -0.83878,-0.49457 -1.32118,-0.53934 -0.48241,-0.0448 -0.96774,0.0199 -1.44668,0.0929 -0.6544,0.0998 -1.32773,0.22397 -1.87853,0.59116 -0.27539,0.18359 -0.51456,0.42783 -0.66558,0.72235 -0.15102,0.29452 -0.20959,0.64094 -0.13446,0.96328 0.083,0.3562 0.32285,0.66233 0.6168,0.87996 0.29396,0.21762 0.63999,0.35435 0.99035,0.45933 0.92969,0.27856 1.9215,0.34765 2.88083,0.20067"
           id="path4183"
           inkscape:path-effect="#path-effect4185"
           inkscape:original-d="m -117.14286,62.776996 c 3.125,-0.08929 3.49746,1.456581 4.92603,1.010153 1.42858,-0.446429 1.69643,-0.141588 1.875,-1.213017 0.17858,-1.071429 1.45024,-1.770396 -0.0676,-2.484682 -1.51786,-0.714286 -2.62627,-2.269126 -4.76913,-1.286983 -0.89923,0.412145 -3.09562,0.874161 -3.97702,2.088879 -1.21897,1.679962 -2.07378,3.134704 -2.74742,4.2747 -1.16072,1.964281 -2.20413,2.61095 -3.18628,5.021664 -0.98214,2.410714 0.26786,6.875 0.71429,8.839286 0.28733,1.264236 2.23854,9.189583 3.64843,14.36823 0.7807,2.867588 1.16057,5.178238 1.12875,5.719185 -0.0463,0.787288 0.0662,0.904049 -0.71133,2.529049 -0.72147,1.50793 -2.71332,4.14769 -2.70444,3.30036 0.0452,-4.3156 -1.33928,2.25328 -3.30357,1.00328 -1.96429,-1.25 -3.14713,-0.40225 -3.41498,-1.74153 -0.26786,-1.33929 -0.0893,-2.18751 -1.16072,-2.54465 -1.07142,-0.35714 -0.71429,-1.42857 -2.76786,-0.44643 -2.05357,0.98215 -2.85714,1.47322 -2.67857,2.27679 0.17857,0.80357 -0.35714,1.07143 1.60715,1.33929 1.96428,0.26785 2.88083,0.20067 2.88083,0.20067"
           inkscape:connector-curvature="0"
           transform="matrix(0.80140106,0,0,0.80167975,223.63707,343.18104)"
           sodipodi:nodetypes="cssssssssscssssssssc" />
        <path
           style="fill:none;fill-rule:evenodd;stroke:#23773f;stroke-width:2.65237319;stroke-linecap:round;stroke-linejoin:round;stroke-miterlimit:4;stroke-dasharray:none;stroke-opacity:0.99607843"
           d="m -140.08929,97.241282 c -0.63261,0.554277 -1.11958,1.273322 -1.39951,2.066452 -0.27993,0.793126 -0.35218,1.658546 -0.20763,2.487116 0.11572,0.66335 0.38101,1.30634 0.80995,1.82541 0.42895,0.51906 1.01214,0.88329 1.60077,1.21031 l 2.41071,1.33928"
           id="path4187"
           inkscape:path-effect="#path-effect4189"
           inkscape:original-d="m -140.08929,97.241282 c -0.26785,3.124998 -0.068,5.913008 -1.60714,4.553568 -1.71659,-1.51614 -1.7606,0.71831 2.41072,3.03572 l 2.41071,1.33928"
           inkscape:connector-curvature="0"
           transform="matrix(0.80140106,0,0,0.80167975,223.63707,343.18104)"
           sodipodi:nodetypes="cssc" />
        <circle
           style="opacity:1;fill:#23763f;fill-opacity:0.99607843;stroke:none;stroke-width:1.26141727;stroke-linecap:round;stroke-linejoin:round;stroke-miterlimit:4;stroke-dasharray:none;stroke-dashoffset:12.75590515;stroke-opacity:0.99607843"
           id="path4191"
           cx="-153.66072"
           cy="73.669853"
           r="3.3035715"
           transform="matrix(0.80140106,0,0,0.80167975,223.63707,343.18104)" />
        <circle
           transform="matrix(0.80140106,0,0,0.80167975,251.11367,343.82525)"
           r="3.3035715"
           cy="73.669853"
           cx="-153.66072"
           id="circle4193"
           style="opacity:1;fill:#23763f;fill-opacity:0.99607843;stroke:none;stroke-width:1.26141727;stroke-linecap:round;stroke-linejoin:round;stroke-miterlimit:4;stroke-dasharray:none;stroke-dashoffset:12.75590515;stroke-opacity:0.99607843" />
        <path
           style="fill:none;fill-rule:evenodd;stroke:#23773f;stroke-width:2.65237319;stroke-linecap:round;stroke-linejoin:round;stroke-miterlimit:4;stroke-dasharray:none;stroke-opacity:0.99607843"
           d="m -122.67857,71.169853 c 1.85946,-0.406465 3.79717,-0.451757 5.67359,-0.132614 1.20148,0.204348 2.38421,0.559728 3.45945,1.133453 0.72167,0.385067 1.40745,0.883412 1.84936,1.571746 0.22096,0.344167 0.37694,0.732849 0.43139,1.138198 0.0544,0.405349 0.005,0.827359 -0.16379,1.199931 -0.14858,0.328116 -0.38859,0.614252 -0.68586,0.817644 -0.29727,0.203393 -0.65092,0.323451 -1.01057,0.343071"
           id="path4195"
           inkscape:path-effect="#path-effect4197"
           inkscape:original-d="m -122.67857,71.169853 c 3.125,-1.071429 3.79859,-1.293328 5.67359,-0.132614 0.88688,0.549022 2.28227,0.158254 3.45945,1.133453 1.31155,1.086515 2.35223,3.53345 2.11696,3.909875 -0.44643,0.714286 -1.69643,1.160715 -1.69643,1.160715"
           inkscape:connector-curvature="0"
           transform="matrix(0.80140106,0,0,0.80167975,223.63707,343.18104)"
           sodipodi:nodetypes="csssc" />
        <path
           style="fill:none;fill-rule:evenodd;stroke:#23773f;stroke-width:2.65237319;stroke-linecap:round;stroke-linejoin:round;stroke-miterlimit:4;stroke-dasharray:none;stroke-opacity:0.99607843"
           d="m -121.88769,68.11882 c 1.5843,-0.519878 3.28421,-0.684085 4.93872,-0.477067 0.97012,0.121384 1.93099,0.371574 2.80197,0.815725 0.87097,0.444151 1.65041,1.088728 2.18271,1.908804 0.28425,0.437924 0.49629,0.922597 0.625,1.428571"
           id="path4199"
           inkscape:path-effect="#path-effect4201"
           inkscape:original-d="m -121.88769,68.11882 c 1.78571,-1.071429 1.36729,-2.352067 4.93872,-0.477067 3.57143,1.875 4.62754,1.474529 4.98468,2.724529 0.35715,1.25 0.625,1.428571 0.625,1.428571"
           inkscape:connector-curvature="0"
           transform="matrix(0.80140106,0,0,0.80167975,223.63707,343.18104)"
           sodipodi:nodetypes="cssc" />
        <path
           style="fill:none;fill-rule:evenodd;stroke:#23773f;stroke-width:2.65237319;stroke-linecap:round;stroke-linejoin:round;stroke-miterlimit:4;stroke-dasharray:none;stroke-opacity:0.99607843"
           d="m -141.69643,118.75914 c 2.25064,-0.51196 4.35013,-1.67138 5.98214,-3.30357 0.65478,-0.65485 1.23587,-1.38356 1.92794,-1.99888 0.69206,-0.61531 1.52563,-1.12306 2.44706,-1.21541 0.87725,-0.0879 1.74144,0.20468 2.58929,0.44643 1.01614,0.28973 2.07984,0.51242 3.125,0.35714 0.38889,-0.0578 0.76801,-0.16701 1.15187,-0.25199 0.38387,-0.085 0.77852,-0.14598 1.16956,-0.10515 0.49651,0.0519 0.96979,0.26964 1.35292,0.58967 0.38313,0.32002 0.67797,0.7392 0.87922,1.19604 0.35342,0.80225 0.42297,1.71028 0.80357,2.5 0.30641,0.63578 0.81251,1.17352 1.42857,1.51786 -0.45284,-0.1453 -0.95343,-0.13716 -1.4013,0.0228 -0.44787,0.15996 -0.84036,0.47077 -1.0987,0.87007 -0.22595,0.34924 -0.34712,0.75434 -0.46051,1.15455 -0.11339,0.4002 -0.22393,0.8069 -0.43234,1.16688 -0.33434,0.5775 -0.90319,0.9945 -1.52342,1.24068 -0.62023,0.24617 -1.29222,0.334 -1.95873,0.36646 -1.97284,0.0961 -3.98784,-0.29046 -5.71428,-1.25 -1.15692,-0.64301 -2.17584,-1.5332 -3.39286,-2.05357 -1.03422,-0.4422 -2.18908,-0.59826 -3.30357,-0.44643"
           id="path4203"
           inkscape:path-effect="#path-effect4205"
           inkscape:original-d="m -141.69643,118.75914 c 4.01786,-1.60714 4.375,-2.32143 5.98214,-3.30357 1.60715,-0.98215 3.75,-2.58929 4.375,-3.21429 0.625,-0.625 0.98215,-0.0893 2.58929,0.44643 1.60714,0.53571 1.25,0.71429 3.125,0.35714 1.875,-0.35714 1.25,-1.07143 2.32143,-0.35714 1.07143,0.71429 2.14286,0.53571 2.23214,1.78571 0.0893,1.25 0,1.42858 0.80357,2.5 0.80357,1.07143 1.42857,1.51786 1.42857,1.51786 0,0 -1.51785,0.17857 -2.5,0.89286 -0.98214,0.71428 -0.44642,1.33928 -0.89285,2.32143 -0.44643,0.98214 -0.89286,2.14285 -3.48215,1.60714 -2.58928,-0.53571 -4.28571,-0.625 -5.71428,-1.25 -1.42857,-0.625 -2.14286,-1.78571 -3.39286,-2.05357 -1.25,-0.26786 -2.41071,-0.80357 -3.30357,-0.44643"
           inkscape:connector-curvature="0"
           transform="matrix(0.80140106,0,0,0.80167975,223.63707,343.18104)" />
        <path
           style="fill:none;fill-rule:evenodd;stroke:#23773f;stroke-width:2.65237319;stroke-linecap:round;stroke-linejoin:round;stroke-miterlimit:4;stroke-dasharray:none;stroke-opacity:0.99607843"
           d="m -135.71429,117.86628 c 1.98493,-0.40578 3.97977,-0.76307 5.98215,-1.07143 1.93184,-0.2975 3.95381,-0.5423 5.80357,0.0893 0.7484,0.25554 1.44864,0.65133 2.05357,1.16071"
           id="path4207"
           inkscape:path-effect="#path-effect4209"
           inkscape:original-d="m -135.71429,117.86628 c 3.30357,-0.80357 3.48215,-1.25 5.98215,-1.07143 2.5,0.17857 3.125,-0.35714 5.80357,0.0893 2.67857,0.44643 2.05357,1.16071 2.05357,1.16071"
           inkscape:connector-curvature="0"
           transform="matrix(0.80140106,0,0,0.80167975,223.63707,343.18104)" />
        <path
           style="fill:none;fill-rule:evenodd;stroke:#23773f;stroke-width:2.65237319;stroke-linecap:round;stroke-linejoin:round;stroke-miterlimit:4;stroke-dasharray:none;stroke-opacity:0.99607843"
           d="m -135.71429,129.027 c 2.22251,-1.15971 4.72528,-1.77767 7.23215,-1.78572 0.97264,-0.003 1.95111,0.0852 2.8879,0.34686 0.93678,0.26169 1.8328,0.70198 2.55853,1.34957 0.94365,0.84204 1.5723,2.02923 1.73843,3.28299"
           id="path4211"
           inkscape:path-effect="#path-effect4213"
           inkscape:original-d="m -135.71429,129.027 c 2.76786,-0.80358 4.01786,-1.96429 7.23215,-1.78572 3.21428,0.17857 5.17857,0.17857 5.44643,1.69643 0.26785,1.51786 2.18485,2.03299 1.73843,3.28299"
           inkscape:connector-curvature="0"
           transform="matrix(0.80140106,0,0,0.80167975,223.63707,343.18104)"
           sodipodi:nodetypes="cssc" />
        <path
           style="fill:none;fill-rule:evenodd;stroke:#23773f;stroke-width:2.65237319;stroke-linecap:round;stroke-linejoin:round;stroke-miterlimit:4;stroke-dasharray:none;stroke-opacity:0.99607843"
           d="m -141.04255,163.10095 c 2.92352,-2.87244 7.16254,-4.34895 11.23795,-3.91434 3.00856,0.32084 5.84104,1.61083 8.83883,2.0203 2.75577,0.37642 5.56412,-0.003 8.33376,0.25254 2.83721,0.26127 5.70098,1.25512 7.70241,3.283 1.20056,1.21643 2.05647,2.79395 2.30235,4.48528 0.24588,1.69133 -0.14419,3.48855 -1.16592,4.85863 -0.70245,0.94195 -1.6639,1.6529 -2.48856,2.48994 -0.41233,0.41853 -0.79376,0.87324 -1.07837,1.38722 -0.28462,0.51397 -0.46998,1.09117 -0.47368,1.67868 -0.004,0.59384 0.179,1.18101 0.47668,1.69486 0.29767,0.51386 0.70716,0.95716 1.16481,1.3356 1.52591,1.2618 3.52936,1.78324 5.49034,2.05725 1.960987,0.27401 3.960277,0.33834 5.873879,0.84693 2.518814,0.66944 4.772082,2.07614 7.197337,3.03046 1.084307,0.42666 2.222292,0.77262 3.165821,1.45637 0.471764,0.34187 0.889353,0.76864 1.170575,1.27889 0.281222,0.51025 0.420035,1.1077 0.33556,1.68416 -0.07962,0.54332 -0.351757,1.04481 -0.702877,1.46701 -0.35112,0.4222 -0.779936,0.77236 -1.215959,1.10616 -0.436022,0.3338 -0.883461,0.65519 -1.283647,1.03121 -0.400186,0.37601 -0.755079,0.81245 -0.964396,1.32011 -0.184085,0.44647 -0.250075,0.93775 -0.217243,1.41956 0.03283,0.48181 0.162722,0.95443 0.355938,1.39703 0.386431,0.88518 1.016446,1.64046 1.676341,2.34575 0.659894,0.70528 1.361113,1.37765 1.930587,2.15776 0.569473,0.78012 1.007389,1.69036 1.052601,2.65516 0.02964,0.63254 -0.110731,1.26414 -0.333844,1.85677 -0.223112,0.59263 -0.527722,1.15075 -0.838146,1.70267 -0.620847,1.10386 -1.286275,2.24694 -1.353391,3.51163 -0.03863,0.72795 0.12695,1.4551 0.386382,2.13636 0.259431,0.68125 0.611355,1.32279 0.960517,1.96271 0.349161,0.63992 0.697975,1.28345 0.95058,1.96726 0.252605,0.68382 0.407356,1.41412 0.354171,2.14116 -0.07533,1.02979 -0.556708,1.97976 -1.024441,2.90028 -0.467733,0.92052 -0.940378,1.87704 -0.995864,2.90809 -0.05727,1.06414 0.335423,2.09478 0.715204,3.09049 0.37978,0.99571 0.759117,2.03444 0.673756,3.0967 -0.07671,0.95454 -0.530964,1.85081 -1.147429,2.58361 -0.616466,0.7328 -1.389864,1.3169 -2.186648,1.84809 -0.796784,0.53118 -1.624864,1.01679 -2.392735,1.58898 -0.767872,0.57219 -1.481447,1.24027 -1.975601,2.06054 -0.730051,1.21184 -0.930046,2.65658 -1.278129,4.02785 -0.174042,0.68563 -0.390304,1.36585 -0.728037,1.98739 -0.337733,0.62155 -0.803742,1.18519 -1.403099,1.5609 -0.566966,0.3554 -1.243043,0.53173 -1.911724,0.5067 -0.668681,-0.025 -1.327484,-0.2502 -1.876348,-0.63297 -0.668093,-0.46591 -1.158925,-1.14561 -1.554024,-1.85788 -0.395099,-0.71226 -0.706917,-1.46805 -1.097627,-2.18273 -1.19412,-2.18426 -3.13946,-3.94864 -5.42957,-4.92449"
           id="path4215"
           inkscape:path-effect="#path-effect4217"
           inkscape:original-d="m -141.04255,163.10095 c 6.9448,-3.03046 6.81853,-4.04061 11.23795,-3.91434 4.41941,0.12627 6.06091,1.6415 8.83883,2.0203 2.77792,0.37881 4.79823,0.25254 8.33376,0.25254 3.53553,0 6.9448,0.12627 7.70241,3.283 0.75762,3.15672 2.39912,7.07107 1.13643,9.34391 -1.2627,2.27284 -2.02031,3.91434 -4.04061,5.55584 -2.02031,1.6415 -3.15673,1.89403 1.64149,3.03046 4.79823,1.13642 9.470183,1.89403 11.364219,2.90418 1.894036,1.01016 4.545687,1.89404 7.197337,3.03046 2.651651,1.13642 6.313454,2.52538 4.671956,4.41942 -1.641498,1.89404 -5.303301,0.63134 -4.166879,4.92449 1.136421,4.29315 2.65165,5.80838 4.798224,9.97526 2.146574,4.16688 -2.904188,4.41942 -2.525381,7.07107 0.378807,2.65165 3.030457,4.54568 2.65165,8.20749 -0.378807,3.6618 -2.399112,3.6618 -2.020305,5.80837 0.378807,2.14658 3.788072,3.03046 1.38896,6.18719 -2.399112,3.15673 -6.565992,4.16688 -7.702413,8.08122 -1.136422,3.91434 -0.252538,7.57614 -3.409265,7.57614 -3.156727,0 -1.136422,3.66181 -3.788072,-0.12627 -2.651651,-3.78807 1.26269,-3.15672 -2.651651,-4.04061 -3.91434,-0.88388 -4.54569,-3.40926 -5.42957,-4.92449"
           inkscape:connector-curvature="0"
           transform="matrix(0.80140106,0,0,0.80167975,223.63707,343.18104)" />
        <path
           style="fill:none;fill-rule:evenodd;stroke:#23773f;stroke-width:2.65237319;stroke-linecap:round;stroke-linejoin:round;stroke-miterlimit:4;stroke-dasharray:none;stroke-opacity:0.99607843"
           d="m -90.029846,194.92076 c -0.725365,-0.76884 -1.823264,-1.16882 -2.873203,-1.04673 -1.049938,0.12208 -2.026769,0.7633 -2.556367,1.67807 -0.363863,0.6285 -0.519087,1.3686 -0.482258,2.09389 0.03683,0.7253 0.26096,1.43534 0.608527,2.07299 0.552022,1.01275 1.398331,1.83239 2.033314,2.7953 0.317491,0.48146 0.58356,1.00403 0.714835,1.5656 0.131275,0.56157 0.121293,1.16601 -0.0965,1.70002 -0.289857,0.71071 -0.909226,1.22874 -1.533225,1.67568 -0.623998,0.44693 -1.289866,0.86654 -1.749771,1.48104 -0.335941,0.44887 -0.545046,0.98253 -0.67316,1.52835 -0.128115,0.54583 -0.178467,1.10657 -0.221852,1.66555 -0.08677,1.11795 -0.162422,2.28862 -0.746486,3.24582 -0.528526,0.86618 -1.406213,1.4459 -2.210571,2.06446 -0.402179,0.30928 -0.794229,0.63676 -1.122549,1.02355 -0.32832,0.38679 -0.59232,0.83731 -0.70749,1.33141 -0.10263,0.44032 -0.0843,0.90199 -0.004,1.34695 0.0802,0.44496 0.22082,0.87647 0.36265,1.30577 0.14184,0.4293 0.2857,0.85951 0.37262,1.3032 0.0869,0.44369 0.11572,0.90415 0.0265,1.34738 -0.0887,0.44078 -0.29255,0.85356 -0.55804,1.21642 -0.2655,0.36286 -0.59177,0.67785 -0.93997,0.9623 -0.6964,0.56892 -1.48376,1.02099 -2.16379,1.60936 -1.3879,1.20083 -2.27119,2.9674 -2.39911,4.79822"
           id="path4219"
           inkscape:path-effect="#path-effect4221"
           inkscape:original-d="m -90.029846,194.92076 c -3.914341,0.75761 -4.671956,0.75761 -5.42957,0.63134 -0.757614,-0.12627 -2.525381,2.27284 0.126269,4.16688 2.651651,1.89404 4.166879,3.53553 2.651651,6.06092 -1.515229,2.52538 -1.515229,0.63134 -3.282996,3.15672 -1.767767,2.52538 -1.010153,4.04061 -1.641498,6.43972 -0.631345,2.39912 -2.90419,3.53554 -4.04061,4.41942 -1.13642,0.88389 1.894036,2.27285 0.75761,5.3033 -1.13642,3.03046 -1.89403,2.02031 -3.6618,3.78808 -1.76777,1.76776 -2.90419,3.28299 -2.39911,4.79822"
           inkscape:connector-curvature="0"
           transform="matrix(0.80140106,0,0,0.80167975,223.63707,343.18104)" />
        <path
           style="fill:none;fill-rule:evenodd;stroke:#23773f;stroke-width:2.65237319;stroke-linecap:round;stroke-linejoin:round;stroke-miterlimit:4;stroke-dasharray:none;stroke-opacity:0.99607843"
           d="m -176.65042,176.10667 c 3.69087,0.77839 7.10235,2.82348 9.5283,5.71194 0.91427,1.08857 1.70291,2.30251 2.80246,3.20355 0.54978,0.45052 1.17716,0.81778 1.86285,1.00502 0.68568,0.18723 1.43277,0.18644 2.09509,-0.0715 0.50886,-0.1982 0.95293,-0.54038 1.32352,-0.94149 0.37059,-0.40111 0.67177,-0.86105 0.94933,-1.33135 2.47355,-4.19119 3.11431,-9.16785 4.29314,-13.8896 0.99961,-4.00388 2.41818,-7.91446 3.03046,-11.99556 0.15189,-1.01238 0.26116,-2.05753 0.73063,-2.96725 0.23474,-0.45485 0.56075,-0.86908 0.9801,-1.16257 0.41935,-0.2935 0.93606,-0.46005 1.446,-0.41587 0.53253,0.0461 1.0316,0.31993 1.40105,0.70622 0.36945,0.38629 0.61566,0.87884 0.76232,1.39285 0.29331,1.02802 0.20053,2.11967 0.21746,3.18858 0.052,3.28041 1.16008,6.46206 2.59965,9.41019 1.43956,2.94812 3.21607,5.71909 4.73117,8.62911 2.77239,5.32487 4.64342,11.06145 6.70333,16.70035 4.48013,12.26416 9.89521,24.1612 15.15229,36.11295 1.54877,3.52108 3.08442,7.04831 4.54568,10.6066 0.84012,2.04575 1.64004,4.11968 2.10464,6.28187 0.46461,2.16218 0.54701,4.38604 0.54701,6.59758 l 0,2.27284"
           id="path4223"
           inkscape:path-effect="#path-effect4225"
           inkscape:original-d="m -176.65042,176.10667 c 2.95409,1.99312 7.68529,4.60099 9.5283,5.71194 4.6955,2.83043 6.21634,3.32094 6.7604,4.13704 0.75761,1.13642 0.63135,0 2.27285,-2.27284 1.64149,-2.27284 2.52538,-10.6066 4.29314,-13.8896 1.76777,-3.28299 2.02031,-9.72272 3.03046,-11.99556 1.01015,-2.27284 0.75762,-8.9651 3.15673,-4.54569 0.46849,0.86302 1.31257,2.76128 2.38083,5.28765 1.99142,4.70956 4.76193,11.60184 7.33082,18.0393 3.10988,7.79311 5.92429,14.91969 6.70333,16.70035 1.76777,4.04061 12.6269,31.18846 15.15229,36.11295 2.52538,4.9245 3.40926,5.05076 4.54568,10.6066 1.13642,5.55584 2.65165,12.12183 2.65165,12.87945 l 0,2.27284"
           inkscape:connector-curvature="0"
           transform="matrix(0.80140106,0,0,0.80167975,223.63707,343.18104)"
           sodipodi:nodetypes="cssssssssssssc" />
        <path
           style="fill:none;fill-rule:evenodd;stroke:#23773f;stroke-width:2.65237319;stroke-linecap:round;stroke-linejoin:round;stroke-miterlimit:4;stroke-dasharray:none;stroke-opacity:0.99607843"
           d="m -260.8719,189.36492 c -5.84874,6.06822 -10.58081,13.20934 -13.88959,20.96066 -1.74659,4.09164 -3.09677,8.34196 -4.29315,12.62691 -0.63145,2.26162 -1.22085,4.53499 -1.76777,6.81853"
           id="path4227"
           inkscape:path-effect="#path-effect4229"
           inkscape:original-d="m -260.8719,189.36492 c -9.09137,11.36421 -13.13198,18.68782 -13.88959,20.96066 -0.75762,2.27285 -3.53554,8.08122 -4.29315,12.62691 -0.75762,4.54569 -1.76777,6.81853 -1.76777,6.81853"
           inkscape:connector-curvature="0"
           transform="matrix(0.80140106,0,0,0.80167975,223.63707,343.18104)" />
        <path
           style="fill:none;fill-rule:evenodd;stroke:#23773f;stroke-width:2.65237319;stroke-linecap:round;stroke-linejoin:round;stroke-miterlimit:4;stroke-dasharray:none;stroke-opacity:0.99607843"
           d="m -210.86934,196.68852 c 7.57495,6.18609 12.99968,14.95608 15.15228,24.4962 1.20377,5.33502 1.41166,10.8667 2.77792,16.16244 1.25775,4.87515 3.47854,9.4743 4.54569,14.39468 0.21715,1.00121 0.38577,2.01294 0.50508,3.03045"
           id="path4231"
           inkscape:path-effect="#path-effect4233"
           inkscape:original-d="m -210.86934,196.68852 c 6.31345,9.59645 14.14213,21.97082 15.15228,24.4962 1.01016,2.52538 2.77792,13.63706 2.77792,16.16244 0,2.52538 4.29315,13.13199 4.54569,14.39468 0.25254,1.26269 0.50508,3.03045 0.50508,3.03045"
           inkscape:connector-curvature="0"
           transform="matrix(0.80140106,0,0,0.80167975,223.63707,343.18104)" />
        <path
           style="fill:none;fill-rule:evenodd;stroke:#23773f;stroke-width:2.65237319;stroke-linecap:round;stroke-linejoin:round;stroke-miterlimit:4;stroke-dasharray:none;stroke-opacity:0.99607843"
           d="m -102.78302,47.94356 c 0.48632,4.292858 2.16463,8.444479 4.798223,11.869292 1.636585,2.128274 3.625228,3.972119 5.199295,6.147039 0.787033,1.087459 1.469695,2.26049 1.913829,3.527271 0.444135,1.266782 0.643984,2.632621 0.46302,3.96275 -0.179453,1.319021 -0.726676,2.56755 -1.437999,3.692734 -0.711323,1.125184 -1.585493,2.137477 -2.47394,3.128781 -1.776893,1.982607 -3.685867,4.004402 -4.42182,6.563006 -0.405747,1.410617 -0.425468,2.913119 -0.207489,4.364654 0.21798,1.451535 0.667812,2.858831 1.188688,4.231113 1.041752,2.744565 2.385809,5.41902 2.806873,8.32429 0.505092,3.48505 -0.361258,7.02135 -1.477488,10.36122 -1.116229,3.33987 -2.495774,6.61974 -3.068198,10.09437 -0.877224,5.32476 0.231898,10.89918 2.777919,15.65736 3.00577,5.6174 7.933503,10.17166 10.101526,16.16244 1.360845,3.76035 1.526059,7.95159 0.414561,11.79303 -1.111498,3.84145 -3.502028,7.30942 -6.728015,9.67271 -2.369397,1.73577 -5.172586,2.87457 -8.081215,3.283"
           id="path4235"
           inkscape:path-effect="#path-effect4237"
           inkscape:original-d="m -102.78302,47.94356 c 0.50507,5.303301 4.545685,7.071067 4.798223,11.869292 0.252538,4.798225 7.323606,7.576144 7.576144,13.63706 0.252538,6.060915 -9.343911,5.050762 -8.333759,13.384521 1.010153,8.333758 4.293149,8.838835 3.788072,16.920057 -0.505076,8.08122 -3.535534,12.6269 -4.545686,20.45559 -1.010154,7.82868 -6.060914,7.82868 2.777919,15.65736 8.838835,7.82868 12.121831,0.25254 10.101526,16.16244 -2.020305,15.90991 -3.030458,20.20305 -6.313454,21.46574 -3.282995,1.26269 -8.081215,3.283 -8.081215,3.283"
           inkscape:connector-curvature="0"
           transform="matrix(0.80140106,0,0,0.80167975,223.63707,343.18104)" />
      </g>
    </g>
  </g>
</svg>
